<svg width="120" height="81" viewBox="0 0 120 81" fill="none" xmlns="http://www.w3.org/2000/svg">
<path d="M1.5 2.5C1.5 1.94772 1.94772 1.5 2.5 1.5V0.5C1.39543 0.5 0.5 1.39543 0.5 2.5H1.5ZM2.5 3.5C1.94772 3.5 1.5 3.05228 1.5 2.5H0.5C0.5 3.60457 1.39543 4.5 2.5 4.5V3.5ZM53.5 3.5H2.5V4.5H53.5V3.5ZM54.5 2.5C54.5 3.05228 54.0523 3.5 53.5 3.5V4.5C54.6046 4.5 55.5 3.60457 55.5 2.5H54.5ZM53.5 1.5C54.0523 1.5 54.5 1.94772 54.5 2.5H55.5C55.5 1.39543 54.6046 0.5 53.5 0.5V1.5ZM2.5 1.5H53.5V0.5H2.5V1.5ZM9.27273 31.0455C13.5655 31.0455 17.0455 27.5655 17.0455 23.2727H16.0455C16.0455 27.0132 13.0132 30.0455 9.27273 30.0455V31.0455ZM1.5 23.2727C1.5 27.5655 4.97997 31.0455 9.27273 31.0455V30.0455C5.53225 30.0455 2.5 27.0132 2.5 23.2727H1.5ZM9.27273 15.5C4.97997 15.5 1.5 18.98 1.5 23.2727H2.5C2.5 19.5323 5.53225 16.5 9.27273 16.5V15.5ZM17.0455 23.2727C17.0455 18.98 13.5655 15.5 9.27273 15.5V16.5C13.0132 16.5 16.0455 19.5323 16.0455 23.2727H17.0455ZM35.0455 23.2727C35.0455 27.0132 32.0132 30.0455 28.2727 30.0455V31.0455C32.5655 31.0455 36.0455 27.5655 36.0455 23.2727H35.0455ZM28.2727 16.5C32.0132 16.5 35.0455 19.5323 35.0455 23.2727H36.0455C36.0455 18.98 32.5655 15.5 28.2727 15.5V16.5ZM21.5 23.2727C21.5 19.5323 24.5323 16.5 28.2727 16.5V15.5C23.98 15.5 20.5 18.98 20.5 23.2727H21.5ZM28.2727 30.0455C24.5323 30.0455 21.5 27.0132 21.5 23.2727H20.5C20.5 27.5655 23.98 31.0455 28.2727 31.0455V30.0455ZM47.2727 31.0455C51.5655 31.0455 55.0455 27.5655 55.0455 23.2727H54.0455C54.0455 27.0132 51.0132 30.0455 47.2727 30.0455V31.0455ZM39.5 23.2727C39.5 27.5655 42.98 31.0455 47.2727 31.0455V30.0455C43.5323 30.0455 40.5 27.0132 40.5 23.2727H39.5ZM47.2727 15.5C42.98 15.5 39.5 18.98 39.5 23.2727H40.5C40.5 19.5323 43.5323 16.5 47.2727 16.5V15.5ZM55.0455 23.2727C55.0455 18.98 51.5655 15.5 47.2727 15.5V16.5C51.0132 16.5 54.0455 19.5323 54.0455 23.2727H55.0455Z" fill="#171717"/>
<path d="M65.5 2.5C65.5 1.94772 65.9477 1.5 66.5 1.5V0.5C65.3954 0.5 64.5 1.39543 64.5 2.5H65.5ZM66.5 3.5C65.9477 3.5 65.5 3.05228 65.5 2.5H64.5C64.5 3.60457 65.3954 4.5 66.5 4.5V3.5ZM117.5 3.5H66.5V4.5H117.5V3.5ZM118.5 2.5C118.5 3.05228 118.052 3.5 117.5 3.5V4.5C118.605 4.5 119.5 3.60457 119.5 2.5H118.5ZM117.5 1.5C118.052 1.5 118.5 1.94772 118.5 2.5H119.5C119.5 1.39543 118.605 0.5 117.5 0.5V1.5ZM66.5 1.5H117.5V0.5H66.5V1.5ZM73.2727 31.0455C77.5655 31.0455 81.0455 27.5655 81.0455 23.2727H80.0455C80.0455 27.0132 77.0132 30.0455 73.2727 30.0455V31.0455ZM65.5 23.2727C65.5 27.5655 68.98 31.0455 73.2727 31.0455V30.0455C69.5323 30.0455 66.5 27.0132 66.5 23.2727H65.5ZM73.2727 15.5C68.98 15.5 65.5 18.98 65.5 23.2727H66.5C66.5 19.5323 69.5323 16.5 73.2727 16.5V15.5ZM81.0455 23.2727C81.0455 18.98 77.5655 15.5 73.2727 15.5V16.5C77.0132 16.5 80.0455 19.5323 80.0455 23.2727H81.0455ZM99.0455 23.2727C99.0455 27.0132 96.0132 30.0455 92.2727 30.0455V31.0455C96.5655 31.0455 100.045 27.5655 100.045 23.2727H99.0455ZM92.2727 16.5C96.0132 16.5 99.0455 19.5323 99.0455 23.2727H100.045C100.045 18.98 96.5655 15.5 92.2727 15.5V16.5ZM85.5 23.2727C85.5 19.5323 88.5323 16.5 92.2727 16.5V15.5C87.98 15.5 84.5 18.98 84.5 23.2727H85.5ZM92.2727 30.0455C88.5323 30.0455 85.5 27.0132 85.5 23.2727H84.5C84.5 27.5655 87.98 31.0455 92.2727 31.0455V30.0455ZM111.273 31.0455C115.565 31.0455 119.045 27.5655 119.045 23.2727H118.045C118.045 27.0132 115.013 30.0455 111.273 30.0455V31.0455ZM103.5 23.2727C103.5 27.5655 106.98 31.0455 111.273 31.0455V30.0455C107.532 30.0455 104.5 27.0132 104.5 23.2727H103.5ZM111.273 15.5C106.98 15.5 103.5 18.98 103.5 23.2727H104.5C104.5 19.5323 107.532 16.5 111.273 16.5V15.5ZM119.045 23.2727C119.045 18.98 115.565 15.5 111.273 15.5V16.5C115.013 16.5 118.045 19.5323 118.045 23.2727H119.045Z" fill="#171717"/>
<path d="M1.5 51.5C1.5 50.9477 1.94772 50.5 2.5 50.5V49.5C1.39543 49.5 0.5 50.3954 0.5 51.5H1.5ZM2.5 52.5C1.94772 52.5 1.5 52.0523 1.5 51.5H0.5C0.5 52.6046 1.39543 53.5 2.5 53.5V52.5ZM53.5 52.5H2.5V53.5H53.5V52.5ZM54.5 51.5C54.5 52.0523 54.0523 52.5 53.5 52.5V53.5C54.6046 53.5 55.5 52.6046 55.5 51.5H54.5ZM53.5 50.5C54.0523 50.5 54.5 50.9477 54.5 51.5H55.5C55.5 50.3954 54.6046 49.5 53.5 49.5V50.5ZM2.5 50.5H53.5V49.5H2.5V50.5ZM9.27273 80.0455C13.5655 80.0455 17.0455 76.5655 17.0455 72.2727H16.0455C16.0455 76.0132 13.0132 79.0455 9.27273 79.0455V80.0455ZM1.5 72.2727C1.5 76.5655 4.97997 80.0455 9.27273 80.0455V79.0455C5.53225 79.0455 2.5 76.0132 2.5 72.2727H1.5ZM9.27273 64.5C4.97997 64.5 1.5 67.98 1.5 72.2727H2.5C2.5 68.5323 5.53225 65.5 9.27273 65.5V64.5ZM17.0455 72.2727C17.0455 67.98 13.5655 64.5 9.27273 64.5V65.5C13.0132 65.5 16.0455 68.5323 16.0455 72.2727H17.0455ZM35.0455 72.2727C35.0455 76.0132 32.0132 79.0455 28.2727 79.0455V80.0455C32.5655 80.0455 36.0455 76.5655 36.0455 72.2727H35.0455ZM28.2727 65.5C32.0132 65.5 35.0455 68.5323 35.0455 72.2727H36.0455C36.0455 67.98 32.5655 64.5 28.2727 64.5V65.5ZM21.5 72.2727C21.5 68.5323 24.5323 65.5 28.2727 65.5V64.5C23.98 64.5 20.5 67.98 20.5 72.2727H21.5ZM28.2727 79.0455C24.5323 79.0455 21.5 76.0132 21.5 72.2727H20.5C20.5 76.5655 23.98 80.0455 28.2727 80.0455V79.0455ZM47.2727 80.0455C51.5655 80.0455 55.0455 76.5655 55.0455 72.2727H54.0455C54.0455 76.0132 51.0132 79.0455 47.2727 79.0455V80.0455ZM39.5 72.2727C39.5 76.5655 42.98 80.0455 47.2727 80.0455V79.0455C43.5323 79.0455 40.5 76.0132 40.5 72.2727H39.5ZM47.2727 64.5C42.98 64.5 39.5 67.98 39.5 72.2727H40.5C40.5 68.5323 43.5323 65.5 47.2727 65.5V64.5ZM55.0455 72.2727C55.0455 67.98 51.5655 64.5 47.2727 64.5V65.5C51.0132 65.5 54.0455 68.5323 54.0455 72.2727H55.0455Z" fill="#171717"/>
<path d="M65.5 51.5C65.5 50.9477 65.9477 50.5 66.5 50.5V49.5C65.3954 49.5 64.5 50.3954 64.5 51.5H65.5ZM66.5 52.5C65.9477 52.5 65.5 52.0523 65.5 51.5H64.5C64.5 52.6046 65.3954 53.5 66.5 53.5V52.5ZM117.5 52.5H66.5V53.5H117.5V52.5ZM118.5 51.5C118.5 52.0523 118.052 52.5 117.5 52.5V53.5C118.605 53.5 119.5 52.6046 119.5 51.5H118.5ZM117.5 50.5C118.052 50.5 118.5 50.9477 118.5 51.5H119.5C119.5 50.3954 118.605 49.5 117.5 49.5V50.5ZM66.5 50.5H117.5V49.5H66.5V50.5ZM73.2727 80.0455C77.5655 80.0455 81.0455 76.5655 81.0455 72.2727H80.0455C80.0455 76.0132 77.0132 79.0455 73.2727 79.0455V80.0455ZM65.5 72.2727C65.5 76.5655 68.98 80.0455 73.2727 80.0455V79.0455C69.5323 79.0455 66.5 76.0132 66.5 72.2727H65.5ZM73.2727 64.5C68.98 64.5 65.5 67.98 65.5 72.2727H66.5C66.5 68.5323 69.5323 65.5 73.2727 65.5V64.5ZM81.0455 72.2727C81.0455 67.98 77.5655 64.5 73.2727 64.5V65.5C77.0132 65.5 80.0455 68.5323 80.0455 72.2727H81.0455ZM99.0455 72.2727C99.0455 76.0132 96.0132 79.0455 92.2727 79.0455V80.0455C96.5655 80.0455 100.045 76.5655 100.045 72.2727H99.0455ZM92.2727 65.5C96.0132 65.5 99.0455 68.5323 99.0455 72.2727H100.045C100.045 67.98 96.5655 64.5 92.2727 64.5V65.5ZM85.5 72.2727C85.5 68.5323 88.5323 65.5 92.2727 65.5V64.5C87.98 64.5 84.5 67.98 84.5 72.2727H85.5ZM92.2727 79.0455C88.5323 79.0455 85.5 76.0132 85.5 72.2727H84.5C84.5 76.5655 87.98 80.0455 92.2727 80.0455V79.0455ZM111.273 80.0455C115.565 80.0455 119.045 76.5655 119.045 72.2727H118.045C118.045 76.0132 115.013 79.0455 111.273 79.0455V80.0455ZM103.5 72.2727C103.5 76.5655 106.98 80.0455 111.273 80.0455V79.0455C107.532 79.0455 104.5 76.0132 104.5 72.2727H103.5ZM111.273 64.5C106.98 64.5 103.5 67.98 103.5 72.2727H104.5C104.5 68.5323 107.532 65.5 111.273 65.5V64.5ZM119.045 72.2727C119.045 67.98 115.565 64.5 111.273 64.5V65.5C115.013 65.5 118.045 68.5323 118.045 72.2727H119.045Z" fill="#171717"/>
</svg>
