<svg width="83" height="83" viewBox="0 0 83 83" fill="none" xmlns="http://www.w3.org/2000/svg">
<path fill-rule="evenodd" clip-rule="evenodd" d="M41.5 58C50.6127 58 58 50.6127 58 41.5C58 32.3873 50.6127 25 41.5 25C32.3873 25 25 32.3873 25 41.5C25 50.6127 32.3873 58 41.5 58Z" stroke="#171717"/>
<path fill-rule="evenodd" clip-rule="evenodd" d="M41.5 16C45.6421 16 49 12.6421 49 8.5C49 4.35786 45.6421 1 41.5 1C37.3579 1 34 4.35786 34 8.5C34 12.6421 37.3579 16 41.5 16Z" stroke="#171717"/>
<path fill-rule="evenodd" clip-rule="evenodd" d="M41.5 82C45.6421 82 49 78.6421 49 74.5C49 70.3579 45.6421 67 41.5 67C37.3579 67 34 70.3579 34 74.5C34 78.6421 37.3579 82 41.5 82Z" stroke="#171717"/>
<path fill-rule="evenodd" clip-rule="evenodd" d="M8.5 49C12.6421 49 16 45.6421 16 41.5C16 37.3579 12.6421 34 8.5 34C4.35786 34 1 37.3579 1 41.5C1 45.6421 4.35786 49 8.5 49Z" stroke="#171717"/>
<path fill-rule="evenodd" clip-rule="evenodd" d="M74.5 49C78.6421 49 82 45.6421 82 41.5C82 37.3579 78.6421 34 74.5 34C70.3579 34 67 37.3579 67 41.5C67 45.6421 70.3579 49 74.5 49Z" stroke="#171717"/>
</svg>
