<svg width="138" height="82" viewBox="0 0 138 82" fill="none" xmlns="http://www.w3.org/2000/svg">
<path d="M31 1H107V39C107 45.6274 101.627 51 95 51H43C36.3726 51 31 45.6274 31 39V1Z" stroke="#171717"/>
<path fill-rule="evenodd" clip-rule="evenodd" d="M69.5 81C73.6421 81 77 77.6421 77 73.5C77 69.3579 73.6421 66 69.5 66C65.3579 66 62 69.3579 62 73.5C62 77.6421 65.3579 81 69.5 81Z" stroke="#171717"/>
<path fill-rule="evenodd" clip-rule="evenodd" d="M88.5 81C92.6421 81 96 77.6421 96 73.5C96 69.3579 92.6421 66 88.5 66C84.3579 66 81 69.3579 81 73.5C81 77.6421 84.3579 81 88.5 81Z" stroke="#171717"/>
<path fill-rule="evenodd" clip-rule="evenodd" d="M107.5 81C111.642 81 115 77.6421 115 73.5C115 69.3579 111.642 66 107.5 66C103.358 66 100 69.3579 100 73.5C100 77.6421 103.358 81 107.5 81Z" stroke="#171717"/>
<path fill-rule="evenodd" clip-rule="evenodd" d="M50.5 81C54.6421 81 58 77.6421 58 73.5C58 69.3579 54.6421 66 50.5 66C46.3579 66 43 69.3579 43 73.5C43 77.6421 46.3579 81 50.5 81Z" stroke="#171717"/>
<path fill-rule="evenodd" clip-rule="evenodd" d="M31.5 81C35.6421 81 39 77.6421 39 73.5C39 69.3579 35.6421 66 31.5 66C27.3579 66 24 69.3579 24 73.5C24 77.6421 27.3579 81 31.5 81Z" stroke="#171717"/>
<path fill-rule="evenodd" clip-rule="evenodd" d="M8.5 36C12.6421 36 16 32.6421 16 28.5C16 24.3579 12.6421 21 8.5 21C4.35786 21 1 24.3579 1 28.5C1 32.6421 4.35786 36 8.5 36Z" stroke="#171717"/>
<path fill-rule="evenodd" clip-rule="evenodd" d="M129.5 36C133.642 36 137 32.6421 137 28.5C137 24.3579 133.642 21 129.5 21C125.358 21 122 24.3579 122 28.5C122 32.6421 125.358 36 129.5 36Z" stroke="#171717"/>
<path fill-rule="evenodd" clip-rule="evenodd" d="M8.5 55C12.6421 55 16 51.6421 16 47.5C16 43.3579 12.6421 40 8.5 40C4.35786 40 1 43.3579 1 47.5C1 51.6421 4.35786 55 8.5 55Z" stroke="#171717"/>
<path fill-rule="evenodd" clip-rule="evenodd" d="M129.5 55C133.642 55 137 51.6421 137 47.5C137 43.3579 133.642 40 129.5 40C125.358 40 122 43.3579 122 47.5C122 51.6421 125.358 55 129.5 55Z" stroke="#171717"/>
<path fill-rule="evenodd" clip-rule="evenodd" d="M8.5 17C12.6421 17 16 13.6421 16 9.5C16 5.35786 12.6421 2 8.5 2C4.35786 2 1 5.35786 1 9.5C1 13.6421 4.35786 17 8.5 17Z" stroke="#171717"/>
<path fill-rule="evenodd" clip-rule="evenodd" d="M129.5 17C133.642 17 137 13.6421 137 9.5C137 5.35786 133.642 2 129.5 2C125.358 2 122 5.35786 122 9.5C122 13.6421 125.358 17 129.5 17Z" stroke="#171717"/>
</svg>
