<svg viewBox="0 0 79 79" fill="none" xmlns="http://www.w3.org/2000/svg">
<path fill-rule="evenodd" clip-rule="evenodd" d="M39.5 78C18.237 78 1 60.763 1 39.5C1 18.237 18.237 1 39.5 1C60.763 1 78 18.237 78 39.5C78 60.763 60.763 78 39.5 78Z" stroke="white" stroke-width="0.5" fill="none"/>
<path fill-rule="evenodd" clip-rule="evenodd" d="M41.1111 46.7179C41.2127 46.8205 41.3397 46.8718 41.4794 46.8718C41.619 46.8718 41.746 46.8205 41.8476 46.7179C42.0508 46.5128 42.0508 46.1795 41.8476 45.9744L35.3714 39.4359L41.8476 32.8974C42.0508 32.6923 42.0508 32.359 41.8476 32.1538C41.6444 31.9487 41.3143 31.9487 41.1111 32.1538L34.2667 39.0641C34.0635 39.2692 34.0635 39.6026 34.2667 39.8077L41.1111 46.7179Z" fill="white" stroke="none"/>
</svg>
