<svg viewBox="0 0 15 15" fill="none" xmlns="http://www.w3.org/2000/svg">
<path fill-rule="evenodd" clip-rule="evenodd" d="M7.5 14C11.0899 14 14 11.0899 14 7.5C14 3.91015 11.0899 1 7.5 1C3.91015 1 1 3.91015 1 7.5C1 11.0899 3.91015 14 7.5 14Z" stroke="currentColor" stroke-width="0.5"/>
<path fill-rule="evenodd" clip-rule="evenodd" d="M8.66184 9.94828C8.70048 9.98276 8.74879 10 8.80193 10C8.85507 10 8.90338 9.98276 8.94203 9.94828C9.01932 9.87931 9.01932 9.76724 8.94203 9.69828L6.47826 7.5L8.94203 5.30172C9.01932 5.23276 9.01932 5.12069 8.94203 5.05172C8.86473 4.98276 8.73913 4.98276 8.66184 5.05172L6.05797 7.375C5.98068 7.44397 5.98068 7.55603 6.05797 7.625L8.66184 9.94828V9.94828Z" fill="currentColor"/>
</svg>
