<svg width="226" height="18" viewBox="0 0 226 18" fill="none" xmlns="http://www.w3.org/2000/svg">
<path d="M1.55999 11.0479C1.82132 11.3999 2.10666 11.6479 2.41599 11.7919C2.73066 11.9359 3.07466 12.0079 3.44799 12.0079C4.21066 12.0079 4.79466 11.7386 5.19999 11.1999C5.60532 10.6613 5.80799 9.85859 5.80799 8.79192C5.80799 7.79992 5.62666 7.07192 5.26399 6.60792C4.90666 6.13859 4.39466 5.90392 3.72799 5.90392C3.26399 5.90392 2.85866 6.01059 2.51199 6.22392C2.17066 6.43726 1.85332 6.73859 1.55999 7.12792V11.0479ZM1.55999 6.06392C1.90132 5.66926 2.28532 5.35459 2.71199 5.11992C3.14399 4.88526 3.63999 4.76792 4.19999 4.76792C4.67466 4.76792 5.10132 4.85859 5.47999 5.03992C5.86399 5.22126 6.18932 5.48526 6.45599 5.83192C6.72266 6.17326 6.92532 6.58926 7.06399 7.07992C7.20799 7.57059 7.27999 8.12259 7.27999 8.73592C7.27999 9.39192 7.19999 9.98926 7.03999 10.5279C6.87999 11.0666 6.64799 11.5279 6.34399 11.9119C6.04532 12.2906 5.67999 12.5866 5.24799 12.7999C4.81599 13.0079 4.33066 13.1119 3.79199 13.1119C3.25866 13.1119 2.80799 13.0133 2.43999 12.8159C2.07732 12.6133 1.75999 12.3279 1.48799 11.9599L1.41599 12.6959C1.37332 12.8986 1.25066 12.9999 1.04799 12.9999H0.127991V1.21592H1.55999V6.06392Z" fill="#696A68"/>
<path d="M16.0154 4.89592L11.4954 15.3919C11.4474 15.4986 11.3861 15.5839 11.3114 15.6479C11.2421 15.7119 11.1328 15.7439 10.9834 15.7439H9.92744L11.4074 12.5279L8.06345 4.89592H9.29544C9.41811 4.89592 9.51411 4.92792 9.58344 4.99192C9.65811 5.05059 9.70878 5.11726 9.73545 5.19192L11.9034 10.2959C11.9888 10.5199 12.0608 10.7546 12.1194 10.9999C12.1941 10.7493 12.2741 10.5119 12.3594 10.2879L14.4634 5.19192C14.4954 5.10659 14.5488 5.03726 14.6234 4.98392C14.7034 4.92526 14.7914 4.89592 14.8874 4.89592H16.0154Z" fill="#696A68"/>
<path d="M26.8315 13.2559C25.7648 13.2559 24.8208 13.0319 23.9995 12.5839C23.1781 12.1253 22.5381 11.4746 22.0795 10.6319C21.6208 9.78926 21.3915 8.79192 21.3915 7.63992C21.3915 6.59459 21.5995 5.60792 22.0155 4.67992C22.4421 3.75192 23.0768 2.99992 23.9195 2.42392C24.7621 1.83726 25.7755 1.54392 26.9595 1.54392C27.5355 1.54392 28.1168 1.62392 28.7035 1.78392C29.3008 1.93326 29.8235 2.14659 30.2715 2.42392L30.2075 1.65592H31.0875V5.31992H30.5115C30.4368 4.33859 30.0795 3.57059 29.4395 3.01592C28.8101 2.46126 28.0208 2.18392 27.0715 2.18392C26.3141 2.18392 25.6208 2.40259 24.9915 2.83992C24.3728 3.27726 23.8768 3.88526 23.5035 4.66392C23.1408 5.43192 22.9595 6.30126 22.9595 7.27192C22.9595 8.27459 23.1408 9.17059 23.5035 9.95992C23.8661 10.7493 24.3728 11.3679 25.0235 11.8159C25.6741 12.2639 26.4155 12.4879 27.2475 12.4879C27.7061 12.4879 28.1755 12.4239 28.6555 12.2959C29.1461 12.1573 29.5888 11.9546 29.9835 11.6879V8.18392L28.8635 8.24792V7.54392H32.4795V8.07192C31.9675 8.07192 31.6475 8.26926 31.5195 8.66392C31.3915 9.04792 31.3275 9.48526 31.3275 9.97592V12.4239H30.8955C30.4475 12.4239 29.8715 12.5626 29.1675 12.8399C28.8475 12.9679 28.4688 13.0693 28.0315 13.1439C27.5941 13.2186 27.1941 13.2559 26.8315 13.2559Z" fill="#696A68"/>
<path d="M35.2448 3.25592C35.0208 3.25592 34.8235 3.16526 34.6528 2.98392C34.4821 2.79192 34.3968 2.56792 34.3968 2.31192C34.3968 2.05592 34.4821 1.83192 34.6528 1.63992C34.8341 1.44792 35.0368 1.35192 35.2608 1.35192C35.5061 1.35192 35.7088 1.44792 35.8688 1.63992C36.0395 1.82126 36.1248 2.04526 36.1248 2.31192C36.1248 2.56792 36.0341 2.79192 35.8528 2.98392C35.6821 3.16526 35.4795 3.25592 35.2448 3.25592ZM33.6608 12.5199C33.9701 12.5199 34.1888 12.4453 34.3168 12.2959C34.4555 12.1359 34.5355 11.9386 34.5568 11.7039C34.5888 11.4586 34.6048 11.0799 34.6048 10.5679V6.91992C34.6048 6.61059 34.6261 6.26392 34.6688 5.87992L33.5328 5.94392V5.27192C34.1621 5.27192 34.6101 5.23459 34.8768 5.15992C35.1541 5.08526 35.3675 4.97859 35.5168 4.83992H35.9808V11.3039C35.9808 11.7839 35.9595 12.1466 35.9168 12.3919L36.9248 12.3439V12.9999H33.6608V12.5199Z" fill="#696A68"/>
<path d="M38.3063 12.5199C38.6156 12.5199 38.8343 12.4453 38.9623 12.2959C39.1009 12.1359 39.1809 11.9439 39.2023 11.7199C39.2236 11.4853 39.2396 11.1013 39.2503 10.5679L39.2663 6.91992C39.2663 6.47192 39.2876 6.12526 39.3303 5.87992L38.1943 5.94392V5.27192C38.8236 5.27192 39.2556 5.23992 39.4903 5.17592C39.7249 5.10126 39.9223 4.98926 40.0823 4.83992H40.5463C40.5676 5.04259 40.5889 5.36792 40.6103 5.81592C40.9729 5.49592 41.3836 5.23992 41.8423 5.04792C42.3116 4.84526 42.7703 4.74392 43.2183 4.74392C44.1463 4.74392 44.8236 5.03726 45.2503 5.62392C45.6769 6.19992 45.8903 7.10126 45.8903 8.32792V11.3039C45.8903 11.7839 45.8689 12.1466 45.8263 12.3919L46.8343 12.3439V12.9999H43.5703V12.5199C43.8796 12.5199 44.0983 12.4453 44.2263 12.2959C44.3649 12.1359 44.4449 11.9386 44.4663 11.7039C44.4983 11.4586 44.5143 11.0799 44.5143 10.5679V8.32792C44.5036 7.41059 44.3543 6.72259 44.0663 6.26392C43.7783 5.79459 43.3249 5.55992 42.7063 5.55992C42.3223 5.55992 41.9383 5.65592 41.5543 5.84792C41.1809 6.03992 40.8716 6.29059 40.6263 6.59992C40.6369 6.71726 40.6423 6.92526 40.6423 7.22392L40.6263 11.3039C40.6263 11.7839 40.6049 12.1466 40.5623 12.3919L41.5703 12.3439V12.9999H38.3063V12.5199Z" fill="#696A68"/>
<path d="M48.1065 12.3439L52.5705 6.59992C52.7411 6.37592 52.9118 6.16259 53.0825 5.95992C53.2531 5.74659 53.3865 5.61326 53.4825 5.55992L50.4745 5.60792C49.9305 5.61859 49.5465 5.81592 49.3225 6.19992C49.1091 6.57326 48.9491 7.12792 48.8425 7.86392H48.3465L48.5385 4.99992H54.8105V5.51192L50.2985 11.4479C50.1705 11.6079 50.0425 11.7626 49.9145 11.9119C49.7971 12.0506 49.6478 12.1946 49.4665 12.3439L52.5545 12.3919C53.1625 12.4026 53.6051 12.2053 53.8825 11.7999C54.1705 11.3946 54.3678 10.8239 54.4745 10.0879H54.9385L54.7465 12.9999H48.1065V12.3439Z" fill="#696A68"/>
<path d="M58.7278 13.2559C57.9491 13.2559 57.3518 13.0799 56.9358 12.7279C56.5305 12.3759 56.3278 11.9173 56.3278 11.3519C56.3278 10.7333 56.5731 10.2106 57.0638 9.78392C57.5651 9.35726 58.1891 9.04259 58.9358 8.83992C59.6931 8.62659 60.4505 8.52526 61.2078 8.53592V7.54392C61.2078 6.85059 61.1065 6.31192 60.9038 5.92792C60.7011 5.53326 60.2691 5.33592 59.6078 5.33592C59.2771 5.33592 58.9625 5.40526 58.6638 5.54392C58.3651 5.68259 58.1465 5.89059 58.0078 6.16792C58.1465 6.31726 58.2158 6.51992 58.2158 6.77592C58.2158 6.93592 58.1571 7.09059 58.0398 7.23992C57.9225 7.37859 57.7518 7.44792 57.5278 7.44792C57.3038 7.44792 57.1278 7.37859 56.9998 7.23992C56.8718 7.09059 56.8078 6.89859 56.8078 6.66392C56.8078 6.31192 56.9411 5.99192 57.2078 5.70392C57.4851 5.40526 57.8638 5.17059 58.3438 4.99992C58.8345 4.82926 59.3785 4.74392 59.9758 4.74392C60.8718 4.74392 61.5331 4.98392 61.9598 5.46392C62.3865 5.93326 62.5945 6.67992 62.5838 7.70392L62.5678 11.3039C62.5678 11.6453 62.5465 12.0079 62.5038 12.3919L63.6398 12.3279V12.9999H61.3518C61.3198 12.8399 61.2825 12.5359 61.2398 12.0879C60.4611 12.8666 59.6238 13.2559 58.7278 13.2559ZM59.0958 12.3439C59.5011 12.3439 59.8691 12.2693 60.1998 12.1199C60.5305 11.9599 60.8665 11.7199 61.2078 11.3999C61.1971 11.2399 61.1918 10.9679 61.1918 10.5839L61.2078 9.07992C60.3331 9.11192 59.5545 9.29326 58.8718 9.62392C58.1891 9.94392 57.8478 10.4399 57.8478 11.1119C57.8478 11.5066 57.9651 11.8106 58.1998 12.0239C58.4345 12.2373 58.7331 12.3439 59.0958 12.3439Z" fill="#696A68"/>
<path d="M69.4078 12.4719C69.7812 12.4613 70.0478 12.3759 70.2078 12.2159C70.3678 12.0559 70.4585 11.8693 70.4798 11.6559C70.5012 11.4319 70.5118 11.0479 70.5118 10.5039V3.59192C70.5118 3.14392 70.5278 2.75992 70.5598 2.43992L69.4078 2.50392V1.79992H73.0078V2.32792C72.6345 2.33859 72.3678 2.42392 72.2078 2.58392C72.0478 2.74392 71.9572 2.93592 71.9358 3.15992C71.9145 3.37326 71.9038 3.75192 71.9038 4.29592V6.95192H77.6318V3.59192C77.6318 3.14392 77.6478 2.75992 77.6798 2.43992L76.5278 2.50392V1.79992H80.1278V2.32792C79.7545 2.33859 79.4878 2.42392 79.3278 2.58392C79.1678 2.74392 79.0772 2.93592 79.0558 3.15992C79.0345 3.37326 79.0238 3.75192 79.0238 4.29592V11.0959C79.0238 11.6613 79.0078 12.0826 78.9758 12.3599L80.1278 12.2959V12.9999H76.5278V12.4719C76.9012 12.4613 77.1678 12.3759 77.3278 12.2159C77.4878 12.0559 77.5785 11.8693 77.5998 11.6559C77.6212 11.4319 77.6318 11.0479 77.6318 10.5039V7.59192L71.9038 7.65592V11.0959C71.9038 11.6613 71.8878 12.0826 71.8558 12.3599L73.0078 12.2959V12.9999H69.4078V12.4719Z" fill="#696A68"/>
<path d="M85.4703 13.2559C84.7343 13.2559 84.057 13.0853 83.4383 12.7439C82.8303 12.3919 82.3449 11.9066 81.9823 11.2879C81.6303 10.6693 81.4543 9.97059 81.4543 9.19192C81.4543 8.35992 81.6303 7.60792 81.9823 6.93592C82.3343 6.25326 82.8143 5.71992 83.4223 5.33592C84.041 4.94126 84.7236 4.74392 85.4703 4.74392C86.2063 4.74392 86.8836 4.92526 87.5023 5.28792C88.121 5.63992 88.6063 6.12526 88.9583 6.74392C89.321 7.36259 89.5023 8.05059 89.5023 8.80792C89.5023 9.61859 89.321 10.3653 88.9583 11.0479C88.6063 11.7306 88.121 12.2693 87.5023 12.6639C86.8943 13.0586 86.2169 13.2559 85.4703 13.2559ZM85.5983 12.6159C86.377 12.6159 86.9476 12.2959 87.3103 11.6559C87.6836 11.0159 87.8703 10.2213 87.8703 9.27192C87.8703 8.19459 87.6676 7.27192 87.2623 6.50392C86.8676 5.73592 86.2703 5.35192 85.4703 5.35192C84.6809 5.35192 84.0836 5.67726 83.6783 6.32792C83.2836 6.97859 83.0863 7.77859 83.0863 8.72792C83.0863 9.41059 83.1769 10.0506 83.3583 10.6479C83.5503 11.2346 83.8329 11.7093 84.2063 12.0719C84.5903 12.4346 85.0543 12.6159 85.5983 12.6159Z" fill="#696A68"/>
<path d="M94.0151 13.2559C92.5538 13.2559 91.8285 12.2746 91.8391 10.3119L91.8711 5.67192L90.6391 5.68792V4.99992C91.1511 4.98926 91.5831 4.75992 91.9351 4.31192C92.2978 3.85326 92.5644 3.33592 92.7351 2.75992H93.2791V4.99992H95.9671V5.62392L93.2791 5.65592C93.2684 7.28792 93.2578 8.41859 93.2471 9.04792C93.2471 9.67726 93.2471 10.0293 93.2471 10.1039C93.2471 10.8613 93.3378 11.4266 93.5191 11.7999C93.7005 12.1626 94.0151 12.3439 94.4631 12.3439C94.7405 12.3439 95.0124 12.2586 95.2791 12.0879C95.5564 11.9173 95.7964 11.6826 95.9991 11.3839L96.4311 11.7359C96.0151 12.3546 95.6045 12.7653 95.1991 12.9679C94.7938 13.1599 94.3991 13.2559 94.0151 13.2559Z" fill="#696A68"/>
<path d="M101.212 13.2559C100.476 13.2559 99.8094 13.0853 99.2121 12.7439C98.6254 12.3919 98.1614 11.8959 97.8201 11.2559C97.4787 10.6053 97.3081 9.85859 97.3081 9.01592C97.3081 8.26926 97.4787 7.57059 97.8201 6.91992C98.1614 6.25859 98.6361 5.73059 99.2441 5.33592C99.8627 4.94126 100.561 4.74392 101.34 4.74392C101.948 4.74392 102.497 4.87726 102.988 5.14392C103.479 5.41059 103.868 5.81059 104.156 6.34392C104.444 6.86659 104.588 7.51192 104.588 8.27992L98.9561 8.37592C98.9454 9.65592 99.1534 10.6533 99.5801 11.3679C100.017 12.0826 100.689 12.4399 101.596 12.4399C102.087 12.4399 102.588 12.3119 103.1 12.0559C103.623 11.7999 104.023 11.4853 104.3 11.1119L104.684 11.4319C104.279 12.0506 103.751 12.5093 103.1 12.8079C102.46 13.1066 101.831 13.2559 101.212 13.2559ZM103.084 7.70392C103.084 7.06392 102.94 6.51459 102.652 6.05592C102.364 5.59726 101.932 5.36792 101.356 5.36792C100.033 5.36792 99.2494 6.14659 99.0041 7.70392H103.084Z" fill="#696A68"/>
<path d="M105.997 12.5199C106.307 12.5199 106.525 12.4453 106.653 12.2959C106.792 12.1359 106.872 11.9386 106.893 11.7039C106.925 11.4586 106.941 11.0799 106.941 10.5679V2.99992C106.941 2.59459 106.957 2.24792 106.989 1.95992L105.853 2.02392V1.35192C106.493 1.35192 106.947 1.31459 107.213 1.23992C107.491 1.16526 107.704 1.05859 107.853 0.919922H108.317L108.333 11.3039C108.333 11.7199 108.307 12.0826 108.253 12.3919L109.261 12.3439V12.9999H105.997V12.5199Z" fill="#696A68"/>
<path d="M113.942 13.2559C113.441 13.2559 112.982 13.1866 112.566 13.0479C112.15 12.9199 111.793 12.7546 111.494 12.5519L111.558 13.1119H110.886L110.79 10.3599H111.286C111.308 10.7973 111.425 11.1866 111.638 11.5279C111.862 11.8693 112.15 12.1413 112.502 12.3439C112.865 12.5359 113.249 12.6319 113.654 12.6319C114.113 12.6319 114.518 12.5253 114.87 12.3119C115.233 12.0879 115.414 11.7733 115.414 11.3679C115.414 11.0693 115.324 10.8186 115.142 10.6159C114.972 10.4133 114.753 10.2479 114.486 10.1199C114.23 9.98126 113.868 9.82126 113.398 9.63992C112.833 9.42659 112.38 9.22926 112.038 9.04792C111.697 8.85592 111.404 8.59992 111.158 8.27992C110.913 7.95992 110.79 7.55459 110.79 7.06392C110.79 6.71192 110.876 6.35992 111.046 6.00792C111.217 5.65592 111.505 5.35726 111.91 5.11192C112.316 4.86659 112.854 4.74392 113.526 4.74392C113.857 4.74392 114.193 4.79726 114.534 4.90392C114.886 5.01059 115.212 5.18659 115.51 5.43192L115.478 4.82392H116.15V7.62392H115.638C115.606 7.00526 115.414 6.47192 115.062 6.02392C114.721 5.56526 114.236 5.33592 113.606 5.33592C113.126 5.33592 112.742 5.45859 112.454 5.70392C112.177 5.93859 112.038 6.22126 112.038 6.55192C112.038 6.86126 112.129 7.12259 112.31 7.33592C112.502 7.54926 112.737 7.73059 113.014 7.87992C113.292 8.02926 113.665 8.19459 114.134 8.37592C114.689 8.59992 115.137 8.80792 115.478 8.99992C115.82 9.19192 116.108 9.44792 116.342 9.76792C116.588 10.0773 116.71 10.4559 116.71 10.9039C116.71 11.4159 116.577 11.8479 116.31 12.1999C116.054 12.5519 115.713 12.8186 115.286 12.9999C114.87 13.1706 114.422 13.2559 113.942 13.2559Z" fill="#696A68"/>
<path d="M126.195 13.2559C125.533 13.2559 124.915 13.1493 124.339 12.9359C123.773 12.7119 123.315 12.3653 122.963 11.8959C122.611 11.4266 122.435 10.8346 122.435 10.1199C122.435 9.44792 122.653 8.84526 123.091 8.31192C123.539 7.76792 124.157 7.32526 124.947 6.98392C124.52 6.43992 124.211 5.94392 124.019 5.49592C123.827 5.03726 123.731 4.55726 123.731 4.05592C123.741 3.29859 124.019 2.69059 124.563 2.23192C125.117 1.77326 125.827 1.54392 126.691 1.54392C127.213 1.54392 127.677 1.64526 128.083 1.84792C128.488 2.03992 128.803 2.30659 129.027 2.64792C129.251 2.98926 129.363 3.36792 129.363 3.78392C129.363 4.40259 129.155 4.97326 128.739 5.49592C128.333 6.00792 127.667 6.49859 126.739 6.96792C126.995 7.24526 127.421 7.69326 128.019 8.31192C128.477 8.79192 129.037 9.34126 129.699 9.95992C129.805 9.59726 129.859 9.25592 129.859 8.93592C129.859 8.50926 129.763 8.14126 129.571 7.83192C129.389 7.52259 129.08 7.35726 128.643 7.33592V6.80792H131.443V7.46392L130.115 7.39992C130.445 7.68792 130.611 8.16792 130.611 8.83992C130.611 9.37326 130.504 9.92259 130.291 10.4879L130.611 10.7759C130.76 10.9146 130.92 11.0586 131.09 11.2079C131.549 11.6239 131.954 11.9386 132.307 12.1519C132.659 12.3653 132.925 12.4719 133.107 12.4719V12.9999H131.618C131.501 12.9999 131.267 12.8879 130.915 12.6639C130.562 12.4399 130.136 12.1093 129.635 11.6719C128.813 12.7279 127.667 13.2559 126.195 13.2559ZM126.387 6.58392C126.963 6.19992 127.4 5.76792 127.699 5.28792C127.997 4.80792 128.146 4.32259 128.146 3.83192C128.146 3.30926 128.008 2.88259 127.731 2.55192C127.464 2.22126 127.091 2.05592 126.611 2.05592C126.163 2.05592 125.795 2.22126 125.507 2.55192C125.219 2.88259 125.075 3.34126 125.075 3.92792C125.075 4.72792 125.512 5.61326 126.387 6.58392ZM126.547 12.4559C127.635 12.4559 128.493 12.0453 129.123 11.2239C128.909 11.0319 128.755 10.8879 128.659 10.7919L128.419 10.5679C128.258 10.4079 127.811 9.97059 127.075 9.25592C126.349 8.53059 125.779 7.92792 125.363 7.44792C124.904 7.72526 124.568 8.09859 124.355 8.56792C124.141 9.02659 124.035 9.46392 124.035 9.87992C124.035 10.7333 124.28 11.3786 124.771 11.8159C125.261 12.2426 125.853 12.4559 126.547 12.4559Z" fill="#696A68"/>
<path d="M137.382 12.4719C137.648 12.4719 137.862 12.4133 138.022 12.2959C138.182 12.1679 138.31 12.0079 138.406 11.8159C138.512 11.6133 138.635 11.3146 138.774 10.9199L138.934 10.4719L142.23 1.49592H142.614L146.182 10.5999C146.299 10.8879 146.4 11.2026 146.486 11.5439C146.571 11.8746 146.608 12.1466 146.598 12.3599L147.686 12.2959V12.9999H144.022V12.4719C144.651 12.4613 144.966 12.2053 144.966 11.7039C144.966 11.5013 144.912 11.2506 144.806 10.9519L144.246 9.44792L140.086 9.54392C139.926 9.98126 139.739 10.5519 139.526 11.2559C139.419 11.6079 139.286 11.9759 139.126 12.3599L140.374 12.2959V12.9999H137.382V12.4719ZM144.022 8.85592L142.886 5.79992L142.166 3.83192H142.134L141.462 5.63992L140.598 8.07192L140.326 8.85592H144.022Z" fill="#696A68"/>
<path d="M148.199 16.5999C148.508 16.5999 148.727 16.5199 148.855 16.3599C148.993 16.2106 149.073 16.0186 149.095 15.7839C149.116 15.5599 149.132 15.1813 149.143 14.6479L149.175 6.91992C149.175 6.47192 149.196 6.12526 149.239 5.87992L148.103 5.94392V5.27192C148.732 5.27192 149.164 5.23992 149.399 5.17592C149.633 5.10126 149.825 4.98926 149.975 4.83992H150.455C150.497 5.36259 150.519 5.65059 150.519 5.70392C150.839 5.41592 151.223 5.18659 151.671 5.01592C152.119 4.83459 152.561 4.74392 152.999 4.74392C153.628 4.74392 154.209 4.90926 154.743 5.23992C155.276 5.55992 155.703 6.02392 156.023 6.63192C156.353 7.22926 156.519 7.92259 156.519 8.71192C156.519 9.59726 156.332 10.3866 155.959 11.0799C155.585 11.7626 155.084 12.2959 154.455 12.6799C153.836 13.0639 153.164 13.2559 152.439 13.2559C151.703 13.2559 151.063 13.0799 150.519 12.7279V15.3839C150.519 15.8639 150.497 16.2266 150.455 16.4719L151.463 16.4239V17.0799H148.199V16.5999ZM152.407 12.6159C152.908 12.6159 153.34 12.4613 153.703 12.1519C154.076 11.8426 154.364 11.4106 154.567 10.8559C154.769 10.3013 154.871 9.67192 154.871 8.96792C154.871 8.00792 154.663 7.19726 154.247 6.53592C153.841 5.86392 153.233 5.52792 152.423 5.52792C152.071 5.52792 151.729 5.61326 151.399 5.78392C151.068 5.95459 150.78 6.16792 150.535 6.42392C150.545 6.49859 150.551 6.82392 150.551 7.39992L150.535 11.9919C151.079 12.4079 151.703 12.6159 152.407 12.6159Z" fill="#696A68"/>
<path d="M160.275 13.2559C159.496 13.2559 158.899 13.0799 158.483 12.7279C158.078 12.3759 157.875 11.9173 157.875 11.3519C157.875 10.7333 158.12 10.2106 158.611 9.78392C159.112 9.35726 159.736 9.04259 160.483 8.83992C161.24 8.62659 161.998 8.52526 162.755 8.53592V7.54392C162.755 6.85059 162.654 6.31192 162.451 5.92792C162.248 5.53326 161.816 5.33592 161.155 5.33592C160.824 5.33592 160.51 5.40526 160.211 5.54392C159.912 5.68259 159.694 5.89059 159.555 6.16792C159.694 6.31726 159.763 6.51992 159.763 6.77592C159.763 6.93592 159.704 7.09059 159.587 7.23992C159.47 7.37859 159.299 7.44792 159.075 7.44792C158.851 7.44792 158.675 7.37859 158.547 7.23992C158.419 7.09059 158.355 6.89859 158.355 6.66392C158.355 6.31192 158.488 5.99192 158.755 5.70392C159.032 5.40526 159.411 5.17059 159.891 4.99992C160.382 4.82926 160.926 4.74392 161.523 4.74392C162.419 4.74392 163.08 4.98392 163.507 5.46392C163.934 5.93326 164.142 6.67992 164.131 7.70392L164.115 11.3039C164.115 11.6453 164.094 12.0079 164.051 12.3919L165.187 12.3279V12.9999H162.899C162.867 12.8399 162.83 12.5359 162.787 12.0879C162.008 12.8666 161.171 13.2559 160.275 13.2559ZM160.643 12.3439C161.048 12.3439 161.416 12.2693 161.747 12.1199C162.078 11.9599 162.414 11.7199 162.755 11.3999C162.744 11.2399 162.739 10.9679 162.739 10.5839L162.755 9.07992C161.88 9.11192 161.102 9.29326 160.419 9.62392C159.736 9.94392 159.395 10.4399 159.395 11.1119C159.395 11.5066 159.512 11.8106 159.747 12.0239C159.982 12.2373 160.28 12.3439 160.643 12.3439Z" fill="#696A68"/>
<path d="M166.43 12.5199C166.74 12.5199 166.958 12.4453 167.086 12.2959C167.225 12.1359 167.305 11.9386 167.326 11.7039C167.358 11.4586 167.374 11.0799 167.374 10.5679V6.91992C167.374 6.47192 167.396 6.12526 167.438 5.87992L166.302 5.92792V5.27192H166.798C167.204 5.27192 167.497 5.23992 167.678 5.17592C167.86 5.10126 168.03 4.98926 168.19 4.83992H168.654C168.697 5.25592 168.724 5.78392 168.734 6.42392C169.001 5.98659 169.38 5.59726 169.87 5.25592C170.372 4.91459 170.889 4.74392 171.422 4.74392C171.742 4.74392 172.009 4.82926 172.222 4.99992C172.436 5.17059 172.542 5.42126 172.542 5.75192C172.542 5.92259 172.473 6.09326 172.334 6.26392C172.206 6.43459 172.02 6.51992 171.774 6.51992C171.54 6.51992 171.348 6.43459 171.198 6.26392C171.049 6.08259 170.99 5.86926 171.022 5.62392C170.617 5.61326 170.206 5.76792 169.79 6.08792C169.385 6.40792 169.038 6.83459 168.75 7.36792L168.766 11.3039C168.766 11.7839 168.745 12.1466 168.702 12.3919L169.71 12.3439V12.9999H166.43V12.5199Z" fill="#696A68"/>
<path d="M176.615 13.2559C175.154 13.2559 174.428 12.2746 174.439 10.3119L174.471 5.67192L173.239 5.68792V4.99992C173.751 4.98926 174.183 4.75992 174.535 4.31192C174.898 3.85326 175.164 3.33592 175.335 2.75992H175.879V4.99992H178.567V5.62392L175.879 5.65592C175.868 7.28792 175.858 8.41859 175.847 9.04792C175.847 9.67726 175.847 10.0293 175.847 10.1039C175.847 10.8613 175.938 11.4266 176.119 11.7999C176.3 12.1626 176.615 12.3439 177.063 12.3439C177.34 12.3439 177.612 12.2586 177.879 12.0879C178.156 11.9173 178.396 11.6826 178.599 11.3839L179.031 11.7359C178.615 12.3546 178.204 12.7653 177.799 12.9679C177.394 13.1599 176.999 13.2559 176.615 13.2559Z" fill="#696A68"/>
<path d="M179.94 12.5199C180.249 12.5199 180.468 12.4453 180.596 12.2959C180.735 12.1359 180.815 11.9386 180.836 11.7039C180.868 11.4586 180.884 11.0799 180.884 10.5679V6.91992C180.884 6.47192 180.905 6.12526 180.948 5.87992L179.812 5.94392V5.27192C180.441 5.27192 180.873 5.23992 181.108 5.17592C181.343 5.10126 181.54 4.98926 181.7 4.83992H182.164C182.185 4.99992 182.207 5.28259 182.228 5.68792C182.559 5.39992 182.932 5.17059 183.348 4.99992C183.764 4.82926 184.175 4.74392 184.58 4.74392C185.103 4.74392 185.545 4.83992 185.908 5.03192C186.281 5.21326 186.569 5.47459 186.772 5.81592C187.156 5.50659 187.583 5.25059 188.052 5.04792C188.532 4.84526 188.991 4.74392 189.428 4.74392C190.367 4.74392 191.049 5.03192 191.476 5.60792C191.913 6.17326 192.121 7.07992 192.1 8.32792L192.084 11.3039C192.084 11.7839 192.063 12.1466 192.02 12.3919L193.028 12.3439V12.9999H189.764V12.5199C190.073 12.5199 190.292 12.4453 190.42 12.2959C190.559 12.1359 190.639 11.9386 190.66 11.7039C190.692 11.4586 190.708 11.0799 190.708 10.5679V8.32792C190.708 7.41059 190.564 6.72792 190.276 6.27992C189.988 5.82126 189.535 5.59192 188.916 5.59192C188.585 5.59192 188.249 5.66659 187.908 5.81592C187.577 5.95459 187.284 6.14126 187.028 6.37592C187.135 6.70659 187.188 7.09592 187.188 7.54392L187.156 11.3039C187.156 11.7839 187.135 12.1466 187.092 12.3919L188.1 12.3439V12.9999H184.836V12.5199C185.145 12.5199 185.364 12.4453 185.492 12.2959C185.631 12.1359 185.711 11.9439 185.732 11.7199C185.753 11.4853 185.769 11.1013 185.78 10.5679L185.796 8.32792C185.807 7.39992 185.673 6.70659 185.396 6.24792C185.119 5.78926 184.676 5.55992 184.068 5.55992C183.737 5.55992 183.407 5.62926 183.076 5.76792C182.756 5.90659 182.479 6.09326 182.244 6.32792L182.26 7.19192V11.3039C182.26 11.7839 182.239 12.1466 182.196 12.3919L183.204 12.3439V12.9999H179.94V12.5199Z" fill="#696A68"/>
<path d="M198.254 13.2559C197.518 13.2559 196.852 13.0853 196.254 12.7439C195.668 12.3919 195.204 11.8959 194.862 11.2559C194.521 10.6053 194.35 9.85859 194.35 9.01592C194.35 8.26926 194.521 7.57059 194.862 6.91992C195.204 6.25859 195.678 5.73059 196.286 5.33592C196.905 4.94126 197.604 4.74392 198.382 4.74392C198.99 4.74392 199.54 4.87726 200.03 5.14392C200.521 5.41059 200.91 5.81059 201.198 6.34392C201.486 6.86659 201.63 7.51192 201.63 8.27992L195.998 8.37592C195.988 9.65592 196.196 10.6533 196.622 11.3679C197.06 12.0826 197.732 12.4399 198.638 12.4399C199.129 12.4399 199.63 12.3119 200.142 12.0559C200.665 11.7999 201.065 11.4853 201.342 11.1119L201.726 11.4319C201.321 12.0506 200.793 12.5093 200.142 12.8079C199.502 13.1066 198.873 13.2559 198.254 13.2559ZM200.126 7.70392C200.126 7.06392 199.982 6.51459 199.694 6.05592C199.406 5.59726 198.974 5.36792 198.398 5.36792C197.076 5.36792 196.292 6.14659 196.046 7.70392H200.126Z" fill="#696A68"/>
<path d="M203.2 12.5199C203.509 12.5199 203.728 12.4453 203.856 12.2959C203.994 12.1359 204.074 11.9439 204.096 11.7199C204.117 11.4853 204.133 11.1013 204.144 10.5679L204.16 6.91992C204.16 6.47192 204.181 6.12526 204.224 5.87992L203.088 5.94392V5.27192C203.717 5.27192 204.149 5.23992 204.384 5.17592C204.618 5.10126 204.816 4.98926 204.976 4.83992H205.44C205.461 5.04259 205.482 5.36792 205.504 5.81592C205.866 5.49592 206.277 5.23992 206.736 5.04792C207.205 4.84526 207.664 4.74392 208.112 4.74392C209.04 4.74392 209.717 5.03726 210.144 5.62392C210.57 6.19992 210.784 7.10126 210.784 8.32792V11.3039C210.784 11.7839 210.762 12.1466 210.72 12.3919L211.728 12.3439V12.9999H208.464V12.5199C208.773 12.5199 208.992 12.4453 209.12 12.2959C209.258 12.1359 209.338 11.9386 209.36 11.7039C209.392 11.4586 209.408 11.0799 209.408 10.5679V8.32792C209.397 7.41059 209.248 6.72259 208.96 6.26392C208.672 5.79459 208.218 5.55992 207.6 5.55992C207.216 5.55992 206.832 5.65592 206.448 5.84792C206.074 6.03992 205.765 6.29059 205.52 6.59992C205.53 6.71726 205.536 6.92526 205.536 7.22392L205.52 11.3039C205.52 11.7839 205.498 12.1466 205.456 12.3919L206.464 12.3439V12.9999H203.2V12.5199Z" fill="#696A68"/>
<path d="M215.931 13.2559C214.47 13.2559 213.745 12.2746 213.755 10.3119L213.787 5.67192L212.555 5.68792V4.99992C213.067 4.98926 213.499 4.75992 213.851 4.31192C214.214 3.85326 214.481 3.33592 214.651 2.75992H215.195V4.99992H217.883V5.62392L215.195 5.65592C215.185 7.28792 215.174 8.41859 215.163 9.04792C215.163 9.67726 215.163 10.0293 215.163 10.1039C215.163 10.8613 215.254 11.4266 215.435 11.7999C215.617 12.1626 215.931 12.3439 216.379 12.3439C216.657 12.3439 216.929 12.2586 217.195 12.0879C217.473 11.9173 217.713 11.6826 217.915 11.3839L218.347 11.7359C217.931 12.3546 217.521 12.7653 217.115 12.9679C216.71 13.1599 216.315 13.2559 215.931 13.2559Z" fill="#696A68"/>
<path d="M222.536 13.2559C222.035 13.2559 221.576 13.1866 221.16 13.0479C220.744 12.9199 220.387 12.7546 220.088 12.5519L220.152 13.1119H219.48L219.384 10.3599H219.88C219.902 10.7973 220.019 11.1866 220.232 11.5279C220.456 11.8693 220.744 12.1413 221.096 12.3439C221.459 12.5359 221.843 12.6319 222.248 12.6319C222.707 12.6319 223.112 12.5253 223.464 12.3119C223.827 12.0879 224.008 11.7733 224.008 11.3679C224.008 11.0693 223.918 10.8186 223.736 10.6159C223.566 10.4133 223.347 10.2479 223.08 10.1199C222.824 9.98126 222.462 9.82126 221.992 9.63992C221.427 9.42659 220.974 9.22926 220.632 9.04792C220.291 8.85592 219.998 8.59992 219.752 8.27992C219.507 7.95992 219.384 7.55459 219.384 7.06392C219.384 6.71192 219.47 6.35992 219.64 6.00792C219.811 5.65592 220.099 5.35726 220.504 5.11192C220.91 4.86659 221.448 4.74392 222.12 4.74392C222.451 4.74392 222.787 4.79726 223.128 4.90392C223.48 5.01059 223.806 5.18659 224.104 5.43192L224.072 4.82392H224.744V7.62392H224.232C224.2 7.00526 224.008 6.47192 223.656 6.02392C223.315 5.56526 222.83 5.33592 222.2 5.33592C221.72 5.33592 221.336 5.45859 221.048 5.70392C220.771 5.93859 220.632 6.22126 220.632 6.55192C220.632 6.86126 220.723 7.12259 220.904 7.33592C221.096 7.54926 221.331 7.73059 221.608 7.87992C221.886 8.02926 222.259 8.19459 222.728 8.37592C223.283 8.59992 223.731 8.80792 224.072 8.99992C224.414 9.19192 224.702 9.44792 224.936 9.76792C225.182 10.0773 225.304 10.4559 225.304 10.9039C225.304 11.4159 225.171 11.8479 224.904 12.1999C224.648 12.5519 224.307 12.8186 223.88 12.9999C223.464 13.1706 223.016 13.2559 222.536 13.2559Z" fill="#696A68"/>
</svg>
