<svg viewBox="0 0 20 20" fill="none" xmlns="http://www.w3.org/2000/svg">
<path fill-rule="evenodd" clip-rule="evenodd" d="M16.5155 9.20454V5.48657C16.5155 4.66688 15.8764 4 15.0909 4H4.90913C4.12359 4 3.4845 4.66688 3.4845 5.48657V9.20454C2.62963 9.45149 2 10.27 2 11.2395V14.0645C2 14.3382 2.21269 14.5601 2.475 14.5601H3.4845V15.4518C3.4845 15.7255 3.69719 15.9474 3.9595 15.9474C4.22181 15.9474 4.4345 15.7255 4.4345 15.4518V14.5601H15.5655V15.4518C15.5655 15.7255 15.7782 15.9474 16.0405 15.9474C16.3028 15.9474 16.5155 15.7255 16.5155 15.4518V14.5601H17.525C17.7873 14.5601 18 14.3382 18 14.0645V11.2395C18 10.27 17.3703 9.45149 16.5155 9.20454ZM4.4345 5.48657C4.4345 5.2135 4.64744 4.9913 4.90912 4.9913H15.0909C15.3526 4.9913 15.5655 5.2135 15.5655 5.48657V9.12785H14.4526V8.13292C14.4526 7.26778 13.7781 6.56396 12.949 6.56396H11.0286C10.631 6.56396 10.2692 6.72612 10 6.99009C9.73088 6.72615 9.36906 6.56396 8.97144 6.56396H7.05109C6.222 6.56396 5.5475 7.26782 5.5475 8.13292V9.12785H4.4345V5.48657ZM13.5026 9.12785V8.13292C13.5026 7.8144 13.2542 7.55526 12.9489 7.55526H11.0286C10.7234 7.55526 10.475 7.81437 10.475 8.13292V9.12785H13.5026ZM9.52497 8.13292V9.12785H6.49741V8.13292C6.49741 7.81437 6.74578 7.55526 7.051 7.55526H8.97134C9.27663 7.55526 9.52497 7.8144 9.52497 8.13292ZM2.95 13.5688H17.05V11.2395C17.05 10.6217 16.5683 10.1192 15.9763 10.1192H4.02366C3.43162 10.1192 2.95 10.6217 2.95 11.2395V13.5688Z" fill="currentColor"/>
</svg>
