<svg viewBox="0 0 20 20" fill="none" xmlns="http://www.w3.org/2000/svg">
<path fill-rule="evenodd" clip-rule="evenodd" d="M16.5162 4H4.45139C4.2021 4 4 4.20204 4 4.45139V16.5157C4 16.765 4.2021 16.9671 4.45139 16.9671H11.8098C12.0591 16.9671 12.2611 16.765 12.2611 16.5157C12.2611 16.2663 12.0591 16.0643 11.8098 16.0643H4.90278V11.248H8.02831V13.4699C8.02831 13.7192 8.23036 13.9213 8.4797 13.9213C8.72905 13.9213 8.93109 13.7192 8.93109 13.4699V8.18191C8.93109 7.93256 8.72905 7.73052 8.4797 7.73052C8.23036 7.73052 8.02831 7.93256 8.02831 8.18191V10.3451H4.90278V4.90278H11.3584V7.86606C11.3584 8.11534 11.5604 8.31744 11.8098 8.31744H14.4811C14.7304 8.31744 14.9325 8.11534 14.9325 7.86606C14.9325 7.61671 14.7304 7.41467 14.4811 7.41467H12.2611V4.90278H16.0648V12.3464H11.8098C11.5604 12.3464 11.3584 12.5484 11.3584 12.7978C11.3584 13.0471 11.5604 13.2491 11.8098 13.2491H16.0648V16.0643H14.4811C14.2317 16.0643 14.0297 16.2663 14.0297 16.5157C14.0297 16.765 14.2317 16.9671 14.4811 16.9671H16.5162C16.7655 16.9671 16.9676 16.765 16.9676 16.5157V4.45139C16.9676 4.20204 16.7655 4 16.5162 4Z" fill="currentColor" stroke="currentColor" stroke-width="0.2"/>
</svg>
