<svg viewBox="0 0 13 10" fill="none" xmlns="http://www.w3.org/2000/svg">
<path fill-rule="evenodd" clip-rule="evenodd" d="M1.71728 0.97023C1.71728 1.45396 1.33285 1.8461 0.858639 1.8461C0.384426 1.8461 0 1.45396 0 0.97023C0 0.486501 0.384426 0.0943604 0.858639 0.0943604C1.33285 0.0943604 1.71728 0.486501 1.71728 0.97023ZM12.174 1.57197H3.6059C3.25277 1.57197 2.96656 1.28001 2.96656 0.919795C2.96656 0.559578 3.25277 0.267621 3.6059 0.267621H12.1738C12.5269 0.267621 12.8131 0.559578 12.8131 0.919795C12.8131 1.28001 12.5271 1.57197 12.174 1.57197ZM3.6059 5.66566H12.174C12.5271 5.66566 12.8133 5.37371 12.8131 5.01349C12.8131 4.65327 12.5269 4.36132 12.1738 4.36132H3.6059C3.25277 4.36132 2.96656 4.65327 2.96656 5.01349C2.96656 5.37371 3.25277 5.66566 3.6059 5.66566ZM3.6059 9.75936H12.174C12.5271 9.75936 12.8131 9.4674 12.8131 9.10719C12.8131 8.74697 12.5269 8.45501 12.1738 8.45501H3.6059C3.25277 8.45501 2.96656 8.74697 2.96656 9.10719C2.96656 9.4674 3.25277 9.75936 3.6059 9.75936ZM0.858639 5.88936C1.33285 5.88936 1.71728 5.49722 1.71728 5.01349C1.71728 4.52976 1.33285 4.13762 0.858639 4.13762C0.384426 4.13762 0 4.52976 0 5.01349C0 5.49722 0.384426 5.88936 0.858639 5.88936ZM1.71728 9.05675C1.71728 9.54048 1.33285 9.93262 0.858639 9.93262C0.384426 9.93262 0 9.54048 0 9.05675C0 8.57302 0.384426 8.18088 0.858639 8.18088C1.33285 8.18088 1.71728 8.57302 1.71728 9.05675Z" fill="currentColor"/>
</svg>
