<svg viewBox="0 0 14 13" fill="none" xmlns="http://www.w3.org/2000/svg">
<path d="M6.99984 12.9958C3.68178 12.9958 0.982178 10.2962 0.982178 6.97804C0.982178 3.65997 3.68158 0.960571 6.99984 0.960571C10.3181 0.960571 13.0175 3.65997 13.0175 6.97804C13.0175 10.2961 10.3179 12.9958 6.99984 12.9958Z" fill="currentColor"/>
<path d="M6.99973 1.99792C4.25366 1.99792 2.01953 4.23186 2.01953 6.97792C2.01953 9.72419 4.25366 11.9583 6.99973 11.9583C9.7458 11.9583 11.9799 9.72419 11.9799 6.97792C11.9799 4.23206 9.7458 1.99792 6.99973 1.99792Z" fill="white"/>
<path d="M4.24829 9.7291L5.66162 6.36816L7.60976 8.31576L4.24829 9.7291Z" fill="#171717"/>
<path d="M8.34113 7.57993L6.39746 5.6368L9.75099 4.22693L8.34113 7.57993Z" fill="#171717"/>
</svg>
