<svg viewBox="0 0 20 20" fill="none" xmlns="http://www.w3.org/2000/svg">
<path fill-rule="evenodd" clip-rule="evenodd" d="M11.952 8.93369C11.3918 9.49564 10.7064 9.78046 9.91476 9.78046C9.12329 9.78046 8.43787 9.49554 7.87758 8.93378C7.31747 8.37192 7.03345 7.68436 7.03345 6.89014C7.03345 6.0961 7.31747 5.40854 7.87758 4.84668C8.43769 4.28482 9.12302 4 9.91476 4C10.7063 4 11.3917 4.28482 11.9519 4.84659C12.5121 5.40863 12.7961 6.09619 12.7961 6.89014C12.7961 7.68436 12.5121 8.37183 11.952 8.93369ZM9.91476 4.70322C9.30729 4.70322 8.80312 4.91278 8.37335 5.3439C7.94348 5.77512 7.73447 6.28094 7.73447 6.89014C7.73447 7.49951 7.94348 8.00534 8.37335 8.43646C8.80331 8.86758 9.30747 9.07724 9.91476 9.07724C10.5221 9.07724 11.0264 8.86768 11.4563 8.43646C11.8861 8.00525 12.0951 7.49951 12.0951 6.89014C12.0951 6.28094 11.8861 5.77512 11.4563 5.3439C11.0264 4.91278 10.5221 4.70322 9.91476 4.70322Z" fill="currentColor"/>
<path d="M11.952 8.93369L12.0583 9.03959L12.0583 9.03958L11.952 8.93369ZM7.87758 8.93378L7.77135 9.03968L7.77138 9.0397L7.87758 8.93378ZM7.87758 4.84668L7.98381 4.95258L7.98381 4.95258L7.87758 4.84668ZM11.9519 4.84659L12.0582 4.7407L12.0582 4.74067L11.9519 4.84659ZM8.37335 5.3439L8.47958 5.4498L8.47958 5.4498L8.37335 5.3439ZM8.37335 8.43646L8.26713 8.54237L8.26714 8.54239L8.37335 8.43646ZM11.4563 8.43646L11.5625 8.54236L11.5625 8.54235L11.4563 8.43646ZM11.4563 5.3439L11.5625 5.23801L11.5625 5.23799L11.4563 5.3439ZM9.91476 9.93046C10.7464 9.93046 11.47 9.6297 12.0583 9.03959L11.8458 8.82778C11.3137 9.36157 10.6665 9.63046 9.91476 9.63046V9.93046ZM7.77138 9.0397C8.35972 9.6296 9.08332 9.93046 9.91476 9.93046V9.63046C9.16326 9.63046 8.51602 9.36149 7.98379 8.82785L7.77138 9.0397ZM6.88345 6.89014C6.88345 7.72401 7.18318 8.44967 7.77135 9.03968L7.98381 8.82788C7.45176 8.29417 7.18345 7.6447 7.18345 6.89014H6.88345ZM7.77135 4.74078C7.18318 5.33078 6.88345 6.05644 6.88345 6.89014H7.18345C7.18345 6.13576 7.45176 5.48629 7.98381 4.95258L7.77135 4.74078ZM9.91476 3.85C9.08306 3.85 8.35954 4.15075 7.77135 4.74078L7.98381 4.95258C8.51584 4.41889 9.16297 4.15 9.91476 4.15V3.85ZM12.0582 4.74067C11.4699 4.15075 10.7463 3.85 9.91476 3.85V4.15C10.6664 4.15 11.3136 4.41889 11.8457 4.95251L12.0582 4.74067ZM12.9461 6.89014C12.9461 6.05653 12.6464 5.33088 12.0582 4.7407L11.8457 4.95248C12.3779 5.48638 12.6461 6.13585 12.6461 6.89014H12.9461ZM12.0583 9.03958C12.6463 8.44958 12.9461 7.72402 12.9461 6.89014H12.6461C12.6461 7.6447 12.3778 8.29408 11.8458 8.82779L12.0583 9.03958ZM8.47958 5.4498C8.88128 5.04684 9.34725 4.85322 9.91476 4.85322V4.55322C9.26733 4.55322 8.72497 4.77872 8.26711 5.238L8.47958 5.4498ZM7.88447 6.89014C7.88447 6.32062 8.07775 5.85288 8.47958 5.4498L8.26711 5.238C7.8092 5.69735 7.58447 6.24127 7.58447 6.89014H7.88447ZM8.47957 8.33055C8.07776 7.92757 7.88447 7.45984 7.88447 6.89014H7.58447C7.58447 7.53918 7.80919 8.08311 8.26713 8.54237L8.47957 8.33055ZM9.91476 8.92724C9.34746 8.92724 8.88147 8.73354 8.47955 8.33054L8.26714 8.54239C8.72514 9.00163 9.26748 9.22724 9.91476 9.22724V8.92724ZM11.35 8.33056C10.9482 8.73361 10.4822 8.92724 9.91476 8.92724V9.22724C10.5621 9.22724 11.1046 9.00174 11.5625 8.54236L11.35 8.33056ZM11.9451 6.89014C11.9451 7.45983 11.7518 7.92749 11.35 8.33057L11.5625 8.54235C12.0203 8.08301 12.2451 7.53919 12.2451 6.89014H11.9451ZM11.35 5.44979C11.7518 5.85288 11.9451 6.32062 11.9451 6.89014H12.2451C12.2451 6.24127 12.0203 5.69736 11.5625 5.23801L11.35 5.44979ZM9.91476 4.85322C10.4822 4.85322 10.9483 5.04685 11.3501 5.44981L11.5625 5.23799C11.1046 4.77872 10.5621 4.55322 9.91476 4.55322V4.85322Z" fill="currentColor"/>
<path fill-rule="evenodd" clip-rule="evenodd" d="M14.8594 12.4692C14.9075 12.7386 14.9401 12.9936 14.9563 13.2274C14.9723 13.456 14.9804 13.6945 14.9805 13.9362C14.9805 14.5628 14.782 15.0701 14.3904 15.4438C14.0037 15.8129 13.4923 16 12.8703 16H7.1102C6.48803 16 5.97656 15.8129 5.58995 15.4438C5.19851 15.0699 5 14.5627 5 13.9363C5 13.6954 5.00803 13.4569 5.02391 13.2277C5.04007 12.9933 5.07265 12.7382 5.12084 12.4692C5.16939 12.1978 5.23191 11.9414 5.30666 11.7069C5.38405 11.4644 5.48919 11.2252 5.61907 10.9958C5.75378 10.7579 5.91222 10.5507 6.09001 10.3801C6.2761 10.2014 6.50381 10.058 6.76685 9.95352C7.02906 9.84933 7.31966 9.79651 7.6307 9.79651C7.75281 9.79651 7.87091 9.84677 8.09881 9.99573C8.24127 10.0888 8.40556 10.195 8.58709 10.3114C8.74352 10.4116 8.9559 10.5054 9.21784 10.5903C9.47384 10.6733 9.73359 10.7154 9.98987 10.7154C10.2463 10.7154 10.5061 10.6733 10.7619 10.5903C11.0241 10.5053 11.2364 10.4115 11.3931 10.3113C11.5764 10.1938 11.7406 10.0876 11.8809 9.99582C12.109 9.84686 12.2271 9.7966 12.3492 9.7966C12.6602 9.7966 12.9509 9.84933 13.2132 9.95343C13.4764 10.0581 13.704 10.2015 13.8899 10.38C14.0677 10.5505 14.2261 10.7578 14.3609 10.9958C14.491 11.2252 14.5961 11.4645 14.6734 11.7068C14.7483 11.9413 14.8108 12.1978 14.8594 12.4692ZM12.8702 15.2968C13.3125 15.2968 13.6516 15.1783 13.9071 14.9344C14.1576 14.6952 14.2794 14.3687 14.2794 13.9363C14.2794 13.7108 14.2719 13.4889 14.257 13.2766V13.2764C14.2426 13.0677 14.213 12.8379 14.1694 12.5934C14.1263 12.3525 14.0713 12.1263 14.0058 11.9213C13.9432 11.7251 13.8576 11.5305 13.7515 11.3433C13.6502 11.1646 13.5338 11.0114 13.4053 10.8881C13.2851 10.7727 13.1336 10.6782 12.9552 10.6073C12.79 10.5417 12.6044 10.5059 12.4029 10.5005C12.3783 10.5135 12.3346 10.5386 12.2638 10.5849C12.1197 10.6792 11.9582 10.7835 11.7703 10.904C11.563 11.0366 11.2965 11.1561 10.9776 11.2594C10.652 11.365 10.3197 11.4186 9.98996 11.4186C9.66021 11.4186 9.328 11.365 9.00226 11.2593C8.68365 11.1562 8.41696 11.0366 8.20997 10.9042C8.02634 10.7866 7.86023 10.6791 7.71612 10.5849C7.6453 10.5385 7.60158 10.5135 7.57703 10.5005C7.3756 10.5059 7.19006 10.5417 7.02495 10.6073C6.84643 10.6782 6.69493 10.7726 6.57473 10.8881C6.44623 11.0115 6.32977 11.1647 6.22855 11.3432C6.1225 11.5305 6.03698 11.725 5.97428 11.9214C5.90893 12.1262 5.85399 12.3524 5.81082 12.5934C5.7671 12.8375 5.73762 13.0672 5.7232 13.2763C5.70842 13.4895 5.70103 13.7115 5.70103 13.9363C5.70103 14.3687 5.82278 14.6952 6.07331 14.9344C6.32867 15.1783 6.66782 15.2968 7.1102 15.2968H12.8702Z" fill="currentColor"/>
<path d="M14.9563 13.2274L14.8066 13.2378L14.8066 13.2379L14.9563 13.2274ZM14.8594 12.4692L15.007 12.4428L15.007 12.4428L14.8594 12.4692ZM14.9805 13.9362L15.1305 13.9362L15.1305 13.9362L14.9805 13.9362ZM14.3904 15.4438L14.494 15.5524L14.494 15.5524L14.3904 15.4438ZM5.58995 15.4438L5.48633 15.5523L5.48638 15.5523L5.58995 15.4438ZM5.02391 13.2277L5.17355 13.2381L5.17356 13.238L5.02391 13.2277ZM5.12084 12.4692L5.26849 12.4957L5.26849 12.4956L5.12084 12.4692ZM5.30666 11.7069L5.16376 11.6613L5.16375 11.6614L5.30666 11.7069ZM5.61907 10.9958L5.74959 11.0698L5.7496 11.0697L5.61907 10.9958ZM6.09001 10.3801L5.98614 10.2718L5.98614 10.2719L6.09001 10.3801ZM6.76685 9.95352L6.82221 10.0929L6.82224 10.0929L6.76685 9.95352ZM8.09881 9.99573L8.01674 10.1213L8.01675 10.1213L8.09881 9.99573ZM8.58709 10.3114L8.50614 10.4377L8.50621 10.4377L8.58709 10.3114ZM9.21784 10.5903L9.26412 10.4476L9.26407 10.4476L9.21784 10.5903ZM10.7619 10.5903L10.7157 10.4476L10.7156 10.4476L10.7619 10.5903ZM11.3931 10.3113L11.4739 10.4377L11.474 10.4376L11.3931 10.3113ZM11.8809 9.99582L11.7989 9.87023L11.7988 9.87029L11.8809 9.99582ZM13.2132 9.95343L13.2686 9.81404L13.2685 9.81401L13.2132 9.95343ZM13.8899 10.38L13.786 10.4882L13.7861 10.4882L13.8899 10.38ZM14.3609 10.9958L14.2304 11.0698L14.2305 11.0698L14.3609 10.9958ZM14.6734 11.7068L14.8163 11.6612L14.8163 11.6612L14.6734 11.7068ZM13.9071 14.9344L13.8035 14.8259L13.8035 14.8259L13.9071 14.9344ZM14.2794 13.9363L14.4294 13.9364L14.4294 13.9363L14.2794 13.9363ZM14.257 13.2766H14.1066L14.1074 13.2871L14.257 13.2766ZM14.257 13.2764H14.4073L14.4066 13.2661L14.257 13.2764ZM14.1694 12.5934L14.317 12.567L14.317 12.5669L14.1694 12.5934ZM14.0058 11.9213L14.1487 11.8757L14.1487 11.8757L14.0058 11.9213ZM13.7515 11.3433L13.6209 11.4172L13.621 11.4173L13.7515 11.3433ZM13.4053 10.8881L13.3014 10.9963L13.3014 10.9963L13.4053 10.8881ZM12.9552 10.6073L13.0105 10.4679L13.0105 10.4679L12.9552 10.6073ZM12.4029 10.5005L12.4069 10.3505L12.3673 10.3494L12.3323 10.3681L12.4029 10.5005ZM12.2638 10.5849L12.1818 10.4593L12.1817 10.4594L12.2638 10.5849ZM11.7703 10.904L11.8511 11.0304L11.8513 11.0303L11.7703 10.904ZM10.9776 11.2594L10.9313 11.1167L10.9313 11.1167L10.9776 11.2594ZM9.00226 11.2593L9.04854 11.1167L9.04848 11.1166L9.00226 11.2593ZM8.20997 10.9042L8.12905 11.0305L8.12915 11.0306L8.20997 10.9042ZM7.71612 10.5849L7.63401 10.7104L7.63405 10.7104L7.71612 10.5849ZM7.57703 10.5005L7.64761 10.3681L7.61263 10.3494L7.57301 10.3505L7.57703 10.5005ZM7.02495 10.6073L7.08029 10.7467L7.0803 10.7467L7.02495 10.6073ZM6.57473 10.8881L6.67863 10.9963L6.67864 10.9963L6.57473 10.8881ZM6.22855 11.3432L6.09806 11.2692L6.09802 11.2693L6.22855 11.3432ZM5.97428 11.9214L5.83139 11.8757L5.83138 11.8758L5.97428 11.9214ZM5.81082 12.5934L5.95847 12.6199L5.95847 12.6199L5.81082 12.5934ZM5.7232 13.2763L5.87284 13.2867L5.87285 13.2867L5.7232 13.2763ZM6.07331 14.9344L5.96972 15.0429L5.96972 15.0429L6.07331 14.9344ZM15.1059 13.2171C15.0893 12.9771 15.0559 12.7166 15.007 12.4428L14.7117 12.4956C14.759 12.7605 14.7909 13.0102 14.8066 13.2378L15.1059 13.2171ZM15.1305 13.9362C15.1304 13.6911 15.1221 13.4492 15.1059 13.217L14.8066 13.2379C14.8224 13.4628 14.8304 13.6978 14.8305 13.9363L15.1305 13.9362ZM14.494 15.5524C14.9199 15.1458 15.1305 14.5968 15.1305 13.9362H14.8305C14.8305 14.5289 14.644 14.9945 14.2869 15.3353L14.494 15.5524ZM12.8703 16.15C13.5241 16.15 14.0748 15.9524 14.494 15.5524L14.2869 15.3353C13.9326 15.6734 13.4605 15.85 12.8703 15.85V16.15ZM7.1102 16.15H12.8703V15.85H7.1102V16.15ZM5.48638 15.5523C5.90544 15.9524 6.45624 16.15 7.1102 16.15V15.85C6.51982 15.85 6.04768 15.6734 5.69353 15.3353L5.48638 15.5523ZM4.85 13.9363C4.85 14.5967 5.06056 15.1455 5.48633 15.5523L5.69357 15.3354C5.33646 14.9942 5.15 14.5288 5.15 13.9363H4.85ZM4.87427 13.2174C4.85814 13.4501 4.85 13.6921 4.85 13.9363H5.15C5.15 13.6987 5.15792 13.4636 5.17355 13.2381L4.87427 13.2174ZM4.97319 12.4428C4.92419 12.7163 4.89085 12.9768 4.87427 13.2174L5.17356 13.238C5.18929 13.0098 5.22111 12.7601 5.26849 12.4957L4.97319 12.4428ZM5.16375 11.6614C5.08678 11.9028 5.02276 12.1657 4.97318 12.4428L5.26849 12.4956C5.31602 12.23 5.37704 11.98 5.44957 11.7525L5.16375 11.6614ZM5.48854 10.9219C5.35377 11.1599 5.24441 11.4086 5.16376 11.6613L5.44956 11.7525C5.5237 11.5202 5.62462 11.2905 5.74959 11.0698L5.48854 10.9219ZM5.98614 10.2719C5.79676 10.4536 5.62964 10.6727 5.48853 10.9219L5.7496 11.0697C5.87792 10.8431 6.02768 10.6478 6.19388 10.4883L5.98614 10.2719ZM6.71148 9.81411C6.43219 9.92503 6.18755 10.0785 5.98614 10.2718L6.19388 10.4883C6.36466 10.3244 6.57543 10.1909 6.82221 10.0929L6.71148 9.81411ZM7.6307 9.64651C7.30263 9.64651 6.99302 9.70225 6.71146 9.81412L6.82224 10.0929C7.0651 9.99642 7.33668 9.94651 7.6307 9.94651V9.64651ZM8.18087 9.87017C7.95199 9.72057 7.80101 9.64651 7.6307 9.64651V9.94651C7.70461 9.94651 7.78983 9.97297 8.01674 10.1213L8.18087 9.87017ZM8.66804 10.1851C8.48678 10.0689 8.32288 9.96298 8.18087 9.87016L8.01675 10.1213C8.15967 10.2147 8.32433 10.3211 8.50614 10.4377L8.66804 10.1851ZM9.26407 10.4476C9.00903 10.3649 8.80974 10.2758 8.66797 10.1851L8.50621 10.4377C8.6773 10.5473 8.90277 10.6459 9.1716 10.733L9.26407 10.4476ZM9.98987 10.5654C9.75008 10.5654 9.50593 10.526 9.26412 10.4476L9.17156 10.733C9.44175 10.8206 9.7171 10.8654 9.98987 10.8654V10.5654ZM10.7156 10.4476C10.474 10.526 10.2298 10.5654 9.98987 10.5654V10.8654C10.2628 10.8654 10.5382 10.8206 10.8082 10.7329L10.7156 10.4476ZM11.3123 10.1849C11.1702 10.2758 10.9709 10.3649 10.7157 10.4476L10.8081 10.733C11.0773 10.6458 11.3026 10.5472 11.4739 10.4377L11.3123 10.1849ZM11.7988 9.87029C11.6589 9.96181 11.4951 10.0677 11.3122 10.185L11.474 10.4376C11.6576 10.3199 11.8222 10.2135 11.963 10.1213L11.7988 9.87029ZM12.3492 9.6466C12.1789 9.6466 12.0279 9.72065 11.7989 9.87023L11.963 10.1214C12.1901 9.97307 12.2753 9.9466 12.3492 9.9466V9.6466ZM13.2685 9.81401C12.9869 9.70224 12.6772 9.6466 12.3492 9.6466V9.9466C12.6432 9.9466 12.9149 9.99643 13.1578 10.0929L13.2685 9.81401ZM13.9938 10.2718C13.7926 10.0786 13.548 9.92513 13.2686 9.81404L13.1577 10.0928C13.4047 10.191 13.6154 10.3245 13.786 10.4882L13.9938 10.2718ZM14.4915 10.9219C14.3503 10.6726 14.1832 10.4535 13.9938 10.2717L13.7861 10.4882C13.9522 10.6476 14.102 10.843 14.2304 11.0698L14.4915 10.9219ZM14.8163 11.6612C14.7357 11.4087 14.6264 11.1599 14.4914 10.9219L14.2305 11.0698C14.3556 11.2904 14.4564 11.5203 14.5306 11.7525L14.8163 11.6612ZM15.007 12.4428C14.9574 12.1657 14.8934 11.9027 14.8163 11.6612L14.5305 11.7525C14.6032 11.9799 14.6642 12.23 14.7117 12.4956L15.007 12.4428ZM13.8035 14.8259C13.5825 15.0368 13.2841 15.1468 12.8702 15.1468V15.4468C13.3408 15.4468 13.7207 15.3197 14.0107 15.0428L13.8035 14.8259ZM14.1294 13.9363C14.1294 14.3386 14.0173 14.6217 13.8035 14.8259L14.0106 15.0429C14.2979 14.7687 14.4293 14.3989 14.4294 13.9364L14.1294 13.9363ZM14.1074 13.2871C14.122 13.4957 14.1294 13.7141 14.1294 13.9364L14.4294 13.9363C14.4293 13.7076 14.4218 13.4821 14.4066 13.2661L14.1074 13.2871ZM14.107 13.2764V13.2766H14.407V13.2764H14.107ZM14.0217 12.6197C14.0646 12.86 14.0934 13.0843 14.1073 13.2868L14.4066 13.2661C14.3918 13.051 14.3614 12.8158 14.317 12.567L14.0217 12.6197ZM13.8629 11.9669C13.9261 12.1649 13.9796 12.3845 14.0217 12.6198L14.317 12.5669C14.2729 12.3204 14.2164 12.0878 14.1487 11.8757L13.8629 11.9669ZM13.621 11.4173C13.7222 11.5959 13.8036 11.781 13.8629 11.9669L14.1487 11.8757C14.0828 11.6692 13.993 11.4651 13.8819 11.2693L13.621 11.4173ZM13.3014 10.9963C13.4179 11.1081 13.5258 11.2493 13.6209 11.4172L13.882 11.2694C13.7747 11.0799 13.6496 10.9147 13.5091 10.7799L13.3014 10.9963ZM12.8998 10.7467C13.0629 10.8115 13.1972 10.8962 13.3014 10.9963L13.5091 10.7799C13.373 10.6492 13.2043 10.5449 13.0105 10.4679L12.8998 10.7467ZM12.3989 10.6504C12.5851 10.6554 12.753 10.6885 12.8998 10.7467L13.0105 10.4679C12.8269 10.395 12.6237 10.3563 12.4069 10.3505L12.3989 10.6504ZM12.3458 10.7105C12.4139 10.666 12.4537 10.6433 12.4735 10.6328L12.3323 10.3681C12.3029 10.3838 12.2553 10.4113 12.1818 10.4593L12.3458 10.7105ZM11.8513 11.0303C12.0395 10.9097 12.2013 10.805 12.3459 10.7104L12.1817 10.4594C12.0381 10.5533 11.877 10.6574 11.6894 10.7777L11.8513 11.0303ZM11.0238 11.4021C11.3508 11.2961 11.63 11.1718 11.8511 11.0304L11.6895 10.7777C11.4961 10.9013 11.2421 11.016 10.9313 11.1167L11.0238 11.4021ZM9.98996 11.5686C10.336 11.5686 10.6839 11.5123 11.0238 11.4021L10.9313 11.1167C10.6201 11.2177 10.3034 11.2686 9.98996 11.2686V11.5686ZM8.95598 11.402C9.29606 11.5123 9.64387 11.5686 9.98996 11.5686V11.2686C9.67655 11.2686 9.35994 11.2177 9.04854 11.1167L8.95598 11.402ZM8.12915 11.0306C8.35002 11.1718 8.62931 11.2962 8.95605 11.402L9.04848 11.1166C8.73798 11.0161 8.48391 10.9013 8.29079 10.7778L8.12915 11.0306ZM7.63405 10.7104C7.77859 10.8049 7.94509 10.9126 8.12905 11.0305L8.29089 10.7779C8.10759 10.6605 7.94187 10.5532 7.7982 10.4593L7.63405 10.7104ZM7.50645 10.6328C7.52627 10.6434 7.5661 10.666 7.63401 10.7104L7.79823 10.4593C7.7245 10.4111 7.67689 10.3837 7.64761 10.3681L7.50645 10.6328ZM7.0803 10.7467C7.22699 10.6885 7.39486 10.6554 7.58105 10.6504L7.57301 10.3505C7.35634 10.3563 7.15312 10.395 6.9696 10.4679L7.0803 10.7467ZM6.67864 10.9963C6.78285 10.8962 6.9171 10.8115 7.08029 10.7467L6.96961 10.4679C6.77576 10.5448 6.60701 10.6491 6.47082 10.7799L6.67864 10.9963ZM6.35904 11.4172C6.45417 11.2494 6.56207 11.1082 6.67863 10.9963L6.47083 10.7799C6.33038 10.9148 6.20536 11.08 6.09806 11.2692L6.35904 11.4172ZM6.11717 11.967C6.1766 11.7808 6.25789 11.5958 6.35908 11.4171L6.09802 11.2693C5.98711 11.4652 5.89736 11.6691 5.83139 11.8757L6.11717 11.967ZM5.95847 12.6199C6.00065 12.3844 6.0541 12.1646 6.11718 11.967L5.83138 11.8758C5.76376 12.0877 5.70733 12.3204 5.66317 12.567L5.95847 12.6199ZM5.87285 13.2867C5.88684 13.0838 5.91554 12.8596 5.95847 12.6199L5.66317 12.567C5.61867 12.8155 5.58841 13.0506 5.57356 13.266L5.87285 13.2867ZM5.85103 13.9363C5.85103 13.7147 5.85831 13.4962 5.87284 13.2867L5.57356 13.266C5.55852 13.4828 5.55103 13.7083 5.55103 13.9363H5.85103ZM6.1769 14.826C5.96303 14.6217 5.85103 14.3385 5.85103 13.9363H5.55103C5.55103 14.3988 5.68252 14.7687 5.96972 15.0429L6.1769 14.826ZM7.1102 15.1468C6.69619 15.1468 6.39775 15.0368 6.17689 14.826L5.96972 15.0429C6.2596 15.3197 6.63945 15.4468 7.1102 15.4468V15.1468ZM12.8702 15.1468H7.1102V15.4468H12.8702V15.1468Z" fill="currentColor"/>
</svg>
