<svg viewBox="0 0 52 53" fill="none" xmlns="http://www.w3.org/2000/svg">
<path fill-rule="evenodd" clip-rule="evenodd" d="M7.12671 51.1057H14.4536V50.937H7.12671V51.1057Z" fill="#0B0B09"/>
<path fill-rule="evenodd" clip-rule="evenodd" d="M7.12671 51.1057H14.4536V50.937H7.12671V51.1057Z" stroke="#1A1919" stroke-width="0.7"/>
<path fill-rule="evenodd" clip-rule="evenodd" d="M37.1814 51.1057H44.6188V50.937H37.1814V51.1057Z" fill="#0B0B09"/>
<path fill-rule="evenodd" clip-rule="evenodd" d="M37.1814 51.1057H44.6188V50.937H37.1814V51.1057Z" stroke="#1A1919" stroke-width="0.7"/>
<mask id="mask0" mask-type="alpha" maskUnits="userSpaceOnUse" x="0" y="26" width="10" height="12">
<path fill-rule="evenodd" clip-rule="evenodd" d="M0.0205078 26.7273H9.92548V37.0924H0.0205078V26.7273Z" fill="white"/>
</mask>
<g mask="url(#mask0)">
<path fill-rule="evenodd" clip-rule="evenodd" d="M9.9255 33.0139V33.2238L9.89779 33.308L9.55842 33.5113C9.47529 33.5629 9.42705 33.6024 9.41303 33.6305C9.39934 33.6585 9.38189 33.7974 9.36137 34.0475C9.3405 34.2973 9.3299 34.6025 9.3299 34.962C9.3299 35.3687 9.35555 35.81 9.40618 36.2867L9.36479 36.3567C8.10037 36.8472 6.80139 37.0924 5.46787 37.0924C4.44361 37.0924 3.51821 36.8964 2.69237 36.5039C1.86653 36.1114 1.21139 35.5298 0.726632 34.7587C0.242211 33.9879 0 33.0721 0 32.0114C0 30.395 0.545658 29.1099 1.63697 28.1569C2.72795 27.2036 4.15282 26.7273 5.91089 26.7273C7.20268 26.7273 8.36345 26.9493 9.3925 27.3931L9.44074 27.4703C9.35795 27.7831 9.26079 28.4396 9.15029 29.4393L9.09487 29.4885H8.77637L8.72095 29.4324L8.68639 28.6893C8.67271 28.4469 8.65766 28.3041 8.64158 28.2619C8.62516 28.22 8.57555 28.1652 8.49276 28.0973C8.40963 28.0298 8.19616 27.922 7.85234 27.7748C7.50853 27.6279 7.16368 27.5202 6.81747 27.4527C6.47161 27.3848 6.10008 27.3508 5.70324 27.3508C4.85892 27.3508 4.11142 27.5285 3.46074 27.8836C2.81005 28.2387 2.31982 28.7562 1.99003 29.4358C1.65989 30.1158 1.495 30.8713 1.495 31.7031C1.495 32.5628 1.67255 33.363 2.028 34.1036C2.38311 34.8443 2.89318 35.4221 3.55755 35.8381C4.22192 36.2538 4.99474 36.462 5.87634 36.462C6.25916 36.462 6.65018 36.4232 7.04942 36.3463C7.44866 36.269 7.77742 36.1606 8.03571 36.0203C8.07745 35.871 8.09797 35.5696 8.09797 35.1162V34.3385C8.09797 33.9692 8.07505 33.7392 8.02887 33.6481C7.98268 33.557 7.86842 33.4926 7.68642 33.4552C7.50374 33.4181 7.11066 33.3946 6.50616 33.3852L6.44389 33.3222V33.0139L6.50616 32.9508L6.92832 32.9647C7.65255 32.9879 8.24337 32.9997 8.70042 32.9997C8.96316 32.9997 9.34837 32.9858 9.85605 32.9574L9.9255 33.0139Z" fill="#1A1919"/>
</g>
<path fill-rule="evenodd" clip-rule="evenodd" d="M12.2197 26.7896L13.0849 26.8176C13.6525 26.8363 14.024 26.8457 14.1991 26.8457C14.3562 26.8457 15.0181 26.827 16.1858 26.7896L16.2412 26.8387V27.189L16.1858 27.2381C15.8673 27.2475 15.6216 27.2614 15.4485 27.2801C15.2754 27.2988 15.1499 27.3341 15.0715 27.3854C14.9928 27.437 14.9408 27.5568 14.9155 27.7463C14.8902 27.9355 14.8775 28.1984 14.8775 28.5347L14.8639 30.2876V33.5323L14.8707 34.8989C14.8751 35.4268 14.8892 35.768 14.9121 35.9222C14.9354 36.0763 14.9685 36.1792 15.0127 36.2305C15.0565 36.2821 15.1406 36.325 15.2651 36.36C15.3897 36.3954 15.6965 36.422 16.1858 36.4407L16.2412 36.4827V36.8332L16.1858 36.8893C16.1625 36.8893 15.7568 36.8751 14.9675 36.8471C14.6398 36.8377 14.3839 36.8332 14.1991 36.8332C14.0561 36.8332 13.3966 36.8519 12.2197 36.8893L12.1643 36.8332V36.4827L12.2197 36.4407C12.6487 36.422 12.9351 36.3988 13.0781 36.3708C13.2211 36.3427 13.3169 36.3063 13.3651 36.262C13.4137 36.2177 13.453 36.1231 13.4828 35.9779C13.5129 35.8335 13.5303 35.511 13.5348 35.0108L13.5416 33.5323V30.2876L13.5279 28.78C13.5231 28.2472 13.5105 27.9039 13.49 27.7498C13.4691 27.5956 13.4366 27.4928 13.3928 27.4415C13.349 27.3902 13.2649 27.348 13.1403 27.315C13.0158 27.2825 12.7089 27.2569 12.2197 27.2381L12.1643 27.189V26.8387L12.2197 26.7896Z" fill="#1A1919"/>
<path fill-rule="evenodd" clip-rule="evenodd" d="M18.9492 36.8825L18.887 36.8195V36.497L18.9492 36.4409C19.2308 36.4364 19.4555 36.4197 19.6242 36.3917C19.7925 36.3636 19.901 36.3172 19.9495 36.2517C19.9978 36.1862 20.0303 36.0809 20.0464 35.9361C20.0624 35.7913 20.0785 35.4643 20.0946 34.9551C20.111 34.4459 20.1189 34.0815 20.1189 33.8619V28.0582C20.1189 27.8199 20.0765 27.6435 19.9909 27.5292C19.9054 27.4146 19.7891 27.3422 19.6413 27.3117C19.4939 27.2816 19.2424 27.2639 18.887 27.2594L18.8315 27.2033V26.8738L18.887 26.8108C19.524 26.8343 19.9413 26.8458 20.1398 26.8458C20.6057 26.8458 20.9889 26.8343 21.2889 26.8108L23.4968 29.7123L26.7427 33.9738C27.1348 34.474 27.534 34.9482 27.9404 35.3964V29.8311C27.9404 29.6631 27.9322 29.3046 27.9161 28.7555C27.8997 28.2065 27.8802 27.8583 27.8573 27.7114C27.834 27.5642 27.7937 27.4648 27.7359 27.4135C27.6784 27.3619 27.5699 27.3235 27.4109 27.2978C27.2514 27.2722 27.0359 27.257 26.7636 27.2521L26.7082 27.196V26.8738L26.7636 26.8108C27.1372 26.8343 27.6702 26.8458 28.3623 26.8458C28.9945 26.8458 29.4536 26.8343 29.7399 26.8108L29.8022 26.8738V27.196L29.7468 27.2521C29.4423 27.257 29.2069 27.2746 29.0406 27.3048C28.8747 27.3352 28.7707 27.3855 28.7293 27.4555C28.6876 27.5258 28.6589 27.6283 28.6428 27.7638C28.6264 27.8995 28.6103 28.222 28.5942 28.7309C28.5781 29.2405 28.5699 29.607 28.5699 29.8311V33.301L28.5771 35.2284C28.586 35.8589 28.6048 36.8462 28.6048 36.8462C28.6048 36.8462 27.9746 36.9501 27.4071 36.8333L26.9158 36.2444L25.4417 34.4224L20.749 28.3457V33.8619C20.749 34.0766 20.7569 34.4598 20.773 35.0109C20.7891 35.5624 20.8089 35.8967 20.8318 36.0134C20.8551 36.1301 20.8849 36.2108 20.9218 36.2552C20.9588 36.2995 21.0385 36.3404 21.1606 36.3778C21.2831 36.4152 21.5355 36.4364 21.9187 36.4409L21.9738 36.497V36.8261L21.9187 36.8825C21.6785 36.8496 21.2909 36.8333 20.7559 36.8333C20.0683 36.8333 19.4661 36.8496 18.9492 36.8825Z" fill="#1A1919"/>
<path fill-rule="evenodd" clip-rule="evenodd" d="M31.2249 36.8259V36.4899L32.8926 34.4015L36.845 29.1094C37.4447 28.3338 37.8484 27.7778 38.0564 27.4415H37.7724L36.6582 27.4342C35.6797 27.4342 34.8919 27.4498 34.2942 27.4799C33.6969 27.5104 33.3021 27.5419 33.1109 27.5745C32.9193 27.6074 32.8016 27.6528 32.7578 27.7113C32.714 27.7695 32.6781 27.9088 32.6507 28.1284L32.5536 29.0533L32.4913 29.1164H32.166L32.1037 29.0533C32.1266 28.6982 32.1383 28.4156 32.1383 28.2053C32.1383 27.6355 32.1266 27.1845 32.1037 26.8526L32.166 26.7896C33.8132 26.827 34.9647 26.8457 35.6199 26.8457C36.7088 26.8457 38.1391 26.827 39.9112 26.7896L39.9735 26.8526V27.2101C39.4658 27.8177 39.1104 28.2521 38.9075 28.5136L33.142 36.1744L35.9452 36.2236C36.5032 36.2236 37.0663 36.2093 37.6339 36.1813C38.2014 36.1536 38.5753 36.1252 38.7553 36.0975C38.9352 36.0694 39.0587 36.0285 39.1254 35.9748C39.1925 35.9211 39.2373 35.8671 39.2606 35.8134C39.2835 35.7601 39.3204 35.5997 39.3711 35.3333L39.5236 34.3942L39.5859 34.3384H39.9112L39.9663 34.3942C39.9342 34.6931 39.9017 35.5061 39.8695 36.8332L39.8072 36.8893C37.86 36.8519 36.3236 36.8332 35.1977 36.8332C34.4085 36.8332 33.1051 36.8519 31.2871 36.8893L31.2249 36.8259Z" fill="#1A1919"/>
<path fill-rule="evenodd" clip-rule="evenodd" d="M44.5127 32.9572H48.0148L46.2776 28.7314L44.5127 32.9572ZM41.3565 36.8892L41.2942 36.8331V36.4687L41.3565 36.4126C41.6934 36.4081 41.9103 36.3904 42.0071 36.3599C42.104 36.3298 42.1905 36.2688 42.2668 36.1777C42.3427 36.0866 42.496 35.789 42.7269 35.2843L43.4536 33.6864L45.3362 29.3691C45.6916 28.5235 46.0447 27.678 46.3953 26.832H46.8452L50.1951 34.8077C50.3104 35.0737 50.4431 35.3636 50.593 35.6764C50.7431 35.9896 50.8468 36.1742 50.9046 36.2304C50.9621 36.2865 51.0336 36.3298 51.1191 36.3599C51.2043 36.3904 51.3948 36.4081 51.6901 36.4126L51.7455 36.4687V36.8331L51.6901 36.8892C51.2009 36.847 50.7602 36.8258 50.3682 36.8258C49.6022 36.8494 48.8362 36.8705 48.0703 36.8892L48.0148 36.8331V36.4687L48.0703 36.4126C48.5868 36.4032 48.9101 36.381 49.0391 36.3461C49.1684 36.3111 49.2331 36.2304 49.2331 36.1043C49.2331 36.0017 49.2006 35.8659 49.1363 35.6976L48.2848 33.5603H44.2773L43.523 35.3543C43.3889 35.6764 43.3222 35.9127 43.3222 36.062C43.3222 36.1791 43.3845 36.2653 43.509 36.3215C43.6335 36.3776 43.9476 36.4081 44.4505 36.4126L44.5127 36.4687V36.8331L44.4573 36.8892C43.862 36.8518 43.3407 36.8331 42.8928 36.8331C42.3855 36.8331 41.8734 36.8518 41.3565 36.8892Z" fill="#1A1919"/>
<path fill-rule="evenodd" clip-rule="evenodd" d="M16.7084 50.8453C16.7084 50.917 16.7225 50.9936 16.7502 51.0757C16.7779 51.1578 16.8227 51.2198 16.8846 51.262C16.9466 51.3039 17.0163 51.3251 17.0937 51.3251C17.1966 51.3251 17.2856 51.2911 17.3602 51.2232C17.4347 51.1553 17.472 51.0493 17.472 50.9052C17.472 50.7833 17.4382 50.6738 17.3697 50.5765C17.3013 50.4792 17.2048 50.4307 17.08 50.4307C16.9746 50.4307 16.8863 50.4656 16.8152 50.5353C16.744 50.6049 16.7084 50.7081 16.7084 50.8453ZM17.2168 52.0245C17.0307 52.0245 16.9233 52.0269 16.8949 52.0317C16.8668 52.0362 16.8265 52.0563 16.7745 52.0913C16.7225 52.1267 16.6801 52.1741 16.6469 52.2347C16.614 52.295 16.5973 52.3626 16.5973 52.4374C16.5973 52.5701 16.6462 52.6778 16.7433 52.7609C16.8405 52.8441 16.9698 52.8856 17.132 52.8856C17.2534 52.8856 17.3656 52.86 17.4686 52.8084C17.5716 52.7568 17.6475 52.6878 17.6968 52.6009C17.7461 52.5143 17.7707 52.4312 17.7707 52.3515C17.7707 52.2718 17.7502 52.2036 17.7091 52.1468C17.6681 52.0899 17.6147 52.0553 17.5493 52.0432C17.484 52.0307 17.3732 52.0245 17.2168 52.0245ZM18.1196 50.4379L18.1333 50.4695C18.0861 50.5432 18.0563 50.591 18.0447 50.6132H17.7221C17.7543 50.6776 17.7707 50.7452 17.7707 50.8155C17.7707 50.8987 17.7519 50.9797 17.7142 51.058C17.6766 51.1366 17.6243 51.2031 17.5572 51.2582C17.4902 51.3136 17.4139 51.3573 17.329 51.3902C17.2438 51.4231 17.147 51.4394 17.0382 51.4394H16.9585C16.8901 51.4945 16.8463 51.5353 16.8265 51.5624C16.807 51.5894 16.7971 51.6168 16.7971 51.6452C16.7971 51.6968 16.8203 51.7328 16.8672 51.7539C16.9141 51.7751 17.0112 51.7855 17.158 51.7855L17.5469 51.7803C17.6694 51.7803 17.7635 51.7952 17.8288 51.8242C17.8942 51.8533 17.9472 51.906 17.9876 51.9815C18.0279 52.057 18.0485 52.1371 18.0485 52.2212C18.0485 52.3504 18.0071 52.479 17.9243 52.6071C17.8415 52.7353 17.7221 52.833 17.5658 52.8998C17.4098 52.9667 17.2432 52.9999 17.0659 52.9999C16.9654 52.9999 16.8706 52.9889 16.7823 52.9667C16.6937 52.9442 16.6161 52.9106 16.5497 52.8655C16.483 52.8202 16.4296 52.7616 16.3893 52.6889C16.3486 52.6161 16.3284 52.5406 16.3284 52.462C16.3284 52.4187 16.3349 52.3736 16.3475 52.3258C16.3602 52.2784 16.3845 52.2271 16.4204 52.172L16.7344 51.9947C16.6339 51.9632 16.5706 51.9316 16.5446 51.9005C16.5186 51.8696 16.5052 51.8326 16.5052 51.7889C16.5052 51.7446 16.5199 51.6919 16.5487 51.631L16.8282 51.4273C16.664 51.3836 16.5531 51.3188 16.496 51.2319C16.4385 51.1453 16.4101 51.0504 16.4101 50.9472C16.4101 50.8526 16.4303 50.7618 16.4707 50.6759C16.5111 50.5897 16.5723 50.5207 16.6537 50.4695C16.7355 50.4178 16.8268 50.377 16.9281 50.3472C17.0293 50.3174 17.1217 50.3025 17.2048 50.3025C17.3496 50.3025 17.4871 50.3499 17.6178 50.4449C17.8275 50.4449 17.9944 50.4424 18.1196 50.4379Z" fill="#1A1919"/>
<path fill-rule="evenodd" clip-rule="evenodd" d="M19.8752 49.5308C19.9628 49.5308 20.0371 49.5502 20.0988 49.589C20.1599 49.6278 20.1908 49.6745 20.1908 49.7296C20.1908 49.7833 20.1599 49.8297 20.0988 49.8685C20.0371 49.907 19.9628 49.9264 19.8752 49.9264C19.7893 49.9264 19.7155 49.9073 19.6533 49.8692C19.5905 49.8311 19.5596 49.7847 19.5596 49.7296C19.5596 49.6745 19.5905 49.6278 19.6533 49.589C19.7155 49.5502 19.7893 49.5308 19.8752 49.5308ZM20.1126 50.3164L20.166 50.3393C20.145 50.4927 20.1351 50.6878 20.1351 50.9247V51.3217C20.1351 51.3473 20.1384 51.4304 20.1462 51.5704C20.1533 51.7103 20.1616 51.7921 20.1698 51.8157C20.1781 51.8389 20.1908 51.8558 20.2073 51.8666C20.2244 51.877 20.2447 51.8839 20.269 51.8867C20.2932 51.8894 20.394 51.8946 20.5707 51.9016L20.5961 51.9158V51.9895L20.5735 52.0051C20.3406 51.9958 20.1164 51.9913 19.9 51.9913C19.6863 51.9913 19.4627 51.9958 19.2298 52.0051L19.2044 51.9895V51.9158L19.2298 51.9016C19.4104 51.8946 19.5123 51.8894 19.5354 51.886C19.5591 51.8822 19.5795 51.8749 19.5971 51.8638C19.6147 51.8527 19.6268 51.8357 19.6334 51.8129C19.6401 51.79 19.6472 51.7145 19.656 51.5863C19.6643 51.4578 19.6681 51.3608 19.6681 51.2953V50.9493C19.6681 50.9022 19.6648 50.8384 19.6571 50.7574C19.65 50.6767 19.6434 50.6271 19.6389 50.6081C19.6345 50.5894 19.6197 50.5759 19.596 50.5669C19.5712 50.5582 19.5233 50.5537 19.4506 50.5537L19.2155 50.552L19.1907 50.5381V50.4626L19.2127 50.4484C19.5685 50.4214 19.8686 50.3774 20.1126 50.3164Z" fill="#1A1919"/>
<path fill-rule="evenodd" clip-rule="evenodd" d="M21.6801 50.3165L21.7129 50.3393C21.7061 50.4179 21.7017 50.5208 21.6993 50.6487C21.7916 50.5714 21.8796 50.4928 21.963 50.4131C21.9873 50.3909 22.0102 50.3746 22.0314 50.3639C22.053 50.3535 22.0886 50.3424 22.1382 50.3307C22.1881 50.3189 22.2391 50.313 22.2911 50.313C22.379 50.313 22.4642 50.3313 22.547 50.3674C22.6298 50.4037 22.6921 50.447 22.7345 50.4966C22.7766 50.5465 22.806 50.6054 22.8221 50.6732C22.8381 50.7411 22.8463 50.825 22.8463 50.9247V51.2337C22.8463 51.2538 22.8491 51.3997 22.8552 51.6712C22.8573 51.7828 22.8696 51.8489 22.8915 51.8701C22.9134 51.8912 22.9852 51.9016 23.1067 51.9016L23.1207 51.9158V51.9913L23.1067 52.0052C22.9599 51.9958 22.8604 51.9913 22.808 51.9913C22.7783 51.9913 22.6938 51.9958 22.5549 52.0052L22.534 51.9861C22.5491 51.8337 22.5566 51.6352 22.5566 51.3903V51.1599C22.5566 51.0217 22.5532 50.9223 22.547 50.8613C22.5405 50.8004 22.5213 50.745 22.4888 50.6951C22.4563 50.6455 22.4132 50.6067 22.3588 50.5794C22.3044 50.5517 22.2394 50.5382 22.1642 50.5382C22.104 50.5382 22.0527 50.544 22.0099 50.5565C21.9671 50.5686 21.9189 50.5939 21.8659 50.632C21.8125 50.6701 21.7732 50.7058 21.7478 50.7391C21.7222 50.7727 21.7071 50.8035 21.7017 50.8322C21.6965 50.861 21.6938 50.9223 21.6938 51.0158V51.3217C21.6938 51.3474 21.6962 51.4305 21.701 51.5704C21.7054 51.7104 21.7106 51.7921 21.7157 51.8157C21.7208 51.8389 21.7287 51.8559 21.7389 51.8666C21.7496 51.877 21.7622 51.8839 21.7773 51.8867C21.7923 51.8895 21.8549 51.8947 21.9647 51.9016L21.9805 51.9158V51.9896L21.9664 52.0052C21.8217 51.9958 21.6825 51.9913 21.5481 51.9913C21.415 51.9913 21.2764 51.9958 21.1317 52.0052L21.116 51.9896V51.9158L21.1317 51.9016C21.2439 51.8947 21.3072 51.8895 21.3216 51.886C21.3363 51.8822 21.3489 51.8749 21.3599 51.8638C21.3708 51.8528 21.3784 51.8358 21.3825 51.8129C21.3866 51.7901 21.391 51.7145 21.3962 51.5864C21.4016 51.4579 21.404 51.3609 21.404 51.2954V50.9493C21.404 50.9022 21.4016 50.8385 21.3972 50.7574C21.3924 50.6767 21.3886 50.6272 21.3859 50.6081C21.3832 50.5894 21.3739 50.5759 21.3592 50.5669C21.3438 50.5582 21.3141 50.5537 21.2689 50.5537L21.1228 50.552L21.1074 50.5382V50.4626L21.1211 50.4484C21.3421 50.4214 21.5286 50.3774 21.6801 50.3165Z" fill="#1A1919"/>
<path fill-rule="evenodd" clip-rule="evenodd" d="M24.1962 52.005L24.1804 51.9911L24.165 51.9242C24.3142 51.7639 24.4572 51.5969 24.5937 51.4233L24.9772 50.9418C25.0976 50.7943 25.2098 50.6419 25.3138 50.4849H24.9043C24.8718 50.4849 24.7972 50.4877 24.6802 50.4929C24.5636 50.4981 24.4986 50.5074 24.4859 50.521C24.4733 50.5345 24.4558 50.611 24.4339 50.7503L24.4237 50.8067L24.4096 50.8206H24.3402L24.3245 50.8047C24.3361 50.6197 24.3419 50.5126 24.3419 50.4832C24.3419 50.4551 24.3409 50.4153 24.3385 50.3637L24.3525 50.3516C24.7829 50.3609 25.1257 50.3654 25.3816 50.3654C25.5181 50.3654 25.6258 50.3609 25.7042 50.3516L25.7182 50.3654V50.4499C25.6385 50.539 25.514 50.6924 25.345 50.9103L24.8903 51.4957C24.7562 51.6679 24.6618 51.7926 24.6074 51.8699H24.7292L25.0761 51.8647C25.2033 51.8633 25.3104 51.8581 25.3973 51.8487C25.4839 51.8394 25.5345 51.8314 25.5489 51.8248C25.5636 51.8186 25.5725 51.8127 25.5759 51.8075C25.5793 51.802 25.5896 51.7656 25.6063 51.6977C25.6231 51.6298 25.6361 51.5664 25.6453 51.5079L25.6611 51.4937H25.7391L25.7548 51.5096C25.7267 51.7181 25.7114 51.8785 25.7079 51.9911L25.6939 52.005C25.3467 51.9946 25.0836 51.9894 24.9043 51.9894C24.7459 51.9894 24.5095 51.9946 24.1962 52.005Z" fill="#1A1919"/>
<path fill-rule="evenodd" clip-rule="evenodd" d="M27.911 51.0775C27.5867 51.1326 27.3848 51.1918 27.3051 51.2548C27.2251 51.3182 27.1854 51.4159 27.1854 51.5482C27.1854 51.7311 27.275 51.8226 27.4543 51.8226C27.6082 51.8226 27.7605 51.7325 27.911 51.5521V51.0775ZM27.1057 50.7997L27.0379 50.7823L27.0239 50.7647V50.5468C27.2299 50.3919 27.43 50.3147 27.6243 50.3147C27.7574 50.3147 27.8679 50.34 27.9558 50.3902C28.0437 50.4408 28.1074 50.5038 28.1467 50.5794C28.186 50.6549 28.2059 50.7432 28.2059 50.8437L28.1973 51.197V51.7208C28.1973 51.7921 28.2021 51.8354 28.2117 51.8507C28.2216 51.8659 28.2329 51.8759 28.2456 51.8815C28.2586 51.8867 28.2822 51.8912 28.3167 51.8947L28.4159 51.9037L28.4296 51.9192V51.9896L28.4159 52.0038C28.3314 51.9965 28.2528 51.993 28.1799 51.993C28.1104 51.993 28.027 51.9965 27.9298 52.0038L27.9038 51.9788L27.911 51.6958L27.5323 51.9948C27.469 52.0218 27.3995 52.0353 27.3243 52.0353C27.2316 52.0353 27.1522 52.0183 27.0855 51.9844C27.0191 51.9504 26.9681 51.9026 26.9329 51.842C26.8973 51.781 26.8799 51.7072 26.8799 51.6206C26.8799 51.4481 26.9333 51.3137 27.0396 51.2171C27.146 51.1204 27.4365 51.0383 27.911 50.9704C27.911 50.7969 27.8727 50.6746 27.7964 50.6039C27.7198 50.5329 27.6175 50.4976 27.4892 50.4976C27.4218 50.4976 27.3609 50.5076 27.3061 50.5274C27.2511 50.5475 27.2196 50.5634 27.2114 50.5759C27.2032 50.588 27.172 50.6597 27.1176 50.791L27.1057 50.7997Z" fill="#1A1919"/>
<path fill-rule="evenodd" clip-rule="evenodd" d="M29.7745 51.6028C29.8299 51.6028 29.8782 51.6225 29.9196 51.6624C29.9606 51.7022 29.9811 51.7528 29.9811 51.8134C29.9811 51.8709 29.9606 51.9201 29.9202 51.9613C29.8795 52.0022 29.8313 52.0226 29.7745 52.0226C29.7167 52.0226 29.6674 52.0025 29.6271 51.962C29.5863 51.9218 29.5662 51.8723 29.5662 51.8134C29.5662 51.7549 29.5863 51.7053 29.6271 51.6641C29.6674 51.6232 29.7167 51.6028 29.7745 51.6028Z" fill="#1A1919"/>
<path fill-rule="evenodd" clip-rule="evenodd" d="M31.6899 50.3165L31.7231 50.3393C31.7159 50.4072 31.7107 50.5281 31.7073 50.7013L31.8373 50.5343C31.8801 50.4793 31.9181 50.437 31.9512 50.4072C31.9841 50.3771 32.0224 50.3539 32.0665 50.3376C32.1103 50.3213 32.1555 50.313 32.202 50.313C32.2526 50.313 32.3009 50.3234 32.346 50.3449L32.358 50.3695C32.3395 50.525 32.3293 50.6622 32.3269 50.7803H32.2489C32.2023 50.6726 32.1278 50.6189 32.0248 50.6189C31.953 50.6189 31.8907 50.6417 31.8373 50.6881C31.7843 50.7346 31.7487 50.7924 31.7306 50.862C31.7128 50.9317 31.7039 51.02 31.7039 51.1267V51.3217C31.7039 51.3571 31.706 51.443 31.7107 51.5801C31.7152 51.7173 31.7203 51.7963 31.7255 51.8174C31.7306 51.8382 31.7388 51.8538 31.7497 51.8638C31.7607 51.8739 31.7751 51.8805 31.7932 51.8843C31.811 51.8874 31.8934 51.8936 32.0405 51.9016L32.0559 51.9158V51.9896L32.0405 52.0052C31.8866 51.9958 31.7258 51.9913 31.5578 51.9913C31.4247 51.9913 31.2862 51.9958 31.1415 52.0052L31.1257 51.9896V51.9158L31.1415 51.9016C31.2537 51.8947 31.317 51.8895 31.3313 51.886C31.3461 51.8822 31.3587 51.8749 31.3697 51.8638C31.3806 51.8528 31.3881 51.8358 31.3922 51.8129C31.3963 51.7901 31.4008 51.7145 31.4063 51.5864C31.4114 51.4579 31.4138 51.3609 31.4138 51.2954V50.9493C31.4138 50.9022 31.4117 50.8385 31.407 50.7574C31.4022 50.6767 31.3987 50.6272 31.3957 50.6081C31.3929 50.5894 31.3837 50.5759 31.3686 50.5669C31.3536 50.5582 31.3238 50.5537 31.2787 50.5537L31.1329 50.552L31.1172 50.5382V50.4626L31.1312 50.4484C31.3522 50.4214 31.5383 50.3774 31.6899 50.3165Z" fill="#1A1919"/>
<path fill-rule="evenodd" clip-rule="evenodd" d="M33.9731 50.3164L34.0059 50.3393C33.9933 50.4927 33.9871 50.6878 33.9871 50.9247V51.3341C33.9871 51.4838 33.9984 51.5884 34.021 51.6466C34.0432 51.7055 34.0825 51.7502 34.138 51.7814C34.1934 51.8125 34.2594 51.8278 34.3357 51.8278C34.4202 51.8278 34.4972 51.8111 34.5666 51.7779C34.6361 51.7443 34.6942 51.6972 34.7411 51.6362C34.788 51.5752 34.8147 51.5344 34.8218 51.5132C34.8287 51.4921 34.8335 51.4332 34.8355 51.3359L34.841 51.1388V50.9493C34.841 50.9022 34.8386 50.8384 34.8338 50.7574C34.8294 50.6767 34.8256 50.6271 34.8225 50.6081C34.8198 50.5894 34.8109 50.5759 34.7958 50.5669C34.7808 50.5582 34.7507 50.5537 34.7055 50.5537L34.5598 50.552L34.544 50.5381V50.4626L34.5581 50.4484C34.7787 50.4214 34.9652 50.3774 35.1167 50.3164L35.1499 50.3393C35.1369 50.4927 35.1308 50.6878 35.1308 50.9247V51.2337C35.1308 51.2514 35.1335 51.3948 35.1393 51.6643C35.1417 51.764 35.1479 51.8247 35.1574 51.8461C35.1674 51.868 35.181 51.8832 35.1985 51.8919C35.2156 51.9005 35.2673 51.905 35.3528 51.905H35.4014L35.4171 51.9192V51.9895L35.4031 52.0051C35.2399 51.9958 35.1308 51.9913 35.075 51.9913C35.0045 51.9913 34.9231 51.9954 34.8304 52.0037L34.8147 51.9895C34.8218 51.87 34.827 51.7685 34.8304 51.6854C34.7575 51.7429 34.674 51.8198 34.5807 51.9158C34.5447 51.9521 34.4931 51.9826 34.426 52.0072C34.359 52.0318 34.2827 52.0439 34.1972 52.0439C34.0675 52.0439 33.9666 52.0231 33.894 51.9816C33.8219 51.94 33.7705 51.8825 33.7404 51.8094C33.7103 51.7363 33.6953 51.6099 33.6953 51.4308L33.697 51.2919V50.9493C33.697 50.9022 33.6949 50.8384 33.6902 50.7574C33.6854 50.6767 33.6819 50.6271 33.6789 50.6081C33.6761 50.5894 33.6669 50.5759 33.6522 50.5669C33.6371 50.5582 33.607 50.5537 33.5619 50.5537L33.4158 50.552L33.4004 50.5381V50.4626L33.4144 50.4484C33.6351 50.4214 33.8215 50.3774 33.9731 50.3164Z" fill="#1A1919"/>
<path fill-rule="evenodd" clip-rule="evenodd" d="M7.147 40.9897C7.76245 41.0094 8.1545 41.0194 8.32316 41.0194C8.55271 41.0194 8.81031 41.0132 9.09597 41.0007C9.39874 40.991 9.58553 40.9858 9.65634 40.9858C9.99845 40.9858 10.281 41.0219 10.5044 41.0936C10.7278 41.1653 10.9129 41.2962 11.0597 41.4867C11.2061 41.6773 11.2793 41.9073 11.2793 42.1768C11.2793 42.3992 11.228 42.6143 11.1253 42.8221C11.0231 43.03 10.8801 43.2066 10.6967 43.3525C10.5137 43.4987 10.3279 43.6029 10.1401 43.666C9.95192 43.729 9.75658 43.7605 9.55405 43.7605C9.4025 43.7605 9.23384 43.7432 9.04842 43.7086L8.98616 43.4824L9.019 43.4453C9.20203 43.4876 9.35118 43.5084 9.46579 43.5084C9.786 43.5084 10.0429 43.4013 10.2372 43.1876C10.4312 42.9735 10.5284 42.6995 10.5284 42.3659C10.5284 42.0296 10.4274 41.7614 10.2263 41.5609C10.0244 41.3607 9.71997 41.2605 9.31218 41.2605C9.08981 41.2605 8.84555 41.3025 8.57939 41.3866C8.5575 41.5772 8.54655 42.0372 8.54655 42.7664V44.4838L8.55031 45.2071C8.55271 45.4867 8.55989 45.6672 8.57221 45.7489C8.58418 45.8303 8.60197 45.8847 8.62524 45.9121C8.6485 45.9391 8.69297 45.9623 8.759 45.9807C8.82503 45.999 8.98718 46.0136 9.24616 46.0233L9.27558 46.0454V46.2311L9.24616 46.2606C8.62353 46.2408 8.27287 46.2311 8.19487 46.2311C8.11174 46.2311 7.76245 46.2408 7.147 46.2606L7.11792 46.2311V46.0454L7.147 46.0233C7.37416 46.0136 7.52571 46.0011 7.60131 45.9862C7.67692 45.9713 7.72789 45.9523 7.75321 45.9287C7.77921 45.9051 7.79974 45.8553 7.81547 45.7784C7.83155 45.7018 7.84079 45.5314 7.84318 45.2667L7.84695 44.4838V42.7664L7.83942 42.0431C7.83703 41.7614 7.83018 41.5796 7.81924 41.4978C7.80829 41.4161 7.79118 41.362 7.76792 41.3347C7.74466 41.3077 7.70018 41.2851 7.63416 41.2678C7.56847 41.2505 7.40597 41.237 7.147 41.2269L7.11792 41.2013V41.0156L7.147 40.9897Z" fill="#1A1919"/>
<path fill-rule="evenodd" clip-rule="evenodd" d="M12.6592 41.0156L12.6883 40.9897C13.1354 41.0094 13.4837 41.0194 13.7327 41.0194C14.0084 41.0194 14.381 41.0108 14.85 40.9935C15.0235 40.9886 15.149 40.9858 15.2274 40.9858C15.8452 40.9858 16.2639 41.0998 16.4839 41.3274C16.7035 41.5546 16.8134 41.8245 16.8134 42.1359C16.8134 42.3437 16.7597 42.5478 16.6522 42.748C16.5448 42.9482 16.3861 43.1193 16.176 43.2617C15.966 43.4037 15.6765 43.5108 15.3078 43.5825C15.3762 43.6791 15.4993 43.8458 15.6776 44.0834L16.1979 44.7807C16.3666 45.0107 16.5472 45.2536 16.7402 45.5095C16.9328 45.7655 17.0576 45.91 17.1137 45.9436C17.1698 45.9768 17.2184 45.9973 17.2584 46.0049C17.2988 46.0122 17.3631 46.016 17.4507 46.016L17.4801 46.0454V46.22L17.4469 46.2533C17.3299 46.2384 17.1907 46.2311 17.0296 46.2311C16.8561 46.2311 16.6669 46.2384 16.4617 46.2533C16.293 46.0454 16.0282 45.6859 15.6666 45.1739C15.2465 44.5805 14.8168 44.03 14.3772 43.5233L14.4138 43.4083C14.5408 43.4155 14.6396 43.4193 14.7108 43.4193C15.1333 43.4193 15.4641 43.3168 15.7036 43.1114C15.9427 42.9063 16.0624 42.6219 16.0624 42.2582C16.0624 41.9319 15.955 41.6852 15.7402 41.5183C15.5253 41.3513 15.2345 41.2678 14.8682 41.2678C14.6119 41.2678 14.37 41.3038 14.1429 41.3755C14.1063 41.4299 14.0878 41.8938 14.0878 42.7664V44.4838L14.0916 45.2071C14.094 45.4867 14.1012 45.6672 14.1135 45.7489C14.1258 45.8303 14.1432 45.8847 14.1665 45.9121C14.1898 45.9391 14.2346 45.9623 14.3003 45.9807C14.3663 45.999 14.5288 46.0136 14.7874 46.0233L14.8168 46.0454V46.2311L14.7874 46.2606C14.7751 46.2606 14.5603 46.2533 14.1429 46.2384C13.9694 46.2335 13.834 46.2311 13.7361 46.2311C13.6605 46.2311 13.3112 46.2408 12.6883 46.2606L12.6592 46.2311V46.0454L12.6883 46.0233C12.9158 46.0136 13.067 46.0011 13.1426 45.9862C13.2185 45.9713 13.2692 45.9523 13.2948 45.9287C13.3205 45.9051 13.3413 45.8553 13.3571 45.7784C13.3728 45.7018 13.382 45.5314 13.3844 45.2667L13.3882 44.4838V42.7664L13.3807 42.0431C13.3786 41.7614 13.3718 41.5796 13.3608 41.4978C13.3499 41.4161 13.3324 41.362 13.3092 41.3347C13.2863 41.3077 13.2418 41.2851 13.1758 41.2678C13.1097 41.2505 12.9476 41.237 12.6883 41.2269L12.6592 41.2013V41.0156Z" fill="#1A1919"/>
<path fill-rule="evenodd" clip-rule="evenodd" d="M19.2178 43.4304C19.2178 43.7322 19.266 44.0567 19.3625 44.4042C19.459 44.7516 19.603 45.0495 19.7946 45.2983C19.9865 45.5466 20.2071 45.7316 20.4576 45.8525C20.708 45.9741 20.9933 46.0344 21.3132 46.0344C21.6919 46.0344 22.0285 45.9467 22.3241 45.7711C22.6197 45.5955 22.8444 45.3228 22.9984 44.9532C23.152 44.5836 23.229 44.1686 23.229 43.7086C23.229 43.2091 23.141 42.7577 22.9652 42.3548C22.7894 41.9516 22.5389 41.6586 22.2143 41.4757C21.8893 41.2928 21.5294 41.2013 21.1336 41.2013C20.5404 41.2013 20.0724 41.3891 19.7306 41.7649C19.3885 42.1408 19.2178 42.6961 19.2178 43.4304ZM18.4556 43.6753C18.4556 43.3043 18.5083 42.9583 18.6133 42.6365C18.7183 42.3154 18.8972 42.0178 19.15 41.7445C19.4029 41.4715 19.7073 41.2599 20.0638 41.1102C20.4206 40.9606 20.8236 40.8857 21.2728 40.8857C22.1055 40.8857 22.7685 41.1154 23.2621 41.574C23.7555 42.0327 24.0021 42.659 24.0021 43.4526C24.0021 44.0117 23.8814 44.5136 23.6395 44.9588C23.3976 45.4039 23.0514 45.75 22.6009 45.9973C22.1503 46.2446 21.644 46.3683 21.0823 46.3683C20.6844 46.3683 20.318 46.3007 19.9834 46.166C19.6488 46.0316 19.3635 45.8303 19.1281 45.5633C18.8921 45.2962 18.7214 44.9872 18.6153 44.6359C18.5089 44.285 18.4556 43.9646 18.4556 43.6753Z" fill="#1A1919"/>
<path fill-rule="evenodd" clip-rule="evenodd" d="M27.4682 41.0157V41.2014L27.4425 41.227C27.2715 41.2322 27.1405 41.2395 27.0488 41.2496C26.9571 41.2592 26.8907 41.278 26.849 41.305C26.8072 41.3323 26.7799 41.3961 26.7665 41.4962C26.7532 41.5963 26.7463 41.7352 26.7463 41.9136L26.7392 42.7665V44.1022C26.7392 44.4929 26.705 44.8127 26.6365 45.061C26.5681 45.3098 26.4487 45.5398 26.2777 45.7511C26.1066 45.9624 25.9301 46.1197 25.7481 46.2222C25.5661 46.3247 25.3861 46.376 25.2079 46.376C25.1566 46.376 25.1053 46.3698 25.054 46.3576C25.0587 46.2586 25.0625 46.1598 25.0649 46.0608C25.0649 45.9988 25.0611 45.9073 25.054 45.7864L25.1237 45.7383C25.2483 45.8321 25.379 45.8789 25.5155 45.8789C25.6352 45.8789 25.7337 45.856 25.8103 45.8103C25.8873 45.7646 25.9417 45.7029 25.9735 45.625C26.0053 45.5471 26.0248 45.4043 26.032 45.1965C26.0396 44.9886 26.043 44.8109 26.043 44.6623V42.7665L26.0358 42.0432C26.0334 41.7615 26.0259 41.5797 26.0139 41.4979C26.0016 41.4162 25.9838 41.3621 25.9609 41.3348C25.9373 41.3077 25.8935 41.2852 25.8288 41.2679C25.7642 41.2506 25.601 41.2371 25.34 41.227L25.314 41.2014V41.0157L25.34 40.9897C25.9578 41.0095 26.3081 41.0195 26.3912 41.0195C26.4764 41.0195 26.8271 41.0095 27.4425 40.9897L27.4682 41.0157Z" fill="#1A1919"/>
<path fill-rule="evenodd" clip-rule="evenodd" d="M28.938 41.0157L28.9671 40.9897C29.8049 41.0046 30.341 41.0119 30.5753 41.0119C31.3765 41.0119 32.0895 41.0046 32.7148 40.9897L32.733 41.0157C32.6721 41.253 32.6269 41.6254 32.5975 42.1322L32.5756 42.162H32.3963L32.3631 42.1322C32.3655 42.11 32.3666 42.0903 32.3666 42.073C32.3666 41.8627 32.3508 41.6625 32.319 41.4719C32.1654 41.403 31.9523 41.3576 31.68 41.3365C31.4076 41.3157 31.2031 41.305 31.0662 41.305C30.8733 41.305 30.627 41.3185 30.3263 41.3459L30.3115 41.9392L30.3006 42.6182L30.2896 43.3713C30.5534 43.3862 30.7966 43.3935 31.0187 43.3935C31.2434 43.3935 31.4313 43.3862 31.5828 43.3713C31.7344 43.3564 31.823 43.3408 31.8483 43.3249C31.8743 43.3089 31.8934 43.2778 31.9071 43.232C31.9205 43.1863 31.9321 43.1056 31.9417 42.9892L31.9564 42.7592L31.9858 42.7294H32.1545L32.1835 42.7592C32.1788 43.0287 32.1726 43.2996 32.1654 43.5715L32.1835 44.406L32.1545 44.4358H31.9858L31.9564 44.406L31.9311 44.1836C31.9088 44.0104 31.8931 43.9072 31.8832 43.8739C31.8736 43.8403 31.8507 43.8116 31.8154 43.7866C31.7799 43.762 31.6892 43.7423 31.5424 43.7274C31.396 43.7125 31.1945 43.7049 30.9383 43.7049C30.7966 43.7049 30.5804 43.7111 30.2896 43.7236C30.2773 43.9314 30.2715 44.2775 30.2715 44.7621C30.2715 45.2814 30.2773 45.6634 30.2896 45.9084H30.9636C31.5571 45.9084 31.9283 45.9011 32.0775 45.8862C32.2263 45.8713 32.3679 45.8356 32.5024 45.7785C32.5243 45.7216 32.5605 45.59 32.6105 45.3836C32.6604 45.1771 32.6892 45.0479 32.6964 44.9959L32.733 44.9699H32.9091L32.9382 44.9959C32.9163 45.1023 32.8951 45.2876 32.8743 45.5522C32.8534 45.8169 32.8431 46.0431 32.8431 46.2312L32.8175 46.2606C32.3508 46.2461 31.7402 46.2385 30.9858 46.2385L29.9893 46.2312C29.7573 46.2312 29.5155 46.2409 29.264 46.2606L29.2346 46.2312V46.1086L29.264 46.0715C29.408 45.9974 29.4905 45.951 29.5114 45.9326C29.5319 45.9139 29.549 45.6974 29.5627 45.2834C29.576 44.8691 29.5825 44.5532 29.5825 44.3357V42.9743L29.5791 42.1322C29.5791 41.9493 29.5767 41.8003 29.5716 41.6853C29.5668 41.5703 29.5582 41.4882 29.5459 41.4387C29.5339 41.3892 29.5196 41.3545 29.5042 41.3348C29.4881 41.315 29.4624 41.2984 29.4269 41.2845C29.3916 41.271 29.3311 41.2592 29.2459 41.2496L28.9671 41.227L28.938 41.2014V41.0157Z" fill="#1A1919"/>
<path fill-rule="evenodd" clip-rule="evenodd" d="M39.0613 45.6042L38.9221 45.9492C38.3798 46.2287 37.801 46.3683 37.1855 46.3683C36.3039 46.3683 35.5879 46.1148 35.0371 45.608C34.4863 45.1008 34.2109 44.4382 34.2109 43.6196C34.2109 43.056 34.3485 42.5631 34.6232 42.1415C34.8979 41.7199 35.2605 41.4047 35.7111 41.1955C36.1616 40.9866 36.6679 40.8823 37.2297 40.8823C37.5543 40.8823 37.8756 40.917 38.193 40.9859C38.5105 41.0552 38.7753 41.1383 38.9881 41.2346L39.0134 41.2717C38.9573 41.4102 38.905 41.7525 38.856 42.2991L38.8304 42.3289H38.6583L38.6289 42.2991L38.5923 41.6687C38.414 41.5253 38.1985 41.4134 37.9457 41.333C37.6929 41.2526 37.4298 41.2124 37.1565 41.2124C36.7435 41.2124 36.3737 41.3018 36.0463 41.4813C35.7189 41.6607 35.4651 41.9202 35.2845 42.2603C35.1035 42.6001 35.0132 43.0165 35.0132 43.5084C35.0132 44.0031 35.1196 44.4371 35.332 44.8106C35.5445 45.1836 35.8342 45.4708 36.202 45.671C36.5694 45.8713 36.9988 45.9714 37.4897 45.9714C37.7073 45.9714 37.9159 45.9506 38.1161 45.9083C38.3162 45.8664 38.4828 45.8144 38.6162 45.7524C38.7493 45.6908 38.8766 45.6153 38.999 45.5262L39.0613 45.6042Z" fill="#1A1919"/>
<path fill-rule="evenodd" clip-rule="evenodd" d="M44.7338 40.9897L44.767 41.0233C44.7447 41.2457 44.7338 41.6341 44.7338 42.188L44.7044 42.2178H44.5323L44.5029 42.1842L44.4628 41.8429C44.443 41.66 44.4279 41.5482 44.417 41.5073C44.4061 41.4664 44.3883 41.4366 44.3636 41.4182C44.3393 41.3995 44.26 41.3843 44.1255 41.3718C43.9914 41.3594 43.8412 41.3531 43.675 41.3531H42.9826C42.9631 41.9122 42.9535 42.2351 42.9535 42.3213V44.4839L42.9607 45.2072C42.9631 45.4868 42.9699 45.6679 42.9808 45.7507C42.9918 45.8335 43.0089 45.8879 43.0322 45.9139C43.0554 45.9399 43.0999 45.9624 43.1659 45.9808C43.2316 45.9991 43.3955 46.0137 43.6568 46.0234L43.6825 46.0455V46.2312L43.6568 46.2606C43.0315 46.2409 42.6822 46.2312 42.609 46.2312C42.531 46.2312 42.1827 46.2409 41.5649 46.2606L41.5358 46.2312V46.0455L41.5649 46.0234C41.7944 46.0137 41.9467 46.0012 42.0212 45.9863C42.0955 45.9714 42.1458 45.9523 42.1714 45.9288C42.1971 45.9052 42.2183 45.8554 42.2354 45.7785C42.2525 45.7019 42.2611 45.5315 42.2611 45.2668L42.2686 44.4839V42.3213C42.2686 42.2818 42.2587 41.959 42.2392 41.3531H41.6932C41.4684 41.3531 41.2744 41.3583 41.1106 41.368C40.947 41.3781 40.8526 41.4034 40.8269 41.4442C40.8013 41.4851 40.7773 41.6178 40.7554 41.8429L40.7188 42.1842L40.6857 42.2178H40.5173L40.4879 42.188C40.4831 41.5921 40.4722 41.2038 40.4551 41.0233L40.4879 40.9897C40.9128 41.0095 41.6199 41.0195 42.609 41.0195C43.6178 41.0195 44.326 41.0095 44.7338 40.9897Z" fill="#1A1919"/>
<path fill-rule="evenodd" clip-rule="evenodd" d="M19.9361 7.45874C21.6791 6.41398 23.7054 5.82059 25.8736 5.82059C28.0323 5.82059 30.0648 6.41398 31.8058 7.45874C32.1561 6.59308 32.9019 5.5303 33.9114 4.53959C34.391 4.07436 34.882 3.66838 35.3654 3.33271C35.1577 3.16644 34.9169 3.07498 34.6466 3.07498C34.1536 3.07498 33.7369 3.40303 33.5847 3.85509C33.4578 3.56515 33.1752 3.36354 32.8451 3.36354C32.3918 3.36354 32.024 3.73454 32.024 4.18798C32.024 4.57665 32.2878 4.89881 32.6429 4.98714C32.3723 5.35087 31.9426 5.58192 31.4571 5.58192C30.6368 5.58192 29.9697 4.90643 29.9697 4.07436C29.9697 3.98326 29.9786 3.8977 29.9943 3.8156C30.0788 3.84781 30.1739 3.86687 30.2711 3.86687C30.7237 3.86687 31.0901 3.49448 31.0901 3.03965C31.0901 2.58759 30.7237 2.21521 30.2711 2.21521C29.8263 2.21521 29.4565 2.58759 29.4565 3.03965C29.4565 3.29149 29.5752 3.51942 29.7518 3.67704C29.436 4.1672 28.8845 4.49109 28.2646 4.49109C27.2838 4.49109 26.4884 3.68743 26.4884 2.69948C26.4884 2.56127 26.5079 2.43275 26.5312 2.30527C26.5428 2.32155 26.5366 2.35481 26.5366 2.38598C26.5366 2.8422 26.9078 3.21632 27.3567 3.21632C27.8035 3.21632 28.1681 2.8422 28.1681 2.38598C28.1681 1.93115 27.8035 1.56015 27.3567 1.56015C27.2082 1.56015 27.072 1.59687 26.9482 1.66754C26.9773 1.57921 26.9845 1.48949 26.9845 1.397C26.9845 0.766886 26.484 0.261827 25.8736 0.257324C25.2579 0.261827 24.7574 0.766886 24.7574 1.397C24.7574 1.48949 24.769 1.57921 24.795 1.66754C24.6763 1.59687 24.534 1.56015 24.3906 1.56015C23.9449 1.56015 23.5771 1.93115 23.5771 2.38598C23.5771 2.8422 23.9449 3.21632 24.3906 3.21632C24.8388 3.21632 25.2076 2.8422 25.2076 2.38598C25.2076 2.35481 25.2076 2.32155 25.2141 2.30527C25.2394 2.43275 25.2514 2.56127 25.2514 2.69948C25.2514 3.68743 24.4611 4.49109 23.4816 4.49109C22.8614 4.49109 22.3089 4.1672 21.9976 3.67704C22.1751 3.51942 22.2833 3.29149 22.2833 3.03965C22.2833 2.58759 21.9196 2.21521 21.4749 2.21521C21.0181 2.21521 20.6545 2.58759 20.6545 3.03965C20.6545 3.49448 21.0181 3.86687 21.4749 3.86687C21.5679 3.86687 21.6661 3.84781 21.7506 3.8156C21.7677 3.8977 21.7763 3.98326 21.7763 4.07436C21.7763 4.90643 21.1047 5.58192 20.2836 5.58192C19.8023 5.58192 19.3781 5.35087 19.1044 4.98714C19.4561 4.89881 19.7181 4.57665 19.7181 4.18798C19.7181 3.73454 19.3535 3.36354 18.9012 3.36354C18.5731 3.36354 18.2875 3.56515 18.1571 3.85509C18.0093 3.40303 17.5892 3.07498 17.0918 3.07498C16.828 3.07498 16.5841 3.16644 16.3799 3.33271C16.8599 3.66838 17.3539 4.07436 17.8308 4.53959C18.8448 5.5303 19.5878 6.59308 19.9361 7.45874Z" fill="#0B0B09"/>
<path fill-rule="evenodd" clip-rule="evenodd" d="M25.7315 15.6879C25.6467 15.6879 24.917 15.6858 24.828 15.6813C24.3741 15.6581 23.8907 15.5628 23.6279 15.2736C23.3139 14.9275 23.1568 14.5863 23.1568 14.0463C23.1568 13.5024 23.3197 13.068 23.6457 12.7441C23.9717 12.4199 24.4647 12.3409 25.1246 12.3409C25.4842 12.3409 26.31 12.3409 26.31 12.3409C26.31 12.3409 26.3631 13.5142 26.3631 14.6944V17.4729L26.3572 18.6434C26.3535 19.0955 26.3415 19.3875 26.3217 19.5195C26.3022 19.6515 26.2734 19.7395 26.2358 19.7834C26.1982 19.8274 26.1263 19.8645 26.0196 19.8946C25.9128 19.9244 25.6501 19.9476 25.2314 19.9636L25.1838 19.9996V20.2996L25.2314 20.3477C26.2389 20.3155 27.6316 20.3155 28.6274 20.3477L28.6747 20.2996V19.9996L28.6274 19.9636C28.2597 19.9476 28.0147 19.9276 27.8923 19.9037C27.7698 19.8794 27.6877 19.8486 27.6463 19.8105C27.6049 19.7727 27.5714 19.6917 27.5457 19.5676C27.5201 19.4436 27.505 19.1675 27.5012 18.7394L27.4951 17.4729V14.6944L27.5071 13.5243C27.5112 13.068 27.5221 12.7743 27.5399 12.642C27.5573 12.51 27.5851 12.422 27.6227 12.378C27.6603 12.334 27.7325 12.298 27.8389 12.2699C27.9456 12.2419 28.2084 12.22 28.6274 12.2041L28.6747 12.1618V11.8619L28.6274 11.8199C27.6316 11.8518 24.0326 11.7098 23.2711 12.0302C22.9208 12.1778 22.6102 12.3583 22.3731 12.6662C22.136 12.9745 22.0098 13.3954 22.0098 13.8312C22.0098 14.8122 22.6095 15.3817 22.8842 15.6429C23.3686 16.1029 24.3433 16.1815 24.8434 16.195C24.943 16.1978 25.685 16.1978 25.7394 16.1978L25.7767 16.1368L25.7705 15.7409L25.7315 15.6879Z" fill="#1A1919"/>
<path fill-rule="evenodd" clip-rule="evenodd" d="M30.2454 15.6684C29.5961 15.6684 28.7566 15.6518 27.7272 15.6186L27.1271 15.5985L27.0385 15.6882V16.1264L27.1271 16.2161C27.9861 16.2296 28.9328 16.2625 29.1917 16.3159C29.4507 16.3689 29.6132 16.4603 29.6789 16.5895C29.7442 16.7191 29.7771 17.0461 29.7771 17.5706V20.0498C29.7593 20.6951 29.7476 20.9099 29.6888 21.1222C29.2988 21.4132 28.4665 21.6883 27.8993 21.7977C25.9575 22.1729 23.5586 22.0807 21.9388 20.8011C19.4616 18.8439 18.9464 14.8617 20.2819 12.1091C21.5576 9.47991 24.9086 8.63641 27.5698 9.15775C28.0618 9.25406 28.552 9.40682 29.0405 9.61605C29.5287 9.82528 29.8321 9.97804 29.9505 10.0743C30.0685 10.1706 30.1387 10.2486 30.1619 10.3085C30.1849 10.3681 30.2061 10.5707 30.2259 10.9158L30.2748 11.9716L30.3535 12.0513H30.8061L30.8848 11.9816C30.8872 11.9591 30.8899 11.9377 30.8923 11.9155C30.892 11.8753 30.8886 11.8362 30.8886 11.796C30.8886 10.8641 31.0162 9.96315 31.2502 9.10683L31.2293 9.07323C29.7668 8.44243 27.9027 7.96924 26.0663 7.96924C23.5679 7.96924 21.5429 8.64681 19.9922 10.0013C18.4411 11.356 17.6792 13.3281 17.6792 15.6255C17.6792 17.133 18.2249 18.4459 18.9135 19.5416C19.6018 20.6373 20.533 21.4641 21.7071 22.0219C22.8809 22.5796 24.196 22.8588 25.6516 22.8588C27.5469 22.8588 29.3929 22.5099 31.19 21.8126L31.2488 21.7132C31.1766 21.0356 31.1407 20.4083 31.1407 19.8305C31.1407 19.3192 31.1554 17.5127 31.1848 17.1573C31.2143 16.8022 31.2389 16.6044 31.2587 16.5646C31.2782 16.5251 31.3473 16.4683 31.4654 16.3955L31.947 16.1066L31.9867 15.9868V15.6882L31.8882 15.6085C31.1667 15.6483 30.6193 15.6684 30.2454 15.6684Z" fill="#1A1919"/>
</svg>
