<svg viewBox="0 0 25 16" fill="none" xmlns="http://www.w3.org/2000/svg">
<path fill-rule="evenodd" clip-rule="evenodd" d="M9.9491 2.60303C10.5873 2.22545 11.3288 2.01091 12.1227 2.01091C12.913 2.01091 13.657 2.22545 14.2942 2.60303C14.4224 2.2903 14.6955 1.90636 15.0652 1.54788C15.2406 1.3797 15.4203 1.23303 15.5973 1.11182C15.5212 1.05152 15.4333 1.01848 15.3342 1.01848C15.1539 1.01848 15.0012 1.13727 14.9458 1.30061C14.8991 1.19545 14.7958 1.12273 14.6749 1.12273C14.5088 1.12273 14.3742 1.25667 14.3742 1.42091C14.3742 1.56121 14.4706 1.67788 14.6006 1.7097C14.5015 1.84121 14.3446 1.92485 14.1667 1.92485C13.8664 1.92455 13.6221 1.68061 13.6221 1.3797C13.6221 1.34697 13.6255 1.31576 13.6312 1.28636C13.6621 1.29788 13.697 1.30455 13.7324 1.30455C13.8982 1.30455 14.0324 1.17 14.0324 1.00576C14.0324 0.842424 13.8982 0.707576 13.7324 0.707576C13.5697 0.707576 13.4342 0.842424 13.4342 1.00576C13.4342 1.09697 13.4779 1.17909 13.5424 1.23606C13.427 1.41333 13.2249 1.5303 12.9979 1.5303C12.6391 1.5303 12.3476 1.2397 12.3476 0.882727C12.3476 0.832727 12.3549 0.786061 12.3633 0.740303C12.3679 0.746061 12.3655 0.758182 12.3655 0.769394C12.3655 0.934242 12.5012 1.06939 12.6655 1.06939C12.8291 1.06939 12.9627 0.934242 12.9627 0.769394C12.9627 0.604848 12.8291 0.470606 12.6655 0.470606C12.6112 0.470606 12.5615 0.483939 12.5161 0.509394C12.5267 0.477576 12.5294 0.445152 12.5294 0.411818C12.5294 0.183939 12.3461 0.00151515 12.1227 0C11.8973 0.00151515 11.7142 0.183939 11.7142 0.411818C11.7142 0.445152 11.7182 0.477576 11.7279 0.509394C11.6842 0.483939 11.6321 0.470606 11.5797 0.470606C11.4167 0.470606 11.2818 0.604848 11.2818 0.769394C11.2818 0.934242 11.4167 1.06939 11.5797 1.06939C11.7439 1.06939 11.8788 0.934242 11.8788 0.769394C11.8788 0.758182 11.8788 0.746061 11.8812 0.740303C11.8906 0.786061 11.8949 0.832727 11.8949 0.882727C11.8949 1.2397 11.6058 1.5303 11.2473 1.5303C11.02 1.5303 10.8179 1.41333 10.7039 1.23606C10.7688 1.17909 10.8082 1.09697 10.8082 1.00576C10.8082 0.842424 10.6752 0.707576 10.5124 0.707576C10.3452 0.707576 10.2121 0.842424 10.2121 1.00576C10.2121 1.17 10.3452 1.30455 10.5124 1.30455C10.5464 1.30455 10.5824 1.29788 10.6133 1.28636C10.6197 1.31576 10.6227 1.34697 10.6227 1.3797C10.6227 1.68061 10.377 1.92485 10.0764 1.92485C9.90031 1.92455 9.74485 1.84121 9.64455 1.7097C9.77334 1.67788 9.8694 1.56121 9.8694 1.42091C9.8694 1.25667 9.73576 1.12273 9.57031 1.12273C9.45001 1.12273 9.34546 1.19576 9.29788 1.30061C9.24364 1.13727 9.09001 1.01848 8.90788 1.01848C8.81122 1.01848 8.72213 1.05152 8.64728 1.11182C8.82304 1.23303 9.00394 1.3797 9.17849 1.54788C9.5494 1.90636 9.82152 2.2903 9.9491 2.60303Z" fill="currentColor"/>
<path fill-rule="evenodd" clip-rule="evenodd" d="M10.9034 3.2745C11.3297 2.91904 11.8503 2.89177 12.1858 2.89177C12.8767 2.89177 13.2473 3.17601 13.4321 3.37086C13.5897 3.54117 13.6203 3.73723 13.6385 3.87632C13.6449 3.92662 13.657 3.95601 13.7 3.95601C13.7503 3.95601 13.7676 3.92662 13.7676 3.82874C13.7679 3.0642 13.81 2.89177 13.81 2.82692C13.81 2.78359 13.7985 2.75753 13.7237 2.75177C13.5843 2.74662 13.3694 2.71086 13.2406 2.68571C13.12 2.65904 12.6997 2.58813 12.2776 2.58813C11.7628 2.58813 11.2191 2.62965 10.634 2.98601C10.0764 3.32147 9.59821 3.95601 9.59821 4.9342C9.59821 6.62147 10.7773 7.38056 12.2752 7.38056C12.7531 7.38056 13.1734 7.31298 13.5712 7.10723C13.6449 7.06268 13.6506 7.05056 13.6506 6.88662V6.21298C13.6506 5.90753 13.6506 5.66147 13.657 5.47904C13.6621 5.26632 13.7237 5.15965 13.89 5.13026C13.9631 5.11692 14.0046 5.11238 14.0537 5.11238C14.0973 5.11238 14.1331 5.10117 14.1331 5.06329C14.1331 5.01389 14.0906 5.00207 14.0121 5.00207C13.81 5.00207 13.6621 5.02056 13.4749 5.02056C13.29 5.02056 12.9067 5.00207 12.5882 5.00207C12.5794 5.00207 12.5721 5.0048 12.5631 5.0048C12.5658 4.41723 12.5688 3.8748 12.5709 3.81783C12.5794 3.68753 12.6112 3.6251 12.7403 3.59723C12.77 3.58844 12.8352 3.58601 12.8921 3.58601C12.9337 3.58601 12.9552 3.57723 12.9552 3.55056C12.9552 3.52329 12.9297 3.51601 12.8715 3.51601C12.6655 3.51601 12.4212 3.52844 12.3106 3.52844C12.1515 3.52844 11.9258 3.51601 11.747 3.51601C11.2603 3.51601 11.0852 3.67935 11.0234 3.73723C10.9364 3.81783 10.8276 3.9945 10.8276 4.20056C10.8276 4.75359 11.2352 5.14268 11.7876 5.14268C11.8046 5.14268 11.8491 5.14268 11.8679 5.13844C11.887 5.13389 11.9149 5.13026 11.9149 5.10298C11.9149 5.07026 11.887 5.06056 11.8046 5.06056C11.5882 5.06056 11.2849 4.81723 11.2849 4.41904C11.2849 4.28844 11.297 4.02965 11.514 3.8345C11.6534 3.70723 11.8131 3.68329 11.9024 3.68329C11.9597 3.68329 12.0185 3.68753 12.0534 3.69874C12.0728 3.70723 12.0855 3.73117 12.0855 3.77268V5.32844C12.0855 5.68601 12.0855 6.0851 12.0664 6.25268C12.0534 6.36026 12.0303 6.44541 11.9149 6.46207C11.8582 6.46935 11.7749 6.47813 11.7161 6.47813C11.6737 6.47813 11.6534 6.48904 11.6534 6.50813C11.6534 6.5348 11.6843 6.54601 11.7288 6.54601C11.9846 6.54601 12.2291 6.5348 12.3294 6.5348C12.3812 6.5348 12.4585 6.53935 12.5631 6.54329C12.5631 6.54329 12.5631 5.81662 12.5631 5.11298C12.6482 5.11298 12.7434 5.11904 12.7885 5.13026C12.9903 5.17238 13.0467 5.26904 13.0521 5.47904C13.057 5.66147 13.057 5.89632 13.057 6.20086V6.77662C13.057 6.87874 13.034 6.95813 12.9415 7.00147C12.7943 7.06874 12.5809 7.06874 12.4224 7.06874C10.9034 7.06874 10.2215 6.14965 10.2215 4.8351C10.2215 4.08329 10.56 3.56177 10.9034 3.2745Z" fill="currentColor"/>
<path fill-rule="evenodd" clip-rule="evenodd" d="M2.24303 10.9424C2.60545 10.9424 3.0297 11.0478 3.51576 11.2581C3.6397 11.3103 3.71879 11.3363 3.75333 11.3363C3.78394 11.3363 3.81091 11.3254 3.83485 11.3036L3.87061 11.2712C3.89242 11.2497 3.91818 11.2375 3.94879 11.2354C4.01364 11.2333 4.04606 11.2724 4.04606 11.3524L4.04303 11.5803L4.03 12.0263L4.0397 12.2609C4.04394 12.3194 4.05061 12.3824 4.05909 12.4497C4.06121 12.4757 4.06242 12.4951 4.06242 12.5081C4.06242 12.5775 4.02879 12.6103 3.96152 12.6057C3.91606 12.6036 3.88545 12.5581 3.8703 12.4694C3.82697 12.2097 3.68939 11.9551 3.45727 11.706C3.13 11.3554 2.73455 11.18 2.2703 11.18C1.82818 11.18 1.47455 11.3539 1.20879 11.7018C0.943333 12.0494 0.810606 12.5127 0.810606 13.0912C0.810606 13.7109 0.947273 14.2324 1.22121 14.656C1.49485 15.0794 1.83212 15.2915 2.23242 15.2915C2.35182 15.2915 2.50333 15.2651 2.68697 15.2121C2.87121 15.159 3.01061 15.1012 3.10606 15.0384C3.19242 14.9821 3.25273 14.9003 3.28636 14.7918C3.3197 14.6839 3.33667 14.5163 3.33667 14.2894C3.33667 14.0297 3.2897 13.85 3.19667 13.7494C3.10333 13.649 2.92848 13.5921 2.67242 13.579C2.60515 13.5745 2.57152 13.5427 2.57152 13.483C2.57152 13.4233 2.61061 13.3936 2.68879 13.3936C2.71273 13.3936 2.75091 13.3957 2.80303 13.4C3.01606 13.4197 3.25727 13.4294 3.52697 13.4294C3.80515 13.4294 4.00939 13.4218 4.14 13.4066C4.23788 13.3936 4.31939 13.3869 4.38455 13.3869C4.46273 13.3869 4.50182 13.4157 4.50182 13.4733C4.50182 13.526 4.46273 13.5606 4.38455 13.5757C4.25879 13.6018 4.17182 13.669 4.12424 13.7769C4.07636 13.8854 4.05273 14.0684 4.05273 14.326C4.05273 14.4063 4.05576 14.4778 4.06242 14.5406C4.07091 14.6487 4.07545 14.7245 4.07545 14.7678C4.07545 14.8351 4.06182 14.8842 4.03485 14.9154C4.00758 14.9469 3.95273 14.9778 3.8703 15.0081C3.8203 15.0257 3.64788 15.0981 3.35273 15.2263C2.83394 15.4497 2.38152 15.5615 1.99545 15.5615C1.40939 15.5615 0.930303 15.363 0.558182 14.9657C0.185758 14.5687 0 14.0554 0 13.426C0 12.723 0.214848 12.1333 0.644545 11.6566C1.07424 11.1806 1.60697 10.9424 2.24303 10.9424Z" fill="currentColor"/>
<path fill-rule="evenodd" clip-rule="evenodd" d="M7.21727 14.4618L7.24333 14.787C7.26939 14.9543 7.33272 15.0822 7.43393 15.1709C7.53484 15.26 7.66666 15.3046 7.82939 15.3046C7.93545 15.3046 7.98878 15.3376 7.98878 15.404C7.98878 15.4679 7.91818 15.4997 7.77727 15.4997C7.71636 15.4997 7.62939 15.494 7.51666 15.4825C7.23454 15.4506 7.00575 15.4346 6.82999 15.4346C6.61302 15.4346 6.44151 15.4458 6.31575 15.4685C6.20696 15.4894 6.12878 15.4997 6.08121 15.4997C6.03333 15.4997 6.00302 15.4764 5.98999 15.4303L5.98363 15.4037L6.07787 15.3273C6.23424 15.2709 6.33787 15.2022 6.38878 15.1209C6.43969 15.0394 6.46545 14.9046 6.46545 14.7161L6.46848 14.427V11.8367C6.46848 11.6373 6.43393 11.4955 6.36454 11.4109C6.29484 11.3267 6.16787 11.27 5.98363 11.2418C5.87302 11.2246 5.80181 11.2073 5.7703 11.1906C5.73878 11.1743 5.72333 11.1461 5.72333 11.1064C5.72333 11.0449 5.74909 11.0152 5.80121 11.0173C5.8403 11.0194 5.89909 11.0282 5.97696 11.0434C6.05515 11.0609 6.18636 11.0694 6.3709 11.0694C6.49242 11.0694 6.64333 11.0622 6.82333 11.0479L7.06121 11.0291C7.28454 11.0125 7.45605 11.0043 7.57545 11.0043C7.64696 11.0043 7.68272 11.0309 7.68272 11.084C7.68272 11.1237 7.67727 11.1503 7.66666 11.1631C7.65545 11.1764 7.62848 11.1867 7.58515 11.1931C7.42878 11.2191 7.32848 11.2625 7.28393 11.3234C7.23939 11.384 7.21727 11.5076 7.21727 11.694V14.4618Z" fill="currentColor"/>
<path fill-rule="evenodd" clip-rule="evenodd" d="M10.9533 11.7627L12.6749 13.6964L12.7855 13.82C12.9324 13.9849 13.0312 14.0673 13.0809 14.0673C13.1264 14.0673 13.1512 14.0015 13.1555 13.8691C13.1752 13.39 13.1849 12.9337 13.1849 12.5003C13.1849 11.9909 13.1333 11.6461 13.0303 11.4661C12.927 11.2864 12.7249 11.1855 12.423 11.1637C12.3515 11.1594 12.3158 11.134 12.3158 11.0873C12.3158 11.0297 12.3473 11.0009 12.4103 11.0009C12.4885 11.0009 12.6149 11.0118 12.7885 11.0337C12.9018 11.0467 12.9952 11.053 13.0691 11.053C13.2191 11.053 13.4573 11.0324 13.7833 10.9912C13.827 10.9867 13.8585 10.9849 13.8782 10.9849C13.9476 10.9849 13.9824 11.0158 13.9824 11.0773C13.9824 11.1327 13.9476 11.1658 13.8782 11.1767C13.5982 11.2288 13.4582 11.4773 13.4582 11.9215V12.0812L13.4121 14.114L13.3991 14.394L13.3958 14.7549L13.3991 15.0018L13.4121 15.4085C13.4121 15.4691 13.3903 15.4985 13.3464 15.4964C13.3073 15.4943 13.2673 15.4703 13.2261 15.4249L10.2645 12.134C10.2127 12.0773 10.177 12.0491 10.1573 12.0491C10.1055 12.0491 10.0794 12.0979 10.0794 12.1955L10.0761 12.2897V13.5515C10.0761 14.2258 10.1097 14.6767 10.177 14.9043C10.2488 15.1473 10.4603 15.2849 10.8118 15.3173C10.877 15.3243 10.9094 15.3518 10.9094 15.4003C10.9094 15.4667 10.8758 15.4997 10.8085 15.4997C10.7821 15.4997 10.74 15.4952 10.6812 15.4867C10.4985 15.4561 10.2964 15.4412 10.0745 15.4412C9.85485 15.4412 9.65909 15.4564 9.48728 15.4876C9.41122 15.5 9.35576 15.5064 9.32091 15.5064C9.26243 15.5064 9.23303 15.4797 9.23303 15.4267C9.23303 15.3821 9.26455 15.3515 9.32758 15.3337C9.48576 15.2882 9.60122 15.1946 9.67425 15.0527C9.74667 14.9112 9.78303 14.707 9.78303 14.4406L9.80606 13.6676V12.2585C9.80606 11.5915 9.5597 11.2406 9.06697 11.2061C9 11.2015 8.96606 11.1743 8.96606 11.1233C8.96606 11.0615 9.00303 11.0303 9.07697 11.0303L9.30243 11.04L9.4394 11.0367C9.60909 11.0367 9.79091 11.027 9.98455 11.0076C10.0564 11.0009 10.1161 10.9979 10.1639 10.9979C10.2312 10.9979 10.2842 11.0121 10.3233 11.0418C10.3621 11.0709 10.4445 11.1606 10.57 11.3103L10.7942 11.574C10.883 11.6782 10.9361 11.7412 10.9533 11.7627Z" fill="currentColor"/>
<path fill-rule="evenodd" clip-rule="evenodd" d="M16.4309 15.4573L15.8221 15.477C15.6531 15.477 15.5291 15.4901 15.4512 15.5161C15.4164 15.527 15.3903 15.5322 15.3731 15.5322C15.3252 15.5322 15.3034 15.5116 15.3079 15.4704C15.31 15.4573 15.3197 15.4388 15.3373 15.4152C15.3785 15.3631 15.4349 15.2664 15.5067 15.1252L15.9631 14.2879L16.5958 13.1085C16.9694 12.4116 17.1967 11.9446 17.277 11.7076L17.3555 11.4795C17.3618 11.4558 17.3652 11.4385 17.3652 11.4276C17.3606 11.3713 17.2858 11.3428 17.14 11.3428L16.5824 11.3234L16.3837 11.3428C15.9118 11.4082 15.6476 11.6404 15.5912 12.0391C15.5846 12.0916 15.5585 12.1176 15.5131 12.1176C15.4564 12.1176 15.4282 12.0449 15.4282 11.8995C15.4282 11.8343 15.4382 11.7531 15.4576 11.6555C15.4749 11.5728 15.4837 11.4991 15.4837 11.434L15.4803 11.2191L15.4967 11.1346C15.5052 11.0695 15.5334 11.0367 15.5812 11.0367C15.6073 11.0367 15.6367 11.0388 15.6691 11.0434C15.78 11.0585 16.1367 11.0661 16.74 11.0661C16.9615 11.0661 17.1503 11.0585 17.3067 11.0434L17.8273 10.9946C18.0379 10.9749 18.1952 10.9652 18.2994 10.9652C18.4121 10.9652 18.4688 10.9958 18.4688 11.0564C18.4688 11.0955 18.4361 11.1695 18.3709 11.2779C18.2185 11.5343 17.9873 11.9698 17.6764 12.5843L17.2755 13.3661L16.8482 14.2001C16.6897 14.5064 16.5973 14.6864 16.5712 14.741C16.4973 14.8931 16.4452 14.9949 16.4146 15.0473C16.3994 15.0734 16.3918 15.0961 16.3918 15.1155C16.3897 15.1698 16.4485 15.197 16.5679 15.197L16.9755 15.2067L17.2755 15.1707C17.7949 15.0901 18.1882 14.8561 18.4558 14.4682C18.5055 14.3943 18.5403 14.3582 18.5597 14.3604C18.5924 14.3625 18.6085 14.3982 18.6085 14.4679C18.6085 14.7652 18.5212 15.0179 18.3467 15.2264C18.1718 15.4346 17.9597 15.5388 17.7103 15.5388C17.6515 15.5388 17.594 15.5355 17.5376 15.5291L17.1406 15.4901C16.904 15.4685 16.6673 15.4573 16.4309 15.4573Z" fill="currentColor"/>
<path fill-rule="evenodd" clip-rule="evenodd" d="M22.2667 13.423L21.8415 12.4297C21.7397 12.1918 21.6673 12.0727 21.624 12.0727C21.5979 12.0727 21.5503 12.1494 21.4809 12.3033L21.4194 12.4394L21.0394 13.3066L21.0037 13.3875C20.9885 13.4203 20.9809 13.4484 20.9809 13.4721C20.9809 13.5457 21.0588 13.5824 21.2149 13.5824H22.1758C22.2579 13.5824 22.2991 13.5597 22.2991 13.5142C22.2991 13.5033 22.2937 13.4851 22.2827 13.459L22.2667 13.423ZM22.1446 11.3881L23.6258 14.7872C23.6994 14.9584 23.7861 15.0866 23.8861 15.1712C23.9858 15.2554 24.1149 15.3121 24.2734 15.3403C24.3124 15.3469 24.3321 15.3778 24.3321 15.433C24.3321 15.4927 24.307 15.5212 24.257 15.519C24.2288 15.5172 24.1876 15.5106 24.133 15.4997C23.9658 15.4627 23.6964 15.4442 23.3246 15.4442C22.9506 15.4442 22.6964 15.4615 22.5615 15.4957C22.5288 15.5051 22.5006 15.5094 22.4767 15.5094C22.4158 15.5094 22.3855 15.4784 22.3855 15.4166C22.3855 15.3854 22.4091 15.3621 22.457 15.3466C22.5612 15.3163 22.6476 15.2621 22.7158 15.1839C22.7843 15.1057 22.8185 15.0233 22.8185 14.9366C22.8185 14.8148 22.7243 14.5478 22.5361 14.1357C22.4776 14.01 22.4134 13.9378 22.3427 13.9194C22.2724 13.9009 22.023 13.8915 21.5946 13.8915H21.153L20.8609 13.9436C20.7806 13.9803 20.69 14.1233 20.5882 14.3721L20.4876 14.6224C20.4573 14.6939 20.4421 14.7663 20.4421 14.84C20.4421 15.113 20.633 15.2709 21.0149 15.3142C21.0973 15.3251 21.1376 15.3572 21.1355 15.4103C21.1309 15.4678 21.0918 15.4963 21.0179 15.4963C20.9788 15.4963 20.9234 15.49 20.8515 15.4769C20.7082 15.4487 20.5797 15.4345 20.4667 15.4345C20.3646 15.4345 20.1991 15.4454 19.9709 15.4672C19.8012 15.4845 19.6958 15.4933 19.6546 15.4933C19.5937 15.4933 19.563 15.4666 19.563 15.4136C19.563 15.3694 19.5937 15.3363 19.6543 15.3142C19.7715 15.2775 19.8652 15.2097 19.9358 15.1112C20.0064 15.0127 20.1109 14.8051 20.25 14.4884L21.1388 12.4409C21.2103 12.2784 21.26 12.1669 21.2885 12.1063L21.5912 11.4854L21.7473 11.18V11.1897C21.8167 11.0248 21.8634 10.9424 21.8873 10.9424C21.9221 10.9424 21.9818 11.0336 22.0664 11.2157L22.1446 11.3881Z" fill="currentColor"/>
</svg>
