<svg viewBox="0 0 25 25" fill="none" xmlns="http://www.w3.org/2000/svg">
<path fill-rule="evenodd" clip-rule="evenodd" d="M6.48 9.96C8.18533 8.95 10.1687 8.37667 12.29 8.37667C14.4027 8.37667 16.392 8.95 18.0953 9.96C18.4387 9.12333 19.168 8.096 20.156 7.13867C20.6253 6.68867 21.106 6.29667 21.5787 5.972C21.3753 5.812 21.14 5.72333 20.8753 5.72333C20.3933 5.72333 19.9853 6.04 19.8367 6.47733C19.7127 6.19667 19.4353 6.002 19.1127 6.002C18.6693 6.002 18.3093 6.36067 18.3093 6.79867C18.3093 7.17467 18.5667 7.48533 18.9147 7.57133C18.65 7.92267 18.2293 8.146 17.7547 8.146C16.9513 8.146 16.2987 7.49333 16.2987 6.68867C16.2987 6.60133 16.3073 6.51867 16.3233 6.43867C16.406 6.47 16.4987 6.48867 16.5933 6.48867C17.0367 6.48867 17.3953 6.12867 17.3953 5.68933C17.3953 5.252 17.0367 4.892 16.5933 4.892C16.1587 4.892 15.7967 5.252 15.7967 5.68933C15.7967 5.93267 15.9127 6.15267 16.0853 6.30467C15.7767 6.77867 15.2367 7.092 14.63 7.092C13.6707 7.092 12.892 6.31533 12.892 5.36C12.892 5.22667 12.9107 5.10267 12.934 4.97933L12.9393 5.05733C12.9393 5.498 13.3027 5.85933 13.7413 5.85933C14.1787 5.85933 14.536 5.498 14.536 5.05733C14.536 4.618 14.1787 4.25933 13.7413 4.25933C13.5967 4.25933 13.4633 4.29467 13.342 4.36267C13.37 4.27733 13.3773 4.19067 13.3773 4.10133C13.3773 3.49267 12.888 3.00467 12.29 3C11.6873 3.00467 11.198 3.49267 11.198 4.10133C11.198 4.19067 11.2093 4.27733 11.2347 4.36267C11.1187 4.29467 10.9793 4.25933 10.8387 4.25933C10.4027 4.25933 10.0427 4.618 10.0427 5.05733C10.0427 5.498 10.4027 5.85933 10.8387 5.85933C11.2773 5.85933 11.6387 5.498 11.6387 5.05733L11.6447 4.97933C11.67 5.10267 11.6813 5.22667 11.6813 5.36C11.6813 6.31533 10.908 7.092 9.94933 7.092C9.34267 7.092 8.802 6.77867 8.49733 6.30467C8.67133 6.15267 8.77667 5.93267 8.77667 5.68933C8.77667 5.252 8.42133 4.892 7.986 4.892C7.53867 4.892 7.18333 5.252 7.18333 5.68933C7.18333 6.12867 7.53867 6.48867 7.986 6.48867C8.07667 6.48867 8.17267 6.47 8.25533 6.43867C8.272 6.51867 8.28067 6.60133 8.28067 6.68867C8.28067 7.49333 7.62333 8.146 6.82 8.146C6.34933 8.146 5.934 7.92267 5.666 7.57133C6.01 7.48533 6.26667 7.17467 6.26667 6.79867C6.26667 6.36067 5.90933 6.002 5.46733 6.002C5.146 6.002 4.86667 6.19667 4.73933 6.47733C4.59467 6.04 4.18333 5.72333 3.69667 5.72333C3.43867 5.72333 3.2 5.812 3 5.972C3.46933 6.29667 3.95333 6.68867 4.42 7.13867C5.412 8.096 6.13933 9.12333 6.48 9.96" fill="currentColor"/>
<path fill-rule="evenodd" clip-rule="evenodd" d="M9.03132 11.7541C10.1707 10.8034 11.562 10.7308 12.4587 10.7308C14.306 10.7308 15.296 11.4914 15.7907 12.0114C16.2127 12.4668 16.2933 12.9908 16.3427 13.3628C16.3593 13.4974 16.392 13.5768 16.5067 13.5768C16.6413 13.5768 16.688 13.4974 16.688 13.2361C16.688 11.1921 16.8007 10.7308 16.8007 10.5574C16.8007 10.4421 16.7693 10.3728 16.57 10.3574C16.1973 10.3428 15.6227 10.2474 15.2787 10.1808C14.956 10.1094 13.8327 9.91943 12.7047 9.91943C11.328 9.91943 9.87465 10.0308 8.31132 10.9828C6.81999 11.8794 5.54132 13.5768 5.54132 16.1908C5.54132 20.7014 8.69399 22.7308 12.6973 22.7308C13.9753 22.7308 15.0987 22.5501 16.1627 21.9994C16.3593 21.8814 16.3747 21.8488 16.3747 21.4108V19.6088C16.3747 18.7928 16.3747 18.1348 16.392 17.6474C16.406 17.0781 16.57 16.7934 17.0147 16.7154C17.2107 16.6794 17.3213 16.6668 17.452 16.6668C17.5693 16.6668 17.664 16.6368 17.664 16.5361C17.664 16.4041 17.5513 16.3721 17.3413 16.3721C16.8007 16.3721 16.406 16.4221 15.9047 16.4221C15.4107 16.4221 14.386 16.3721 13.5347 16.3721L13.4673 16.3794C13.4747 14.8088 13.4833 13.3588 13.4887 13.2068C13.5113 12.8581 13.596 12.6914 13.9413 12.6168C14.0213 12.5934 14.1947 12.5868 14.3473 12.5868C14.4587 12.5868 14.516 12.5634 14.516 12.4928C14.516 12.4188 14.448 12.3994 14.292 12.3994C13.7413 12.3994 13.088 12.4328 12.7927 12.4328C12.3673 12.4328 11.764 12.3994 11.2853 12.3994C9.98532 12.3994 9.51665 12.8368 9.35132 12.9908C9.11865 13.2068 8.82799 13.6788 8.82799 14.2301C8.82799 15.7081 9.91732 16.7481 11.3947 16.7481L11.6093 16.7361C11.6607 16.7248 11.7347 16.7154 11.7347 16.6428C11.7347 16.5541 11.6607 16.5288 11.4393 16.5288C10.8613 16.5288 10.05 15.8788 10.05 14.8134C10.05 14.4648 10.0827 13.7734 10.6633 13.2514C11.036 12.9108 11.4627 12.8468 11.7013 12.8468C11.8547 12.8468 12.012 12.8581 12.1053 12.8881C12.1567 12.9108 12.1907 12.9748 12.1907 13.0861V17.2448C12.1907 18.2008 12.1907 19.2674 12.1393 19.7161C12.1053 20.0028 12.0433 20.2308 11.7347 20.2748C11.5833 20.2948 11.36 20.3174 11.2033 20.3174C11.09 20.3174 11.036 20.3474 11.036 20.3988C11.036 20.4694 11.1187 20.4994 11.238 20.4994C11.9207 20.4994 12.5747 20.4694 12.8427 20.4694C12.9813 20.4694 13.188 20.4814 13.4673 20.4928C13.4673 20.4928 13.4673 18.5494 13.4673 16.6688C13.6947 16.6688 13.9493 16.6854 14.0707 16.7154C14.61 16.8274 14.7607 17.0868 14.7747 17.6474C14.788 18.1348 14.788 18.7628 14.788 19.5781V21.1161C14.788 21.3888 14.726 21.6008 14.4793 21.7174C14.086 21.8974 13.5153 21.8974 13.092 21.8974C9.03132 21.8974 7.20799 19.4401 7.20799 15.9254C7.20865 13.9168 8.11332 12.5221 9.03132 11.7541" fill="currentColor"/>
</svg>
