<svg viewBox="0 0 115 40" fill="none" xmlns="http://www.w3.org/2000/svg">
<path fill-rule="evenodd" clip-rule="evenodd" d="M31.9983 39.9645C31.8036 39.9645 31.6261 39.9277 31.4661 39.8536C31.3062 39.7805 31.0741 39.6264 30.7697 39.3933C30.3391 39.7741 29.8856 39.9645 29.4095 39.9645C28.9244 39.9645 28.5221 39.8253 28.2033 39.5475C27.884 39.2701 27.7246 38.9187 27.7246 38.4947C27.7246 38.1448 27.8476 37.8477 28.0932 37.6051C28.228 37.4685 28.4168 37.372 28.6607 37.3133C28.4874 37.0893 28.4007 36.8701 28.4007 36.6541C28.4007 36.4232 28.4879 36.2365 28.6623 36.0941C28.8366 35.9517 29.0666 35.8813 29.3512 35.8813C29.4956 35.8813 29.6465 35.9112 29.8048 35.972L29.9423 36.0243L29.9717 36.0301L30.0326 35.9981L30.0824 35.9747C30.0835 35.9747 30.084 35.9747 30.0845 35.9747C30.1359 35.9747 30.1616 36.0445 30.1616 36.1843L30.1701 36.3437L30.1851 36.5736C30.1867 36.6216 30.1878 36.6515 30.1878 36.6627L30.1236 36.7272L30.0621 36.6579C30.0075 36.4995 29.8963 36.3581 29.7278 36.2344C29.5598 36.1096 29.3951 36.0477 29.233 36.0477C29.0966 36.0477 28.98 36.0893 28.8832 36.1731C28.7853 36.2563 28.7372 36.3576 28.7372 36.4755C28.7372 36.5864 28.7826 36.7128 28.8746 36.8547C28.9661 36.996 29.1207 37.18 29.3389 37.4051L30.0749 38.1629C30.2659 38.3592 30.5365 38.6072 30.8869 38.9059C30.9863 38.7363 31.0361 38.5475 31.0361 38.3389C31.0361 38.1848 31.0056 38.0557 30.9452 37.9528C30.8853 37.8493 30.8034 37.788 30.6996 37.7683L30.5622 37.7421C30.5039 37.7304 30.4755 37.7053 30.4771 37.6653L30.5419 37.6253L30.621 37.6344C30.6799 37.6424 30.8489 37.6461 31.1286 37.6461C31.2185 37.6461 31.2998 37.6424 31.372 37.6344C31.4405 37.6285 31.4891 37.6253 31.5191 37.6253L31.5742 37.6707C31.5763 37.7016 31.5501 37.7261 31.4956 37.7453C31.433 37.7683 31.3896 37.8077 31.3656 37.8621C31.341 37.9165 31.3228 38.0163 31.311 38.1603C31.2816 38.4893 31.196 38.7789 31.0537 39.0285C31.6346 39.5149 32.0572 39.7576 32.3203 39.7576L32.4316 39.7373L32.5338 39.7112L32.5835 39.7539C32.5835 39.8024 32.5193 39.8499 32.392 39.8957C32.2642 39.9411 32.1331 39.9645 31.9983 39.9645ZM28.6468 37.4301C28.5168 37.4301 28.3873 37.5085 28.2595 37.6664C28.1269 37.8253 28.0611 38.0216 28.0611 38.2541C28.0611 38.54 28.1739 38.8125 28.4002 39.0733C28.7099 39.428 29.1052 39.6056 29.586 39.6056C29.9856 39.6056 30.3199 39.4888 30.5884 39.2531C30.5258 39.1981 30.4862 39.1629 30.4686 39.1453L30.1878 38.9091C30.03 38.7725 29.8219 38.5731 29.5636 38.3096C29.3047 38.0461 29.1014 37.8248 28.9533 37.6461C28.8324 37.5021 28.7302 37.4301 28.6468 37.4301Z" fill="currentColor"/>
<path fill-rule="evenodd" clip-rule="evenodd" d="M39.8847 39.9593L39.7852 39.9561L39.5049 39.939C39.4118 39.9347 39.3033 39.9326 39.1808 39.9326C39.1246 39.9326 39.0807 39.9342 39.0497 39.9374C38.9508 39.9475 38.8962 39.9529 38.8866 39.9529C38.8342 39.9529 38.808 39.9347 38.808 39.899L38.8572 39.8366L38.9657 39.8046C39.0048 39.7929 39.0577 39.7454 39.1235 39.6627C39.1899 39.5801 39.2444 39.4937 39.2877 39.4051L39.3723 39.2115L40.8758 35.8814C40.901 35.8233 40.9298 35.7939 40.9609 35.7939C40.9919 35.7939 41.0181 35.8222 41.04 35.8782L42.2975 39.0921L42.3617 39.2494C42.4537 39.4851 42.5297 39.6313 42.5901 39.6894C42.6506 39.7459 42.773 39.7918 42.9587 39.8249C43.0191 39.8366 43.048 39.8601 43.0464 39.8963C43.0448 39.9283 43.017 39.9443 42.9645 39.9443C42.9469 39.9443 42.91 39.9422 42.8533 39.9385C42.7522 39.9289 42.5714 39.9241 42.312 39.9241C42.0413 39.9241 41.8718 39.9299 41.8033 39.9411L41.7124 39.9529C41.6616 39.9529 41.6364 39.9337 41.6364 39.8937C41.6364 39.8627 41.661 39.843 41.7097 39.8334L41.8001 39.8131C41.898 39.7934 41.9467 39.7273 41.9467 39.6142C41.9467 39.5113 41.8867 39.3059 41.768 38.9977L41.6214 38.6121C41.5808 38.5049 41.5487 38.443 41.5252 38.4265C41.5016 38.4094 41.4358 38.4014 41.3262 38.4014H40.2677C40.1232 38.4014 40.0334 38.4131 39.9981 38.4366C39.9633 38.4601 39.9162 38.5379 39.8579 38.6707L39.6659 39.1001C39.5793 39.2969 39.5359 39.4425 39.5359 39.5385C39.5359 39.6302 39.5589 39.6969 39.6049 39.7374C39.6504 39.7779 39.7408 39.8131 39.8756 39.8425C39.9339 39.8537 39.9644 39.8766 39.966 39.9107C39.9681 39.9427 39.9408 39.9593 39.8847 39.9593ZM40.8025 36.619L40.756 36.675L40.1853 37.9379C40.1601 37.9923 40.1473 38.0281 40.1473 38.0457C40.1473 38.0958 40.1928 38.1214 40.2821 38.1214L40.3607 38.1246H41.2444C41.3417 38.1246 41.3909 38.1001 41.3909 38.0515L41.3759 37.9843L41.3615 37.9315L40.902 36.7769L40.879 36.7155C40.8555 36.6537 40.8298 36.6217 40.8025 36.619Z" fill="currentColor"/>
<path fill-rule="evenodd" clip-rule="evenodd" d="M44.383 39.9531C44.3322 39.9531 44.3071 39.9344 44.3071 39.8965C44.3071 39.8603 44.3392 39.8373 44.4039 39.8283C44.5558 39.8048 44.6596 39.7189 44.7152 39.5712C44.7708 39.424 44.7987 39.1579 44.7987 38.7728V37.0037C44.7987 36.5952 44.774 36.3381 44.7254 36.2299C44.6767 36.1221 44.5547 36.0571 44.36 36.0363C44.3071 36.0325 44.282 36.0123 44.2841 35.9765C44.2857 35.9301 44.3237 35.9077 44.3975 35.9077C44.4349 35.9077 44.4847 35.9131 44.5473 35.9221C44.6697 35.9403 44.7714 35.9488 44.8511 35.9488C44.9757 35.9488 45.157 35.9376 45.3956 35.9168C45.5181 35.9072 45.6186 35.9019 45.6967 35.9019C46.1043 35.9019 46.4349 35.9995 46.69 36.1952C46.9441 36.3904 47.0714 36.6459 47.0714 36.9611C47.0714 37.3419 46.9152 37.6427 46.6033 37.8624C46.3691 38.0256 46.122 38.1072 45.8604 38.1072C45.7374 38.1072 45.625 38.0939 45.5224 38.0667C45.4202 38.0405 45.371 38.0123 45.3747 37.9819L45.4304 37.9467L45.4887 37.9552C45.5336 37.9691 45.6053 37.9755 45.7047 37.9755C45.985 37.9755 46.2091 37.8987 46.3771 37.7445C46.5456 37.5909 46.6296 37.3856 46.6296 37.1296C46.6296 36.8352 46.5188 36.592 46.2969 36.3984C46.0749 36.2053 45.7941 36.1088 45.4534 36.1088C45.3753 36.1088 45.3223 36.1237 45.2929 36.1525C45.2635 36.1819 45.249 36.2373 45.249 36.3195L45.2464 36.4037V38.8384L45.2431 39.1211L45.2522 39.3669C45.2736 39.6021 45.3614 39.7397 45.5154 39.7781C45.6224 39.8075 45.7037 39.8219 45.7582 39.8219C45.8165 39.8219 45.847 39.8395 45.8486 39.8731C45.8529 39.9227 45.8187 39.9477 45.7465 39.9477C45.7128 39.9477 45.648 39.944 45.5502 39.936C45.4876 39.9323 45.3865 39.9301 45.2464 39.9301L45.0383 39.9243L44.8104 39.9269C44.6954 39.9269 44.6082 39.9307 44.5499 39.9387C44.474 39.9483 44.4184 39.9531 44.383 39.9531Z" fill="currentColor"/>
<path fill-rule="evenodd" clip-rule="evenodd" d="M48.8996 39.9593L48.8001 39.9561L48.5198 39.939C48.4268 39.9347 48.3187 39.9326 48.1962 39.9326C48.1401 39.9326 48.0957 39.9342 48.0647 39.9374C47.9657 39.9475 47.9111 39.9529 47.9021 39.9529C47.8491 39.9529 47.8229 39.9347 47.8229 39.899L47.8726 39.8366L47.9807 39.8046C48.0197 39.7929 48.0727 39.7454 48.1385 39.6627C48.2048 39.5801 48.2599 39.4937 48.3027 39.4051L48.3872 39.2115L49.8907 35.8814C49.9164 35.8233 49.9448 35.7939 49.9758 35.7939C50.0068 35.7939 50.033 35.8222 50.0544 35.8782L51.3125 39.0921L51.3772 39.2494C51.4686 39.4851 51.5446 39.6313 51.605 39.6894C51.6655 39.7459 51.7885 39.7918 51.9736 39.8249C52.034 39.8366 52.0634 39.8601 52.0613 39.8963C52.0597 39.9283 52.0324 39.9443 51.9795 39.9443C51.9618 39.9443 51.9249 39.9422 51.8682 39.9385C51.7671 39.9289 51.5863 39.9241 51.3269 39.9241C51.0563 39.9241 50.8867 39.9299 50.8182 39.9411L50.7273 39.9529C50.677 39.9529 50.6513 39.9337 50.6513 39.8937C50.6513 39.8627 50.676 39.843 50.7246 39.8334L50.815 39.8131C50.9129 39.7934 50.9616 39.7273 50.9616 39.6142C50.9616 39.5113 50.9022 39.3059 50.7829 38.9977L50.6369 38.6121C50.5957 38.5049 50.5636 38.443 50.5406 38.4265C50.5171 38.4094 50.4508 38.4014 50.3416 38.4014H49.2826C49.1382 38.4014 49.0483 38.4131 49.0135 38.4366C48.9782 38.4601 48.9312 38.5379 48.8729 38.6707L48.6808 39.1001C48.5947 39.2969 48.5514 39.4425 48.5514 39.5385C48.5514 39.6302 48.5744 39.6969 48.6199 39.7374C48.6659 39.7779 48.7557 39.8131 48.8905 39.8425C48.9493 39.8537 48.9793 39.8766 48.9814 39.9107C48.983 39.9427 48.9558 39.9593 48.8996 39.9593ZM49.818 36.619L49.7709 36.675L49.2007 37.9379C49.1756 37.9923 49.1628 38.0281 49.1628 38.0457C49.1628 38.0958 49.2072 38.1214 49.297 38.1214L49.3762 38.1246H50.2593C50.3572 38.1246 50.4058 38.1001 50.4058 38.0515L50.3909 37.9843L50.3764 37.9315L49.9175 36.7769L49.894 36.7155C49.8704 36.6537 49.8453 36.6217 49.818 36.619Z" fill="currentColor"/>
<path fill-rule="evenodd" clip-rule="evenodd" d="M56.642 39.9821C56.4666 39.9821 56.3094 39.9341 56.1697 39.8381C56.0307 39.7416 55.8889 39.5848 55.7445 39.3667L55.016 38.2584L54.9748 38.1944C54.9283 38.1149 54.8523 38.0744 54.747 38.0744H54.3576L54.2934 38.0861L54.2581 38.1795V39.0936L54.2613 39.2099C54.2613 39.3779 54.2693 39.4925 54.2859 39.5544C54.3025 39.6157 54.342 39.6712 54.4046 39.7187C54.4886 39.7853 54.618 39.828 54.7935 39.8451C54.8641 39.8525 54.8999 39.8744 54.9021 39.9107C54.9058 39.9485 54.8737 39.9677 54.8053 39.9677C54.778 39.9677 54.7207 39.9629 54.633 39.9544C54.5528 39.9459 54.4292 39.9411 54.2613 39.9411L53.9805 39.9384L53.8286 39.9411C53.7622 39.9411 53.682 39.9464 53.5884 39.956C53.5124 39.964 53.4595 39.9677 53.4306 39.9677C53.3819 39.9677 53.3573 39.948 53.3573 39.908C53.3573 39.8792 53.3819 39.8605 53.4306 39.8509C53.5868 39.8216 53.689 39.7512 53.7376 39.6397C53.7863 39.5272 53.8104 39.3069 53.8104 38.9773V36.8803L53.805 36.5763C53.805 36.2723 53.6986 36.1032 53.4857 36.068L53.3488 36.0477C53.2857 36.036 53.2546 36.0131 53.2546 35.9789C53.2546 35.9389 53.2883 35.9192 53.3541 35.9192C53.3702 35.9192 53.4381 35.9229 53.559 35.9309C53.6296 35.9368 53.7162 35.94 53.8195 35.94C53.9093 35.94 54.0623 35.9331 54.2784 35.9192C54.4351 35.9096 54.5726 35.9048 54.6913 35.9048C55.1401 35.9048 55.4781 35.9891 55.706 36.1571C55.9344 36.3256 56.0489 36.5763 56.0489 36.9085C56.0489 37.3469 55.8076 37.6851 55.3262 37.9251L56.1334 39.1123L56.227 39.2515C56.4768 39.6163 56.7068 39.8051 56.9175 39.8189L57.0111 39.8248L57.0609 39.8664C57.0587 39.8963 57.0154 39.9229 56.9304 39.9464C56.8458 39.9704 56.7496 39.9821 56.642 39.9821ZM54.5603 36.1032C54.4447 36.1032 54.3656 36.1219 54.3212 36.1597C54.2773 36.1976 54.2554 36.2669 54.2554 36.3661L54.2581 36.4632V37.6509C54.2581 37.7427 54.2704 37.8003 54.295 37.8253C54.3196 37.8493 54.3763 37.8621 54.4667 37.8621H54.7978C55.0534 37.8621 55.2551 37.7917 55.4016 37.6509C55.5482 37.5101 55.6215 37.3187 55.6215 37.0744C55.6215 36.7912 55.5215 36.5587 55.3225 36.3763C55.123 36.1944 54.8689 36.1032 54.5603 36.1032Z" fill="currentColor"/>
<path fill-rule="evenodd" clip-rule="evenodd" d="M60.322 39.9647C60.298 39.9647 60.2504 39.9594 60.1782 39.9477C60.1407 39.9413 60.053 39.9386 59.9145 39.9386L59.7005 39.9359L59.4721 39.9386C59.3897 39.9386 59.3202 39.9413 59.2635 39.9477C59.1523 39.9594 59.0865 39.9647 59.0672 39.9647C59.0084 39.9647 58.9795 39.9439 58.9795 39.9023C58.9795 39.8719 59.0116 39.8527 59.0758 39.8453C59.2261 39.8255 59.3272 39.785 59.3801 39.7215C59.4325 39.6581 59.4593 39.5439 59.4593 39.3807V36.4858L59.4561 36.4095C59.4561 36.3397 59.4459 36.2949 59.4256 36.2751C59.4047 36.2554 59.3576 36.2463 59.2833 36.2463H58.5083C58.3505 36.2463 58.236 36.2773 58.1649 36.3407C58.0932 36.4042 58.0386 36.5231 57.9996 36.6981C57.9825 36.7717 57.9568 36.809 57.9231 36.809C57.922 36.809 57.9215 36.809 57.9204 36.809C57.8851 36.8069 57.8675 36.7813 57.8675 36.7301C57.8675 36.6901 57.8792 36.6154 57.9028 36.5061C57.9322 36.3674 57.9466 36.2517 57.9466 36.161C57.9466 36.0719 57.9568 36.0127 57.9777 35.985C57.998 35.9567 58.0413 35.9429 58.1076 35.9429H61.2581C61.3651 35.9429 61.4298 35.9546 61.4528 35.9775C61.4747 36.001 61.4859 36.0698 61.4859 36.1845C61.4859 36.2981 61.4908 36.3818 61.5004 36.4335C61.5106 36.4997 61.5164 36.5471 61.5186 36.5754C61.5202 36.6341 61.4999 36.6655 61.4565 36.6693C61.4555 36.6693 61.4544 36.6693 61.4533 36.6693C61.4202 36.6693 61.3977 36.6389 61.387 36.5786C61.3613 36.441 61.3207 36.3503 61.264 36.3087C61.2073 36.2671 61.0971 36.2463 60.9334 36.2463H60.1113C60.0252 36.2463 59.9712 36.2581 59.9492 36.281C59.9268 36.3045 59.9155 36.3621 59.9155 36.4533V39.3167L59.9182 39.4309C59.9278 39.6586 60.0557 39.7935 60.3012 39.8367C60.3696 39.8485 60.4039 39.8703 60.4039 39.9023C60.4039 39.9439 60.3761 39.9647 60.322 39.9647Z" fill="currentColor"/>
<path fill-rule="evenodd" clip-rule="evenodd" d="M64.0368 39.9736L63.9288 39.9677C63.7105 39.948 63.5426 39.9384 63.4238 39.9384C63.2821 39.9384 63.1457 39.9475 63.0152 39.9645L62.9253 39.9736C62.8665 39.9736 62.8371 39.9523 62.8371 39.9107L62.9071 39.8483C63.0494 39.8152 63.1489 39.7491 63.2056 39.6499C63.2623 39.5507 63.2965 39.3816 63.3083 39.1416L63.3495 38.2947C63.3784 37.6824 63.3933 37.2952 63.3933 37.1331C63.3933 36.7869 63.3473 36.5304 63.2553 36.364C63.1639 36.1976 63.0109 36.0947 62.7964 36.0563C62.7376 36.0467 62.7087 36.0227 62.7087 35.9848C62.7087 35.9432 62.7333 35.9219 62.7814 35.9219L62.8783 35.9277C62.905 35.9315 62.9719 35.9336 63.0767 35.9336C63.2366 35.9336 63.3383 35.9315 63.381 35.9277L63.4891 35.9192C63.5725 35.9192 63.6431 35.9805 63.6993 36.1032L63.7314 36.1704L64.9509 38.7923L65.0996 39.0925C65.1216 39.1427 65.1371 39.1683 65.1467 39.1683L65.1906 39.1133L65.2259 39.0344L65.2521 38.9757L66.6257 36.0387C66.6551 35.9768 66.677 35.9384 66.6914 35.9235L66.769 35.9016C66.7845 35.9016 66.8273 35.9053 66.8974 35.9133L66.9937 35.9165C67.1167 35.9165 67.2156 35.9128 67.2894 35.9048L67.374 35.8989L67.4328 35.9555L67.374 36.0243L67.2488 36.0563C67.1493 36.0797 67.0792 36.1405 67.0391 36.2387C66.9995 36.3373 66.9792 36.4984 66.9792 36.7219L66.9969 37.4264L67.0525 39.0125L67.0669 39.3805C67.0669 39.5288 67.0942 39.6349 67.1493 39.6995C67.2033 39.7635 67.3028 39.8067 67.4472 39.828C67.5505 39.8429 67.6023 39.8685 67.6023 39.9048C67.6023 39.9427 67.5665 39.9619 67.4943 39.9619L67.4216 39.9592L67.1937 39.9357C67.1177 39.9277 67.0359 39.924 66.9487 39.924C66.8883 39.924 66.7931 39.9283 66.6626 39.9373C66.4598 39.948 66.3432 39.9528 66.3122 39.9528C66.2555 39.9528 66.2277 39.9363 66.2277 39.9021C66.2277 39.8717 66.2518 39.8499 66.301 39.8365C66.416 39.8051 66.4925 39.7549 66.5315 39.6851C66.5706 39.6147 66.5903 39.4925 66.5903 39.3165L66.5786 38.8408L66.5026 36.9869C66.3363 37.276 66.2261 37.4776 66.171 37.5896L65.91 38.1464L65.6115 38.7587C65.5955 38.7939 65.5136 38.9757 65.3649 39.3064C65.3045 39.4419 65.2515 39.5533 65.2066 39.6408C65.1815 39.6936 65.1638 39.7304 65.1542 39.7517C65.1151 39.8429 65.074 39.8888 65.0296 39.8888C64.983 39.8888 64.9392 39.8413 64.8969 39.7459C64.8883 39.7288 64.8616 39.6749 64.8145 39.5853L64.7557 39.4637L63.6565 37.0973L63.5891 38.5411C63.5832 38.6605 63.58 38.8973 63.58 39.2531C63.58 39.5949 63.7014 39.7848 63.9427 39.8216C64.062 39.8408 64.1213 39.8691 64.1213 39.908C64.1213 39.9517 64.0935 39.9736 64.0368 39.9736Z" fill="currentColor"/>
<path fill-rule="evenodd" clip-rule="evenodd" d="M71.3583 39.9765C71.3016 39.9765 71.2257 39.9727 71.1299 39.9647C70.7576 39.9301 70.4495 39.9125 70.2056 39.9125C69.8649 39.9125 69.6237 39.9242 69.4835 39.9477C69.4092 39.9615 69.3584 39.9679 69.3311 39.9679C69.2685 39.9679 69.2375 39.9466 69.2375 39.905C69.2375 39.873 69.2626 39.8501 69.3134 39.8367L69.4247 39.8047C69.5654 39.7658 69.6354 39.6298 69.6354 39.3951L69.6381 39.2058V36.7376C69.6381 36.4592 69.6076 36.272 69.5461 36.1744C69.4846 36.0784 69.3653 36.0304 69.1877 36.0304C69.131 36.0304 69.1032 36.0122 69.1032 35.9765C69.1032 35.9232 69.1471 35.8965 69.2348 35.8965C69.2835 35.8965 69.3487 35.9013 69.4306 35.9109C69.7098 35.9418 70.0452 35.9573 70.4367 35.9573C70.6747 35.9573 70.8855 35.9536 71.0689 35.9456L71.4845 35.9253C71.5995 35.9216 71.6696 35.9173 71.6947 35.9136C71.7477 35.9056 71.7862 35.9018 71.8119 35.9018C71.8761 35.9018 71.9082 35.9301 71.9082 35.9866L71.8996 36.0528C71.8937 36.08 71.8857 36.1578 71.8761 36.2853L71.8643 36.457C71.8547 36.569 71.8445 36.64 71.8343 36.6677L71.7691 36.713C71.7675 36.713 71.7664 36.713 71.7653 36.713C71.73 36.713 71.7124 36.6837 71.7124 36.6256V36.5498C71.7124 36.4874 71.7006 36.4277 71.6771 36.3717C71.6402 36.2837 71.5653 36.2256 71.4524 36.1962C71.3396 36.1674 71.1326 36.1525 70.8304 36.1525H70.372C70.2511 36.1525 70.1735 36.168 70.1382 36.1978C70.1035 36.2288 70.0858 36.2949 70.0858 36.3984V37.5754C70.0858 37.665 70.0944 37.7189 70.111 37.7381C70.127 37.7562 70.1778 37.7658 70.2613 37.7658H70.7122C70.9165 37.7658 71.0786 37.7541 71.1973 37.7306C71.3027 37.7093 71.3711 37.681 71.4022 37.6464C71.4332 37.6112 71.4615 37.5296 71.4872 37.401C71.4968 37.3541 71.5198 37.3312 71.5567 37.3312C71.5583 37.3312 71.56 37.3312 71.5616 37.3312C71.5995 37.3333 71.6188 37.3594 71.6188 37.4101L71.6156 37.4741C71.5979 37.6624 71.5894 37.8336 71.5894 37.9887C71.5894 38.1072 71.5953 38.2245 71.607 38.3407L71.6129 38.425C71.6129 38.4741 71.5942 38.4975 71.5557 38.4975L71.4813 38.4335L71.4637 38.3519C71.4401 38.2213 71.3936 38.1333 71.3235 38.0863C71.2535 38.0399 71.1347 38.0165 70.9673 38.0165H70.3228C70.227 38.0165 70.1634 38.0261 70.1313 38.0458C70.0992 38.0656 70.0831 38.104 70.0831 38.1626L70.0858 38.2597V39.3343C70.0858 39.4997 70.1152 39.6031 70.1751 39.6442C70.2345 39.6853 70.3848 39.7055 70.626 39.7055C71.3915 39.7055 71.8836 39.5333 72.1013 39.1893L72.167 39.1365C72.1687 39.1365 72.1697 39.1365 72.1713 39.1365C72.2045 39.1365 72.2211 39.1621 72.2211 39.2122C72.2211 39.3381 72.1499 39.4879 72.0077 39.6629C71.8365 39.8719 71.6199 39.9765 71.3583 39.9765Z" fill="currentColor"/>
<path fill-rule="evenodd" clip-rule="evenodd" d="M77.1939 39.9739L77.1265 39.9477L77.0623 39.872L74.596 37.0602L74.5671 37.0277L74.5259 37.0101C74.489 37.0101 74.4708 37.0538 74.4708 37.1413V39.121L74.4676 39.2437L74.4761 39.4517C74.49 39.5803 74.5232 39.6683 74.5756 39.7173C74.628 39.7659 74.7318 39.8016 74.8859 39.8251C74.95 39.832 74.9827 39.8571 74.9827 39.8992L74.9206 39.9563L74.8329 39.9504C74.8115 39.9467 74.7265 39.9408 74.5788 39.9328L74.2804 39.9184L74.1397 39.9232C74.0637 39.9232 73.9915 39.928 73.9236 39.9365C73.8728 39.944 73.8364 39.9477 73.815 39.9477C73.7642 39.9477 73.7375 39.929 73.7332 39.8939C73.7316 39.8651 73.7583 39.8411 73.815 39.8219C73.9792 39.7659 74.09 39.6901 74.1472 39.5963C74.2044 39.5013 74.2333 39.3498 74.2333 39.1392V37.1541C74.2333 36.8181 74.1798 36.5525 74.0723 36.3584C73.9653 36.1653 73.8107 36.0544 73.6075 36.0277C73.5551 36.0202 73.5283 35.9984 73.5283 35.9616L73.5925 35.9077L73.6396 35.9109L73.7594 35.9136L73.9557 35.9194L74.0022 35.9168L74.1108 35.9136C74.159 35.9136 74.2082 35.9418 74.2568 35.9984L76.9478 39.0373C76.989 39.0842 77.0158 39.1077 77.0281 39.1077C77.0291 39.1077 77.0297 39.1077 77.0302 39.1072L77.0623 39.0517V37.608L77.065 37.2144L77.0302 36.5434C77.011 36.3781 76.9623 36.2618 76.8853 36.1925C76.8082 36.1226 76.6692 36.072 76.468 36.0389C76.4113 36.0298 76.3835 36.0058 76.3835 35.9674C76.3835 35.9317 76.4113 35.9136 76.468 35.9136C76.4937 35.9136 76.5344 35.9168 76.5911 35.9216C76.7259 35.9354 76.9061 35.9429 77.1324 35.9429C77.2533 35.9429 77.3501 35.937 77.4223 35.9253C77.4843 35.9136 77.5319 35.9077 77.5651 35.9077C77.6159 35.9077 77.6432 35.928 77.6469 35.969L77.5886 36.0245C77.4699 36.0533 77.3913 36.1024 77.3533 36.1706C77.3153 36.2384 77.296 36.3658 77.296 36.5525V36.8672L77.2902 37.0602V39.504C77.2902 39.7237 77.2853 39.8576 77.2757 39.9051L77.1939 39.9739Z" fill="currentColor"/>
<path fill-rule="evenodd" clip-rule="evenodd" d="M81.4997 39.9647C81.4762 39.9647 81.428 39.9594 81.3563 39.9477C81.3189 39.9413 81.2312 39.9386 81.0921 39.9386L80.8782 39.9359L80.6498 39.9386C80.5674 39.9386 80.4984 39.9413 80.4417 39.9477C80.3299 39.9594 80.2647 39.9647 80.2449 39.9647C80.186 39.9647 80.1571 39.9439 80.1571 39.9023C80.1571 39.8719 80.1892 39.8527 80.2534 39.8453C80.4037 39.8255 80.5054 39.785 80.5578 39.7215C80.6107 39.6581 80.6369 39.5439 80.6369 39.3807V36.4858L80.6337 36.4095C80.6337 36.3397 80.6236 36.2949 80.6032 36.2751C80.5824 36.2554 80.5353 36.2463 80.4615 36.2463H79.6859C79.5281 36.2463 79.4137 36.2773 79.3425 36.3407C79.2714 36.4042 79.2163 36.5231 79.1772 36.6981C79.1601 36.7717 79.135 36.809 79.1013 36.809C79.1002 36.809 79.0991 36.809 79.0981 36.809C79.0628 36.8069 79.0457 36.7813 79.0457 36.7301C79.0457 36.6901 79.0574 36.6154 79.0804 36.5061C79.1098 36.3674 79.1243 36.2517 79.1243 36.161C79.1243 36.0719 79.1344 36.0127 79.1553 35.985C79.1756 35.9567 79.219 35.9429 79.2853 35.9429H82.4357C82.5427 35.9429 82.6074 35.9546 82.6304 35.9775C82.6524 36.001 82.6636 36.0698 82.6636 36.1845C82.6636 36.2981 82.669 36.3818 82.6786 36.4335C82.6882 36.4997 82.6941 36.5471 82.6962 36.5754C82.6978 36.6341 82.6775 36.6655 82.6347 36.6693C82.6337 36.6693 82.6326 36.6693 82.6315 36.6693C82.5983 36.6693 82.5759 36.6389 82.5647 36.5786C82.539 36.441 82.4983 36.3503 82.4416 36.3087C82.3849 36.2671 82.2747 36.2463 82.1111 36.2463H81.289C81.2028 36.2463 81.1488 36.2581 81.1269 36.281C81.1044 36.3045 81.0932 36.3621 81.0932 36.4533V39.3167L81.0959 39.4309C81.106 39.6586 81.2339 39.7935 81.4794 39.8367C81.5473 39.8485 81.5815 39.8703 81.5815 39.9023C81.5815 39.9439 81.5543 39.9647 81.4997 39.9647Z" fill="currentColor"/>
<path fill-rule="evenodd" clip-rule="evenodd" d="M85.2348 39.9998C85.0845 39.9998 84.9192 39.9784 84.739 39.9358C84.5587 39.8926 84.4266 39.843 84.3426 39.787L84.2725 39.7123C84.2608 39.6862 84.2431 39.6184 84.2201 39.5096C84.2158 39.4947 84.1918 39.4056 84.1468 39.2446C84.096 39.0696 84.0704 38.9448 84.0704 38.8712C84.0704 38.8147 84.0891 38.7864 84.126 38.7864C84.1276 38.7864 84.1287 38.7864 84.1303 38.7864C84.1661 38.7886 84.1977 38.836 84.2255 38.9299C84.2961 39.1715 84.4432 39.3742 84.6689 39.5384C84.8946 39.7022 85.1396 39.7843 85.4038 39.7843C85.6723 39.7843 85.8997 39.7054 86.0853 39.5475C86.2714 39.3902 86.3639 39.1982 86.3639 38.9726C86.3639 38.7566 86.2784 38.5742 86.1067 38.4264C86.0189 38.3507 85.7659 38.2424 85.3471 38.1027C84.9149 37.9566 84.609 37.7955 84.4287 37.6179C84.2485 37.4419 84.1581 37.212 84.1581 36.9304C84.1581 36.6158 84.2758 36.3598 84.5106 36.1614C84.7459 35.963 85.0487 35.8638 85.4193 35.8638C85.6279 35.8638 85.8039 35.8936 85.9483 35.9544L86.1505 36.0387L86.2029 36.0504L86.273 36.0211L86.3142 35.9864L86.3463 35.9747C86.3474 35.9747 86.3484 35.9747 86.3495 35.9747C86.396 35.9747 86.4196 36.0227 86.4196 36.1176C86.4196 36.1507 86.4324 36.2488 86.4575 36.412L86.5046 36.7128C86.5142 36.7768 86.5191 36.8168 86.5191 36.8323C86.5191 36.8926 86.4982 36.9224 86.4565 36.9224C86.4249 36.9224 86.3928 36.876 86.3607 36.7822C86.2907 36.5715 86.1484 36.3976 85.9339 36.2616C85.7189 36.1251 85.4792 36.0563 85.215 36.0563C85.0053 36.0563 84.8299 36.1187 84.6887 36.2419C84.5475 36.3656 84.4769 36.5192 84.4769 36.7048C84.4769 36.868 84.5229 37.0094 84.6149 37.1283C84.6946 37.2291 84.7812 37.3032 84.8759 37.3502C84.9706 37.3966 85.2027 37.4814 85.5728 37.6035C86.2933 37.8392 86.6533 38.2248 86.6533 38.7608C86.6533 39.1246 86.5207 39.4216 86.2559 39.6526C85.9906 39.8846 85.6504 39.9998 85.2348 39.9998Z" fill="currentColor"/>
<path fill-rule="evenodd" clip-rule="evenodd" d="M4.25179 30.2474C3.00872 30.2474 1.98923 29.849 1.19333 29.0543C0.397953 28.2586 0 27.2405 0 26.001C0 24.6997 0.421488 23.6154 1.265 22.7477C2.10851 21.8799 3.16384 21.4458 4.43205 21.4458C4.92093 21.4458 5.4403 21.5162 5.98909 21.6565C6.53842 21.7967 6.97649 21.9727 7.30384 22.1834C7.35358 22.217 7.38888 22.2325 7.40974 22.2325C7.43863 22.2325 7.47767 22.217 7.52795 22.1834L7.67719 22.0714L7.76384 22.0346C7.83872 22.0346 7.87563 22.1311 7.87563 22.3263C7.87563 22.4165 7.88793 22.5573 7.91307 22.7477L7.97512 23.3301C7.99598 23.4869 8.02486 23.6437 8.0623 23.801C8.08316 23.8757 8.09333 23.9354 8.09333 23.9807C8.09333 24.0799 8.05214 24.1311 7.9687 24.1359C7.96656 24.1359 7.96388 24.1359 7.96121 24.1359C7.91093 24.1359 7.86814 24.1013 7.8323 24.0309C7.5087 23.3711 7.01072 22.8357 6.33891 22.4229C5.66709 22.0111 4.9557 21.8053 4.20472 21.8053C3.2676 21.8053 2.50219 22.1599 1.909 22.8693C1.31581 23.5797 1.01949 24.4954 1.01949 25.6175C1.01949 26.8223 1.36021 27.8298 2.04219 28.6405C2.72363 29.4506 3.56821 29.8565 4.57486 29.8565C5.53658 29.8565 6.28863 29.5178 6.83154 28.8399C6.96419 28.6751 7.03051 28.3914 7.03051 27.9909V26.5962C7.03051 26.3445 6.97542 26.1722 6.86577 26.0821C6.75558 25.9909 6.53521 25.9333 6.20358 25.9082C6.04205 25.8927 5.95914 25.8399 5.95486 25.7509C5.95112 25.6741 6.02172 25.6357 6.16667 25.6357L6.41593 25.6415L6.88342 25.6474C7.5226 25.6474 7.89488 25.6437 7.99865 25.6351C8.28535 25.6149 8.45116 25.6047 8.49716 25.6047C8.59237 25.6047 8.64051 25.6431 8.64051 25.7199C8.64051 25.7882 8.57847 25.8394 8.45384 25.8714C8.13879 25.9455 7.98153 26.1733 7.98153 26.5546L7.98742 26.753V28.7397L8.00026 28.9386L7.96281 29.0325C7.93767 29.0527 7.8783 29.0698 7.78256 29.0821C7.67077 29.0981 7.49907 29.1722 7.2664 29.305L6.85614 29.5466C6.04847 30.0138 5.18035 30.2474 4.25179 30.2474Z" fill="currentColor"/>
<path fill-rule="evenodd" clip-rule="evenodd" d="M15.1233 30.1482C15.0613 30.1482 14.9826 30.1407 14.8874 30.1268C14.759 30.1087 14.5392 30.0996 14.2284 30.0996L13.3266 30.0863L12.5933 30.129C12.473 30.1412 12.3735 30.1482 12.2948 30.1482C12.183 30.1482 12.1269 30.1055 12.1269 30.0202C12.1269 29.9482 12.1916 29.9012 12.32 29.881C12.6345 29.8282 12.8377 29.7188 12.9292 29.5551C13.0201 29.3919 13.0656 29.0479 13.0656 28.522V23.2084C13.0656 22.6948 13.0068 22.3492 12.8891 22.1716C12.7703 21.9935 12.519 21.8735 12.1333 21.8111C12.0049 21.7871 11.9386 21.7391 11.9343 21.666C11.9306 21.577 11.9905 21.5327 12.1146 21.5327L12.2264 21.5391C12.5291 21.5764 12.9313 21.5946 13.4325 21.5946C13.7396 21.5946 14.0022 21.5871 14.222 21.5732L14.6387 21.5391C14.7173 21.5348 14.7692 21.5327 14.7938 21.5327C14.9056 21.5327 14.9618 21.5706 14.9618 21.6479C14.9618 21.7204 14.9083 21.7748 14.8002 21.8111L14.4766 21.9359C14.1701 22.0516 14.0166 22.546 14.0166 23.4202V28.0676C14.0166 28.6474 14.0519 29.0298 14.1225 29.2164C14.2054 29.4276 14.3076 29.577 14.4306 29.6639C14.5526 29.7508 14.7441 29.8132 15.0051 29.85C15.2126 29.8788 15.3159 29.9295 15.3159 30.002C15.3159 30.0991 15.2517 30.1482 15.1233 30.1482Z" fill="currentColor"/>
<path fill-rule="evenodd" clip-rule="evenodd" d="M25.8638 30.1786C25.86 30.1786 25.8557 30.1786 25.852 30.1786C25.79 30.1748 25.7424 30.1562 25.7087 30.1231L25.5723 29.962L20.332 23.9871L20.27 23.9183L20.1828 23.8815C20.1041 23.8815 20.0646 23.9743 20.0646 24.1604V28.3674L20.0587 28.6282L20.0774 29.0687C20.1063 29.3418 20.1769 29.5295 20.2887 29.633C20.4005 29.737 20.6203 29.8132 20.9471 29.8628C21.084 29.8788 21.1525 29.9311 21.1525 30.0202C21.1525 30.1012 21.1092 30.1412 21.022 30.1412C20.9637 30.1412 20.9017 30.138 20.8359 30.129C20.7899 30.121 20.6096 30.1087 20.2946 30.0916L19.6607 30.0612L19.3623 30.0724C19.2007 30.0724 19.0472 30.0815 18.9023 30.1007C18.7947 30.1151 18.7183 30.1231 18.6723 30.1231C18.5642 30.1231 18.5064 30.0842 18.4984 30.0079C18.4941 29.9476 18.5519 29.897 18.6723 29.8564C19.0205 29.737 19.2558 29.5764 19.3778 29.3759C19.5003 29.1754 19.5612 28.8516 19.5612 28.4052V24.1866C19.5612 23.4714 19.4473 22.9076 19.2194 22.4964C18.9916 22.0852 18.6621 21.8506 18.231 21.793C18.1192 21.777 18.0636 21.73 18.0636 21.6538C18.0636 21.577 18.109 21.5386 18.2 21.5386L18.2994 21.545L18.554 21.5508L18.9707 21.5631L19.0702 21.5572C19.1697 21.553 19.2462 21.5508 19.3002 21.5508C19.4034 21.5508 19.5077 21.6106 19.611 21.7311L25.3294 28.1892C25.4177 28.289 25.4749 28.338 25.5011 28.338C25.5022 28.338 25.5033 28.338 25.5038 28.338C25.545 28.3338 25.568 28.2943 25.5723 28.2196V25.1524L25.5781 24.3151L25.5038 22.8895C25.4626 22.5391 25.3599 22.2895 25.1957 22.1428C25.0326 21.9962 24.7373 21.8879 24.3105 21.818C24.1901 21.7972 24.1302 21.7471 24.1302 21.666C24.1302 21.5892 24.1901 21.5508 24.3105 21.5508C24.364 21.5508 24.4511 21.5567 24.5715 21.5674C24.8577 21.5983 25.2406 21.6127 25.7215 21.6127C25.9782 21.6127 26.1836 21.6004 26.3366 21.5754C26.4693 21.5508 26.5709 21.5386 26.6415 21.5386C26.749 21.5386 26.8073 21.5823 26.8153 21.6692C26.8196 21.722 26.7779 21.7615 26.6912 21.786C26.4382 21.8484 26.2719 21.9519 26.1906 22.0964C26.1098 22.2415 26.0697 22.5119 26.0697 22.9087V23.578L26.0569 23.9871V29.1812C26.0569 29.6479 26.0467 29.9322 26.0258 30.0335C26.006 30.13 25.952 30.1786 25.8638 30.1786Z" fill="currentColor"/>
<path fill-rule="evenodd" clip-rule="evenodd" d="M35.3617 30.0736H30.6253C30.4055 30.0736 30.2958 30.0187 30.2958 29.9104C30.2958 29.8571 30.3183 29.7931 30.3643 29.7184L34.5786 22.4741L34.6284 22.3941C34.6615 22.3445 34.6781 22.3013 34.6781 22.264C34.6781 22.1808 34.585 22.1403 34.3984 22.1403H32.2909C31.9556 22.1403 31.7106 22.1701 31.5576 22.2299C31.4041 22.2896 31.2468 22.4128 31.0853 22.5989C30.874 22.8469 30.7392 23.0629 30.6809 23.2491C30.6472 23.3611 30.5943 23.4165 30.5221 23.4165C30.4376 23.4165 30.3969 23.3675 30.4012 23.2672C30.4055 23.1685 30.4327 23.0229 30.482 22.832C30.5108 22.72 30.5296 22.5691 30.5381 22.3776C30.559 22.0384 30.5916 21.8267 30.6376 21.7435C30.6831 21.6613 30.7906 21.6197 30.9607 21.6197L31.1661 21.6128L32.0176 21.6197H35.604C35.857 21.6197 35.9832 21.6976 35.9832 21.8549C35.9832 21.9045 35.9672 21.9557 35.9335 22.0096L31.8876 28.9893L31.8122 29.1136C31.771 29.1877 31.748 29.2539 31.7443 29.3115C31.7357 29.4603 31.848 29.5339 32.0802 29.5339L32.6905 29.5467L33.0826 29.5531H34.0721C34.5578 29.5531 34.9258 29.5179 35.1772 29.4475C35.428 29.3771 35.6511 29.2491 35.8463 29.0629C36.0661 28.8485 36.2031 28.7387 36.2571 28.7349C36.2608 28.7344 36.2646 28.7344 36.2683 28.7344C36.3309 28.7344 36.3603 28.7701 36.3566 28.8405C36.3523 28.8901 36.3357 28.9461 36.3063 29.008L36.1143 29.4016L35.8902 29.8187C35.8281 29.9344 35.7687 30.0059 35.7131 30.0325C35.6564 30.0597 35.5398 30.0736 35.3617 30.0736Z" fill="currentColor"/>
<path fill-rule="evenodd" clip-rule="evenodd" d="M40.7635 30.148C40.7186 30.148 40.6474 30.1454 40.5527 30.1406L39.9574 30.1054C39.759 30.0968 39.53 30.0915 39.269 30.0915C39.1497 30.0915 39.0567 30.0947 38.9909 30.1006C38.7796 30.1235 38.6641 30.1352 38.6432 30.1352C38.5314 30.1352 38.4758 30.0968 38.4758 30.0211C38.4758 29.9528 38.5106 29.9086 38.5812 29.8872L38.8117 29.819C38.8941 29.7944 39.0064 29.6942 39.1471 29.5182C39.2877 29.3427 39.4038 29.1598 39.4953 28.9694L39.6755 28.5598L42.8704 21.483C42.9239 21.3592 42.9843 21.2974 43.0507 21.2974C43.117 21.2974 43.1726 21.3566 43.2186 21.4771L45.8914 28.3043L46.0283 28.6398C46.223 29.1406 46.3846 29.452 46.513 29.5736C46.6413 29.6958 46.9023 29.7918 47.296 29.8627C47.4244 29.8867 47.487 29.9374 47.4827 30.0136C47.479 30.0824 47.4207 30.1166 47.3089 30.1166C47.2714 30.1166 47.1928 30.1128 47.0724 30.1043C46.8574 30.0835 46.4734 30.0734 45.9224 30.0734C45.3464 30.0734 44.9859 30.0862 44.8409 30.1107C44.7537 30.1267 44.6895 30.1352 44.6483 30.1352C44.5403 30.1352 44.4863 30.0931 44.4863 30.0083C44.4863 29.9438 44.5387 29.9011 44.6419 29.8808L44.8345 29.8382C45.042 29.796 45.1453 29.6558 45.1453 29.4152C45.1453 29.1955 45.019 28.7587 44.766 28.1048L44.4553 27.2851C44.3686 27.0574 44.3001 26.9256 44.2504 26.8904C44.2006 26.8558 44.06 26.8382 43.8278 26.8382H41.5776C41.2706 26.8382 41.0801 26.8627 41.0058 26.9123C40.9309 26.9619 40.8314 27.1278 40.7073 27.4088L40.2997 28.3219C40.1152 28.7406 40.0237 29.0515 40.0237 29.2536C40.0237 29.4488 40.0719 29.5891 40.1692 29.676C40.2671 29.763 40.4586 29.8382 40.7442 29.9C40.8689 29.924 40.933 29.972 40.9373 30.0451C40.9411 30.1134 40.8838 30.148 40.7635 30.148ZM42.711 23.0504C42.6832 23.0504 42.6511 23.0894 42.6153 23.1688L41.4032 25.852C41.3497 25.9683 41.3224 26.0446 41.3224 26.0819C41.3224 26.1891 41.4182 26.243 41.6086 26.243L41.776 26.2488H43.6535C43.861 26.2488 43.9642 26.1971 43.9642 26.0942C43.9642 26.0648 43.9541 26.0179 43.9332 25.9512L43.9022 25.8398L42.926 23.3854L42.8768 23.2558C42.8271 23.123 42.773 23.0552 42.7147 23.0504C42.7137 23.0504 42.7126 23.0504 42.711 23.0504Z" fill="currentColor"/>
<path fill-rule="evenodd" clip-rule="evenodd" d="M61.5924 30.1602C61.4972 30.1602 61.4517 30.1202 61.4555 30.0392C61.4597 29.9661 61.5303 29.9202 61.6667 29.9C62.1021 29.8253 62.3198 29.4712 62.3198 28.8381L62.3257 28.596V26.3181C62.3257 26.1234 62.3075 26.0093 62.2701 25.9762C62.2326 25.9432 62.1085 25.9266 61.8973 25.9266H58.2355C57.9996 25.9266 57.8525 25.9506 57.7947 25.9981C57.7364 26.0456 57.7075 26.1661 57.7075 26.3602V28.6354C57.7075 29.0648 57.776 29.3666 57.9124 29.54C58.0493 29.7138 58.3039 29.821 58.6773 29.8626C58.8302 29.8786 58.9094 29.9309 58.9137 30.02C58.9174 30.1048 58.8575 30.148 58.7329 30.148C58.6794 30.148 58.5778 30.1384 58.4286 30.1192C58.3168 30.1005 58.068 30.0909 57.6824 30.0909L57.1603 30.0861L56.7501 30.0994C56.6469 30.0994 56.5163 30.1064 56.3586 30.1197C56.143 30.1384 56.0125 30.148 55.967 30.148C55.8633 30.148 55.8114 30.109 55.8114 30.0322C55.8114 29.9597 55.8654 29.9117 55.9729 29.8872L56.2842 29.8125C56.4666 29.7714 56.5907 29.6344 56.657 29.4024C56.7228 29.1709 56.7565 28.765 56.7565 28.1848V22.8552C56.7565 22.4952 56.688 22.2338 56.5511 22.0722C56.4147 21.9106 56.1697 21.8029 55.8178 21.749C55.6974 21.733 55.6375 21.6882 55.6375 21.6162C55.6375 21.5352 55.6862 21.4946 55.7836 21.4946C55.7884 21.4946 55.7937 21.4952 55.7991 21.4952C55.8777 21.4989 56.0023 21.5112 56.1724 21.5325C56.4955 21.5698 56.8747 21.588 57.3096 21.588C57.6038 21.588 57.8792 21.572 58.1365 21.5384C58.2483 21.5224 58.3355 21.5133 58.3975 21.5133C58.5179 21.5133 58.5778 21.556 58.5778 21.6408C58.5778 21.7053 58.5216 21.7517 58.4098 21.7805C58.1322 21.8504 57.9456 21.9512 57.8503 22.0818C57.7551 22.212 57.7075 22.4306 57.7075 22.7378V24.9581C57.7075 25.1944 57.7311 25.3352 57.7787 25.381C57.8268 25.4269 57.9787 25.4498 58.2355 25.4498H61.9032C62.0855 25.4498 62.2016 25.4328 62.2514 25.4002C62.3011 25.3666 62.3257 25.292 62.3257 25.1752V23.0552C62.3257 22.6285 62.2712 22.325 62.1615 22.1474C62.0513 21.9688 61.8497 21.8466 61.5549 21.7805C61.4309 21.7565 61.3709 21.7074 61.3752 21.6354C61.379 21.5666 61.4309 21.5325 61.5303 21.5325C61.6175 21.5325 61.7582 21.5426 61.9529 21.5629C62.2262 21.5922 62.5167 21.6072 62.8232 21.6072C63.2666 21.6072 63.5773 21.5944 63.7555 21.5698C63.8678 21.5528 63.9443 21.5448 63.9855 21.5448C64.0855 21.5448 64.1347 21.5848 64.1347 21.6653C64.1347 21.7293 64.0855 21.7714 63.9855 21.7928L63.7308 21.8482C63.6025 21.8733 63.4944 21.965 63.4072 22.1245C63.3206 22.2834 63.2773 22.4658 63.2773 22.6728V28.6658C63.2773 29.1085 63.3393 29.4141 63.4634 29.5837C63.588 29.7533 63.8261 29.8562 64.1785 29.8936C64.3069 29.909 64.3732 29.9501 64.377 30.0141C64.3855 30.1112 64.3278 30.1602 64.2032 30.1602C64.1202 30.1602 64.0127 30.1501 63.8801 30.1288C63.7806 30.1128 63.5731 30.1042 63.2585 30.1042L62.7985 30.0978L62.3321 30.1106C62.2572 30.1106 62.1578 30.1165 62.0337 30.1288C61.7769 30.1501 61.6341 30.1602 61.6047 30.1602C61.6004 30.1602 61.5961 30.1602 61.5924 30.1602Z" fill="currentColor"/>
<path fill-rule="evenodd" clip-rule="evenodd" d="M72.2526 30.2346C70.9138 30.2346 69.8312 29.8298 69.0048 29.0207C68.1773 28.2111 67.7644 27.1503 67.7644 25.8373C67.7644 25.2677 67.8735 24.7023 68.0907 24.1429C68.3084 23.5839 68.601 23.1157 68.97 22.7402C69.3594 22.3434 69.8531 22.0293 70.4495 21.7962C71.0465 21.5626 71.6578 21.4458 72.2837 21.4458C73.5802 21.4458 74.6446 21.8453 75.4753 22.6437C76.3065 23.4431 76.7216 24.4661 76.7216 25.713C76.7216 27.0346 76.3028 28.1183 75.4662 28.9642C74.6291 29.8111 73.5577 30.2346 72.2526 30.2346ZM71.882 21.8485C70.9197 21.8485 70.1559 22.1717 69.5894 22.8175C69.023 23.4629 68.74 24.3322 68.74 25.4261C68.74 26.6757 69.1022 27.7301 69.8259 28.5882C70.5496 29.4458 71.4385 29.8751 72.4917 29.8751C73.4545 29.8751 74.2483 29.5253 74.8746 28.8261C75.501 28.1269 75.8139 27.2405 75.8139 26.1679C75.8139 24.9343 75.4389 23.9061 74.688 23.0831C73.937 22.2607 73.002 21.8485 71.882 21.8485Z" fill="currentColor"/>
<path fill-rule="evenodd" clip-rule="evenodd" d="M84.7646 30.1605C84.7149 30.1605 84.6133 30.1483 84.4592 30.1232C84.3801 30.1109 84.1934 30.1045 83.8987 30.1045L83.4435 30.0981L82.9583 30.1045C82.7834 30.1045 82.6363 30.1109 82.5154 30.1232C82.279 30.1483 82.14 30.1605 82.0988 30.1605C81.9736 30.1605 81.9116 30.1163 81.9116 30.0272C81.9116 29.9632 81.98 29.9221 82.117 29.9061C82.4363 29.8651 82.6513 29.7771 82.7631 29.6421C82.8749 29.5077 82.9311 29.2667 82.9311 28.9184V22.7664L82.9252 22.6053C82.9252 22.4565 82.9032 22.3611 82.8594 22.3195C82.8161 22.2789 82.716 22.2576 82.5582 22.2576H80.9108C80.5754 22.2576 80.332 22.3248 80.1807 22.4597C80.0293 22.5936 79.9122 22.8469 79.8293 23.2187C79.7929 23.3765 79.7383 23.4544 79.6667 23.4544C79.665 23.4544 79.6634 23.4544 79.6618 23.4539C79.587 23.4496 79.5495 23.3947 79.5495 23.2869C79.5495 23.2005 79.5741 23.0421 79.6244 22.8117C79.6864 22.5152 79.7175 22.2699 79.7175 22.0768C79.7175 21.8869 79.7389 21.7627 79.7827 21.7024C79.826 21.6427 79.9186 21.6128 80.0598 21.6128H86.7539C86.9817 21.6128 87.1197 21.6379 87.1673 21.6875C87.2149 21.7371 87.239 21.8827 87.239 22.1259C87.239 22.3685 87.2492 22.5456 87.27 22.6565C87.2909 22.7963 87.3032 22.8971 87.3075 22.9589C87.3112 23.0821 87.2679 23.1488 87.1764 23.1568C87.1748 23.1568 87.1727 23.1568 87.1705 23.1568C87.0994 23.1568 87.0518 23.0933 87.0277 22.9643C86.9737 22.6709 86.8865 22.48 86.7667 22.3909C86.6464 22.3019 86.4121 22.2576 86.0639 22.2576H84.3175C84.1351 22.2576 84.0201 22.2827 83.9725 22.3317C83.9249 22.3824 83.9008 22.504 83.9008 22.6987V28.7824L83.9072 29.0245C83.9281 29.5083 84.1993 29.7963 84.7213 29.8875C84.8668 29.912 84.939 29.9584 84.939 30.0272C84.939 30.1163 84.8807 30.1605 84.7646 30.1605Z" fill="currentColor"/>
<path fill-rule="evenodd" clip-rule="evenodd" d="M94.9215 30.1851C94.8012 30.1851 94.6396 30.1766 94.4369 30.1606C93.6453 30.0865 92.9906 30.0491 92.4723 30.0491C91.7475 30.0491 91.2356 30.0737 90.9372 30.1233C90.7794 30.1515 90.6719 30.1665 90.6141 30.1665C90.4809 30.1665 90.4151 30.1217 90.4151 30.0326C90.4151 29.9643 90.4686 29.9163 90.5767 29.8875L90.8126 29.8193C91.111 29.7371 91.2603 29.4465 91.2603 28.9499L91.2667 28.5467V23.3009C91.2667 22.7094 91.2009 22.3115 91.0709 22.1067C90.9399 21.9019 90.6863 21.799 90.3092 21.799C90.1889 21.799 90.129 21.7611 90.129 21.6838C90.129 21.5707 90.222 21.5137 90.4087 21.5137C90.512 21.5137 90.651 21.5238 90.8254 21.5451C91.418 21.6107 92.1305 21.6443 92.9633 21.6443C93.4693 21.6443 93.9165 21.6358 94.3059 21.6198L95.189 21.5755C95.4334 21.5675 95.5826 21.5601 95.6361 21.551C95.7485 21.535 95.8314 21.5265 95.8854 21.5265C96.0218 21.5265 96.0903 21.5857 96.0903 21.7057C96.0903 21.7425 96.0838 21.7899 96.0715 21.8481C96.0592 21.9057 96.0426 22.0705 96.0218 22.3414L95.9972 22.7062C95.9758 22.9446 95.9544 23.0939 95.9335 23.1537C95.9127 23.2134 95.8661 23.2454 95.7939 23.2491C95.7913 23.2491 95.7886 23.2497 95.7859 23.2497C95.711 23.2497 95.6736 23.1873 95.6736 23.063V22.9025C95.6736 22.7702 95.649 22.6438 95.5992 22.5243C95.5206 22.3387 95.3617 22.2145 95.1216 22.1526C94.8819 22.0907 94.4412 22.0593 93.7999 22.0593H92.8253C92.5691 22.0593 92.4038 22.0913 92.329 22.1563C92.2551 22.2203 92.2177 22.3622 92.2177 22.5819V25.0827C92.2177 25.2737 92.2348 25.3889 92.2701 25.4278C92.306 25.4673 92.4124 25.487 92.5905 25.487H93.548C93.9828 25.487 94.3273 25.4625 94.5797 25.4129C94.8033 25.367 94.9488 25.3073 95.0146 25.2326C95.0809 25.1585 95.1414 24.9851 95.1954 24.7121C95.2157 24.6129 95.266 24.5633 95.3457 24.5633C95.3484 24.5633 95.351 24.5633 95.3543 24.5633C95.4345 24.5675 95.4751 24.623 95.4751 24.7302C95.4751 24.7595 95.4725 24.8049 95.4676 24.8667C95.4313 25.2662 95.4126 25.6305 95.4126 25.9606C95.4126 26.2118 95.4249 26.4614 95.45 26.7083C95.4586 26.791 95.4623 26.8507 95.4623 26.8881C95.4623 26.9915 95.4222 27.0422 95.3414 27.0422C95.2526 27.0422 95.1991 26.9974 95.1826 26.9062L95.1451 26.7323C95.0959 26.4561 94.9964 26.2683 94.8477 26.1691C94.699 26.0699 94.4466 26.0203 94.0909 26.0203H92.72C92.5172 26.0203 92.3819 26.0406 92.3134 26.0822C92.2455 26.1238 92.2113 26.2065 92.2113 26.3307L92.2177 26.535V28.8203C92.2177 29.1718 92.2803 29.391 92.407 29.4779C92.5333 29.5654 92.8526 29.6086 93.3656 29.6086C94.9921 29.6086 96.0368 29.2433 96.5005 28.5115C96.547 28.4411 96.5941 28.4038 96.6406 28.4001C96.6433 28.4001 96.6465 28.4001 96.6492 28.4001C96.7198 28.4001 96.7556 28.4534 96.7556 28.5606C96.7556 28.8283 96.6037 29.1478 96.3015 29.5179C95.9367 29.9633 95.4767 30.1851 94.9215 30.1851Z" fill="currentColor"/>
<path fill-rule="evenodd" clip-rule="evenodd" d="M100.322 30.1603C100.227 30.1603 100.18 30.1246 100.18 30.0505C100.18 29.9865 100.236 29.9385 100.349 29.9059C100.637 29.819 100.83 29.6921 100.928 29.5246C101.026 29.3566 101.075 29.0745 101.075 28.6771L101.081 28.3913V22.8414C101.081 22.2915 100.858 21.971 100.41 21.8798L100.13 21.8233C100.031 21.8041 99.981 21.763 99.981 21.7022C99.981 21.6099 100.051 21.563 100.192 21.563C100.287 21.563 100.417 21.5721 100.583 21.5881C100.864 21.6126 101.18 21.6254 101.532 21.6254C101.912 21.6254 102.257 21.6147 102.568 21.5945C102.725 21.5854 102.814 21.5822 102.835 21.5822C102.934 21.5822 102.983 21.6121 102.983 21.6729C102.983 21.7614 102.923 21.8195 102.803 21.8483L102.585 21.8979C102.213 21.9891 102.026 22.3593 102.026 23.0089V28.4046L102.032 28.6206C102.032 29.1182 102.08 29.4121 102.176 29.5027C102.271 29.5939 102.582 29.6398 103.109 29.6398C103.886 29.6398 104.559 29.5475 105.129 29.3641C105.701 29.1795 106.064 28.9369 106.222 28.6355C106.28 28.5241 106.338 28.4675 106.396 28.4675C106.462 28.4675 106.493 28.5091 106.489 28.5918C106.473 28.8627 106.338 29.1619 106.085 29.4873C105.728 29.9358 105.149 30.1603 104.349 30.1603C104.216 30.1603 104.063 30.1534 103.888 30.1411L103.217 30.0915C102.822 30.0633 102.406 30.0489 101.966 30.0489C101.456 30.0489 101.028 30.0734 100.684 30.123C100.539 30.1433 100.423 30.1561 100.336 30.1603C100.331 30.1603 100.327 30.1603 100.322 30.1603Z" fill="currentColor"/>
<path fill-rule="evenodd" clip-rule="evenodd" d="M111.617 30.2346C111.298 30.2346 110.947 30.1887 110.564 30.0981C110.18 30.0069 109.899 29.9023 109.721 29.7818C109.647 29.7322 109.597 29.6799 109.572 29.6245C109.547 29.5685 109.51 29.4245 109.46 29.1935C109.452 29.1599 109.4 28.9722 109.305 28.6287C109.197 28.257 109.143 27.9935 109.143 27.8357C109.143 27.7162 109.183 27.6559 109.262 27.6559C109.264 27.6559 109.267 27.6559 109.27 27.6565C109.346 27.6602 109.414 27.7621 109.473 27.9605C109.621 28.4746 109.936 28.9055 110.415 29.2538C110.894 29.6021 111.415 29.7759 111.977 29.7759C112.548 29.7759 113.03 29.6085 113.425 29.2741C113.819 28.9381 114.017 28.5306 114.017 28.0511C114.017 27.5925 113.835 27.2058 113.47 26.8917C113.284 26.7295 112.746 26.5007 111.856 26.2026C110.938 25.8927 110.287 25.5498 109.904 25.1743C109.521 24.7989 109.33 24.3114 109.33 23.7119C109.33 23.0437 109.58 22.4986 110.079 22.0773C110.578 21.6565 111.222 21.4458 112.009 21.4458C112.452 21.4458 112.827 21.5098 113.134 21.6378L113.563 21.8181L113.675 21.8426C113.724 21.8426 113.774 21.8213 113.824 21.7807L113.911 21.7061L113.979 21.6815C113.982 21.6815 113.984 21.681 113.986 21.681C114.085 21.681 114.135 21.7829 114.135 21.985C114.135 22.0554 114.162 22.2639 114.215 22.6111L114.315 23.249C114.336 23.3855 114.346 23.4703 114.346 23.5039C114.346 23.6314 114.302 23.6954 114.213 23.6954C114.145 23.6954 114.078 23.5962 114.01 23.3973C113.862 22.9498 113.559 22.5807 113.103 22.2901C112.647 21.9999 112.137 21.8549 111.575 21.8549C111.129 21.8549 110.756 21.9861 110.457 22.249C110.157 22.5114 110.007 22.8394 110.007 23.2325C110.007 23.5797 110.105 23.8799 110.299 24.1322C110.468 24.3471 110.654 24.5039 110.854 24.6031C111.055 24.7034 111.549 24.8826 112.335 25.1434C113.866 25.6431 114.632 26.4623 114.632 27.6026C114.632 28.3743 114.35 29.0063 113.786 29.4975C113.223 29.9887 112.5 30.2346 111.617 30.2346Z" fill="currentColor"/>
<path fill-rule="evenodd" clip-rule="evenodd" d="M52.6989 5.63343C54.0671 4.82543 55.6584 4.36676 57.3604 4.36676C59.0554 4.36676 60.6515 4.82543 62.0182 5.63343C62.2936 4.9641 62.8788 4.14223 63.6715 3.37636C64.048 3.01636 64.4337 2.70276 64.8129 2.44303C64.6498 2.31503 64.461 2.2441 64.2486 2.2441C63.8619 2.2441 63.5346 2.49743 63.4153 2.8473C63.3158 2.62276 63.0933 2.46703 62.8344 2.46703C62.4787 2.46703 62.1899 2.75396 62.1899 3.10436C62.1899 3.40516 62.3963 3.6537 62.6755 3.7225C62.4632 4.00356 62.1257 4.18223 61.7448 4.18223C61.1003 4.18223 60.5766 3.6601 60.5766 3.01636C60.5766 2.9465 60.5836 2.88036 60.5964 2.81636C60.6628 2.84143 60.7371 2.85636 60.8131 2.85636C61.1688 2.85636 61.4565 2.56836 61.4565 2.2169C61.4565 1.86703 61.1688 1.57903 60.8131 1.57903C60.4643 1.57903 60.1739 1.86703 60.1739 2.2169C60.1739 2.41156 60.267 2.58756 60.4055 2.70916C60.1578 3.08836 59.7246 3.33903 59.2378 3.33903C58.4681 3.33903 57.8434 2.7177 57.8434 1.95343C57.8434 1.84676 57.8584 1.74756 57.8771 1.6489L57.8814 1.7113C57.8814 2.06383 58.1729 2.3529 58.5248 2.3529C58.8757 2.3529 59.1624 2.06383 59.1624 1.7113C59.1624 1.35983 58.8757 1.0729 58.5248 1.0729C58.4088 1.0729 58.3018 1.10116 58.2044 1.15556C58.2269 1.0873 58.2328 1.01796 58.2328 0.946496C58.2328 0.459563 57.8402 0.069163 57.3604 0.0654297C56.8769 0.069163 56.4843 0.459563 56.4843 0.946496C56.4843 1.01796 56.4933 1.0873 56.5137 1.15556C56.4206 1.10116 56.3088 1.0729 56.196 1.0729C55.8461 1.0729 55.5573 1.35983 55.5573 1.7113C55.5573 2.06383 55.8461 2.3529 56.196 2.3529C56.5479 2.3529 56.8378 2.06383 56.8378 1.7113L56.8426 1.6489C56.863 1.74756 56.872 1.84676 56.872 1.95343C56.872 2.7177 56.2516 3.33903 55.4824 3.33903C54.9957 3.33903 54.5619 3.08836 54.3174 2.70916C54.457 2.58756 54.5416 2.41156 54.5416 2.2169C54.5416 1.86703 54.2565 1.57903 53.9072 1.57903C53.5483 1.57903 53.2632 1.86703 53.2632 2.2169C53.2632 2.56836 53.5483 2.85636 53.9072 2.85636C53.9799 2.85636 54.057 2.84143 54.1233 2.81636C54.1367 2.88036 54.1436 2.9465 54.1436 3.01636C54.1436 3.6601 53.6162 4.18223 52.9717 4.18223C52.594 4.18223 52.2608 4.00356 52.0458 3.7225C52.3218 3.6537 52.5277 3.40516 52.5277 3.10436C52.5277 2.75396 52.241 2.46703 51.8864 2.46703C51.6286 2.46703 51.4045 2.62276 51.3023 2.8473C51.1862 2.49743 50.8562 2.2441 50.4657 2.2441C50.2587 2.2441 50.0673 2.31503 49.9068 2.44303C50.2833 2.70276 50.6717 3.01636 51.0461 3.37636C51.842 4.14223 52.4256 4.9641 52.6989 5.63343Z" fill="currentColor"/>
<path fill-rule="evenodd" clip-rule="evenodd" d="M54.7459 7.06881C55.66 6.30827 56.7763 6.25014 57.4957 6.25014C58.9779 6.25014 59.7722 6.85867 60.1691 7.27467C60.5077 7.63894 60.5724 8.05814 60.612 8.35574C60.6253 8.46347 60.6515 8.52694 60.7435 8.52694C60.8516 8.52694 60.889 8.46347 60.889 8.25441C60.889 6.61921 60.9794 6.25014 60.9794 6.11147C60.9794 6.01921 60.9543 5.96374 60.7943 5.95147C60.4953 5.93974 60.0343 5.86347 59.7583 5.81014C59.4994 5.75307 58.5981 5.60107 57.6931 5.60107C56.5886 5.60107 55.4225 5.69014 54.1682 6.45174C52.9717 7.16907 51.9458 8.52694 51.9458 10.6181C51.9458 14.2267 54.4752 15.8501 57.6872 15.8501C58.7126 15.8501 59.6139 15.7056 60.4675 15.2651C60.6253 15.1707 60.6376 15.1445 60.6376 14.7941V13.3525C60.6376 12.6997 60.6376 12.1733 60.6515 11.7835C60.6628 11.328 60.7943 11.1003 61.1511 11.0379C61.3084 11.0091 61.3972 10.9989 61.502 10.9989C61.5961 10.9989 61.6721 10.9749 61.6721 10.8944C61.6721 10.7888 61.5817 10.7632 61.4132 10.7632C60.9794 10.7632 60.6628 10.8032 60.2605 10.8032C59.8642 10.8032 59.0421 10.7632 58.359 10.7632L58.305 10.7691C58.3109 9.51254 58.3178 8.35254 58.3221 8.23094C58.3403 7.95201 58.4082 7.81867 58.6853 7.75894C58.7495 7.74027 58.8886 7.73494 59.011 7.73494C59.1004 7.73494 59.1464 7.71627 59.1464 7.65974C59.1464 7.60054 59.0918 7.58507 58.9667 7.58507C58.5248 7.58507 58.0007 7.61174 57.7637 7.61174C57.4224 7.61174 56.9384 7.58507 56.5543 7.58507C55.5113 7.58507 55.1353 7.93494 55.0026 8.05814C54.816 8.23094 54.5827 8.60854 54.5827 9.04961C54.5827 10.232 55.4567 11.064 56.642 11.064L56.8143 11.0544C56.8555 11.0453 56.9148 11.0379 56.9148 10.9797C56.9148 10.9088 56.8555 10.8885 56.6779 10.8885C56.2141 10.8885 55.5632 10.3685 55.5632 9.51627C55.5632 9.23734 55.5894 8.68427 56.0553 8.26667C56.3543 7.99414 56.6966 7.94294 56.8881 7.94294C57.0111 7.94294 57.1374 7.95201 57.2122 7.97601C57.2534 7.99414 57.2807 8.04534 57.2807 8.13441V11.4613C57.2807 12.2261 57.2807 13.0795 57.2395 13.4384C57.2122 13.6677 57.1625 13.8501 56.9148 13.8853C56.7934 13.9013 56.6142 13.9195 56.4885 13.9195C56.3976 13.9195 56.3543 13.9435 56.3543 13.9845C56.3543 14.0411 56.4206 14.0651 56.5164 14.0651C57.0641 14.0651 57.5888 14.0411 57.8038 14.0411C57.9151 14.0411 58.0809 14.0507 58.305 14.0597C58.305 14.0597 58.305 12.5051 58.305 11.0005C58.4874 11.0005 58.6917 11.0139 58.7891 11.0379C59.2218 11.1275 59.3427 11.3349 59.3539 11.7835C59.3646 12.1733 59.3646 12.6757 59.3646 13.328V14.5584C59.3646 14.7765 59.3149 14.9461 59.117 15.0395C58.8014 15.1835 58.3435 15.1835 58.0039 15.1835C54.7459 15.1835 53.283 13.2176 53.283 10.4059C53.2835 8.79894 54.0094 7.68321 54.7459 7.06881Z" fill="currentColor"/>
</svg>
