<svg viewBox="0 0 300 94" fill="none" xmlns="http://www.w3.org/2000/svg">
<path fill-rule="evenodd" clip-rule="evenodd" d="M29.1563 32.1322C27.3889 32.2362 26.0642 32.9121 24.7487 33.8622C25.984 33.9738 27.257 34.0441 28.6408 33.9936C29.8327 33.9495 31.0871 33.4728 31.0633 32.7674C31.0475 32.2984 29.9256 32.1041 29.1563 32.1322ZM28.6945 35.648C26.7714 35.7192 25.0346 35.5872 23.3726 35.3733C22.0266 37.7763 20.6796 42.4143 19.8861 45.19L19.4756 46.7339L22.8975 46.6079C23.3596 46.5909 23.7186 46.9706 23.7344 47.4398C23.7483 47.8711 23.4152 48.2753 22.9537 48.2931L18.9931 48.4383C15.8925 58.2788 14.7145 62.244 8.29343 62.4806C3.98599 62.6387 1.45843 59.5943 1.40547 55.6744C1.47885 50.9268 5.13199 47.3008 9.43666 47.0646C9.89808 47.0475 10.2578 47.4265 10.2718 47.857C10.2875 48.3271 9.95439 48.732 9.49296 48.749C6.07035 48.8749 2.90111 52.0104 3.02219 55.6537C3.12481 58.7488 4.96949 60.9562 8.2381 60.8355C13.5837 60.6391 14.4289 57.1167 17.2621 48.5018L15.0317 48.5842C14.5702 48.6013 14.2113 48.2217 14.1966 47.791C14.1809 47.321 14.5147 46.9162 14.9753 46.8997L17.7446 46.7973L18.3304 44.7369C19.0526 42.1219 20.468 37.2059 21.6682 35.0839C20.1568 34.7852 18.7579 34.4051 17.3985 34.064C14.7196 33.3772 12.2335 32.7241 9.57971 32.8217C7.00326 32.9164 4.62809 35.5928 4.71606 38.2566C4.80956 41.0766 6.69854 42.3015 9.31443 42.2051C10.4285 42.1645 11.6492 41.8054 12.7861 41.2537C12.8996 41.2109 13.0147 41.1675 13.1688 41.1616C13.7069 41.1415 13.9542 41.6427 13.9645 41.9558C13.9754 42.2697 13.8306 42.5493 13.5273 42.7165C12.2022 43.3928 10.7145 43.8014 9.3303 43.8519C5.59954 43.9896 3.21577 41.763 3.10283 38.3555C2.97701 34.5553 6.14115 31.3015 9.5251 31.1767C12.371 31.072 14.9724 31.721 17.8082 32.4793C19.3225 32.8553 20.9531 33.2659 22.6971 33.5937C24.2899 31.7311 26.6427 30.6642 29.101 30.4954C31.0628 30.4231 32.666 31.1872 32.7185 32.7549C32.7769 34.5167 30.7716 35.5715 28.6945 35.648Z" fill="currentColor"/>
<path fill-rule="evenodd" clip-rule="evenodd" d="M31.0923 39.7088C30.5928 39.727 30.3723 40.0491 30.3861 40.4811C30.4073 41.1074 30.7774 41.7996 31.3699 42.2492C31.5436 41.6932 31.7511 40.98 31.739 40.5873C31.7167 39.9217 31.4004 39.6977 31.0923 39.7088ZM43.8415 50.4174C43.8452 50.5356 43.8109 50.655 43.776 50.7736C41.4695 56.7025 39.6259 59.1625 37.0114 59.2591L36.9727 59.2602C35.165 59.3267 34.1967 57.9902 34.1336 56.0708C34.1078 55.287 34.1965 54.499 34.4334 53.5103C34.6992 52.2452 36.218 46.9725 36.5361 46.0983C33.5804 45.2258 33.1529 45.0849 32.2921 44.6847C32.1537 45.1607 31.9027 45.7195 29.0528 52.6877C28.9104 53.0076 28.6465 53.1738 28.3771 53.1838C28.223 53.1897 28.1067 53.1544 27.9903 53.1199C27.7155 52.9722 27.5142 52.7056 27.504 52.3917C27.4995 52.2742 27.5345 52.1556 27.5686 52.0369L30.4188 45.1073L30.8421 43.9146C29.6608 43.1351 28.8193 42.1456 28.7711 40.6968C28.7184 39.0898 29.8011 38.1091 31.032 38.0639C32.4171 38.0127 33.2973 39.0011 33.3485 40.5673C33.3696 41.1942 33.2275 41.5527 32.8169 43.0973C33.9115 43.606 35.2338 43.9891 36.3617 44.3391C36.906 44.476 37.4101 44.6146 37.8391 44.7557C38.2673 44.8966 38.4767 45.399 38.3383 45.875C37.8815 47.1865 36.2211 52.8555 36.0228 53.8431C35.8189 54.6752 35.7644 55.3438 35.7479 56.0113C35.7804 56.99 36.1107 57.6445 36.9569 57.6133C38.8413 57.5439 40.2291 55.2972 42.2542 50.1626C42.3973 49.8435 42.6602 49.6379 42.9676 49.6267C43.0829 49.6226 43.2 49.6573 43.3172 49.6919C43.6292 49.8376 43.8312 50.105 43.8415 50.4174Z" fill="currentColor"/>
<path fill-rule="evenodd" clip-rule="evenodd" d="M50.649 50.3979C50.5432 50.715 50.5541 51.029 50.5246 51.3045C51.6367 48.8312 52.2786 46.1013 52.2186 44.2991C52.164 42.6531 51.1735 41.8271 49.8656 41.8754C48.4036 41.9295 47.0644 43.3508 46.0134 45.3511C45.0699 47.073 43.1569 50.9475 43.2902 54.9839C43.3373 56.3941 43.8313 57.3558 45.0626 57.3106C46.4866 57.2583 48.0493 55.6324 49.2575 53.7436C48.8013 52.7407 48.8213 51.0144 49.0577 50.0248C49.1214 49.6299 49.46 49.3826 49.8441 49.3684C50.3824 49.3484 50.7846 49.8438 50.649 50.3979ZM53.1862 56.1465C52.11 56.1866 51.0979 55.8705 50.2285 55.1967C48.8705 57.2071 46.9623 58.8858 45.1166 58.9541C42.6169 59.0458 41.7159 57.3927 41.6401 55.1207C41.4894 50.5762 43.3625 46.7032 44.5611 44.541C46.086 41.7398 47.925 40.2991 49.8472 40.2285C52.3884 40.2138 53.7543 41.928 53.832 44.2787C53.9136 46.7462 52.811 50.6303 51.1429 53.7514C51.5848 54.2843 52.2475 54.5338 53.1316 54.5015C54.7472 54.4421 56.0436 52.9039 57.2817 49.6032C57.3869 49.2853 57.6877 49.0785 57.9958 49.0674C58.5726 49.0455 59.0148 49.6178 58.8025 50.1748C57.2415 54.1935 55.4939 56.0619 53.1862 56.1465Z" fill="currentColor"/>
<path fill-rule="evenodd" clip-rule="evenodd" d="M82.4812 49.4457C81.1666 52.7897 79.2102 57.6886 75.7889 57.816C73.9053 57.8863 72.9381 56.5492 72.8745 54.6291C72.7577 51.0637 75.5976 46.0927 75.4919 42.8798C75.4553 41.7432 74.964 40.8596 73.4263 40.9167C71.1968 41.0001 68.3667 46.2449 67.3556 49.4601C67.2864 49.6981 64.9627 57.4746 64.9979 57.3946C64.8944 57.7514 64.5936 57.959 64.2476 57.9722C63.6704 57.9935 63.2666 57.4201 63.4428 56.9035C63.4778 56.7841 65.7628 49.0095 65.7988 48.9295C66.5276 46.5089 67.0465 44.7253 67.0018 43.3528C66.9543 41.9037 66.3918 41.1794 65.0082 41.2305C63.9317 41.2711 62.819 42.5673 61.7574 44.2159C61.0996 45.2992 58.9348 49.695 58.7243 50.3311L56.3575 57.9911C56.2197 58.4673 55.7649 58.6803 55.338 58.5781C54.91 58.4373 54.6632 57.9754 54.8042 57.5388C56.5793 51.8231 58.3937 46.1063 60.1689 40.3906C60.2731 40.0339 60.574 39.8262 60.9199 39.813C61.4964 39.7916 61.9002 40.365 61.7255 40.8818C61.5832 41.2404 61.4773 41.5584 61.3755 41.9546C62.4468 40.5813 63.6473 39.6332 64.9537 39.5842C67.2605 39.4986 68.5403 40.9814 68.6087 43.0576C69.6646 41.2135 71.5663 39.3378 73.3726 39.2705C76.1398 39.1682 77.0392 40.7435 77.1069 42.8197C77.23 46.5815 74.4178 51.1974 74.5281 54.5679C74.5655 55.7046 74.9272 56.2002 75.7352 56.1698C77.6188 56.0995 79.0799 53.7311 80.9953 48.7166C81.0999 48.3985 81.4393 48.1904 81.7474 48.1785C82.1305 48.164 82.5665 48.5407 82.581 48.9715C82.5848 49.0882 82.5487 49.1689 82.4812 49.4457Z" fill="currentColor"/>
<path fill-rule="evenodd" clip-rule="evenodd" d="M106.274 60.4477C102.757 61.2045 101.292 62.2786 101.197 64.0863C101.242 65.4569 102.156 66.2857 103.462 66.1988C105.537 66.0829 107.237 63.9428 108.374 59.9387C107.649 60.1228 106.963 60.305 106.274 60.4477ZM113.613 32.9891C113.533 30.5996 111.944 29.0892 109.675 29.1727C106.022 29.3068 102.728 34.4877 100.326 42.1856C106.274 42.7117 113.797 38.5123 113.613 32.9891ZM121.14 47.5804C121.144 47.6986 121.11 47.8173 121.075 47.9358C118.88 53.7433 115.809 57.5036 110.25 59.3953C108.582 64.8294 106.29 67.6992 103.523 67.8405C101.216 67.9645 99.6654 66.4908 99.5885 64.1808C99.5071 61.7125 101.331 59.8411 105.918 58.809C106.875 58.6169 107.906 58.3831 108.935 58.0704L110.777 52.0803C108.537 55.3403 105.876 57.5552 102.684 57.6729C98.8349 57.6972 96.9487 55.4128 96.8239 51.6519C96.7487 49.3807 97.4481 46.0998 98.1724 43.5627C94.2188 42.7668 91.5912 40.157 91.4582 36.1611C91.4073 34.6335 91.7033 33.093 92.232 31.6216C92.6539 30.4294 93.2728 29.3485 93.9733 28.42C94.1209 28.2185 94.3488 28.1322 94.5803 28.1234C94.7723 28.1163 94.9671 28.1873 95.1241 28.2996C95.3224 28.4488 95.4072 28.6816 95.4147 28.9165C95.4213 29.1114 95.3897 29.3096 95.2404 29.4717C94.6112 30.2402 94.1044 31.2004 93.7521 32.1932C93.2926 33.4266 93.0278 34.7303 93.0711 36.0236C93.1868 39.5101 95.4821 41.3865 98.6974 41.9738C101.303 33.4456 105.232 27.6922 109.616 27.5311C112.885 27.4104 115.113 29.5635 115.225 32.9332C115.173 39.5242 108.339 43.5804 101.494 43.8322C100.917 43.8534 100.454 43.831 99.7967 43.777C98.9995 46.4338 98.374 49.6343 98.4389 51.5925C98.5443 54.7658 100.049 56.0057 102.63 56.0278C105.476 55.9231 107.902 53.5981 109.948 50.3065C111.925 47.2136 113.529 43.3498 114.826 39.4979L115.175 38.4261C115.314 37.9503 115.579 37.822 115.926 37.8098C116.58 37.7856 116.906 38.362 116.731 38.8785L114.141 46.7006C113.585 48.5255 112.956 50.4309 112.297 52.6125L110.838 57.4115C115.211 55.7218 117.783 52.0182 119.553 47.3256C119.696 47.0057 119.96 46.8002 120.266 46.789C120.382 46.7849 120.499 46.8195 120.616 46.8549C120.928 46.9999 121.13 47.2673 121.14 47.5804Z" fill="currentColor"/>
<path fill-rule="evenodd" clip-rule="evenodd" d="M123.382 34.1502C123.357 33.4065 123.953 32.7961 124.683 32.769C125.413 32.7426 126.01 33.3089 126.035 34.0525C126.059 34.7969 125.502 35.4056 124.771 35.4326C124.041 35.4591 123.407 34.8946 123.382 34.1502ZM128.203 47.2725C128.207 47.39 128.172 47.5094 128.138 47.628C126.432 51.9277 124.564 55.9976 121.333 56.1164C119.486 56.184 118.437 54.7328 118.453 52.9276C118.468 49.8674 120.961 42.5968 122.505 38.0679C122.609 37.7121 122.91 37.5038 123.218 37.4927C123.717 37.4744 124.231 37.8483 124.023 38.5221C120.646 49.3554 120.014 51.1829 120.069 52.8683C120.107 54.004 120.47 54.5005 121.277 54.4703C123.662 54.3827 125.298 50.2824 126.615 47.0177C126.758 46.6978 127.06 46.4911 127.368 46.48C127.483 46.4759 127.561 46.5123 127.678 46.5469C127.99 46.6533 128.193 46.9594 128.203 47.2725Z" fill="currentColor"/>
<path fill-rule="evenodd" clip-rule="evenodd" d="M143.536 46.6994C143.54 46.8169 143.506 46.9363 143.471 47.055C141.05 53.0688 139.32 55.4481 136.706 55.5458C134.861 55.6149 133.893 54.2778 133.83 52.3578C133.71 48.6741 136.559 44.0177 136.447 40.6077C136.41 39.4717 135.881 38.5894 134.382 38.6453C132.037 38.7329 129.289 44.131 128.168 47.5079L125.73 55.3666C125.592 55.8428 125.137 56.0557 124.71 55.9536C124.283 55.8128 124.037 55.3903 124.177 54.9142C125.99 49.1974 128.18 42.0146 129.542 37.7661C129.646 37.4094 129.947 37.2017 130.293 37.1885C130.87 37.1672 131.273 37.7405 131.098 38.2572L130.815 39.0525C131.892 37.8362 133.059 37.0461 134.328 36.9991C137.096 36.8962 137.994 38.4714 138.062 40.5476C138.176 44.0357 135.345 49.2804 135.445 52.2977C135.482 53.4336 135.845 53.93 136.652 53.8996C138.459 53.8323 139.774 51.7042 141.95 46.4452C142.094 46.1253 142.357 45.9195 142.664 45.9082C142.779 45.9041 142.896 45.9387 143.013 45.9739C143.325 46.1188 143.526 46.3862 143.536 46.6994Z" fill="currentColor"/>
<path fill-rule="evenodd" clip-rule="evenodd" d="M146.33 48.6353C146.345 49.1043 147.533 48.9434 148.367 48.5606C147.189 47.8582 146.306 47.9298 146.33 48.6353ZM144.569 58.3527C141.317 58.9827 140.006 60.0894 140.063 61.8131C140.099 62.9099 141.098 63.9716 142.52 63.9192C145.02 63.8275 147.02 61.4785 148.767 57.2569C147.283 57.7828 145.868 58.0702 144.569 58.3527ZM158.912 46.0927C158.916 46.2103 158.88 46.2902 158.845 46.4095C156.721 52.0187 153.773 54.8332 150.819 56.3532C148.97 62.1479 146.267 65.3856 142.613 65.5197C140.189 65.6091 138.531 64.376 138.45 61.9075C138.361 59.2442 140.078 57.6125 144.246 56.7132C145.852 56.3801 147.651 56.0385 149.509 55.1472C150.015 53.0101 150.257 51.0406 149.483 49.735C147.173 50.9178 144.743 50.8117 144.672 48.6964C144.591 46.228 147.586 45.9604 149.719 47.5686C151.482 46.1708 152.054 43.6782 151.981 41.4834C151.914 39.447 151.06 38.1056 149.252 38.1721C146.599 38.2698 144.704 43.8314 143.035 48.0502L142.891 48.4085C142.749 48.7276 142.524 48.9321 142.216 48.9433C141.794 48.9585 141.359 48.6212 141.343 48.1512C141.34 48.0337 141.374 47.915 141.408 47.7963C143.424 42.387 145.505 36.6621 149.198 36.5262C151.968 36.4246 153.496 38.4088 153.597 41.424C153.68 43.9319 152.893 46.9026 150.838 48.8217C151.732 50.2007 151.757 52.1221 151.436 54.0551C153.619 52.5247 155.732 50.0537 157.325 45.8379C157.467 45.5188 157.731 45.3132 158.039 45.3013C158.153 45.2972 158.27 45.3318 158.387 45.3672C158.699 45.4728 158.902 45.7796 158.912 46.0927Z" fill="currentColor"/>
<path fill-rule="evenodd" clip-rule="evenodd" d="M166.462 42.9053L167.303 40.364C167.165 38.5639 166.129 37.5434 164.746 37.594C161.209 37.8027 158.219 46.3467 158.271 50.2277C158.327 51.9517 158.712 53.0745 159.866 53.0322C162.981 52.9174 165.056 46.9573 166.462 42.9053ZM174.365 45.5541C174.368 45.6716 174.333 45.7916 174.299 45.9103L174.265 46.029C172.912 49.3731 170.995 54.2678 167.534 54.3955C165.688 54.4631 164.72 53.126 164.656 51.2066C163.191 53.4569 161.612 54.6132 159.959 54.6744C157.805 54.7531 156.743 52.9095 156.665 50.5588C156.494 45.4281 160.074 36.1179 164.689 35.9479C166.304 35.8892 167.518 36.5113 168.257 37.8961C168.466 37.2216 168.677 36.6252 168.852 36.1095C168.958 35.7909 169.259 35.5842 169.605 35.5712C170.22 35.5489 170.548 36.1639 170.372 36.6417L168.624 41.9611C167.369 45.9693 166.214 49.424 166.271 51.1471C166.311 52.3222 166.672 52.7792 167.479 52.7498C169.864 52.6622 171.57 48.3639 172.742 45.4179L172.777 45.2992C172.921 44.9796 173.183 44.7739 173.491 44.7628C173.607 44.7587 173.723 44.794 173.839 44.8286C174.152 44.9736 174.354 45.241 174.365 45.5541Z" fill="currentColor"/>
<path fill-rule="evenodd" clip-rule="evenodd" d="M206.042 44.6844C205.064 47.7414 203.001 50.5645 200.272 50.6664C199.119 50.7092 198.182 50.3123 197.546 49.7085C196.153 51.8403 194.818 53.3806 193.012 53.4472C191.244 53.5134 190.439 52.4447 190.153 50.7688C189.091 52.4165 187.745 53.6437 186.015 53.7079C184.17 53.7771 183.203 52.44 183.14 50.52C183.076 48.5614 184.254 44.593 187.268 35.5363C187.373 35.2191 187.674 35.0114 187.982 34.9995C188.635 34.975 188.961 35.5513 188.786 36.0681C185.365 46.7889 184.704 48.9319 184.754 50.4599C184.793 51.636 185.154 52.0922 185.961 52.0625C187.807 51.9934 189.356 49.9352 191.258 44.568C191.892 42.7794 193.843 36.5076 194.226 35.2775C194.331 34.9594 194.631 34.7517 194.939 34.7404C195.555 34.7172 195.958 35.2913 195.782 35.8079C193.574 42.4417 191.687 48.2404 191.751 50.1991C191.792 51.4533 192.228 51.8284 192.958 51.8017C194.188 51.7559 194.851 50.8287 196.499 48.2569C196.037 47.0969 196.066 45.6448 196.338 44.5355C196.44 44.1394 196.702 43.8949 197.086 43.8799C197.625 43.8596 198.064 44.3537 197.928 44.9087C197.823 45.2253 197.796 45.5798 197.766 45.8554C198.847 43.5794 201.649 37.4717 202.758 34.8807C202.902 34.6016 203.203 34.3933 203.511 34.3819C203.933 34.3658 204.293 34.7455 204.307 35.1762C204.312 35.3331 204.276 35.4517 204.242 35.5704C202.667 39.1603 199.652 45.8246 198.384 48.2646C198.785 48.7599 199.527 49.0465 200.218 49.0201C202.217 48.9458 203.385 47.0586 204.521 44.1131C204.666 43.7934 204.928 43.5883 205.235 43.5762C205.658 43.5608 206.093 43.898 206.109 44.3675C206.113 44.485 206.077 44.5649 206.042 44.6844Z" fill="currentColor"/>
<path fill-rule="evenodd" clip-rule="evenodd" d="M208.36 30.9835C208.335 30.2398 208.931 29.6295 209.661 29.6023C210.392 29.5759 210.988 30.1422 211.013 30.8858C211.037 31.6301 210.481 32.2389 209.749 32.2659C209.02 32.2925 208.384 31.7279 208.36 30.9835ZM213.182 44.1059C213.185 44.2233 213.15 44.3427 213.115 44.462C211.409 48.761 209.541 52.8308 206.311 52.9497C204.464 53.0172 203.414 51.566 203.431 49.7608C203.446 46.7008 205.939 39.4301 207.483 34.9012C207.586 34.5452 207.888 34.3371 208.196 34.326C208.695 34.3077 209.209 34.6808 209 35.3561C205.623 46.1886 204.991 48.0161 205.047 49.7015C205.085 50.8373 205.448 51.3338 206.256 51.3037C208.641 51.2161 210.276 47.1157 211.593 43.8509C211.736 43.5318 212.038 43.3244 212.346 43.3133C212.461 43.3092 212.539 43.3456 212.655 43.3801C212.967 43.4865 213.171 43.7927 213.182 44.1059Z" fill="currentColor"/>
<path fill-rule="evenodd" clip-rule="evenodd" d="M221.172 43.8061C221.175 43.9235 221.14 44.043 221.106 44.1617C219.036 49.1428 216.994 52.5538 213.457 52.6852C211.611 52.7543 210.567 51.3817 210.505 49.5003C210.458 48.0498 211.306 44.6054 212.431 41.3467L214.208 35.6705L211.787 35.7604C211.326 35.7778 210.967 35.4374 210.952 34.9681C210.938 34.5366 211.272 34.1315 211.733 34.1149L214.692 34.004C214.764 33.8448 216.467 28.2497 216.501 28.0916C216.604 27.7341 216.905 27.5271 217.252 27.5141C217.828 27.4926 218.231 28.0667 218.056 28.5827C218.164 28.3435 216.667 33.185 216.423 33.9399L218.998 33.8439C219.459 33.8267 219.818 34.2063 219.832 34.6369C219.847 35.1071 219.513 35.4729 219.053 35.4895L215.899 35.6074C215.694 36.3604 215.1 38.1873 213.949 41.8784C212.522 46.4826 212.082 48.3035 212.119 49.4401C212.154 50.498 212.634 51.0683 213.403 51.0398C216.17 50.9367 217.91 47.6154 219.584 43.5125C219.729 43.232 220.029 43.025 220.338 43.0131C220.453 43.009 220.57 43.0443 220.686 43.0788C220.96 43.2256 221.161 43.4929 221.172 43.8061Z" fill="currentColor"/>
<path fill-rule="evenodd" clip-rule="evenodd" d="M236.51 43.2738C236.513 43.3519 236.478 43.4713 236.444 43.5907C234.023 49.6045 232.293 51.9839 229.678 52.0815C227.795 52.1511 226.866 50.8128 226.803 48.8928C226.684 45.2879 229.52 40.1608 229.421 37.1435C229.383 36.0068 228.853 35.1251 227.355 35.1804C226.393 35.2161 225.346 36.1574 224.389 37.4486C222.07 40.6732 221.772 42.2149 218.666 51.9036C218.526 52.3796 218.072 52.5919 217.645 52.4905C217.217 52.3496 216.971 51.8877 217.11 51.451C220.423 40.9709 223.425 31.5216 224.569 27.6733C224.674 27.3553 224.975 27.1483 225.321 27.1352C225.897 27.1137 226.301 27.6871 226.126 28.2038C225.813 29.2354 225.047 31.7351 223.862 35.5064C224.941 34.3288 226.07 33.5807 227.301 33.5341C230.03 33.4331 230.967 35.0072 231.035 37.0834C231.133 40.0619 228.326 46.0113 228.418 48.8328C228.456 49.9695 228.817 50.465 229.624 50.4353C231.47 50.367 232.897 48.1165 234.923 42.9802C235.067 42.6611 235.329 42.4552 235.638 42.4433C235.753 42.4392 235.869 42.4744 235.985 42.509C236.297 42.6538 236.499 42.922 236.51 43.2738Z" fill="currentColor"/>
<path fill-rule="evenodd" clip-rule="evenodd" d="M255.954 42.51C255.958 42.6275 255.924 42.747 255.89 42.8657C253.82 47.8468 251.777 51.2577 248.241 51.3892C246.395 51.4583 245.349 50.0854 245.287 48.2042C245.25 47.0675 245.589 45.6429 246.449 42.5112C247.384 39.3778 248.43 36.0432 249.438 32.7485L251.243 26.7186C251.382 26.2819 251.837 26.0689 252.264 26.1703C252.692 26.3111 252.937 26.7729 252.798 27.2104L250.993 33.2403C250.021 36.4151 249.009 39.5915 248.003 42.9643C247.245 45.6597 246.879 47.4389 246.902 48.1441C246.937 49.2019 247.417 49.7723 248.186 49.7437C250.953 49.6407 252.692 46.32 254.367 42.2164C254.512 41.936 254.812 41.7289 255.121 41.7171C255.236 41.7129 255.353 41.7482 255.47 41.7828C255.743 41.9295 255.944 42.1968 255.954 42.51Z" fill="currentColor"/>
<path fill-rule="evenodd" clip-rule="evenodd" d="M262.766 42.4933C262.661 42.8105 262.671 43.1244 262.642 43.3999C263.754 40.9266 264.396 38.1967 264.336 36.3945C264.281 34.7485 263.291 33.9225 261.983 33.9708C260.522 34.0243 259.183 35.4463 258.131 37.4466C257.187 39.1684 255.274 43.0429 255.408 47.0787C255.455 48.4889 255.95 49.4514 257.181 49.4061C258.604 49.3537 260.167 47.7272 261.375 45.8391C260.919 44.8362 260.939 43.1099 261.175 42.1202C261.239 41.7253 261.577 41.4779 261.962 41.4639C262.5 41.4438 262.901 41.9391 262.766 42.4933ZM265.303 48.2419C264.227 48.282 263.216 47.966 262.347 47.2922C260.989 49.3026 259.08 50.9813 257.235 51.049C254.736 51.1414 253.833 49.4874 253.757 47.2162C253.607 42.6717 255.481 38.7988 256.68 36.6366C258.203 33.8352 260.042 32.3944 261.965 32.3239C264.506 32.3092 265.872 34.0234 265.949 36.3741C266.032 38.8416 264.928 42.7258 263.262 45.8469C263.702 46.379 264.366 46.6293 265.249 46.5969C266.865 46.5376 268.162 44.9994 269.4 41.6987C269.504 41.3807 269.805 41.174 270.112 41.1621C270.69 41.141 271.133 41.7133 270.921 42.2703C269.36 46.289 267.612 48.1573 265.303 48.2419Z" fill="currentColor"/>
<path fill-rule="evenodd" clip-rule="evenodd" d="M284.244 41.4556C284.247 41.5731 284.212 41.6531 284.178 41.7726C283.428 44.7432 281.098 47.6538 278.408 47.7546C277.369 47.7932 276.396 47.4755 275.682 46.796C273.882 49.4526 272.8 50.4741 271.147 50.5354C269.224 50.6075 268.333 49.2672 268.27 47.348C268.188 44.8396 269.925 40.2637 272.361 32.3656C272.465 32.0482 272.768 31.8399 273.113 31.8275C273.728 31.8042 274.094 32.3795 273.918 32.8961C270.882 42.4241 269.838 45.798 269.886 47.2872C269.923 48.4239 270.247 48.9207 271.093 48.8899C272.439 48.8399 273.801 46.9451 274.634 45.3451C274.171 44.1849 274.2 42.7328 274.473 41.6237C274.576 41.2276 274.875 40.9811 275.221 40.968C275.76 40.9478 276.16 41.4438 276.063 41.9969C275.996 42.3123 275.931 42.6679 275.902 42.9436C276.301 42.2229 280.359 33.2832 280.891 31.9687C281.037 31.689 281.337 31.4813 281.646 31.4701C281.761 31.4653 281.878 31.5006 281.995 31.5351C282.268 31.6825 282.47 31.9885 282.481 32.3025C282.484 32.42 282.45 32.5387 282.416 32.6574C281.198 35.4497 277.21 44.1106 276.52 45.3528C277.038 45.8834 277.661 46.1345 278.392 46.1064C280.428 46.0308 282.115 43.457 282.656 41.2013C282.721 40.8456 283.064 40.6757 283.371 40.6644C283.486 40.6603 283.603 40.6948 283.719 40.73C284.03 40.8355 284.233 41.1424 284.244 41.4556Z" fill="currentColor"/>
<path fill-rule="evenodd" clip-rule="evenodd" d="M292.198 34.1003C292.163 33.0421 291.349 32.8767 290.503 32.9071C287.849 33.0055 285.754 37.1617 284.624 40.2226C287.783 39.0869 292.294 36.9991 292.198 34.1003ZM296.432 41.0436C296.436 41.1619 296.4 41.2419 296.365 41.3604C294.053 47.0932 291.215 49.7867 287.331 49.9296C284.14 50.0467 282.145 47.9634 282.114 44.7476C282.179 39.7253 285.908 31.4295 290.446 31.2623C292.37 31.1911 293.75 32.1606 293.812 34.0408C293.95 38.1936 288.302 40.9118 284.069 42.1266C283.833 43.1553 283.741 43.9038 283.731 44.7283C283.728 46.9631 285.004 48.2892 287.314 48.2819C290.472 48.2457 292.858 45.8824 294.843 40.7493C295.023 40.3504 295.478 40.1377 295.905 40.2786C296.219 40.4245 296.422 40.7305 296.432 41.0436Z" fill="currentColor"/>
</svg>
