<svg viewBox="0 0 15 15" fill="none" xmlns="http://www.w3.org/2000/svg">
<path d="M13.1256 3.62027C13.6584 2.90716 13.9773 2.16677 13.9788 1.63782C13.9782 1.46653 13.9438 1.33267 13.8784 1.23296C13.8716 1.22076 13.8527 1.18885 13.8195 1.1574C13.7865 1.12461 13.7568 1.10709 13.7503 1.10355C13.6458 1.03374 13.5113 1.00006 13.3399 1.00006C12.8123 1.00095 12.0717 1.31961 11.3584 1.85323C10.7818 2.28469 10.2052 2.89231 9.40695 3.73373C9.27154 3.87643 9.12905 4.02647 8.97835 4.18381L7.43224 3.72043L7.43688 3.716C7.50114 3.65106 7.53772 3.56176 7.53683 3.47401C7.53772 3.38137 7.50027 3.29207 7.43578 3.22781L7.15657 2.94815C7.09208 2.88322 7.00298 2.846 6.91082 2.846C6.81774 2.846 6.73088 2.8819 6.66594 2.94749L6.24822 3.36545L6.02705 3.29941C6.0747 3.2389 6.10106 3.16334 6.10017 3.08888C6.10106 2.99491 6.06472 2.90739 5.99936 2.84246L5.71881 2.56191C5.65476 2.49765 5.56611 2.46085 5.47306 2.46085C5.38042 2.46085 5.29377 2.49699 5.22951 2.56235L4.84615 2.9455L3.27411 2.4746C3.23888 2.46418 3.20164 2.45865 3.16175 2.45865C3.05007 2.45998 2.94658 2.50142 2.87102 2.57633L2.31834 3.12922C2.25561 3.19193 2.22038 3.2768 2.22106 3.35724C2.21907 3.47579 2.28466 3.58526 2.3897 3.64154L5.69556 5.48837C5.71174 5.49745 5.75851 5.53203 5.77579 5.54932L6.71826 6.49157C5.83672 7.4203 5.05135 8.3198 4.43931 9.10226C4.38214 9.17496 4.32806 9.24586 4.27487 9.31612L1.71737 9.08388C1.70497 9.08233 1.69099 9.0812 1.67326 9.0812C1.55603 9.08364 1.44147 9.12998 1.35638 9.21218L1.09865 9.46968C1.03505 9.53196 0.999148 9.61616 1.00004 9.69748C0.998045 9.82159 1.07316 9.93636 1.18596 9.98667L2.98514 10.8412C3.00064 10.8489 3.04098 10.8775 3.05406 10.8906L3.20342 11.0388C3.15666 11.1705 3.13295 11.2846 3.13161 11.3848C3.13117 11.5188 3.17439 11.6336 3.25706 11.7163L3.26348 11.7218L3.26524 11.7232C3.35011 11.8054 3.46003 11.8473 3.59609 11.8473C3.69405 11.8457 3.80706 11.8224 3.93914 11.7759L4.09071 11.9273C4.10246 11.9397 4.1306 11.9791 4.13792 11.9949L4.99064 13.7901C5.04272 13.9046 5.15506 13.9789 5.27738 13.9789H5.27914C5.3638 13.9789 5.44468 13.9449 5.5065 13.8829L5.77042 13.6181C5.84864 13.5357 5.89474 13.422 5.8965 13.3021C5.8965 13.2875 5.89584 13.2762 5.8954 13.27L5.6625 10.7032C5.73253 10.6504 5.80344 10.5961 5.87633 10.5394C6.65992 9.92644 7.55963 9.14039 8.48658 8.26019L9.42972 9.20423C9.44501 9.21884 9.48068 9.26562 9.49112 9.28511L11.3344 12.585C11.3907 12.6916 11.4991 12.7574 11.6192 12.7574C11.7049 12.7574 11.7865 12.7235 11.849 12.6606L12.4056 12.1043C12.4779 12.0288 12.5184 11.9262 12.5195 11.814C12.5195 11.7764 12.5142 11.7398 12.5045 11.7055L12.0336 10.133L12.4167 9.74917C12.4812 9.6851 12.5178 9.59603 12.5178 9.50452C12.5178 9.41255 12.4821 9.32613 12.4172 9.2603L12.1362 8.97954C12.0719 8.91505 11.983 8.87827 11.8915 8.87827C11.814 8.87827 11.7382 8.90421 11.679 8.95097L11.6132 8.73069L12.0313 8.31253C12.0956 8.24804 12.1322 8.15895 12.1322 8.0672C12.1322 7.9748 12.0965 7.88817 12.0313 7.82324L11.7517 7.54356C11.6872 7.47818 11.5976 7.44117 11.5057 7.44117C11.4133 7.44117 11.3237 7.47862 11.2606 7.54311L11.2577 7.54576L10.7945 5.99987C10.9545 5.84741 11.1063 5.70224 11.2515 5.56552C12.0899 4.76993 12.6953 4.19554 13.1256 3.62027Z" fill="currentColor"/>
</svg>
