<svg viewBox="0 0 15 15" fill="none" xmlns="http://www.w3.org/2000/svg">
<path fill-rule="evenodd" clip-rule="evenodd" d="M12.3436 12.8877L9.73802 10.282C8.91817 10.9784 7.85798 11.3984 6.70121 11.3985C4.10914 11.3985 2 9.29147 2 6.69925C2 4.10703 4.10914 2 6.69896 2C9.28878 2 11.3979 4.107 11.3979 6.6992C11.3979 7.85603 10.9779 8.91628 10.2816 9.73617L12.8871 12.3418C13.0376 12.4923 13.0376 12.7372 12.8871 12.8877C12.813 12.9618 12.7142 13 12.6153 13C12.5165 13 12.4177 12.9618 12.3436 12.8877ZM6.69896 2.77052C4.53367 2.77052 2.77043 4.53159 2.77043 6.69925C2.77043 8.86461 4.53367 10.628 6.69896 10.628C8.86426 10.628 10.6275 8.86466 10.6275 6.69925C10.6275 4.53384 8.86426 2.77052 6.69896 2.77052Z" fill="currentColor"/>
</svg>
