<svg viewBox="0 0 25 25" fill="none" xmlns="http://www.w3.org/2000/svg">
<path fill-rule="evenodd" clip-rule="evenodd" d="M4.46094 14.3232C4.46094 12.6098 5.85014 11.2155 7.55762 11.2155C9.2651 11.2155 10.6543 12.6098 10.6543 14.3232C10.6543 16.0395 9.25648 17.4724 7.55762 17.4724C5.85916 17.4724 4.46094 16.0395 4.46094 14.3232ZM5.69141 14.3232C5.69141 15.3566 6.54617 16.2293 7.55762 16.2293C8.56906 16.2293 9.42383 15.3566 9.42383 14.3232C9.42383 13.2952 8.5867 12.4585 7.55762 12.4585C6.52854 12.4585 5.69141 13.2952 5.69141 14.3232Z" fill="currentColor"/>
<path fill-rule="evenodd" clip-rule="evenodd" d="M14.3457 14.3232C14.3457 12.6098 15.7349 11.2155 17.4424 11.2155C19.1499 11.2155 20.5391 12.6098 20.5391 14.3232C20.5391 16.0395 19.1413 17.4724 17.4424 17.4724C15.7439 17.4724 14.3457 16.0395 14.3457 14.3232ZM15.5762 14.3232C15.5762 15.3566 16.4309 16.2293 17.4424 16.2293C18.4538 16.2293 19.3086 15.3566 19.3086 14.3232C19.3086 13.2952 18.4715 12.4585 17.4424 12.4585C16.4133 12.4585 15.5762 13.2952 15.5762 14.3232Z" fill="currentColor"/>
<path fill-rule="evenodd" clip-rule="evenodd" d="M17.4424 13.7017C17.1026 13.7017 16.8066 13.98 16.8066 14.3233C16.8066 14.6665 17.1026 14.9863 17.4424 14.9863C17.7822 14.9863 18.0781 14.6665 18.0781 14.3233C18.0781 13.98 17.7822 13.7017 17.4424 13.7017Z" fill="currentColor"/>
<path fill-rule="evenodd" clip-rule="evenodd" d="M22.3462 10.7709L22.9303 9.63798C23.0299 9.4453 23.0221 9.21409 22.9106 9.02845C22.799 8.84282 22.5997 8.72928 22.3848 8.72928H21.0879C19.1306 6.38895 15.9457 5 12.5 5C9.05428 5 5.86941 6.38895 3.91215 8.72928H2.61523C2.40031 8.72928 2.20098 8.84282 2.08941 9.02845C1.97785 9.21409 1.97006 9.4453 2.06973 9.63798L2.65379 10.7709C2.24158 11.8105 2 13.3333 2 14.3232C2 17.416 4.50605 19.9586 7.55762 19.9586C8.98291 19.9586 10.3311 19.4083 11.3721 18.4059L11.9496 19.5736C12.0538 19.7841 12.267 19.9171 12.5 19.9171C12.733 19.9171 12.9462 19.7841 13.0504 19.5736L13.6279 18.4059C14.6689 19.4083 16.0171 19.9586 17.4424 19.9586C20.4935 19.9586 23 17.416 23 14.3232C23 13.3333 22.7584 11.8105 22.3462 10.7709ZM21.3709 9.97238L21.2339 10.2376C21.1362 10.1456 21.0354 10.0573 20.9312 9.97238H21.3709ZM3.76613 10.2376C3.86375 10.1456 3.96465 10.0573 4.06883 9.97238H3.62914L3.76613 10.2376ZM7.55762 18.7155C5.17174 18.7155 3.23047 16.7452 3.23047 14.3232C3.23047 11.9282 5.16846 9.97238 7.55762 9.97238C9.9435 9.97238 11.8848 11.924 11.8848 14.3232C11.8848 16.7547 9.93283 18.7155 7.55762 18.7155ZM12.2297 17.3601L12.5 17.9058L12.7703 17.3601C12.6723 17.2068 12.582 17.0497 12.5 16.889C12.418 17.0497 12.3277 17.2068 12.2297 17.3601ZM12.5 11.7666C11.5759 9.9645 9.70766 8.72928 7.55762 8.72928H5.62496C7.36238 7.1547 9.83809 6.24309 12.5 6.24309C15.1619 6.24309 17.6376 7.1547 19.375 8.72928H17.4424C15.2923 8.72928 13.4241 9.9645 12.5 11.7666ZM13.1152 14.3232C13.1152 16.7514 15.0635 18.7155 17.4424 18.7155C19.8283 18.7155 21.7695 16.7452 21.7695 14.3232C21.7695 11.9286 19.832 9.97238 17.4424 9.97238C15.0565 9.97238 13.1152 11.924 13.1152 14.3232Z" fill="currentColor"/>
<path fill-rule="evenodd" clip-rule="evenodd" d="M7.55762 15.0276C7.90873 15.0276 8.19336 14.7401 8.19336 14.3854C8.19336 14.0307 7.90873 13.7431 7.55762 13.7431C7.20651 13.7431 6.92188 14.0307 6.92188 14.3854C6.92188 14.7401 7.20651 15.0276 7.55762 15.0276Z" fill="currentColor"/>
</svg>
