<svg viewBox="0 0 91 85" fill="none" xmlns="http://www.w3.org/2000/svg">
<path fill-rule="evenodd" clip-rule="evenodd" d="M56.9175 84.3859L73.8635 72.5812L85.1287 84.3859H56.9175Z" fill="white"/>
<path d="M69.5601 75.9789C69.5601 75.9789 63.8527 69.3648 63.0657 68.1476C62.2786 66.9304 62.2787 64.0301 62.2787 64.0301C62.2787 64.0301 62.554 60.1048 63.0657 57.575C63.5773 55.0452 64.9517 51.8101 64.9517 51.8101L59.5851 51.8101C59.5851 51.8101 53.7047 63.3633 52.9104 64.2764C52.1162 65.1895 48.2136 65.4846 48.2136 65.4846L43.0545 65.8969C43.0545 65.8969 42.8669 62.4578 42.7727 61.6339C42.6786 60.81 42.4706 59.7482 42.0827 58.2561C41.6949 56.764 41.5735 56.1932 41.1258 55.2978C40.678 54.4024 40.4327 54.2555 39.7761 53.6433C39.1194 53.0312 38.2042 52.5739 38.2042 52.5739L37.3007 52.2289C37.3007 52.2289 37.1808 54.1009 37.3007 55.5924C37.4206 57.0839 37.5808 57.0301 37.81 58.563C38.0393 60.0958 38.1587 61.1726 38.2042 61.6339C38.2496 62.0952 38.2042 62.5597 38.2042 62.5597L40.4453 65.387L41.1258 65.9219H42.7727" stroke="white" stroke-width="0.64"/>
<path d="M38.2042 62.5596C38.2042 62.5596 35.4406 58.7269 34.3733 57.3918C33.306 56.0567 32.8044 55.6197 32.0346 54.8421C31.2649 54.0645 30.8361 53.6433 30.3871 53.365C29.938 53.0866 29.3964 52.82 28.4926 52.5801C27.5888 52.3402 24.5898 52.2466 24.5898 52.2466L28.9488 57.1216L32.0346 60.5578L34.9099 63.6982C34.9099 63.6982 36.3539 65.1555 37.082 65.4846C37.8101 65.8136 41.1258 65.9219 41.1258 65.9219" stroke="white" stroke-width="0.64"/>
<path d="M24.5898 52.2289L19.6772 52.2289L22.9405 56.4554L27.3604 61.8603L31.6984 66.9303L37.81 70.074L45.2176 73.7634L51.4327 77.1143L58.8676 81.1234L60.7746 82.1215L69.5308 75.9306" stroke="white" stroke-width="0.64"/>
<path fill-rule="evenodd" clip-rule="evenodd" d="M0.296386 48.543H90.9132C90.9132 48.543 90.7874 52.2519 89.0776 52.2519C87.3679 52.2519 3.97527 52.2519 1.90067 52.2519C-0.173917 52.2519 0.296386 48.543 0.296386 48.543Z" fill="white"/>
<path d="M11.2871 48.9746L7.56201 45.264H58.776L55.653 48.9746" stroke="white" stroke-width="0.64"/>
<path d="M12.8398 45.022L21.9406 32.3411H28.5025L41.2442 45.3742" stroke="white" stroke-width="0.64"/>
<path d="M22.4297 32.62L34.1808 45.2479H37.81L26.2322 32.62" stroke="white" stroke-width="0.64"/>
<path d="M33.8452 37.5415C33.8452 37.5415 34.779 36.7393 35.5517 36.5343C36.3245 36.3293 37.0805 36.2862 37.6413 36.5343C38.2022 36.7824 38.1769 37.2435 38.4602 37.5415C38.7436 37.8396 39.1773 38.0248 39.5524 38.0248C39.9275 38.0248 40.9271 37.7458 41.3422 37.8853C41.7574 38.0248 42.5658 38.4351 42.8571 38.7404C43.1484 39.0457 43.6996 39.3825 43.8229 39.7951C43.9462 40.2077 44.1807 40.8637 44.1807 40.8637C44.1807 40.8637 44.8695 39.7159 45.3046 39.3837C45.7397 39.0514 45.8506 39.0514 46.7799 38.8788C47.7093 38.7063 48.6178 38.8788 48.6178 38.8788C48.6178 38.8788 49.8571 39.595 50.4235 40.0453C50.9899 40.4956 50.99 40.658 51.2867 40.658C51.5835 40.658 52.5534 40.7373 52.8631 41.0407C53.1727 41.3442 53.3485 41.2214 54.5098 42.5522C55.6712 43.8829 55.6429 45.1252 55.6429 45.1252" stroke="white" stroke-width="0.64"/>
<path d="M61.7909 48.9338L67.1089 45.2973V27.8218L54.4795 12.0043H82.0062L69.09 27.8218V45.2973L74.1666 48.9338" stroke="white" stroke-width="0.64"/>
<path fill-rule="evenodd" clip-rule="evenodd" d="M60.1167 16.3853H76.4735L68.4693 25.862L60.1167 16.3853Z" fill="#B27A78"/>
<path fill-rule="evenodd" clip-rule="evenodd" d="M66.6479 19.5954C68.0636 19.5954 69.2112 18.4471 69.2112 17.0305C69.2112 15.614 68.0636 14.4656 66.6479 14.4656C65.2321 14.4656 64.0845 15.614 64.0845 17.0305C64.0845 18.4471 65.2321 19.5954 66.6479 19.5954Z" fill="white"/>
<path d="M58.1782 1.00214L69.378 20.6773" stroke="white" stroke-width="0.64"/>
<path fill-rule="evenodd" clip-rule="evenodd" d="M79.4648 20.8779C84.0659 20.8779 87.7958 17.1458 87.7958 12.542C87.7958 7.93821 84.0659 4.20612 79.4648 4.20612C74.8637 4.20612 71.1338 7.93821 71.1338 12.542C71.1338 17.1458 74.8637 20.8779 79.4648 20.8779Z" stroke="white" stroke-width="0.64"/>
</svg>
