<svg width="48" height="58" viewBox="0 0 48 58" fill="none" xmlns="http://www.w3.org/2000/svg">
<g filter="url(#filter0_d)">
<path d="M23.2869 1.01273C13.3261 1.36128 5.05118 9.11157 4.09519 19.0045C3.89988 20.983 4.01296 22.9001 4.36246 24.7352V24.7352C4.36246 24.7352 4.3933 24.9504 4.49609 25.3605C4.80448 26.7342 5.26705 28.067 5.8427 29.3177C7.84719 34.0539 12.4832 41.9785 22.886 50.6002C23.5233 51.1333 24.4588 51.1333 25.1064 50.6002C35.5092 41.9888 40.1452 34.0642 42.16 29.3074C42.7459 28.0567 43.1982 26.7342 43.5066 25.3503C43.5991 24.9504 43.6402 24.7249 43.6402 24.7249V24.7249C43.8766 23.4947 44 22.2337 44 20.942C44 9.68566 34.656 0.61291 23.2869 1.01273Z" fill="black"/>
<path fill-rule="evenodd" clip-rule="evenodd" d="M36.9641 20.4987C36.9641 13.6156 31.3842 8.03564 24.501 8.03564C17.6177 8.03564 12.0378 13.6156 12.0378 20.4987C12.0378 27.382 17.6177 32.9619 24.501 32.9619C31.3842 32.9619 36.9641 27.382 36.9641 20.4987Z" stroke="white" stroke-width="0.5"/>
<path fill-rule="evenodd" clip-rule="evenodd" d="M23.3824 13.1943C23.7014 13.0055 24.0722 12.8983 24.4692 12.8983C24.8643 12.8983 25.2363 13.0055 25.5549 13.1943C25.619 13.038 25.7555 12.846 25.9404 12.6668C26.0281 12.5827 26.118 12.5093 26.2064 12.4487C26.1684 12.4186 26.1245 12.4021 26.0749 12.4021C25.9848 12.4021 25.9084 12.4615 25.8807 12.5431C25.8574 12.4905 25.8057 12.4542 25.7452 12.4542C25.6622 12.4542 25.5949 12.5212 25.5949 12.6033C25.5949 12.6734 25.6431 12.7318 25.7081 12.7477C25.6586 12.8134 25.5801 12.8552 25.4911 12.8552C25.341 12.8551 25.2189 12.7331 25.2189 12.5827C25.2189 12.5663 25.2205 12.5507 25.2234 12.536C25.2389 12.5418 25.2563 12.5451 25.274 12.5451C25.3569 12.5451 25.424 12.4778 25.424 12.3957C25.424 12.314 25.3569 12.2466 25.274 12.2466C25.1927 12.2466 25.1249 12.314 25.1249 12.3957C25.1249 12.4413 25.1467 12.4824 25.179 12.5109C25.1213 12.5995 25.0202 12.658 24.9067 12.658C24.7274 12.658 24.5816 12.5127 24.5816 12.3342C24.5816 12.3092 24.5852 12.2859 24.5895 12.263C24.5917 12.2659 24.5905 12.2719 24.5905 12.2775C24.5905 12.3599 24.6584 12.4275 24.7405 12.4275C24.8224 12.4275 24.8892 12.3599 24.8892 12.2775C24.8892 12.1952 24.8224 12.1281 24.7405 12.1281C24.7134 12.1281 24.6886 12.1348 24.6658 12.1475C24.6711 12.1316 24.6725 12.1154 24.6725 12.0987C24.6725 11.9848 24.5808 11.8936 24.4692 11.8928C24.3564 11.8936 24.2649 11.9848 24.2649 12.0987C24.2649 12.1154 24.2669 12.1316 24.2717 12.1475C24.2499 12.1348 24.2239 12.1281 24.1977 12.1281C24.1161 12.1281 24.0487 12.1952 24.0487 12.2775C24.0487 12.3599 24.1161 12.4275 24.1977 12.4275C24.2798 12.4275 24.3472 12.3599 24.3472 12.2775C24.3472 12.2719 24.3472 12.2659 24.3484 12.263C24.3531 12.2859 24.3552 12.3092 24.3552 12.3342C24.3552 12.5127 24.2107 12.658 24.0314 12.658C23.9178 12.658 23.8167 12.5995 23.7598 12.5109C23.7922 12.4824 23.8119 12.4413 23.8119 12.3957C23.8119 12.314 23.7454 12.2466 23.664 12.2466C23.5804 12.2466 23.5139 12.314 23.5139 12.3957C23.5139 12.4778 23.5804 12.5451 23.664 12.5451C23.681 12.5451 23.699 12.5418 23.7145 12.536C23.7177 12.5507 23.7192 12.5663 23.7192 12.5827C23.7192 12.7331 23.5963 12.8552 23.446 12.8552C23.358 12.8551 23.2802 12.8134 23.2301 12.7477C23.2945 12.7318 23.3425 12.6734 23.3425 12.6033C23.3425 12.5212 23.2757 12.4542 23.193 12.4542C23.1328 12.4542 23.0805 12.4907 23.0567 12.5431C23.0296 12.4615 22.9528 12.4021 22.8617 12.4021C22.8134 12.4021 22.7689 12.4186 22.7314 12.4487C22.8193 12.5093 22.9098 12.5827 22.9971 12.6668C23.1825 12.846 23.3186 13.038 23.3824 13.1943" fill="white"/>
<path fill-rule="evenodd" clip-rule="evenodd" d="M23.8596 13.5299C24.0728 13.3522 24.3331 13.3386 24.5008 13.3386C24.8463 13.3386 25.0316 13.4807 25.124 13.5781C25.2028 13.6633 25.2181 13.7613 25.2272 13.8309C25.2304 13.856 25.2364 13.8707 25.2579 13.8707C25.2831 13.8707 25.2917 13.856 25.2917 13.8071C25.2919 13.4248 25.3129 13.3386 25.3129 13.3062C25.3129 13.2845 25.3072 13.2715 25.2698 13.2686C25.2001 13.266 25.0926 13.2481 25.0282 13.2356C24.9679 13.2222 24.7578 13.1868 24.5467 13.1868C24.2893 13.1868 24.0175 13.2075 23.7249 13.3857C23.4461 13.5534 23.207 13.8707 23.207 14.3598C23.207 15.2034 23.7966 15.583 24.5455 15.583C24.7845 15.583 24.9946 15.5492 25.1935 15.4463C25.2304 15.424 25.2332 15.418 25.2332 15.336V14.9992C25.2332 14.8465 25.2332 14.7234 25.2364 14.6322C25.239 14.5259 25.2698 14.4725 25.3529 14.4578C25.3895 14.4512 25.4102 14.4489 25.4348 14.4489C25.4566 14.4489 25.4745 14.4433 25.4745 14.4243C25.4745 14.3996 25.4532 14.3937 25.414 14.3937C25.3129 14.3937 25.239 14.403 25.1454 14.403C25.0529 14.403 24.8613 14.3937 24.702 14.3937C24.6976 14.3937 24.694 14.3951 24.6895 14.3951C24.6908 14.1013 24.6923 13.8301 24.6934 13.8016C24.6976 13.7365 24.7135 13.7053 24.7781 13.6913C24.7929 13.6869 24.8255 13.6857 24.854 13.6857C24.8748 13.6857 24.8855 13.6813 24.8855 13.668C24.8855 13.6543 24.8728 13.6507 24.8437 13.6507C24.7407 13.6507 24.6185 13.6569 24.5632 13.6569C24.4837 13.6569 24.3708 13.6507 24.2814 13.6507C24.0381 13.6507 23.9505 13.7324 23.9196 13.7613C23.8761 13.8016 23.8217 13.8899 23.8217 13.993C23.8217 14.2695 24.0255 14.464 24.3017 14.464C24.3102 14.464 24.3325 14.464 24.3419 14.4619C24.3514 14.4596 24.3654 14.4578 24.3654 14.4442C24.3654 14.4278 24.3514 14.423 24.3102 14.423C24.202 14.423 24.0504 14.3013 24.0504 14.1022C24.0504 14.0369 24.0564 13.9075 24.1649 13.8099C24.2346 13.7463 24.3145 13.7343 24.3592 13.7343C24.3878 13.7343 24.4172 13.7365 24.4346 13.7421C24.4443 13.7463 24.4507 13.7583 24.4507 13.779V14.5569C24.4507 14.7357 24.4507 14.9353 24.4411 15.019C24.4346 15.0728 24.4231 15.1154 24.3654 15.1237C24.337 15.1274 24.2954 15.1318 24.266 15.1318C24.2448 15.1318 24.2346 15.1372 24.2346 15.1468C24.2346 15.1601 24.2501 15.1657 24.2723 15.1657C24.4002 15.1657 24.5225 15.1601 24.5726 15.1601C24.5985 15.1601 24.6372 15.1624 24.6895 15.1643C24.6895 15.1643 24.6895 14.801 24.6895 14.4492C24.732 14.4492 24.7796 14.4522 24.8022 14.4578C24.9031 14.4789 24.9313 14.5272 24.934 14.6322C24.9364 14.7234 24.9364 14.8409 24.9364 14.9931V15.281C24.9364 15.3321 24.9249 15.3718 24.8787 15.3934C24.8051 15.4271 24.6984 15.4271 24.6192 15.4271C23.8596 15.4271 23.5187 14.9675 23.5187 14.3103C23.5187 13.9343 23.6879 13.6736 23.8596 13.5299" fill="white"/>
<path fill-rule="evenodd" clip-rule="evenodd" d="M19.5295 17.364C19.7107 17.364 19.9228 17.4167 20.1658 17.5219C20.2278 17.548 20.2674 17.561 20.2846 17.561C20.2999 17.561 20.3134 17.5555 20.3254 17.5446L20.3433 17.5284C20.3542 17.5177 20.367 17.5116 20.3824 17.5105C20.4148 17.5095 20.431 17.529 20.431 17.569L20.4295 17.683L20.423 17.906L20.4278 18.0233C20.4299 18.0525 20.4333 18.084 20.4375 18.1177C20.4386 18.1307 20.4392 18.1404 20.4392 18.1469C20.4392 18.1816 20.4224 18.198 20.3887 18.1957C20.366 18.1946 20.3507 18.1719 20.3431 18.1275C20.3214 17.9977 20.2527 17.8704 20.1366 17.7458C19.973 17.5705 19.7752 17.4828 19.5431 17.4828C19.322 17.4828 19.1452 17.5698 19.0124 17.7437C18.8796 17.9175 18.8133 18.1492 18.8133 18.4384C18.8133 18.7483 18.8816 19.009 19.0186 19.2208C19.1554 19.4325 19.324 19.5386 19.5242 19.5386C19.5839 19.5386 19.6596 19.5254 19.7514 19.4989C19.8436 19.4723 19.9133 19.4434 19.961 19.412C20.0042 19.3839 20.0343 19.343 20.0511 19.2887C20.0678 19.2348 20.0763 19.151 20.0763 19.0375C20.0763 18.9076 20.0528 18.8178 20.0063 18.7675C19.9596 18.7173 19.8722 18.6889 19.7442 18.6823C19.7105 18.6801 19.6937 18.6642 19.6937 18.6343C19.6937 18.6045 19.7133 18.5896 19.7524 18.5896C19.7643 18.5896 19.7834 18.5907 19.8095 18.5928C19.916 18.6027 20.0366 18.6075 20.1714 18.6075C20.3105 18.6075 20.4127 18.6037 20.478 18.5961C20.5269 18.5896 20.5677 18.5863 20.6002 18.5863C20.6393 18.5863 20.6589 18.6007 20.6589 18.6295C20.6589 18.6558 20.6393 18.6731 20.6002 18.6807C20.5374 18.6937 20.4939 18.7273 20.4701 18.7813C20.4461 18.8355 20.4343 18.927 20.4343 19.0558C20.4343 19.096 20.4358 19.1317 20.4392 19.1631C20.4434 19.2172 20.4457 19.2551 20.4457 19.2767C20.4457 19.3104 20.4389 19.3349 20.4254 19.3505C20.4117 19.3663 20.3843 19.3817 20.3431 19.3969C20.3181 19.4057 20.2319 19.4419 20.0843 19.506C19.8249 19.6177 19.5987 19.6736 19.4057 19.6736C19.1127 19.6736 18.8731 19.5743 18.687 19.3757C18.5008 19.1772 18.408 18.9205 18.408 18.6058C18.408 18.2543 18.5154 17.9595 18.7302 17.7211C18.9451 17.4831 19.2114 17.364 19.5295 17.364" fill="white"/>
<path fill-rule="evenodd" clip-rule="evenodd" d="M22.0165 19.1236L22.0295 19.2861C22.0426 19.3698 22.0742 19.4337 22.1248 19.4781C22.1753 19.5227 22.2412 19.5449 22.3226 19.5449C22.3756 19.5449 22.4023 19.5614 22.4023 19.5946C22.4023 19.6266 22.367 19.6425 22.2965 19.6425C22.266 19.6425 22.2226 19.6396 22.1662 19.6339C22.0251 19.618 21.9107 19.6099 21.8229 19.6099C21.7144 19.6099 21.6286 19.6155 21.5657 19.6269C21.5113 19.6374 21.4723 19.6425 21.4485 19.6425C21.4245 19.6425 21.4094 19.6308 21.4029 19.6078L21.3997 19.5945L21.4468 19.5563C21.525 19.5281 21.5768 19.4937 21.6023 19.4531C21.6277 19.4124 21.6406 19.3449 21.6406 19.2507L21.6421 19.1061V17.811C21.6421 17.7113 21.6248 17.6404 21.5901 17.5981C21.5553 17.556 21.4918 17.5277 21.3997 17.5136C21.3444 17.5049 21.3088 17.4963 21.293 17.488C21.2773 17.4798 21.2695 17.4657 21.2695 17.4458C21.2695 17.4151 21.2824 17.4002 21.3085 17.4013C21.328 17.4024 21.3574 17.4067 21.3963 17.4143C21.4354 17.4231 21.501 17.4274 21.5933 17.4274C21.6541 17.4274 21.7295 17.4237 21.8195 17.4166L21.9385 17.4072C22.0501 17.3989 22.1359 17.3948 22.1956 17.3948C22.2313 17.3948 22.2492 17.4081 22.2492 17.4346C22.2492 17.4545 22.2465 17.4678 22.2412 17.4742C22.2356 17.4808 22.2221 17.486 22.2004 17.4892C22.1223 17.5022 22.0721 17.5239 22.0498 17.5543C22.0276 17.5846 22.0165 17.6464 22.0165 17.7396V19.1236" fill="white"/>
<path fill-rule="evenodd" clip-rule="evenodd" d="M23.8845 17.7742L24.7453 18.741L24.8006 18.8028C24.8741 18.8853 24.9234 18.9265 24.9483 18.9265C24.971 18.9265 24.9834 18.8936 24.9856 18.8274C24.9954 18.5878 25.0003 18.3596 25.0003 18.143C25.0003 17.8883 24.9745 17.7159 24.923 17.6259C24.8713 17.536 24.7703 17.4856 24.6194 17.4746C24.5836 17.4725 24.5657 17.4598 24.5657 17.4365C24.5657 17.4077 24.5815 17.3933 24.613 17.3933C24.6521 17.3933 24.7153 17.3987 24.8021 17.4096C24.8587 17.4162 24.9054 17.4193 24.9424 17.4193C25.0174 17.4193 25.1365 17.409 25.2995 17.3884C25.3213 17.3862 25.3371 17.3853 25.3469 17.3853C25.3816 17.3853 25.3991 17.4007 25.3991 17.4315C25.3991 17.4592 25.3816 17.4757 25.3469 17.4812C25.2069 17.5072 25.1369 17.6315 25.1369 17.8536V17.9334L25.1139 18.9498L25.1074 19.0898L25.1057 19.2703L25.1074 19.3937L25.1139 19.5971C25.1139 19.6274 25.103 19.6421 25.081 19.641C25.0615 19.64 25.0415 19.628 25.0209 19.6053L23.5401 17.9598C23.5142 17.9315 23.4963 17.9174 23.4865 17.9174C23.4606 17.9174 23.4475 17.9418 23.4475 17.9906L23.4459 18.0377V18.6686C23.4459 19.0057 23.4627 19.2312 23.4963 19.345C23.5322 19.4665 23.638 19.5353 23.8137 19.5515C23.8463 19.555 23.8625 19.5687 23.8625 19.593C23.8625 19.6262 23.8457 19.6427 23.8121 19.6427C23.7989 19.6427 23.7778 19.6404 23.7484 19.6362C23.6571 19.6209 23.556 19.6134 23.4451 19.6134C23.3353 19.6134 23.2374 19.621 23.1515 19.6366C23.1134 19.6428 23.0857 19.646 23.0683 19.646C23.0391 19.646 23.0244 19.6327 23.0244 19.6062C23.0244 19.5839 23.0401 19.5686 23.0716 19.5596C23.1507 19.5369 23.2084 19.4901 23.245 19.4192C23.2812 19.3484 23.2994 19.2463 23.2994 19.1131L23.3109 18.7266V18.0221C23.3109 17.6886 23.1877 17.5131 22.9413 17.4959C22.9078 17.4936 22.8909 17.48 22.8909 17.4545C22.8909 17.4236 22.9094 17.408 22.9463 17.408L23.0591 17.4128L23.1275 17.4112C23.2124 17.4112 23.3033 17.4063 23.4001 17.3966C23.436 17.3933 23.4659 17.3918 23.4898 17.3918C23.5234 17.3918 23.55 17.3989 23.5695 17.4137C23.5889 17.4283 23.6301 17.4731 23.6928 17.548L23.805 17.6798C23.8494 17.7319 23.8759 17.7634 23.8845 17.7742" fill="white"/>
<path fill-rule="evenodd" clip-rule="evenodd" d="M26.6233 19.6213L26.3189 19.6312C26.2344 19.6312 26.1724 19.6377 26.1335 19.6507C26.1161 19.6562 26.103 19.6587 26.0944 19.6587C26.0705 19.6587 26.0595 19.6484 26.0618 19.6278C26.0629 19.6213 26.0677 19.6121 26.0765 19.6002C26.0971 19.5742 26.1253 19.5259 26.1612 19.4552L26.3894 19.0366L26.7058 18.4469C26.8926 18.0984 27.0062 17.8649 27.0464 17.7465L27.0856 17.6324C27.0888 17.6205 27.0905 17.6119 27.0905 17.6065C27.0882 17.5783 27.0508 17.564 26.9779 17.564L26.6991 17.5543L26.5997 17.564C26.3638 17.5968 26.2317 17.7128 26.2035 17.9122C26.2002 17.9384 26.1871 17.9515 26.1644 17.9515C26.1361 17.9515 26.122 17.9151 26.122 17.8424C26.122 17.8098 26.127 17.7692 26.1367 17.7204C26.1453 17.679 26.1497 17.6422 26.1497 17.6096L26.148 17.5022L26.1562 17.4599C26.1605 17.4274 26.1745 17.411 26.1985 17.411C26.2115 17.411 26.2262 17.4121 26.2424 17.4143C26.2979 17.4219 26.4762 17.4257 26.7779 17.4257C26.8886 17.4257 26.983 17.4219 27.0612 17.4143L27.3215 17.3899C27.4268 17.3801 27.5055 17.3752 27.5576 17.3752C27.6139 17.3752 27.6423 17.3905 27.6423 17.4209C27.6423 17.4404 27.6259 17.4774 27.5933 17.5316C27.5171 17.6598 27.4015 17.8775 27.2461 18.1848L27.0456 18.5757L26.832 18.9927C26.7527 19.1459 26.7065 19.2359 26.6935 19.2631C26.6565 19.3392 26.6305 19.3901 26.6152 19.4163C26.6076 19.4293 26.6038 19.4407 26.6038 19.4504C26.6027 19.4775 26.6321 19.4912 26.6918 19.4912L26.8956 19.496L27.0456 19.478C27.3053 19.4377 27.502 19.3207 27.6358 19.1268C27.6606 19.0898 27.678 19.0718 27.6877 19.0728C27.7041 19.0739 27.7121 19.0918 27.7121 19.1266C27.7121 19.2752 27.6685 19.4016 27.5812 19.5059C27.4938 19.6099 27.3877 19.6621 27.263 19.6621C27.2336 19.6621 27.2048 19.6604 27.1767 19.6572L26.9782 19.6377C26.8598 19.6269 26.7415 19.6213 26.6233 19.6213" fill="white"/>
<path fill-rule="evenodd" clip-rule="evenodd" d="M29.5413 18.6043L29.3287 18.1077C29.2778 17.9887 29.2416 17.9292 29.2199 17.9292C29.2069 17.9292 29.1831 17.9675 29.1484 18.0445L29.1176 18.1125L28.9276 18.5461L28.9098 18.5866C28.9022 18.603 28.8984 18.617 28.8984 18.6289C28.8984 18.6657 28.9373 18.684 29.0154 18.684H29.4958C29.5369 18.684 29.5575 18.6727 29.5575 18.6499C29.5575 18.6445 29.5548 18.6354 29.5493 18.6223L29.5413 18.6043ZM29.4802 17.5869L30.2208 19.2864C30.2576 19.372 30.301 19.4361 30.351 19.4784C30.4008 19.5205 30.4654 19.5489 30.5446 19.563C30.5641 19.5663 30.574 19.5817 30.574 19.6093C30.574 19.6392 30.5614 19.6534 30.5364 19.6523C30.5223 19.6514 30.5017 19.6481 30.4745 19.6427C30.3908 19.6242 30.2561 19.6149 30.0702 19.6149C29.8832 19.6149 29.7561 19.6236 29.6887 19.6407C29.6723 19.6454 29.6582 19.6475 29.6463 19.6475C29.6158 19.6475 29.6007 19.632 29.6007 19.6011C29.6007 19.5855 29.6125 19.5739 29.6364 19.5661C29.6885 19.551 29.7317 19.5239 29.7658 19.4848C29.8001 19.4457 29.8172 19.4045 29.8172 19.3611C29.8172 19.3002 29.7701 19.1667 29.676 18.9607C29.6467 18.8978 29.6146 18.8617 29.5793 18.8525C29.5442 18.8433 29.4195 18.8386 29.2052 18.8386H28.9845L28.8384 18.8646C28.7982 18.883 28.7529 18.9545 28.702 19.0789L28.6517 19.204C28.6366 19.2398 28.629 19.276 28.629 19.3128C28.629 19.4493 28.7245 19.5283 28.9154 19.5499C28.9566 19.5554 28.9767 19.5714 28.9757 19.598C28.9734 19.6267 28.9538 19.641 28.9169 19.641C28.8973 19.641 28.8696 19.6378 28.8337 19.6313C28.762 19.6172 28.6978 19.6101 28.6413 19.6101C28.5902 19.6101 28.5075 19.6155 28.3934 19.6264C28.3085 19.6351 28.2558 19.6395 28.2352 19.6395C28.2048 19.6395 28.1895 19.6261 28.1895 19.5996C28.1895 19.5775 28.2048 19.561 28.2351 19.5499C28.2937 19.5316 28.3405 19.4977 28.3758 19.4484C28.4111 19.3992 28.4634 19.2954 28.5329 19.137L28.9773 18.1133C29.0131 18.032 29.0379 17.9763 29.0522 17.946L29.2035 17.6355L29.2816 17.4828V17.4877C29.3163 17.4052 29.3396 17.364 29.3516 17.364C29.369 17.364 29.3988 17.4096 29.4411 17.5007L29.4802 17.5869V17.5869Z" fill="white"/>
<path fill-rule="evenodd" clip-rule="evenodd" d="M18.4419 22.1067H17.6705C17.5934 22.1067 17.546 22.1167 17.5281 22.1367C17.5102 22.1569 17.5011 22.2096 17.5011 22.2952V22.6999C17.5011 22.8535 17.5261 22.9644 17.576 23.0322C17.626 23.0997 17.708 23.1337 17.8219 23.1337C17.8587 23.1337 17.8772 23.1481 17.8772 23.1767C17.8772 23.211 17.8489 23.2281 17.7925 23.2281C17.773 23.2281 17.7345 23.2249 17.6769 23.2184C17.5489 23.2031 17.4313 23.1955 17.3239 23.1955C17.2564 23.1955 17.1669 23.2014 17.0552 23.2134C16.989 23.221 16.9472 23.2249 16.9299 23.2249C16.8951 23.2249 16.8778 23.2067 16.8778 23.1702C16.8778 23.147 16.8914 23.1337 16.9186 23.1305C16.9924 23.1185 17.0452 23.0849 17.0772 23.0297C17.1092 22.9743 17.1252 22.8903 17.1252 22.7775L17.1269 22.6896V21.3334C17.1269 21.2543 17.1054 21.196 17.0625 21.1585C17.0196 21.1211 16.9402 21.0911 16.8242 21.0682C16.7937 21.0616 16.7786 21.0457 16.7786 21.0202C16.7786 20.9882 16.7958 20.9722 16.8307 20.9722C16.8502 20.9722 16.886 20.9763 16.9381 20.9843C17.026 20.9979 17.129 21.0047 17.2474 21.0047C17.2874 21.0047 17.3731 20.9976 17.5045 20.9837C17.5827 20.9761 17.6417 20.9722 17.6819 20.9722C17.721 20.9722 17.7405 20.9872 17.7405 21.0169C17.7405 21.0413 17.7248 21.0563 17.6933 21.0617C17.5652 21.0834 17.5011 21.1641 17.5011 21.3038V21.7214C17.5011 21.8317 17.509 21.8966 17.5248 21.9155C17.5405 21.9344 17.5928 21.944 17.6819 21.944H18.4419C18.5081 21.944 18.5486 21.9307 18.5633 21.9041C18.5778 21.8775 18.5852 21.804 18.5852 21.6835V21.3335C18.5852 21.1946 18.5087 21.1111 18.3557 21.0829L18.2808 21.0682C18.2504 21.0628 18.2352 21.0469 18.2352 21.0202C18.2352 20.9882 18.2525 20.9722 18.2874 20.9722C18.3069 20.9722 18.3427 20.9763 18.3948 20.9843C18.4837 20.9979 18.5874 21.0047 18.7057 21.0047C18.7469 21.0047 18.8327 20.9976 18.9628 20.9837C19.041 20.9761 19.1001 20.9722 19.1402 20.9722C19.1793 20.9722 19.1989 20.9872 19.1989 21.0169C19.1989 21.0413 19.1831 21.0563 19.1516 21.0617C19.0236 21.0834 18.9595 21.1641 18.9595 21.3038V22.6999C18.9595 22.8535 18.9842 22.9644 19.0336 23.0322C19.083 23.0997 19.1636 23.1337 19.2752 23.1337C19.3154 23.1337 19.3355 23.1481 19.3355 23.1767C19.3355 23.211 19.3072 23.2281 19.2508 23.2281C19.2313 23.2281 19.1933 23.2249 19.1369 23.2184C19.0078 23.2031 18.8901 23.1955 18.7837 23.1955C18.7154 23.1955 18.6252 23.2014 18.5136 23.2134C18.4474 23.221 18.4055 23.2249 18.3883 23.2249C18.3534 23.2249 18.3361 23.2067 18.3361 23.1702C18.3361 23.147 18.3498 23.1337 18.3769 23.1305C18.4507 23.1185 18.5036 23.085 18.5355 23.0297C18.5675 22.9744 18.5836 22.8905 18.5836 22.7778L18.5852 22.69V22.3326C18.5852 22.2264 18.5781 22.1622 18.564 22.1399C18.5499 22.1178 18.5092 22.1067 18.4419 22.1067" fill="white"/>
<path fill-rule="evenodd" clip-rule="evenodd" d="M21.074 21.0683C20.856 21.0683 20.6857 21.149 20.563 21.3108C20.4404 21.4725 20.379 21.6977 20.379 21.9863C20.379 22.327 20.4561 22.604 20.6102 22.817C20.7642 23.0304 20.9645 23.137 21.2108 23.137C21.4333 23.137 21.6111 23.0489 21.7446 22.8723C21.8781 22.6961 21.9448 22.4605 21.9448 22.1652C21.9448 21.9949 21.9139 21.8287 21.8521 21.6664C21.7902 21.5042 21.7078 21.3754 21.6046 21.2799C21.4549 21.1389 21.2781 21.0683 21.074 21.0683ZM21.1913 20.9463C21.5298 20.9463 21.8033 21.0448 22.0116 21.2419C22.2199 21.439 22.324 21.6977 22.324 22.018C22.324 22.3666 22.2166 22.6619 22.0017 22.9039C21.7924 23.1407 21.5037 23.259 21.136 23.259C20.7843 23.259 20.5033 23.1563 20.2928 22.9504C20.0822 22.7446 19.9771 22.4696 19.9771 22.1255C19.9771 21.9778 20.0037 21.8308 20.0569 21.6849C20.1099 21.5389 20.1822 21.4164 20.2733 21.3177C20.3786 21.2014 20.5122 21.1105 20.6745 21.0448C20.8367 20.979 21.009 20.9463 21.1913 20.9463V20.9463Z" fill="white"/>
<path fill-rule="evenodd" clip-rule="evenodd" d="M24.2351 21.3823V22.6079C24.2351 22.7912 24.2616 22.9212 24.315 22.9979C24.368 23.0741 24.4619 23.1168 24.5965 23.1255C24.6356 23.1288 24.6551 23.1482 24.6551 23.1835C24.6551 23.2088 24.6382 23.2215 24.6047 23.2215C24.5969 23.2215 24.5835 23.2209 24.5639 23.2198L24.4419 23.215L24.2385 23.202C24.2221 23.2009 24.2004 23.2005 24.1733 23.2005C24.1103 23.2005 24.0539 23.202 24.0041 23.2053L23.6444 23.2264C23.6063 23.2308 23.5803 23.2329 23.5662 23.2329C23.5325 23.2329 23.5163 23.2186 23.5174 23.19C23.5185 23.1658 23.5239 23.1501 23.5336 23.1429C23.5435 23.1358 23.5645 23.1309 23.5971 23.1288C23.6818 23.1233 23.7471 23.0927 23.7933 23.0368C23.8394 22.9809 23.8624 22.9047 23.8624 22.8082L23.8609 22.7317V21.2864C23.8609 21.2006 23.8147 21.1577 23.7224 21.1577C23.5054 21.1577 23.3572 21.1736 23.2782 21.2051C23.2206 21.2291 23.1822 21.2559 23.1633 21.2861C23.1444 21.3159 23.1186 21.3901 23.086 21.5088L23.073 21.5545C23.061 21.5992 23.0427 21.6217 23.0177 21.6217C22.9819 21.6217 22.965 21.6047 22.9672 21.5712C22.9683 21.5408 22.9738 21.4985 22.9836 21.4442L22.9998 21.3026L23.0194 21.1577L23.0307 21.0585C23.035 21.0161 23.0578 20.995 23.0991 20.995C23.11 20.995 23.1285 20.9961 23.1544 20.9982C23.1968 21.0015 23.2569 21.0032 23.3351 21.0032L23.6671 21.0064L24.0627 21.0112C24.3175 21.0112 24.5877 21.0041 24.8732 20.9901C24.9295 20.9879 24.966 20.9868 24.9822 20.9868C25.0418 20.9868 25.0733 21.0118 25.0766 21.0617L25.0848 21.1789C25.0859 21.1974 25.0913 21.2414 25.101 21.3108C25.1086 21.3683 25.1124 21.4142 25.1124 21.4491C25.1124 21.4848 25.0978 21.5027 25.0685 21.5027C25.0435 21.5027 25.0262 21.4821 25.0165 21.4406C24.9936 21.3392 24.9498 21.2662 24.8854 21.2215C24.8209 21.1768 24.7272 21.1545 24.6047 21.1545C24.4397 21.1545 24.3369 21.1673 24.2962 21.1927C24.2554 21.2182 24.2351 21.2814 24.2351 21.3823" fill="white"/>
<path fill-rule="evenodd" clip-rule="evenodd" d="M26.3805 21.3643V21.7175C26.3805 21.8184 26.3879 21.8825 26.4025 21.9096C26.4172 21.9367 26.4526 21.9502 26.5091 21.9502L26.5579 21.9487L26.6296 21.947H26.7679C26.8753 21.947 26.9584 21.8878 27.017 21.7696L27.0544 21.6899C27.0641 21.6704 27.0805 21.6599 27.1032 21.659C27.127 21.658 27.139 21.6725 27.139 21.7031C27.139 21.7116 27.1375 21.7355 27.1341 21.7748C27.1319 21.8031 27.1309 21.8269 27.1309 21.8466C27.1309 21.8813 27.1358 21.9628 27.1455 22.0911C27.152 22.1749 27.1553 22.2476 27.1553 22.3098L27.1569 22.3928C27.1569 22.4081 27.1553 22.4184 27.152 22.4239C27.1476 22.4304 27.139 22.4343 27.1259 22.4354C27.0988 22.4375 27.082 22.4169 27.0755 22.3734C27.0614 22.2813 27.0288 22.2113 26.9779 22.1636C26.9496 22.1375 26.9152 22.1207 26.8746 22.1131C26.8338 22.1055 26.7576 22.1017 26.6458 22.1017H26.5352C26.4831 22.1017 26.4475 22.1095 26.4285 22.1252C26.4096 22.141 26.3969 22.1726 26.3903 22.2204C26.3838 22.2745 26.3805 22.3601 26.3805 22.477V22.6233C26.3805 22.776 26.3925 22.886 26.4164 22.9531C26.4347 23.0019 26.4564 23.0349 26.4814 23.0522C26.5064 23.0696 26.5449 23.0783 26.597 23.0783C27.0375 23.0783 27.3256 22.9442 27.4612 22.6761C27.4688 22.6633 27.4753 22.6561 27.4808 22.6551C27.4916 22.6528 27.5017 22.6564 27.5109 22.6657C27.52 22.6749 27.5247 22.6866 27.5247 22.7008C27.5247 22.8075 27.4959 22.9107 27.4385 23.0108C27.3906 23.0957 27.3311 23.1563 27.2594 23.1928C27.1879 23.2293 27.0929 23.2475 26.9746 23.2475C26.9052 23.2475 26.8282 23.2433 26.7435 23.2345L26.5547 23.2166C26.4852 23.2101 26.3914 23.2069 26.2731 23.2069C26.1938 23.2069 26.0734 23.2117 25.9119 23.2214C25.8673 23.2248 25.8353 23.2263 25.8158 23.2263C25.7897 23.2263 25.7756 23.2142 25.7735 23.1898C25.7723 23.1698 25.7843 23.1549 25.8093 23.1449C25.8711 23.1211 25.9131 23.096 25.9353 23.0693C25.9576 23.0428 25.9753 22.9955 25.9884 22.9272C26.0002 22.8698 26.0062 22.7917 26.0062 22.6933V21.4045C26.0062 21.2831 25.9864 21.2008 25.9469 21.1575C25.9072 21.1142 25.8249 21.0839 25.7002 21.0664C25.6709 21.062 25.6562 21.0461 25.6562 21.0184C25.6562 20.993 25.6741 20.9802 25.71 20.9802C25.7175 20.9802 25.7338 20.9813 25.7588 20.9836C25.7784 20.9845 25.8049 20.9851 25.8385 20.9851L26.0029 20.9916L26.6199 20.9981C26.9746 20.9981 27.1932 20.9933 27.2758 20.9836C27.2844 20.9825 27.292 20.9819 27.2985 20.9819C27.3299 20.9819 27.3456 20.9998 27.3456 21.0355C27.3456 21.0605 27.349 21.1049 27.3555 21.169C27.3641 21.2634 27.3685 21.3313 27.3685 21.3725C27.3685 21.4549 27.3473 21.4972 27.305 21.4995C27.2844 21.5005 27.2741 21.4766 27.2741 21.4275C27.2741 21.3196 27.2347 21.2414 27.1561 21.193C27.0773 21.1445 26.9502 21.1202 26.7744 21.1202H26.5758L26.4652 21.1333C26.4099 21.1505 26.3822 21.2054 26.3822 21.2976L26.3805 21.3643" fill="white"/>
<path fill-rule="evenodd" clip-rule="evenodd" d="M28.845 22.7061C28.845 22.9087 28.8694 23.0225 28.9181 23.0473C28.9452 23.0613 28.9982 23.0684 29.0772 23.0684C29.4449 23.0684 29.7055 22.9604 29.8591 22.7442C29.9064 22.6783 29.9361 22.6452 29.9482 22.6452C29.9681 22.6452 29.9779 22.6675 29.9779 22.712C29.9779 22.8498 29.9329 22.973 29.8428 23.0814C29.7637 23.1769 29.6556 23.2248 29.519 23.2248C29.4906 23.2248 29.4391 23.222 29.3643 23.2166C29.3447 23.2155 29.2797 23.2117 29.169 23.2052L28.9915 23.197C28.9318 23.1939 28.864 23.1922 28.7882 23.1922C28.6622 23.1922 28.5265 23.2005 28.3812 23.217C28.3367 23.222 28.3068 23.2248 28.2917 23.2248C28.2602 23.2248 28.2446 23.2104 28.2446 23.1816C28.2446 23.1617 28.2585 23.1478 28.2868 23.1401C28.3562 23.1205 28.4043 23.083 28.4309 23.0272C28.4575 22.9716 28.4708 22.8802 28.4708 22.7536V21.3961C28.4708 21.2231 28.3985 21.1249 28.2543 21.1023L28.1567 21.086C28.1153 21.0793 28.0947 21.063 28.0947 21.0363C28.0947 21.0033 28.1111 20.9867 28.1437 20.9867C28.1546 20.9867 28.1703 20.9884 28.1909 20.9916C28.2062 20.9926 28.2273 20.9949 28.2546 20.9981L28.3246 21.0031C28.3909 21.0095 28.4405 21.0128 28.4731 21.0128C28.5252 21.0128 28.6084 21.0063 28.7225 20.9933C28.8072 20.9845 28.8937 20.9802 28.9817 20.9802C29.0468 20.9802 29.0794 20.9958 29.0794 21.0267C29.0794 21.0533 29.0561 21.0675 29.0094 21.0698C28.8999 21.0773 28.845 21.1526 28.845 21.2957V22.7061" fill="white"/>
<path fill-rule="evenodd" clip-rule="evenodd" d="M31.1956 20.9495C31.2976 20.9495 31.3975 20.969 31.495 21.0081L31.6041 21.0537C31.6529 21.0731 31.6876 21.0829 31.7082 21.0829C31.7235 21.0829 31.7393 21.0792 31.7555 21.0716L31.8175 21.0407C31.8261 21.0363 31.8349 21.0342 31.8435 21.0342C31.8664 21.0342 31.8778 21.052 31.8778 21.0878L31.8746 21.2196C31.8746 21.2402 31.8755 21.2598 31.8778 21.2783L31.899 21.4378L31.9152 21.5858C31.9173 21.5989 31.9185 21.6096 31.9185 21.6184C31.9185 21.6651 31.9049 21.6884 31.8778 21.6884C31.8582 21.6884 31.8441 21.6678 31.8355 21.6267C31.804 21.4752 31.7246 21.3443 31.5975 21.2339C31.4703 21.1234 31.3355 21.0683 31.1932 21.0683C31.0953 21.0683 31.01 21.1013 30.9372 21.1672C30.8644 21.2331 30.8279 21.311 30.8279 21.4007C30.8279 21.4839 30.86 21.5558 30.9241 21.6163C30.9655 21.6552 31.0941 21.7187 31.3105 21.8066C31.5679 21.9119 31.7385 22.0149 31.8222 22.116C31.9211 22.2375 31.9705 22.3842 31.9705 22.5557C31.9705 22.7446 31.9022 22.909 31.7655 23.0489C31.6288 23.189 31.4687 23.259 31.2853 23.259C31.2105 23.259 31.0917 23.2336 30.9288 23.1825C30.8529 23.1575 30.797 23.1413 30.7612 23.1337C30.7112 23.124 30.6823 23.1145 30.6741 23.1054C30.6661 23.096 30.6593 23.0679 30.6538 23.0214C30.6484 22.9704 30.632 22.8967 30.605 22.8001C30.5637 22.6525 30.5432 22.5581 30.5432 22.5169C30.5432 22.4648 30.5599 22.4387 30.5937 22.4387C30.6088 22.4387 30.6196 22.4517 30.6261 22.4776C30.6794 22.6639 30.7717 22.8204 30.9032 22.947C31.0347 23.0737 31.1711 23.137 31.3125 23.137C31.4222 23.137 31.5202 23.0951 31.6065 23.0111C31.6929 22.9273 31.7362 22.8313 31.7362 22.7231C31.7362 22.6378 31.7137 22.5673 31.6685 22.5122C31.6234 22.457 31.5455 22.4051 31.4346 22.3563L31.1868 22.2458C30.9534 22.1416 30.7946 22.0431 30.7109 21.9502C30.6273 21.8573 30.5855 21.7339 30.5855 21.5798C30.5855 21.4007 30.6438 21.2507 30.7603 21.1302C30.877 21.0096 31.0222 20.9495 31.1956 20.9495" fill="white"/>
<path fill-rule="evenodd" clip-rule="evenodd" d="M17.4888 26.171C17.5576 26.171 17.6194 26.1584 17.6741 26.1333C17.7288 26.1081 17.777 26.0745 17.8188 26.0328L17.4288 25.6392C17.3638 25.6742 17.3147 25.7162 17.2818 25.765C17.2489 25.8139 17.2324 25.8672 17.2324 25.925C17.2324 25.965 17.2398 26.0001 17.2545 26.0304C17.2694 26.0609 17.2888 26.0865 17.3127 26.1074C17.3367 26.1284 17.3641 26.1442 17.3947 26.155C17.4255 26.1657 17.4568 26.171 17.4888 26.171ZM17.5985 24.9543C17.647 24.9543 17.6912 24.9621 17.7312 24.9778C17.7712 24.9934 17.8056 25.0142 17.8344 25.04C17.8633 25.0659 17.8862 25.0957 17.9032 25.13C17.92 25.1639 17.9297 25.1995 17.9321 25.2363L17.8298 25.2566C17.8095 25.2616 17.7944 25.2521 17.7847 25.228C17.7803 25.2121 17.7735 25.1956 17.7639 25.1783C17.7544 25.1612 17.7421 25.1454 17.7271 25.1313C17.712 25.1172 17.6938 25.1056 17.6727 25.0962C17.6515 25.0871 17.6268 25.0824 17.5985 25.0824C17.5677 25.0824 17.5398 25.0874 17.515 25.0972C17.4902 25.1071 17.4689 25.1206 17.4514 25.1383C17.4339 25.1557 17.4206 25.1763 17.4114 25.2C17.4021 25.2236 17.3974 25.2492 17.3974 25.2769C17.3974 25.2984 17.4 25.319 17.4048 25.3387C17.4098 25.3584 17.4176 25.3784 17.4283 25.3986C17.4391 25.4189 17.4527 25.4395 17.4694 25.4604C17.4861 25.4812 17.5059 25.5034 17.5292 25.5268L17.9091 25.913C17.9324 25.8712 17.9511 25.8278 17.9648 25.783C17.9786 25.7381 17.988 25.693 17.993 25.6475C17.9942 25.6359 17.9979 25.6266 18.0041 25.6198C18.0102 25.613 18.0188 25.6096 18.0298 25.6096H18.1303C18.1297 25.6804 18.1185 25.7496 18.0967 25.8175C18.0748 25.8854 18.0439 25.9492 18.0041 26.0089L18.2806 26.29H18.1211C18.1033 26.29 18.0888 26.2877 18.0777 26.2834C18.0667 26.2792 18.0547 26.2703 18.0418 26.2568L17.9082 26.1231C17.8503 26.179 17.7839 26.2233 17.7086 26.2559C17.6333 26.2884 17.5505 26.3048 17.4602 26.3048C17.4111 26.3048 17.3629 26.2965 17.3159 26.2798C17.2689 26.2631 17.2267 26.239 17.1892 26.2074C17.1517 26.1759 17.1217 26.1372 17.0988 26.0919C17.0761 26.0463 17.0647 25.995 17.0647 25.9378C17.0647 25.895 17.072 25.854 17.0864 25.8157C17.1008 25.7772 17.1208 25.7418 17.1464 25.7092C17.1718 25.6766 17.2023 25.6475 17.2376 25.6216C17.2729 25.5959 17.3114 25.5737 17.3532 25.5554C17.3152 25.508 17.2873 25.4619 17.2698 25.4169C17.2523 25.3722 17.2436 25.3259 17.2436 25.2778C17.2436 25.233 17.2517 25.1909 17.268 25.1515C17.2842 25.1122 17.3079 25.078 17.3385 25.0487C17.3692 25.0195 17.4065 24.9965 17.4505 24.9796C17.4944 24.9627 17.5438 24.9543 17.5985 24.9543V24.9543Z" fill="white"/>
<path fill-rule="evenodd" clip-rule="evenodd" d="M19.3047 25.7998H19.7979L19.5905 25.2624C19.5838 25.2464 19.5771 25.2279 19.5706 25.2071C19.5643 25.1862 19.5576 25.1638 19.5509 25.1397C19.5447 25.1638 19.5385 25.1864 19.532 25.2076C19.5255 25.2286 19.519 25.2473 19.5121 25.2633L19.3047 25.7998ZM20.1703 26.2901H20.032C20.0161 26.2901 20.0032 26.2862 19.9933 26.2782C19.9835 26.2701 19.9761 26.2601 19.9712 26.2477L19.8477 25.9288H19.255L19.1315 26.2477C19.1277 26.2588 19.1206 26.2688 19.1103 26.2773C19.0999 26.2859 19.0868 26.2901 19.0715 26.2901H18.9333L19.4614 24.9692H19.6421L20.1703 26.2901V26.2901Z" fill="white"/>
<path fill-rule="evenodd" clip-rule="evenodd" d="M20.6569 25.6541H20.8971C20.955 25.6541 21.0058 25.6474 21.0501 25.6338C21.0944 25.6203 21.1317 25.6014 21.1619 25.5771C21.1923 25.5529 21.215 25.5239 21.2305 25.49C21.2457 25.4562 21.2533 25.4191 21.2533 25.3786C21.2533 25.2944 21.2239 25.2285 21.1652 25.1812C21.1063 25.1339 21.017 25.1103 20.8971 25.1103H20.6569V25.6541ZM20.6569 25.7961V26.2901H20.4551V24.9692H20.8971C20.9919 24.9692 21.0742 24.9789 21.1442 24.9983C21.2141 25.0177 21.2722 25.0451 21.3182 25.0808C21.3641 25.1164 21.3984 25.1594 21.4211 25.2098C21.4437 25.2601 21.4551 25.3164 21.4551 25.3786C21.4551 25.44 21.4429 25.4962 21.4185 25.5473C21.3941 25.5982 21.3584 25.6421 21.3113 25.6791C21.2643 25.7159 21.2062 25.7447 21.1369 25.7651C21.0676 25.7858 20.9876 25.7961 20.8971 25.7961H20.6569V25.7961Z" fill="white"/>
<path fill-rule="evenodd" clip-rule="evenodd" d="M21.789 25.7998H22.2822L22.0748 25.2624C22.0679 25.2464 22.0614 25.2279 22.0549 25.2071C22.0484 25.1862 22.0419 25.1638 22.0351 25.1397C22.029 25.1638 22.0226 25.1864 22.0161 25.2076C22.0098 25.2286 22.0031 25.2473 21.9963 25.2633L21.789 25.7998ZM22.6546 26.2901H22.5163C22.5002 26.2901 22.4873 26.2862 22.4776 26.2782C22.4678 26.2701 22.4604 26.2601 22.4554 26.2477L22.3319 25.9288H21.7391L21.6157 26.2477C21.612 26.2588 21.6049 26.2688 21.5945 26.2773C21.584 26.2859 21.5711 26.2901 21.5558 26.2901H21.4175L21.9457 24.9692H22.1263L22.6546 26.2901V26.2901Z" fill="white"/>
<path fill-rule="evenodd" clip-rule="evenodd" d="M23.1217 25.6089H23.3143C23.3671 25.6089 23.414 25.6027 23.4545 25.59C23.4952 25.5774 23.5292 25.5597 23.5565 25.5367C23.584 25.5135 23.6046 25.4861 23.6184 25.4541C23.6323 25.4223 23.6392 25.3868 23.6392 25.348C23.6392 25.2694 23.6127 25.2101 23.5599 25.1703C23.507 25.1303 23.4277 25.1103 23.3218 25.1103H23.1217V25.6089ZM23.1217 25.7389V26.2901H22.9395V24.9692H23.3218C23.4075 24.9692 23.4815 24.9777 23.5438 24.9945C23.6062 25.0115 23.6576 25.0359 23.6982 25.0679C23.7387 25.0998 23.7689 25.1385 23.7884 25.1835C23.808 25.2286 23.8178 25.2792 23.8178 25.3351C23.8178 25.382 23.8101 25.4255 23.7951 25.4661C23.7799 25.5067 23.758 25.543 23.7294 25.5753C23.7007 25.6076 23.6658 25.6353 23.6246 25.6582C23.5834 25.6814 23.5366 25.6983 23.4843 25.7094C23.5082 25.7242 23.5284 25.743 23.5447 25.7656L23.9395 26.2901H23.7771C23.7437 26.2901 23.7192 26.2776 23.7033 26.2524L23.3521 25.7805C23.3413 25.7656 23.3299 25.7551 23.3176 25.7486C23.3053 25.7421 23.2862 25.7389 23.2605 25.7389H23.1217V25.7389Z" fill="white"/>
<path fill-rule="evenodd" clip-rule="evenodd" d="M25.055 24.9692V25.1195H24.6273V26.2901H24.4494V25.1195H24.0208V24.9692H25.055" fill="white"/>
<path fill-rule="evenodd" clip-rule="evenodd" d="M26.0321 25.8592C26.0387 25.8756 26.0455 25.8917 26.0522 25.9077C26.0584 25.8909 26.0648 25.8745 26.0716 25.8583C26.0784 25.842 26.0858 25.8265 26.0937 25.8118L26.5417 24.9997C26.5492 24.9856 26.5572 24.977 26.5661 24.9739C26.5751 24.9708 26.5875 24.9692 26.6036 24.9692H26.7354V26.2901H26.5786V25.3195C26.5786 25.3067 26.5789 25.2927 26.5795 25.278C26.5801 25.2633 26.5811 25.2482 26.5822 25.2329L26.1298 26.0588C26.1155 26.0864 26.094 26.1003 26.0651 26.1003H26.0393C26.0104 26.1003 25.9889 26.0864 25.9748 26.0588L25.5121 25.2301C25.5139 25.2462 25.5152 25.2618 25.5163 25.2771C25.5172 25.2924 25.5177 25.3067 25.5177 25.3195V26.2901H25.3608V24.9692H25.4927C25.5087 24.9692 25.521 24.9708 25.5296 24.9739C25.5383 24.977 25.5466 24.9856 25.5545 24.9997L26.0107 25.8127C26.0181 25.8274 26.0252 25.843 26.0321 25.8592" fill="white"/>
<path fill-rule="evenodd" clip-rule="evenodd" d="M27.9973 24.9692V25.1148H27.3621V25.5536H27.8765V25.6938H27.3621V26.1445H27.9983L27.9973 26.2901H27.1833V24.9692H27.9973" fill="white"/>
<path fill-rule="evenodd" clip-rule="evenodd" d="M28.4711 24.9706C28.4765 24.9715 28.4815 24.9732 28.4858 24.9751C28.4902 24.9774 28.4944 24.9805 28.4986 24.9844C28.503 24.9883 28.5076 24.9936 28.5126 24.9997L29.2767 25.9942C29.2755 25.9783 29.2744 25.9627 29.2735 25.9477C29.2726 25.9327 29.2721 25.9183 29.2721 25.9048V24.9692H29.4288V26.2901H29.3394C29.3252 26.2901 29.3133 26.2877 29.3039 26.2827C29.2944 26.2779 29.285 26.2695 29.2758 26.2579L28.5115 25.2633C28.5129 25.2786 28.5136 25.2936 28.5144 25.3085C28.515 25.3232 28.5153 25.3367 28.5153 25.3489V26.2901H28.3586V24.9692H28.4508C28.4588 24.9692 28.4655 24.9697 28.4711 24.9706" fill="white"/>
<path fill-rule="evenodd" clip-rule="evenodd" d="M30.7701 24.9692V25.1195H30.3424V26.2901H30.1645V25.1195H29.7358V24.9692H30.7701" fill="white"/>
<path fill-rule="evenodd" clip-rule="evenodd" d="M31.7517 25.1756C31.7461 25.1846 31.7402 25.1916 31.7337 25.1962C31.7274 25.2009 31.7195 25.2031 31.7102 25.2031C31.6998 25.2031 31.6875 25.198 31.6734 25.1875C31.6593 25.1769 31.6416 25.1656 31.6204 25.1528C31.5992 25.1403 31.5737 25.1287 31.5439 25.1184C31.514 25.1078 31.478 25.1027 31.4355 25.1027C31.3955 25.1027 31.3605 25.108 31.3301 25.1189C31.2996 25.1296 31.2742 25.1442 31.2536 25.1627C31.233 25.181 31.2175 25.2027 31.2069 25.2275C31.1966 25.2524 31.1913 25.2793 31.1913 25.3083C31.1913 25.3451 31.2004 25.3757 31.2186 25.4C31.2366 25.4242 31.2605 25.445 31.2904 25.4622C31.3202 25.4795 31.354 25.4943 31.3919 25.5069C31.4296 25.5195 31.4683 25.5325 31.508 25.546C31.5475 25.5596 31.5863 25.5748 31.624 25.5918C31.6619 25.6086 31.6957 25.63 31.7255 25.6559C31.7554 25.6816 31.7793 25.7131 31.7974 25.7509C31.8155 25.7883 31.8246 25.8342 31.8246 25.889C31.8246 25.9468 31.8148 26.001 31.7951 26.0518C31.7754 26.1024 31.7467 26.1465 31.7089 26.184C31.6711 26.2215 31.6248 26.2509 31.5696 26.2725C31.5148 26.294 31.4522 26.3048 31.3822 26.3048C31.2961 26.3048 31.2181 26.2892 31.148 26.2581C31.078 26.2271 31.018 26.1853 30.9683 26.1324L31.0199 26.0477C31.0248 26.0409 31.0307 26.0351 31.0378 26.0304C31.0449 26.0259 31.0527 26.0236 31.0613 26.0236C31.0693 26.0236 31.0784 26.0268 31.0886 26.0333C31.0987 26.0398 31.1102 26.0478 31.1231 26.0577C31.136 26.0675 31.1507 26.0783 31.1674 26.09C31.184 26.1016 31.2028 26.1124 31.224 26.1222C31.2452 26.1321 31.2693 26.1403 31.2964 26.1466C31.3234 26.1531 31.3539 26.1563 31.3877 26.1563C31.4301 26.1563 31.468 26.1504 31.501 26.1387C31.5343 26.1271 31.5624 26.1107 31.5854 26.0895C31.6084 26.0683 31.626 26.0428 31.6384 26.0134C31.6507 25.984 31.6569 25.9512 31.6569 25.9148C31.6569 25.875 31.6478 25.8421 31.6296 25.8166C31.6114 25.7912 31.5877 25.7698 31.5583 25.7525C31.5287 25.7354 31.4949 25.7207 31.4567 25.7087C31.4187 25.6968 31.3799 25.6845 31.3407 25.6719C31.3013 25.6593 31.2627 25.6446 31.2245 25.6281C31.1864 25.6116 31.1525 25.59 31.1231 25.5636C31.0936 25.5371 31.0698 25.5042 31.0516 25.4645C31.0336 25.4248 31.0245 25.3759 31.0245 25.3174C31.0245 25.2709 31.0336 25.2257 31.0516 25.1821C31.0698 25.1384 31.0961 25.0996 31.1308 25.0659C31.1657 25.0319 31.2084 25.0051 31.259 24.9846C31.3098 24.9643 31.368 24.9543 31.4337 24.9543C31.5075 24.9543 31.5746 24.966 31.6352 24.9893C31.6957 25.0127 31.749 25.0465 31.7951 25.0907L31.7517 25.1756" fill="white"/>
</g>
<defs>
<filter id="filter0_d" x="0" y="0" width="48" height="58" filterUnits="userSpaceOnUse" color-interpolation-filters="sRGB">
<feFlood flood-opacity="0" result="BackgroundImageFix"/>
<feColorMatrix in="SourceAlpha" type="matrix" values="0 0 0 0 0 0 0 0 0 0 0 0 0 0 0 0 0 0 127 0"/>
<feOffset dy="3"/>
<feGaussianBlur stdDeviation="2"/>
<feColorMatrix type="matrix" values="0 0 0 0 0 0 0 0 0 0 0 0 0 0 0 0 0 0 0.3 0"/>
<feBlend mode="normal" in2="BackgroundImageFix" result="effect1_dropShadow"/>
<feBlend mode="normal" in="SourceGraphic" in2="effect1_dropShadow" result="shape"/>
</filter>
</defs>
</svg>
