<svg viewBox="0 0 48 58" fill="none" xmlns="http://www.w3.org/2000/svg">
<g filter="url(#filter0_d)">
<path d="M23.2869 1.01273C13.3261 1.36128 5.05118 9.11157 4.09519 19.0045C3.89988 20.983 4.01296 22.9001 4.36246 24.7352C4.36246 24.7352 4.3933 24.9504 4.49609 25.3605C4.80448 26.7342 5.26705 28.067 5.8427 29.3177C7.84719 34.0539 12.4832 41.9785 22.886 50.6002C23.5233 51.1333 24.4588 51.1333 25.1064 50.6002C35.5092 41.9888 40.1452 34.0642 42.16 29.3074C42.7459 28.0567 43.1982 26.7342 43.5066 25.3503C43.5991 24.9504 43.6402 24.7249 43.6402 24.7249C43.8766 23.4947 44 22.2337 44 20.942C44 9.68566 34.656 0.61291 23.2869 1.01273Z" fill="#B27A78"/>
<path d="M23.9962 30.8657C18.6303 30.8657 14.2821 26.5292 14.2821 21.1778C14.2821 15.8265 18.6303 11.49 23.9962 11.49C29.3621 11.49 33.7103 15.8265 33.7103 21.1778C33.7103 26.5292 29.3621 30.8657 23.9962 30.8657Z" fill="#B27A78"/>
<path fill-rule="evenodd" clip-rule="evenodd" d="M36.9641 20.4987C36.9641 13.6156 31.3842 8.03564 24.5011 8.03564C17.6177 8.03564 12.0379 13.6156 12.0379 20.4987C12.0379 27.382 17.6177 32.9619 24.5011 32.9619C31.3842 32.9619 36.9641 27.382 36.9641 20.4987Z" stroke="white" stroke-width="0.5"/>
<path fill-rule="evenodd" clip-rule="evenodd" d="M23.3824 13.1943C23.7015 13.0055 24.0723 12.8983 24.4692 12.8983C24.8644 12.8983 25.2364 13.0055 25.555 13.1943C25.6191 13.038 25.7556 12.846 25.9404 12.6668C26.0282 12.5827 26.118 12.5093 26.2065 12.4487C26.1685 12.4186 26.1245 12.4021 26.075 12.4021C25.9848 12.4021 25.9085 12.4615 25.8807 12.5431C25.8574 12.4905 25.8057 12.4542 25.7453 12.4542C25.6623 12.4542 25.595 12.5212 25.595 12.6033C25.595 12.6734 25.6432 12.7318 25.7082 12.7477C25.6586 12.8134 25.5801 12.8552 25.4912 12.8552C25.3411 12.8551 25.2189 12.7331 25.2189 12.5827C25.2189 12.5663 25.2206 12.5507 25.2235 12.536C25.2389 12.5418 25.2564 12.5451 25.2741 12.5451C25.357 12.5451 25.4241 12.4778 25.4241 12.3957C25.4241 12.314 25.357 12.2466 25.2741 12.2466C25.1927 12.2466 25.125 12.314 25.125 12.3957C25.125 12.4413 25.1468 12.4824 25.1791 12.5109C25.1214 12.5995 25.0203 12.658 24.9068 12.658C24.7274 12.658 24.5817 12.5127 24.5817 12.3342C24.5817 12.3092 24.5853 12.2859 24.5895 12.263C24.5918 12.2659 24.5906 12.2719 24.5906 12.2775C24.5906 12.3599 24.6585 12.4275 24.7406 12.4275C24.8224 12.4275 24.8892 12.3599 24.8892 12.2775C24.8892 12.1952 24.8224 12.1281 24.7406 12.1281C24.7135 12.1281 24.6886 12.1348 24.6659 12.1475C24.6712 12.1316 24.6726 12.1154 24.6726 12.0987C24.6726 11.9848 24.5809 11.8936 24.4692 11.8928C24.3565 11.8936 24.265 11.9848 24.265 12.0987C24.265 12.1154 24.267 12.1316 24.2718 12.1475C24.25 12.1348 24.2239 12.1281 24.1977 12.1281C24.1162 12.1281 24.0488 12.1952 24.0488 12.2775C24.0488 12.3599 24.1162 12.4275 24.1977 12.4275C24.2798 12.4275 24.3473 12.3599 24.3473 12.2775C24.3473 12.2719 24.3473 12.2659 24.3485 12.263C24.3532 12.2859 24.3553 12.3092 24.3553 12.3342C24.3553 12.5127 24.2107 12.658 24.0315 12.658C23.9179 12.658 23.8168 12.5995 23.7598 12.5109C23.7923 12.4824 23.812 12.4413 23.812 12.3957C23.812 12.314 23.7454 12.2466 23.6641 12.2466C23.5804 12.2466 23.5139 12.314 23.5139 12.3957C23.5139 12.4778 23.5804 12.5451 23.6641 12.5451C23.6811 12.5451 23.6991 12.5418 23.7145 12.536C23.7177 12.5507 23.7192 12.5663 23.7192 12.5827C23.7192 12.7331 23.5964 12.8552 23.4461 12.8552C23.358 12.8551 23.2803 12.8134 23.2301 12.7477C23.2945 12.7318 23.3426 12.6734 23.3426 12.6033C23.3426 12.5212 23.2757 12.4542 23.193 12.4542C23.1329 12.4542 23.0806 12.4907 23.0568 12.5431C23.0297 12.4615 22.9529 12.4021 22.8618 12.4021C22.8135 12.4021 22.7689 12.4186 22.7315 12.4487C22.8194 12.5093 22.9098 12.5827 22.9971 12.6668C23.1826 12.846 23.3186 13.038 23.3824 13.1943Z" fill="white"/>
<path fill-rule="evenodd" clip-rule="evenodd" d="M23.8595 13.5299C24.0727 13.3522 24.333 13.3386 24.5008 13.3386C24.8462 13.3386 25.0315 13.4807 25.1239 13.5781C25.2027 13.6633 25.218 13.7613 25.2271 13.8309C25.2303 13.856 25.2364 13.8707 25.2579 13.8707C25.283 13.8707 25.2917 13.856 25.2917 13.8071C25.2918 13.4248 25.3129 13.3386 25.3129 13.3062C25.3129 13.2845 25.3071 13.2715 25.2697 13.2686C25.2 13.266 25.0926 13.2481 25.0282 13.2356C24.9679 13.2222 24.7577 13.1868 24.5467 13.1868C24.2892 13.1868 24.0174 13.2075 23.7248 13.3857C23.4461 13.5534 23.207 13.8707 23.207 14.3598C23.207 15.2034 23.7965 15.583 24.5455 15.583C24.7844 15.583 24.9945 15.5492 25.1935 15.4463C25.2303 15.424 25.2332 15.418 25.2332 15.336V14.9992C25.2332 14.8465 25.2332 14.7234 25.2364 14.6322C25.2389 14.5259 25.2697 14.4725 25.3529 14.4578C25.3894 14.4512 25.4102 14.4489 25.4347 14.4489C25.4565 14.4489 25.4744 14.4433 25.4744 14.4243C25.4744 14.3996 25.4532 14.3937 25.4139 14.3937C25.3129 14.3937 25.2389 14.403 25.1453 14.403C25.0529 14.403 24.8612 14.3937 24.702 14.3937C24.6976 14.3937 24.6939 14.3951 24.6894 14.3951C24.6908 14.1013 24.6923 13.8301 24.6933 13.8016C24.6976 13.7365 24.7135 13.7053 24.778 13.6913C24.7929 13.6869 24.8255 13.6857 24.8539 13.6857C24.8747 13.6857 24.8855 13.6813 24.8855 13.668C24.8855 13.6543 24.8727 13.6507 24.8436 13.6507C24.7406 13.6507 24.6185 13.6569 24.5632 13.6569C24.4836 13.6569 24.3708 13.6507 24.2814 13.6507C24.038 13.6507 23.9505 13.7324 23.9195 13.7613C23.8761 13.8016 23.8217 13.8899 23.8217 13.993C23.8217 14.2695 24.0255 14.464 24.3017 14.464C24.3102 14.464 24.3324 14.464 24.3418 14.4619C24.3514 14.4596 24.3653 14.4578 24.3653 14.4442C24.3653 14.4278 24.3514 14.423 24.3102 14.423C24.202 14.423 24.0503 14.3013 24.0503 14.1022C24.0503 14.0369 24.0564 13.9075 24.1648 13.8099C24.2345 13.7463 24.3144 13.7343 24.3591 13.7343C24.3877 13.7343 24.4171 13.7365 24.4345 13.7421C24.4442 13.7463 24.4506 13.7583 24.4506 13.779V14.5569C24.4506 14.7357 24.4506 14.9353 24.4411 15.019C24.4345 15.0728 24.423 15.1154 24.3653 15.1237C24.337 15.1274 24.2953 15.1318 24.2659 15.1318C24.2447 15.1318 24.2345 15.1372 24.2345 15.1468C24.2345 15.1601 24.25 15.1657 24.2723 15.1657C24.4002 15.1657 24.5224 15.1601 24.5726 15.1601C24.5985 15.1601 24.6371 15.1624 24.6894 15.1643C24.6894 15.1643 24.6894 14.801 24.6894 14.4492C24.732 14.4492 24.7795 14.4522 24.8021 14.4578C24.903 14.4789 24.9312 14.5272 24.9339 14.6322C24.9364 14.7234 24.9364 14.8409 24.9364 14.9931V15.281C24.9364 15.3321 24.9248 15.3718 24.8786 15.3934C24.805 15.4271 24.6983 15.4271 24.6191 15.4271C23.8595 15.4271 23.5186 14.9675 23.5186 14.3103C23.5186 13.9343 23.6879 13.6736 23.8595 13.5299Z" fill="white"/>
<path fill-rule="evenodd" clip-rule="evenodd" d="M19.5294 17.364C19.7106 17.364 19.9227 17.4167 20.1657 17.5219C20.2277 17.548 20.2673 17.561 20.2845 17.561C20.2998 17.561 20.3133 17.5555 20.3253 17.5446L20.3432 17.5284C20.3541 17.5177 20.367 17.5116 20.3823 17.5105C20.4147 17.5095 20.4309 17.529 20.4309 17.569L20.4294 17.683L20.4229 17.906L20.4277 18.0233C20.4298 18.0525 20.4332 18.084 20.4374 18.1177C20.4385 18.1307 20.4391 18.1404 20.4391 18.1469C20.4391 18.1816 20.4223 18.198 20.3886 18.1957C20.3659 18.1946 20.3506 18.1719 20.343 18.1275C20.3214 17.9977 20.2526 17.8704 20.1365 17.7458C19.9729 17.5705 19.7751 17.4828 19.543 17.4828C19.322 17.4828 19.1451 17.5698 19.0123 17.7437C18.8795 17.9175 18.8132 18.1492 18.8132 18.4384C18.8132 18.7483 18.8815 19.009 19.0185 19.2208C19.1553 19.4325 19.3239 19.5386 19.5241 19.5386C19.5838 19.5386 19.6595 19.5254 19.7514 19.4989C19.8435 19.4723 19.9132 19.4434 19.9609 19.412C20.0041 19.3839 20.0342 19.343 20.051 19.2887C20.0677 19.2348 20.0762 19.151 20.0762 19.0375C20.0762 18.9076 20.0527 18.8178 20.0062 18.7675C19.9595 18.7173 19.8721 18.6889 19.7441 18.6823C19.7104 18.6801 19.6936 18.6642 19.6936 18.6343C19.6936 18.6045 19.7132 18.5896 19.7523 18.5896C19.7642 18.5896 19.7833 18.5907 19.8094 18.5928C19.9159 18.6027 20.0365 18.6075 20.1714 18.6075C20.3104 18.6075 20.4126 18.6037 20.4779 18.5961C20.5268 18.5896 20.5676 18.5863 20.6001 18.5863C20.6392 18.5863 20.6588 18.6007 20.6588 18.6295C20.6588 18.6558 20.6392 18.6731 20.6001 18.6807C20.5373 18.6937 20.4938 18.7273 20.47 18.7813C20.446 18.8355 20.4342 18.927 20.4342 19.0558C20.4342 19.096 20.4357 19.1317 20.4391 19.1631C20.4433 19.2172 20.4456 19.2551 20.4456 19.2767C20.4456 19.3104 20.4388 19.3349 20.4253 19.3505C20.4117 19.3663 20.3842 19.3817 20.343 19.3969C20.318 19.4057 20.2318 19.4419 20.0842 19.506C19.8248 19.6177 19.5986 19.6736 19.4056 19.6736C19.1126 19.6736 18.873 19.5743 18.687 19.3757C18.5007 19.1772 18.4079 18.9205 18.4079 18.6058C18.4079 18.2543 18.5153 17.9595 18.7301 17.7211C18.945 17.4831 19.2114 17.364 19.5294 17.364Z" fill="white"/>
<path fill-rule="evenodd" clip-rule="evenodd" d="M22.0165 19.1236L22.0295 19.2861C22.0426 19.3698 22.0742 19.4337 22.1248 19.4781C22.1753 19.5227 22.2412 19.5449 22.3226 19.5449C22.3756 19.5449 22.4023 19.5614 22.4023 19.5946C22.4023 19.6266 22.367 19.6425 22.2965 19.6425C22.266 19.6425 22.2226 19.6396 22.1662 19.6339C22.0251 19.618 21.9107 19.6099 21.8229 19.6099C21.7144 19.6099 21.6286 19.6155 21.5657 19.6269C21.5113 19.6374 21.4723 19.6425 21.4485 19.6425C21.4245 19.6425 21.4094 19.6308 21.4029 19.6078L21.3997 19.5945L21.4468 19.5563C21.525 19.5281 21.5768 19.4937 21.6023 19.4531C21.6277 19.4124 21.6406 19.3449 21.6406 19.2507L21.6421 19.1061V17.811C21.6421 17.7113 21.6248 17.6404 21.5901 17.5981C21.5553 17.556 21.4918 17.5277 21.3997 17.5136C21.3444 17.5049 21.3088 17.4963 21.293 17.488C21.2773 17.4798 21.2695 17.4657 21.2695 17.4458C21.2695 17.4151 21.2824 17.4002 21.3085 17.4013C21.328 17.4024 21.3574 17.4067 21.3963 17.4143C21.4354 17.4231 21.501 17.4274 21.5933 17.4274C21.6541 17.4274 21.7295 17.4237 21.8195 17.4166L21.9385 17.4072C22.0501 17.3989 22.1359 17.3948 22.1956 17.3948C22.2313 17.3948 22.2492 17.4081 22.2492 17.4346C22.2492 17.4545 22.2465 17.4678 22.2412 17.4742C22.2356 17.4808 22.2221 17.486 22.2004 17.4892C22.1223 17.5022 22.0721 17.5239 22.0498 17.5543C22.0276 17.5846 22.0165 17.6464 22.0165 17.7396V19.1236Z" fill="white"/>
<path fill-rule="evenodd" clip-rule="evenodd" d="M23.8845 17.7742L24.7453 18.741L24.8006 18.8028C24.8741 18.8853 24.9235 18.9265 24.9483 18.9265C24.9711 18.9265 24.9835 18.8936 24.9856 18.8274C24.9954 18.5878 25.0003 18.3596 25.0003 18.143C25.0003 17.8883 24.9745 17.7159 24.923 17.6259C24.8714 17.536 24.7703 17.4856 24.6194 17.4746C24.5836 17.4725 24.5657 17.4598 24.5657 17.4365C24.5657 17.4077 24.5815 17.3933 24.613 17.3933C24.6521 17.3933 24.7153 17.3987 24.8021 17.4096C24.8588 17.4162 24.9054 17.4193 24.9424 17.4193C25.0174 17.4193 25.1365 17.409 25.2995 17.3884C25.3214 17.3862 25.3371 17.3853 25.347 17.3853C25.3817 17.3853 25.3991 17.4007 25.3991 17.4315C25.3991 17.4592 25.3817 17.4757 25.347 17.4812C25.207 17.5072 25.137 17.6315 25.137 17.8536V17.9334L25.1139 18.9498L25.1074 19.0898L25.1057 19.2703L25.1074 19.3937L25.1139 19.5971C25.1139 19.6274 25.103 19.6421 25.0811 19.641C25.0615 19.64 25.0415 19.628 25.0209 19.6053L23.5401 17.9598C23.5142 17.9315 23.4964 17.9174 23.4865 17.9174C23.4606 17.9174 23.4476 17.9418 23.4476 17.9906L23.4459 18.0377V18.6686C23.4459 19.0057 23.4627 19.2312 23.4964 19.345C23.5323 19.4665 23.638 19.5353 23.8138 19.5515C23.8464 19.555 23.8626 19.5687 23.8626 19.593C23.8626 19.6262 23.8457 19.6427 23.8121 19.6427C23.7989 19.6427 23.7779 19.6404 23.7485 19.6362C23.6571 19.6209 23.5561 19.6134 23.4451 19.6134C23.3353 19.6134 23.2374 19.621 23.1515 19.6366C23.1135 19.6428 23.0857 19.646 23.0683 19.646C23.0391 19.646 23.0244 19.6327 23.0244 19.6062C23.0244 19.5839 23.0401 19.5686 23.0717 19.5596C23.1507 19.5369 23.2085 19.4901 23.245 19.4192C23.2812 19.3484 23.2994 19.2463 23.2994 19.1131L23.3109 18.7266V18.0221C23.3109 17.6886 23.1877 17.5131 22.9414 17.4959C22.9079 17.4936 22.8909 17.48 22.8909 17.4545C22.8909 17.4236 22.9094 17.408 22.9464 17.408L23.0591 17.4128L23.1276 17.4112C23.2124 17.4112 23.3033 17.4063 23.4001 17.3966C23.4361 17.3933 23.4659 17.3918 23.4898 17.3918C23.5235 17.3918 23.55 17.3989 23.5695 17.4137C23.5889 17.4283 23.6301 17.4731 23.6929 17.548L23.805 17.6798C23.8494 17.7319 23.8759 17.7634 23.8845 17.7742Z" fill="white"/>
<path fill-rule="evenodd" clip-rule="evenodd" d="M26.6233 19.6213L26.3189 19.6312C26.2344 19.6312 26.1724 19.6377 26.1335 19.6507C26.1161 19.6562 26.103 19.6587 26.0944 19.6587C26.0705 19.6587 26.0595 19.6484 26.0618 19.6278C26.0629 19.6213 26.0677 19.6121 26.0765 19.6002C26.0971 19.5742 26.1253 19.5259 26.1612 19.4552L26.3894 19.0366L26.7058 18.4469C26.8926 18.0984 27.0062 17.8649 27.0464 17.7465L27.0856 17.6324C27.0888 17.6205 27.0905 17.6119 27.0905 17.6065C27.0882 17.5783 27.0508 17.564 26.9779 17.564L26.6991 17.5543L26.5997 17.564C26.3638 17.5968 26.2317 17.7128 26.2035 17.9122C26.2002 17.9384 26.1871 17.9515 26.1644 17.9515C26.1361 17.9515 26.122 17.9151 26.122 17.8424C26.122 17.8098 26.127 17.7692 26.1367 17.7204C26.1453 17.679 26.1497 17.6422 26.1497 17.6096L26.148 17.5022L26.1562 17.4599C26.1605 17.4274 26.1745 17.411 26.1985 17.411C26.2115 17.411 26.2262 17.4121 26.2424 17.4143C26.2979 17.4219 26.4762 17.4257 26.7779 17.4257C26.8886 17.4257 26.983 17.4219 27.0612 17.4143L27.3215 17.3899C27.4268 17.3801 27.5055 17.3752 27.5576 17.3752C27.6139 17.3752 27.6423 17.3905 27.6423 17.4209C27.6423 17.4404 27.6259 17.4774 27.5933 17.5316C27.5171 17.6598 27.4015 17.8775 27.2461 18.1848L27.0456 18.5757L26.832 18.9927C26.7527 19.1459 26.7065 19.2359 26.6935 19.2631C26.6565 19.3392 26.6305 19.3901 26.6152 19.4163C26.6076 19.4293 26.6038 19.4407 26.6038 19.4504C26.6027 19.4775 26.6321 19.4912 26.6918 19.4912L26.8956 19.496L27.0456 19.478C27.3053 19.4377 27.502 19.3207 27.6358 19.1268C27.6606 19.0898 27.678 19.0718 27.6877 19.0728C27.7041 19.0739 27.7121 19.0918 27.7121 19.1266C27.7121 19.2752 27.6685 19.4016 27.5812 19.5059C27.4938 19.6099 27.3877 19.6621 27.263 19.6621C27.2336 19.6621 27.2048 19.6604 27.1767 19.6572L26.9782 19.6377C26.8598 19.6269 26.7415 19.6213 26.6233 19.6213Z" fill="white"/>
<path fill-rule="evenodd" clip-rule="evenodd" d="M29.5412 18.6043L29.3286 18.1077C29.2777 17.9887 29.2415 17.9292 29.2198 17.9292C29.2068 17.9292 29.183 17.9675 29.1483 18.0445L29.1176 18.1125L28.9276 18.5461L28.9097 18.5866C28.9021 18.603 28.8983 18.617 28.8983 18.6289C28.8983 18.6657 28.9373 18.684 29.0153 18.684H29.4958C29.5368 18.684 29.5574 18.6727 29.5574 18.6499C29.5574 18.6445 29.5547 18.6354 29.5492 18.6223L29.5412 18.6043ZM29.4801 17.5869L30.2208 19.2864C30.2576 19.372 30.3009 19.4361 30.3509 19.4784C30.4008 19.5205 30.4653 19.5489 30.5445 19.563C30.5641 19.5663 30.5739 19.5817 30.5739 19.6093C30.5739 19.6392 30.5614 19.6534 30.5364 19.6523C30.5223 19.6514 30.5017 19.6481 30.4744 19.6427C30.3908 19.6242 30.2561 19.6149 30.0701 19.6149C29.8832 19.6149 29.7561 19.6236 29.6886 19.6407C29.6723 19.6454 29.6582 19.6475 29.6462 19.6475C29.6158 19.6475 29.6006 19.632 29.6006 19.6011C29.6006 19.5855 29.6124 19.5739 29.6364 19.5661C29.6885 19.551 29.7317 19.5239 29.7658 19.4848C29.8 19.4457 29.8171 19.4045 29.8171 19.3611C29.8171 19.3002 29.77 19.1667 29.6759 18.9607C29.6467 18.8978 29.6145 18.8617 29.5792 18.8525C29.5441 18.8433 29.4194 18.8386 29.2051 18.8386H28.9844L28.8383 18.8646C28.7982 18.883 28.7529 18.9545 28.702 19.0789L28.6517 19.204C28.6365 19.2398 28.6289 19.276 28.6289 19.3128C28.6289 19.4493 28.7244 19.5283 28.9153 19.5499C28.9565 19.5554 28.9767 19.5714 28.9756 19.598C28.9733 19.6267 28.9538 19.641 28.9168 19.641C28.8973 19.641 28.8695 19.6378 28.8336 19.6313C28.762 19.6172 28.6977 19.6101 28.6412 19.6101C28.5901 19.6101 28.5074 19.6155 28.3933 19.6264C28.3085 19.6351 28.2558 19.6395 28.2351 19.6395C28.2047 19.6395 28.1894 19.6261 28.1894 19.5996C28.1894 19.5775 28.2047 19.561 28.235 19.5499C28.2936 19.5316 28.3405 19.4977 28.3758 19.4484C28.4111 19.3992 28.4633 19.2954 28.5329 19.137L28.9773 18.1133C29.013 18.032 29.0379 17.9763 29.0521 17.946L29.2035 17.6355L29.2815 17.4828V17.4877C29.3162 17.4052 29.3395 17.364 29.3515 17.364C29.3689 17.364 29.3988 17.4096 29.4411 17.5007L29.4801 17.5869Z" fill="white"/>
<path fill-rule="evenodd" clip-rule="evenodd" d="M18.4418 22.1067H17.6704C17.5933 22.1067 17.5459 22.1167 17.528 22.1367C17.5101 22.1569 17.501 22.2096 17.501 22.2952V22.6999C17.501 22.8535 17.526 22.9644 17.5759 23.0322C17.6259 23.0997 17.7079 23.1337 17.8218 23.1337C17.8586 23.1337 17.8771 23.1481 17.8771 23.1767C17.8771 23.211 17.8488 23.2281 17.7924 23.2281C17.7729 23.2281 17.7344 23.2249 17.6768 23.2184C17.5488 23.2031 17.4312 23.1955 17.3238 23.1955C17.2564 23.1955 17.1668 23.2014 17.0551 23.2134C16.9889 23.221 16.9471 23.2249 16.9298 23.2249C16.895 23.2249 16.8777 23.2067 16.8777 23.1702C16.8777 23.147 16.8914 23.1337 16.9185 23.1305C16.9923 23.1185 17.0451 23.0849 17.0771 23.0297C17.1091 22.9743 17.1251 22.8903 17.1251 22.7775L17.1268 22.6896V21.3334C17.1268 21.2543 17.1053 21.196 17.0624 21.1585C17.0195 21.1211 16.9401 21.0911 16.8241 21.0682C16.7936 21.0616 16.7785 21.0457 16.7785 21.0202C16.7785 20.9882 16.7957 20.9722 16.8306 20.9722C16.8501 20.9722 16.8859 20.9763 16.938 20.9843C17.0259 20.9979 17.1289 21.0047 17.2473 21.0047C17.2873 21.0047 17.373 20.9976 17.5044 20.9837C17.5826 20.9761 17.6417 20.9722 17.6818 20.9722C17.7209 20.9722 17.7404 20.9872 17.7404 21.0169C17.7404 21.0413 17.7247 21.0563 17.6932 21.0617C17.5651 21.0834 17.501 21.1641 17.501 21.3038V21.7214C17.501 21.8317 17.5089 21.8966 17.5247 21.9155C17.5404 21.9344 17.5927 21.944 17.6818 21.944H18.4418C18.508 21.944 18.5485 21.9307 18.5632 21.9041C18.5777 21.8775 18.5851 21.804 18.5851 21.6835V21.3335C18.5851 21.1946 18.5086 21.1111 18.3556 21.0829L18.2807 21.0682C18.2503 21.0628 18.2351 21.0469 18.2351 21.0202C18.2351 20.9882 18.2524 20.9722 18.2873 20.9722C18.3068 20.9722 18.3426 20.9763 18.3947 20.9843C18.4836 20.9979 18.5873 21.0047 18.7056 21.0047C18.7468 21.0047 18.8326 20.9976 18.9627 20.9837C19.0409 20.9761 19.1 20.9722 19.1401 20.9722C19.1792 20.9722 19.1988 20.9872 19.1988 21.0169C19.1988 21.0413 19.183 21.0563 19.1515 21.0617C19.0235 21.0834 18.9594 21.1641 18.9594 21.3038V22.6999C18.9594 22.8535 18.9841 22.9644 19.0335 23.0322C19.0829 23.0997 19.1635 23.1337 19.2751 23.1337C19.3153 23.1337 19.3354 23.1481 19.3354 23.1767C19.3354 23.211 19.3071 23.2281 19.2507 23.2281C19.2312 23.2281 19.1932 23.2249 19.1368 23.2184C19.0077 23.2031 18.89 23.1955 18.7836 23.1955C18.7153 23.1955 18.6251 23.2014 18.5135 23.2134C18.4473 23.221 18.4054 23.2249 18.3882 23.2249C18.3533 23.2249 18.336 23.2067 18.336 23.1702C18.336 23.147 18.3497 23.1337 18.3768 23.1305C18.4506 23.1185 18.5035 23.085 18.5354 23.0297C18.5674 22.9744 18.5835 22.8905 18.5835 22.7778L18.5851 22.69V22.3326C18.5851 22.2264 18.578 22.1622 18.5639 22.1399C18.5498 22.1178 18.5091 22.1067 18.4418 22.1067Z" fill="white"/>
<path fill-rule="evenodd" clip-rule="evenodd" d="M21.0739 21.0683C20.8559 21.0683 20.6856 21.149 20.5629 21.3108C20.4403 21.4725 20.3789 21.6977 20.3789 21.9863C20.3789 22.327 20.4561 22.604 20.6101 22.817C20.7641 23.0304 20.9644 23.137 21.2107 23.137C21.4332 23.137 21.6111 23.0489 21.7445 22.8723C21.878 22.6961 21.9447 22.4605 21.9447 22.1652C21.9447 21.9949 21.9138 21.8287 21.852 21.6664C21.7901 21.5042 21.7077 21.3754 21.6045 21.2799C21.4548 21.1389 21.278 21.0683 21.0739 21.0683ZM21.1912 20.9463C21.5297 20.9463 21.8032 21.0448 22.0115 21.2419C22.2198 21.439 22.3239 21.6977 22.3239 22.018C22.3239 22.3666 22.2165 22.6619 22.0017 22.9039C21.7923 23.1407 21.5036 23.259 21.1359 23.259C20.7842 23.259 20.5032 23.1563 20.2927 22.9504C20.0821 22.7446 19.977 22.4696 19.977 22.1255C19.977 21.9778 20.0036 21.8308 20.0568 21.6849C20.1098 21.5389 20.1821 21.4164 20.2732 21.3177C20.3785 21.2014 20.5121 21.1105 20.6744 21.0448C20.8367 20.979 21.0089 20.9463 21.1912 20.9463Z" fill="white"/>
<path fill-rule="evenodd" clip-rule="evenodd" d="M24.2352 21.3823V22.6079C24.2352 22.7912 24.2617 22.9212 24.315 22.9979C24.368 23.0741 24.462 23.1168 24.5965 23.1255C24.6356 23.1288 24.6552 23.1482 24.6552 23.1835C24.6552 23.2088 24.6382 23.2215 24.6047 23.2215C24.597 23.2215 24.5835 23.2209 24.5639 23.2198L24.442 23.215L24.2385 23.202C24.2221 23.2009 24.2005 23.2005 24.1733 23.2005C24.1103 23.2005 24.0539 23.202 24.0041 23.2053L23.6444 23.2264C23.6064 23.2308 23.5803 23.2329 23.5662 23.2329C23.5326 23.2329 23.5164 23.2186 23.5174 23.19C23.5185 23.1658 23.5239 23.1501 23.5336 23.1429C23.5435 23.1358 23.5645 23.1309 23.5971 23.1288C23.6818 23.1233 23.7471 23.0927 23.7933 23.0368C23.8394 22.9809 23.8624 22.9047 23.8624 22.8082L23.8609 22.7317V21.2864C23.8609 21.2006 23.8147 21.1577 23.7224 21.1577C23.5055 21.1577 23.3573 21.1736 23.2782 21.2051C23.2206 21.2291 23.1823 21.2559 23.1633 21.2861C23.1444 21.3159 23.1186 21.3901 23.0861 21.5088L23.073 21.5545C23.0611 21.5992 23.0427 21.6217 23.0177 21.6217C22.982 21.6217 22.965 21.6047 22.9673 21.5712C22.9683 21.5408 22.9738 21.4985 22.9836 21.4442L22.9998 21.3026L23.0194 21.1577L23.0308 21.0585C23.035 21.0161 23.0579 20.995 23.0991 20.995C23.11 20.995 23.1285 20.9961 23.1544 20.9982C23.1968 21.0015 23.257 21.0032 23.3352 21.0032L23.6671 21.0064L24.0627 21.0112C24.3176 21.0112 24.5877 21.0041 24.8732 20.9901C24.9295 20.9879 24.9661 20.9868 24.9823 20.9868C25.0418 20.9868 25.0733 21.0118 25.0767 21.0617L25.0848 21.1789C25.0859 21.1974 25.0914 21.2414 25.1011 21.3108C25.1086 21.3683 25.1124 21.4142 25.1124 21.4491C25.1124 21.4848 25.0979 21.5027 25.0685 21.5027C25.0435 21.5027 25.0262 21.4821 25.0165 21.4406C24.9936 21.3392 24.9498 21.2662 24.8855 21.2215C24.8209 21.1768 24.7273 21.1545 24.6047 21.1545C24.4397 21.1545 24.337 21.1673 24.2962 21.1927C24.2555 21.2182 24.2352 21.2814 24.2352 21.3823Z" fill="white"/>
<path fill-rule="evenodd" clip-rule="evenodd" d="M26.3806 21.3643V21.7175C26.3806 21.8184 26.388 21.8825 26.4026 21.9096C26.4173 21.9367 26.4527 21.9502 26.5093 21.9502L26.558 21.9487L26.6297 21.947H26.768C26.8755 21.947 26.9585 21.8878 27.0171 21.7696L27.0546 21.6899C27.0643 21.6704 27.0806 21.6599 27.1033 21.659C27.1271 21.658 27.1391 21.6725 27.1391 21.7031C27.1391 21.7116 27.1376 21.7355 27.1343 21.7748C27.132 21.8031 27.1311 21.8269 27.1311 21.8466C27.1311 21.8813 27.1359 21.9628 27.1456 22.0911C27.1521 22.1749 27.1555 22.2476 27.1555 22.3098L27.157 22.3928C27.157 22.4081 27.1555 22.4184 27.1521 22.4239C27.1477 22.4304 27.1391 22.4343 27.1261 22.4354C27.0989 22.4375 27.0821 22.4169 27.0756 22.3734C27.0615 22.2813 27.0289 22.2113 26.978 22.1636C26.9497 22.1375 26.9153 22.1207 26.8747 22.1131C26.8339 22.1055 26.7577 22.1017 26.6459 22.1017H26.5353C26.4832 22.1017 26.4476 22.1095 26.4286 22.1252C26.4097 22.141 26.397 22.1726 26.3905 22.2204C26.3839 22.2745 26.3806 22.3601 26.3806 22.477V22.6233C26.3806 22.776 26.3926 22.886 26.4165 22.9531C26.4349 23.0019 26.4565 23.0349 26.4815 23.0522C26.5065 23.0696 26.545 23.0783 26.5971 23.0783C27.0376 23.0783 27.3258 22.9442 27.4614 22.6761C27.4689 22.6633 27.4755 22.6561 27.4809 22.6551C27.4917 22.6528 27.5018 22.6564 27.5111 22.6657C27.5202 22.6749 27.5249 22.6866 27.5249 22.7008C27.5249 22.8075 27.4961 22.9107 27.4386 23.0108C27.3908 23.0957 27.3312 23.1563 27.2596 23.1928C27.188 23.2293 27.093 23.2475 26.9747 23.2475C26.9053 23.2475 26.8283 23.2433 26.7436 23.2345L26.5549 23.2166C26.4853 23.2101 26.3915 23.2069 26.2732 23.2069C26.1939 23.2069 26.0735 23.2117 25.912 23.2214C25.8674 23.2248 25.8355 23.2263 25.8159 23.2263C25.7899 23.2263 25.7758 23.2142 25.7736 23.1898C25.7724 23.1698 25.7844 23.1549 25.8094 23.1449C25.8712 23.1211 25.9132 23.096 25.9355 23.0693C25.9577 23.0428 25.9755 22.9955 25.9885 22.9272C26.0003 22.8698 26.0064 22.7917 26.0064 22.6933V21.4045C26.0064 21.2831 25.9865 21.2008 25.947 21.1575C25.9073 21.1142 25.825 21.0839 25.7003 21.0664C25.6711 21.062 25.6564 21.0461 25.6564 21.0184C25.6564 20.993 25.6743 20.9802 25.7102 20.9802C25.7176 20.9802 25.7339 20.9813 25.7589 20.9836C25.7785 20.9845 25.805 20.9851 25.8386 20.9851L26.003 20.9916L26.62 20.9981C26.9747 20.9981 27.1933 20.9933 27.2759 20.9836C27.2846 20.9825 27.2921 20.9819 27.2986 20.9819C27.33 20.9819 27.3458 20.9998 27.3458 21.0355C27.3458 21.0605 27.3491 21.1049 27.3556 21.169C27.3643 21.2634 27.3686 21.3313 27.3686 21.3725C27.3686 21.4549 27.3474 21.4972 27.3052 21.4995C27.2846 21.5005 27.2743 21.4766 27.2743 21.4275C27.2743 21.3196 27.2349 21.2414 27.1562 21.193C27.0774 21.1445 26.9503 21.1202 26.7746 21.1202H26.5759L26.4653 21.1333C26.41 21.1505 26.3823 21.2054 26.3823 21.2976L26.3806 21.3643Z" fill="white"/>
<path fill-rule="evenodd" clip-rule="evenodd" d="M28.8452 22.7061C28.8452 22.9087 28.8695 23.0225 28.9182 23.0473C28.9453 23.0613 28.9983 23.0684 29.0773 23.0684C29.445 23.0684 29.7056 22.9604 29.8592 22.7442C29.9065 22.6783 29.9362 22.6452 29.9483 22.6452C29.9682 22.6452 29.978 22.6675 29.978 22.712C29.978 22.8498 29.933 22.973 29.8429 23.0814C29.7638 23.1769 29.6558 23.2248 29.5191 23.2248C29.4908 23.2248 29.4392 23.222 29.3644 23.2166C29.3448 23.2155 29.2798 23.2117 29.1691 23.2052L28.9917 23.197C28.932 23.1939 28.8641 23.1922 28.7883 23.1922C28.6623 23.1922 28.5267 23.2005 28.3814 23.217C28.3368 23.222 28.307 23.2248 28.2918 23.2248C28.2603 23.2248 28.2447 23.2104 28.2447 23.1816C28.2447 23.1617 28.2586 23.1478 28.287 23.1401C28.3564 23.1205 28.4044 23.083 28.4311 23.0272C28.4576 22.9716 28.4709 22.8802 28.4709 22.7536V21.3961C28.4709 21.2231 28.3986 21.1249 28.2544 21.1023L28.1568 21.086C28.1155 21.0793 28.0948 21.063 28.0948 21.0363C28.0948 21.0033 28.1112 20.9867 28.1438 20.9867C28.1547 20.9867 28.1705 20.9884 28.1911 20.9916C28.2064 20.9926 28.2274 20.9949 28.2547 20.9981L28.3247 21.0031C28.3911 21.0095 28.4406 21.0128 28.4732 21.0128C28.5253 21.0128 28.6085 21.0063 28.7226 20.9933C28.8073 20.9845 28.8938 20.9802 28.9818 20.9802C29.047 20.9802 29.0795 20.9958 29.0795 21.0267C29.0795 21.0533 29.0562 21.0675 29.0095 21.0698C28.9 21.0773 28.8452 21.1526 28.8452 21.2957V22.7061Z" fill="white"/>
<path fill-rule="evenodd" clip-rule="evenodd" d="M31.1956 20.9495C31.2976 20.9495 31.3974 20.969 31.495 21.0081L31.6041 21.0537C31.6529 21.0731 31.6876 21.0829 31.7082 21.0829C31.7235 21.0829 31.7392 21.0792 31.7555 21.0716L31.8174 21.0407C31.8261 21.0363 31.8348 21.0342 31.8435 21.0342C31.8664 21.0342 31.8777 21.052 31.8777 21.0878L31.8745 21.2196C31.8745 21.2402 31.8755 21.2598 31.8777 21.2783L31.8989 21.4378L31.9152 21.5858C31.9173 21.5989 31.9185 21.6096 31.9185 21.6184C31.9185 21.6651 31.9048 21.6884 31.8777 21.6884C31.8582 21.6884 31.8441 21.6678 31.8355 21.6267C31.8039 21.4752 31.7245 21.3443 31.5974 21.2339C31.4703 21.1234 31.3355 21.0683 31.1932 21.0683C31.0953 21.0683 31.01 21.1013 30.9371 21.1672C30.8644 21.2331 30.8279 21.311 30.8279 21.4007C30.8279 21.4839 30.86 21.5558 30.9241 21.6163C30.9655 21.6552 31.0941 21.7187 31.3105 21.8066C31.5679 21.9119 31.7385 22.0149 31.8221 22.116C31.9211 22.2375 31.9705 22.3842 31.9705 22.5557C31.9705 22.7446 31.9021 22.909 31.7655 23.0489C31.6288 23.189 31.4686 23.259 31.2853 23.259C31.2105 23.259 31.0917 23.2336 30.9288 23.1825C30.8529 23.1575 30.797 23.1413 30.7612 23.1337C30.7112 23.124 30.6823 23.1145 30.6741 23.1054C30.6661 23.096 30.6592 23.0679 30.6538 23.0214C30.6483 22.9704 30.632 22.8967 30.605 22.8001C30.5636 22.6525 30.5432 22.5581 30.5432 22.5169C30.5432 22.4648 30.5598 22.4387 30.5936 22.4387C30.6088 22.4387 30.6195 22.4517 30.6261 22.4776C30.6794 22.6639 30.7717 22.8204 30.9032 22.947C31.0347 23.0737 31.1711 23.137 31.3124 23.137C31.4221 23.137 31.5202 23.0951 31.6065 23.0111C31.6929 22.9273 31.7362 22.8313 31.7362 22.7231C31.7362 22.6378 31.7136 22.5673 31.6685 22.5122C31.6233 22.457 31.5455 22.4051 31.4345 22.3563L31.1868 22.2458C30.9533 22.1416 30.7945 22.0431 30.7109 21.9502C30.6273 21.8573 30.5855 21.7339 30.5855 21.5798C30.5855 21.4007 30.6438 21.2507 30.7603 21.1302C30.877 21.0096 31.0221 20.9495 31.1956 20.9495Z" fill="white"/>
<path fill-rule="evenodd" clip-rule="evenodd" d="M17.4889 26.171C17.5577 26.171 17.6195 26.1584 17.6742 26.1333C17.7289 26.1081 17.7771 26.0745 17.8189 26.0328L17.4289 25.6392C17.3639 25.6742 17.3148 25.7162 17.282 25.765C17.2491 25.8139 17.2326 25.8672 17.2326 25.925C17.2326 25.965 17.24 26.0001 17.2547 26.0304C17.2695 26.0609 17.2889 26.0865 17.3129 26.1074C17.3368 26.1284 17.3642 26.1442 17.3948 26.155C17.4256 26.1657 17.457 26.171 17.4889 26.171ZM17.5986 24.9543C17.6471 24.9543 17.6913 24.9621 17.7313 24.9778C17.7713 24.9934 17.8057 25.0142 17.8345 25.04C17.8635 25.0659 17.8863 25.0957 17.9033 25.13C17.9201 25.1639 17.9298 25.1995 17.9323 25.2363L17.83 25.2566C17.8097 25.2616 17.7945 25.2521 17.7848 25.228C17.7804 25.2121 17.7736 25.1956 17.7641 25.1783C17.7545 25.1612 17.7423 25.1454 17.7273 25.1313C17.7121 25.1172 17.6939 25.1056 17.6729 25.0962C17.6517 25.0871 17.627 25.0824 17.5986 25.0824C17.5679 25.0824 17.54 25.0874 17.5151 25.0972C17.4903 25.1071 17.4691 25.1206 17.4515 25.1383C17.4341 25.1557 17.4207 25.1763 17.4115 25.2C17.4023 25.2236 17.3976 25.2492 17.3976 25.2769C17.3976 25.2984 17.4001 25.319 17.405 25.3387C17.41 25.3584 17.4177 25.3784 17.4285 25.3986C17.4392 25.4189 17.4529 25.4395 17.4695 25.4604C17.4862 25.4812 17.506 25.5034 17.5294 25.5268L17.9092 25.913C17.9326 25.8712 17.9512 25.8278 17.965 25.783C17.9788 25.7381 17.9882 25.693 17.9932 25.6475C17.9944 25.6359 17.998 25.6266 18.0042 25.6198C18.0103 25.613 18.0189 25.6096 18.03 25.6096H18.1304C18.1298 25.6804 18.1186 25.7496 18.0968 25.8175C18.075 25.8854 18.0441 25.9492 18.0042 26.0089L18.2807 26.29H18.1212C18.1035 26.29 18.0889 26.2877 18.0779 26.2834C18.0668 26.2792 18.0548 26.2703 18.042 26.2568L17.9083 26.1231C17.8504 26.179 17.7841 26.2233 17.7088 26.2559C17.6335 26.2884 17.5506 26.3048 17.4603 26.3048C17.4112 26.3048 17.363 26.2965 17.316 26.2798C17.2691 26.2631 17.2268 26.239 17.1894 26.2074C17.1518 26.1759 17.1218 26.1372 17.0989 26.0919C17.0762 26.0463 17.0648 25.995 17.0648 25.9378C17.0648 25.895 17.0721 25.854 17.0865 25.8157C17.1009 25.7772 17.1209 25.7418 17.1465 25.7092C17.172 25.6766 17.2024 25.6475 17.2377 25.6216C17.273 25.5959 17.3115 25.5737 17.3533 25.5554C17.3153 25.508 17.2874 25.4619 17.27 25.4169C17.2524 25.3722 17.2438 25.3259 17.2438 25.2778C17.2438 25.233 17.2518 25.1909 17.2682 25.1515C17.2844 25.1122 17.308 25.078 17.3386 25.0487C17.3694 25.0195 17.4067 24.9965 17.4506 24.9796C17.4945 24.9627 17.5439 24.9543 17.5986 24.9543Z" fill="white"/>
<path fill-rule="evenodd" clip-rule="evenodd" d="M19.3048 25.7998H19.798L19.5906 25.2624C19.5839 25.2464 19.5773 25.2279 19.5707 25.2071C19.5644 25.1862 19.5577 25.1638 19.551 25.1397C19.5448 25.1638 19.5386 25.1864 19.5321 25.2076C19.5256 25.2286 19.5191 25.2473 19.5123 25.2633L19.3048 25.7998ZM20.1704 26.2901H20.0321C20.0162 26.2901 20.0033 26.2862 19.9935 26.2782C19.9836 26.2701 19.9762 26.2601 19.9714 26.2477L19.8479 25.9288H19.2551L19.1317 26.2477C19.1279 26.2588 19.1207 26.2688 19.1104 26.2773C19.1 26.2859 19.087 26.2901 19.0717 26.2901H18.9335L19.4615 24.9692H19.6423L20.1704 26.2901Z" fill="white"/>
<path fill-rule="evenodd" clip-rule="evenodd" d="M20.6569 25.6541H20.8972C20.9551 25.6541 21.0059 25.6474 21.0502 25.6338C21.0945 25.6203 21.1318 25.6014 21.162 25.5771C21.1924 25.5529 21.2151 25.5239 21.2305 25.49C21.2458 25.4562 21.2534 25.4191 21.2534 25.3786C21.2534 25.2944 21.224 25.2285 21.1653 25.1812C21.1063 25.1339 21.017 25.1103 20.8972 25.1103H20.6569V25.6541ZM20.6569 25.7961V26.2901H20.4551V24.9692H20.8972C20.992 24.9692 21.0742 24.9789 21.1443 24.9983C21.2142 25.0177 21.2722 25.0451 21.3183 25.0808C21.3641 25.1164 21.3985 25.1594 21.4211 25.2098C21.4438 25.2601 21.4551 25.3164 21.4551 25.3786C21.4551 25.44 21.4429 25.4962 21.4186 25.5473C21.3942 25.5982 21.3585 25.6421 21.3114 25.6791C21.2643 25.7159 21.2063 25.7447 21.1369 25.7651C21.0677 25.7858 20.9877 25.7961 20.8972 25.7961H20.6569Z" fill="white"/>
<path fill-rule="evenodd" clip-rule="evenodd" d="M21.7891 25.7998H22.2823L22.0748 25.2624C22.068 25.2464 22.0615 25.2279 22.055 25.2071C22.0485 25.1862 22.042 25.1638 22.0351 25.1397C22.0291 25.1638 22.0227 25.1864 22.0162 25.2076C22.0098 25.2286 22.0032 25.2473 21.9964 25.2633L21.7891 25.7998ZM22.6547 26.2901H22.5164C22.5003 26.2901 22.4874 26.2862 22.4777 26.2782C22.4679 26.2701 22.4605 26.2601 22.4555 26.2477L22.332 25.9288H21.7392L21.6158 26.2477C21.6121 26.2588 21.605 26.2688 21.5945 26.2773C21.5841 26.2859 21.5712 26.2901 21.5559 26.2901H21.4176L21.9458 24.9692H22.1264L22.6547 26.2901Z" fill="white"/>
<path fill-rule="evenodd" clip-rule="evenodd" d="M23.1218 25.6089H23.3144C23.3672 25.6089 23.4141 25.6027 23.4546 25.59C23.4953 25.5774 23.5293 25.5597 23.5566 25.5367C23.5841 25.5135 23.6047 25.4861 23.6185 25.4541C23.6323 25.4223 23.6393 25.3868 23.6393 25.348C23.6393 25.2694 23.6128 25.2101 23.56 25.1703C23.5071 25.1303 23.4277 25.1103 23.3219 25.1103H23.1218V25.6089ZM23.1218 25.7389V26.2901H22.9395V24.9692H23.3219C23.4076 24.9692 23.4816 24.9777 23.5439 24.9945C23.6063 25.0115 23.6576 25.0359 23.6983 25.0679C23.7388 25.0998 23.7689 25.1385 23.7885 25.1835C23.8081 25.2286 23.8178 25.2792 23.8178 25.3351C23.8178 25.382 23.8102 25.4255 23.7952 25.4661C23.78 25.5067 23.7581 25.543 23.7295 25.5753C23.7008 25.6076 23.6659 25.6353 23.6247 25.6582C23.5834 25.6814 23.5367 25.6983 23.4844 25.7094C23.5083 25.7242 23.5285 25.743 23.5448 25.7656L23.9395 26.2901H23.7772C23.7438 26.2901 23.7193 26.2776 23.7034 26.2524L23.3521 25.7805C23.3414 25.7656 23.33 25.7551 23.3177 25.7486C23.3054 25.7421 23.2863 25.7389 23.2606 25.7389H23.1218Z" fill="white"/>
<path fill-rule="evenodd" clip-rule="evenodd" d="M25.055 24.9692V25.1195H24.6273V26.2901H24.4494V25.1195H24.0208V24.9692H25.055Z" fill="white"/>
<path fill-rule="evenodd" clip-rule="evenodd" d="M26.0321 25.8592C26.0388 25.8756 26.0456 25.8917 26.0523 25.9077C26.0585 25.8909 26.0648 25.8745 26.0717 25.8583C26.0785 25.842 26.0859 25.8265 26.0938 25.8118L26.5418 24.9997C26.5492 24.9856 26.5573 24.977 26.5662 24.9739C26.5751 24.9708 26.5876 24.9692 26.6036 24.9692H26.7354V26.2901H26.5786V25.3195C26.5786 25.3067 26.5789 25.2927 26.5795 25.278C26.5801 25.2633 26.5812 25.2482 26.5823 25.2329L26.1298 26.0588C26.1156 26.0864 26.0941 26.1003 26.0651 26.1003H26.0394C26.0104 26.1003 25.9889 26.0864 25.9748 26.0588L25.5121 25.2301C25.5139 25.2462 25.5153 25.2618 25.5164 25.2771C25.5173 25.2924 25.5177 25.3067 25.5177 25.3195V26.2901H25.3609V24.9692H25.4927C25.5088 24.9692 25.5211 24.9708 25.5297 24.9739C25.5383 24.977 25.5467 24.9856 25.5545 24.9997L26.0107 25.8127C26.0182 25.8274 26.0253 25.843 26.0321 25.8592Z" fill="white"/>
<path fill-rule="evenodd" clip-rule="evenodd" d="M27.9973 24.9692V25.1148H27.3621V25.5536H27.8765V25.6938H27.3621V26.1445H27.9983L27.9973 26.2901H27.1833V24.9692H27.9973Z" fill="white"/>
<path fill-rule="evenodd" clip-rule="evenodd" d="M28.4712 24.9706C28.4767 24.9715 28.4817 24.9732 28.4859 24.9751C28.4903 24.9774 28.4946 24.9805 28.4988 24.9844C28.5032 24.9883 28.5077 24.9936 28.5127 24.9997L29.2768 25.9942C29.2756 25.9783 29.2746 25.9627 29.2736 25.9477C29.2727 25.9327 29.2723 25.9183 29.2723 25.9048V24.9692H29.4289V26.2901H29.3396C29.3253 26.2901 29.3135 26.2877 29.3041 26.2827C29.2946 26.2779 29.2852 26.2695 29.2759 26.2579L28.5117 25.2633C28.513 25.2786 28.5138 25.2936 28.5146 25.3085C28.5152 25.3232 28.5155 25.3367 28.5155 25.3489V26.2901H28.3588V24.9692H28.4509C28.4589 24.9692 28.4656 24.9697 28.4712 24.9706Z" fill="white"/>
<path fill-rule="evenodd" clip-rule="evenodd" d="M30.7701 24.9692V25.1195H30.3424V26.2901H30.1645V25.1195H29.7359V24.9692H30.7701Z" fill="white"/>
<path fill-rule="evenodd" clip-rule="evenodd" d="M31.7518 25.1756C31.7462 25.1846 31.7403 25.1916 31.7338 25.1962C31.7274 25.2009 31.7195 25.2031 31.7103 25.2031C31.6998 25.2031 31.6876 25.198 31.6735 25.1875C31.6594 25.1769 31.6417 25.1656 31.6204 25.1528C31.5992 25.1403 31.5738 25.1287 31.5439 25.1184C31.5141 25.1078 31.478 25.1027 31.4356 25.1027C31.3956 25.1027 31.3606 25.108 31.3301 25.1189C31.2997 25.1296 31.2742 25.1442 31.2536 25.1627C31.233 25.181 31.2176 25.2027 31.207 25.2275C31.1967 25.2524 31.1914 25.2793 31.1914 25.3083C31.1914 25.3451 31.2004 25.3757 31.2186 25.4C31.2367 25.4242 31.2606 25.445 31.2904 25.4622C31.3203 25.4795 31.3541 25.4943 31.392 25.5069C31.4297 25.5195 31.4683 25.5325 31.508 25.546C31.5476 25.5596 31.5864 25.5748 31.6241 25.5918C31.662 25.6086 31.6957 25.63 31.7256 25.6559C31.7554 25.6816 31.7794 25.7131 31.7974 25.7509C31.8156 25.7883 31.8247 25.8342 31.8247 25.889C31.8247 25.9468 31.8148 26.001 31.7951 26.0518C31.7754 26.1024 31.7468 26.1465 31.7089 26.184C31.6712 26.2215 31.6248 26.2509 31.5697 26.2725C31.5148 26.294 31.4523 26.3048 31.3823 26.3048C31.2962 26.3048 31.2182 26.2892 31.148 26.2581C31.078 26.2271 31.018 26.1853 30.9683 26.1324L31.02 26.0477C31.0248 26.0409 31.0307 26.0351 31.0379 26.0304C31.045 26.0259 31.0527 26.0236 31.0614 26.0236C31.0694 26.0236 31.0785 26.0268 31.0886 26.0333C31.0988 26.0398 31.1103 26.0478 31.1232 26.0577C31.1361 26.0675 31.1507 26.0783 31.1674 26.09C31.1841 26.1016 31.2029 26.1124 31.2241 26.1222C31.2453 26.1321 31.2694 26.1403 31.2965 26.1466C31.3235 26.1531 31.3539 26.1563 31.3877 26.1563C31.4301 26.1563 31.468 26.1504 31.5011 26.1387C31.5344 26.1271 31.5624 26.1107 31.5854 26.0895C31.6085 26.0683 31.6261 26.0428 31.6385 26.0134C31.6507 25.984 31.657 25.9512 31.657 25.9148C31.657 25.875 31.6479 25.8421 31.6297 25.8166C31.6115 25.7912 31.5877 25.7698 31.5583 25.7525C31.5288 25.7354 31.495 25.7207 31.4568 25.7087C31.4188 25.6968 31.38 25.6845 31.3407 25.6719C31.3014 25.6593 31.2627 25.6446 31.2245 25.6281C31.1865 25.6116 31.1526 25.59 31.1232 25.5636C31.0936 25.5371 31.0698 25.5042 31.0517 25.4645C31.0336 25.4248 31.0245 25.3759 31.0245 25.3174C31.0245 25.2709 31.0336 25.2257 31.0517 25.1821C31.0698 25.1384 31.0962 25.0996 31.1309 25.0659C31.1657 25.0319 31.2085 25.0051 31.2591 24.9846C31.3098 24.9643 31.368 24.9543 31.4338 24.9543C31.5076 24.9543 31.5747 24.966 31.6353 24.9893C31.6957 25.0127 31.7491 25.0465 31.7951 25.0907L31.7518 25.1756Z" fill="white"/>
</g>
<defs>
<filter id="filter0_d" x="0" y="0" width="48" height="58" filterUnits="userSpaceOnUse" color-interpolation-filters="sRGB">
<feFlood flood-opacity="0" result="BackgroundImageFix"/>
<feColorMatrix in="SourceAlpha" type="matrix" values="0 0 0 0 0 0 0 0 0 0 0 0 0 0 0 0 0 0 127 0"/>
<feOffset dy="3"/>
<feGaussianBlur stdDeviation="2"/>
<feColorMatrix type="matrix" values="0 0 0 0 0 0 0 0 0 0 0 0 0 0 0 0 0 0 0.3 0"/>
<feBlend mode="normal" in2="BackgroundImageFix" result="effect1_dropShadow"/>
<feBlend mode="normal" in="SourceGraphic" in2="effect1_dropShadow" result="shape"/>
</filter>
</defs>
</svg>
