<svg width="82" height="82" viewBox="0 0 82 82" fill="none" xmlns="http://www.w3.org/2000/svg">
<path d="M56.9706 17.4706C56.9706 26.2909 49.8203 33.4412 41 33.4412V34.4412C50.3726 34.4412 57.9706 26.8432 57.9706 17.4706H56.9706ZM41 1.5C49.8203 1.5 56.9706 8.65028 56.9706 17.4706H57.9706C57.9706 8.09799 50.3726 0.5 41 0.5V1.5ZM25.0294 17.4706C25.0294 8.65028 32.1797 1.5 41 1.5V0.5C31.6274 0.5 24.0294 8.09799 24.0294 17.4706H25.0294ZM41 33.4412C32.1797 33.4412 25.0294 26.2909 25.0294 17.4706H24.0294C24.0294 26.8432 31.6274 34.4412 41 34.4412V33.4412ZM80.5 64.5294C80.5 73.3497 73.3497 80.5 64.5294 80.5V81.5C73.902 81.5 81.5 73.902 81.5 64.5294H80.5ZM64.5294 48.5588C73.3497 48.5588 80.5 55.7091 80.5 64.5294H81.5C81.5 55.1568 73.902 47.5588 64.5294 47.5588V48.5588ZM48.5588 64.5294C48.5588 55.7091 55.7091 48.5588 64.5294 48.5588V47.5588C55.1568 47.5588 47.5588 55.1568 47.5588 64.5294H48.5588ZM64.5294 80.5C55.7091 80.5 48.5588 73.3497 48.5588 64.5294H47.5588C47.5588 73.902 55.1568 81.5 64.5294 81.5V80.5ZM17.4706 81.5C26.8432 81.5 34.4412 73.902 34.4412 64.5294H33.4412C33.4412 73.3497 26.2909 80.5 17.4706 80.5V81.5ZM0.5 64.5294C0.5 73.902 8.09799 81.5 17.4706 81.5V80.5C8.65028 80.5 1.5 73.3497 1.5 64.5294H0.5ZM17.4706 47.5588C8.09799 47.5588 0.5 55.1568 0.5 64.5294H1.5C1.5 55.7091 8.65028 48.5588 17.4706 48.5588V47.5588ZM34.4412 64.5294C34.4412 55.1568 26.8432 47.5588 17.4706 47.5588V48.5588C26.2909 48.5588 33.4412 55.7091 33.4412 64.5294H34.4412Z" fill="#171717"/>
</svg>
