<svg width="147" height="82" viewBox="0 0 147 82" fill="none" xmlns="http://www.w3.org/2000/svg">
<path fill-rule="evenodd" clip-rule="evenodd" d="M15.5455 8.09109C15.5455 12.1077 12.2893 15.3638 8.27273 15.3638C4.25611 15.3638 1 12.1077 1 8.09109C1 4.07447 4.25611 0.818359 8.27273 0.818359C12.2893 0.818359 15.5455 4.07447 15.5455 8.09109ZM37.3636 8.09109C37.3636 12.1077 34.1075 15.3638 30.0909 15.3638C26.0743 15.3638 22.8182 12.1077 22.8182 8.09109C22.8182 4.07447 26.0743 0.818359 30.0909 0.818359C34.1075 0.818359 37.3636 4.07447 37.3636 8.09109ZM51.9091 15.3638C55.9257 15.3638 59.1818 12.1077 59.1818 8.09109C59.1818 4.07447 55.9257 0.818359 51.9091 0.818359C47.8925 0.818359 44.6364 4.07447 44.6364 8.09109C44.6364 12.1077 47.8925 15.3638 51.9091 15.3638ZM15.5455 51.7275C15.5455 55.7441 12.2893 59.0002 8.27273 59.0002C4.25611 59.0002 1 55.7441 1 51.7275C1 47.7108 4.25611 44.4547 8.27273 44.4547C12.2893 44.4547 15.5455 47.7108 15.5455 51.7275ZM37.3636 51.7275C37.3636 55.7441 34.1075 59.0002 30.0909 59.0002C26.0743 59.0002 22.8182 55.7441 22.8182 51.7275C22.8182 47.7108 26.0743 44.4547 30.0909 44.4547C34.1075 44.4547 37.3636 47.7108 37.3636 51.7275ZM51.9091 59.0002C55.9257 59.0002 59.1818 55.7441 59.1818 51.7275C59.1818 47.7108 55.9257 44.4547 51.9091 44.4547C47.8925 44.4547 44.6364 47.7108 44.6364 51.7275C44.6364 55.7441 47.8925 59.0002 51.9091 59.0002ZM15.5455 73.5456C15.5455 77.5622 12.2893 80.8184 8.27273 80.8184C4.25611 80.8184 1 77.5622 1 73.5456C1 69.529 4.25611 66.2729 8.27273 66.2729C12.2893 66.2729 15.5455 69.529 15.5455 73.5456ZM37.3636 73.5456C37.3636 77.5622 34.1075 80.8184 30.0909 80.8184C26.0743 80.8184 22.8182 77.5622 22.8182 73.5456C22.8182 69.529 26.0743 66.2729 30.0909 66.2729C34.1075 66.2729 37.3636 69.529 37.3636 73.5456ZM51.9091 80.8184C55.9257 80.8184 59.1818 77.5622 59.1818 73.5456C59.1818 69.529 55.9257 66.2729 51.9091 66.2729C47.8925 66.2729 44.6364 69.529 44.6364 73.5456C44.6364 77.5622 47.8925 80.8184 51.9091 80.8184Z" fill="white"/>
<path d="M8.27273 15.8638C12.5655 15.8638 16.0455 12.3838 16.0455 8.09109H15.0455C15.0455 11.8316 12.0132 14.8638 8.27273 14.8638V15.8638ZM0.5 8.09109C0.5 12.3838 3.97997 15.8638 8.27273 15.8638V14.8638C4.53225 14.8638 1.5 11.8316 1.5 8.09109H0.5ZM8.27273 0.318359C3.97997 0.318359 0.5 3.79833 0.5 8.09109H1.5C1.5 4.35061 4.53225 1.31836 8.27273 1.31836V0.318359ZM16.0455 8.09109C16.0455 3.79833 12.5655 0.318359 8.27273 0.318359V1.31836C12.0132 1.31836 15.0455 4.35061 15.0455 8.09109H16.0455ZM30.0909 15.8638C34.3837 15.8638 37.8636 12.3838 37.8636 8.09109H36.8636C36.8636 11.8316 33.8314 14.8638 30.0909 14.8638V15.8638ZM22.3182 8.09109C22.3182 12.3838 25.7982 15.8638 30.0909 15.8638V14.8638C26.3504 14.8638 23.3182 11.8316 23.3182 8.09109H22.3182ZM30.0909 0.318359C25.7982 0.318359 22.3182 3.79833 22.3182 8.09109H23.3182C23.3182 4.35061 26.3504 1.31836 30.0909 1.31836V0.318359ZM37.8636 8.09109C37.8636 3.79833 34.3837 0.318359 30.0909 0.318359V1.31836C33.8314 1.31836 36.8636 4.35061 36.8636 8.09109H37.8636ZM58.6818 8.09109C58.6818 11.8316 55.6496 14.8638 51.9091 14.8638V15.8638C56.2019 15.8638 59.6818 12.3838 59.6818 8.09109H58.6818ZM51.9091 1.31836C55.6496 1.31836 58.6818 4.35061 58.6818 8.09109H59.6818C59.6818 3.79833 56.2019 0.318359 51.9091 0.318359V1.31836ZM45.1364 8.09109C45.1364 4.35061 48.1686 1.31836 51.9091 1.31836V0.318359C47.6163 0.318359 44.1364 3.79833 44.1364 8.09109H45.1364ZM51.9091 14.8638C48.1686 14.8638 45.1364 11.8316 45.1364 8.09109H44.1364C44.1364 12.3838 47.6163 15.8638 51.9091 15.8638V14.8638ZM8.27273 59.5002C12.5655 59.5002 16.0455 56.0202 16.0455 51.7275H15.0455C15.0455 55.4679 12.0132 58.5002 8.27273 58.5002V59.5002ZM0.5 51.7275C0.5 56.0202 3.97997 59.5002 8.27273 59.5002V58.5002C4.53225 58.5002 1.5 55.4679 1.5 51.7275H0.5ZM8.27273 43.9547C3.97997 43.9547 0.5 47.4347 0.5 51.7275H1.5C1.5 47.987 4.53225 44.9547 8.27273 44.9547V43.9547ZM16.0455 51.7275C16.0455 47.4347 12.5655 43.9547 8.27273 43.9547V44.9547C12.0132 44.9547 15.0455 47.987 15.0455 51.7275H16.0455ZM30.0909 59.5002C34.3837 59.5002 37.8636 56.0202 37.8636 51.7275H36.8636C36.8636 55.4679 33.8314 58.5002 30.0909 58.5002V59.5002ZM22.3182 51.7275C22.3182 56.0202 25.7982 59.5002 30.0909 59.5002V58.5002C26.3504 58.5002 23.3182 55.4679 23.3182 51.7275H22.3182ZM30.0909 43.9547C25.7982 43.9547 22.3182 47.4347 22.3182 51.7275H23.3182C23.3182 47.987 26.3504 44.9547 30.0909 44.9547V43.9547ZM37.8636 51.7275C37.8636 47.4347 34.3837 43.9547 30.0909 43.9547V44.9547C33.8314 44.9547 36.8636 47.987 36.8636 51.7275H37.8636ZM58.6818 51.7275C58.6818 55.4679 55.6496 58.5002 51.9091 58.5002V59.5002C56.2019 59.5002 59.6818 56.0202 59.6818 51.7275H58.6818ZM51.9091 44.9547C55.6496 44.9547 58.6818 47.987 58.6818 51.7275H59.6818C59.6818 47.4347 56.2019 43.9547 51.9091 43.9547V44.9547ZM45.1364 51.7275C45.1364 47.987 48.1686 44.9547 51.9091 44.9547V43.9547C47.6163 43.9547 44.1364 47.4347 44.1364 51.7275H45.1364ZM51.9091 58.5002C48.1686 58.5002 45.1364 55.4679 45.1364 51.7275H44.1364C44.1364 56.0202 47.6163 59.5002 51.9091 59.5002V58.5002ZM8.27273 81.3184C12.5655 81.3184 16.0455 77.8384 16.0455 73.5456H15.0455C15.0455 77.2861 12.0132 80.3184 8.27273 80.3184V81.3184ZM0.5 73.5456C0.5 77.8384 3.97997 81.3184 8.27273 81.3184V80.3184C4.53225 80.3184 1.5 77.2861 1.5 73.5456H0.5ZM8.27273 65.7729C3.97997 65.7729 0.5 69.2529 0.5 73.5456H1.5C1.5 69.8052 4.53225 66.7729 8.27273 66.7729V65.7729ZM16.0455 73.5456C16.0455 69.2529 12.5655 65.7729 8.27273 65.7729V66.7729C12.0132 66.7729 15.0455 69.8052 15.0455 73.5456H16.0455ZM30.0909 81.3184C34.3837 81.3184 37.8636 77.8384 37.8636 73.5456H36.8636C36.8636 77.2861 33.8314 80.3184 30.0909 80.3184V81.3184ZM22.3182 73.5456C22.3182 77.8384 25.7982 81.3184 30.0909 81.3184V80.3184C26.3504 80.3184 23.3182 77.2861 23.3182 73.5456H22.3182ZM30.0909 65.7729C25.7982 65.7729 22.3182 69.2529 22.3182 73.5456H23.3182C23.3182 69.8052 26.3504 66.7729 30.0909 66.7729V65.7729ZM37.8636 73.5456C37.8636 69.2529 34.3837 65.7729 30.0909 65.7729V66.7729C33.8314 66.7729 36.8636 69.8052 36.8636 73.5456H37.8636ZM58.6818 73.5456C58.6818 77.2861 55.6496 80.3184 51.9091 80.3184V81.3184C56.2019 81.3184 59.6818 77.8384 59.6818 73.5456H58.6818ZM51.9091 66.7729C55.6496 66.7729 58.6818 69.8052 58.6818 73.5456H59.6818C59.6818 69.2529 56.2019 65.7729 51.9091 65.7729V66.7729ZM45.1364 73.5456C45.1364 69.8052 48.1686 66.7729 51.9091 66.7729V65.7729C47.6163 65.7729 44.1364 69.2529 44.1364 73.5456H45.1364ZM51.9091 80.3184C48.1686 80.3184 45.1364 77.2861 45.1364 73.5456H44.1364C44.1364 77.8384 47.6163 81.3184 51.9091 81.3184V80.3184Z" fill="#171717"/>
<path fill-rule="evenodd" clip-rule="evenodd" d="M102.818 8.09109C102.818 12.1077 99.5623 15.3638 95.5457 15.3638C91.5291 15.3638 88.2729 12.1077 88.2729 8.09109C88.2729 4.07447 91.5291 0.818359 95.5457 0.818359C99.5623 0.818359 102.818 4.07447 102.818 8.09109ZM124.637 8.09109C124.637 12.1077 121.38 15.3638 117.364 15.3638C113.347 15.3638 110.091 12.1077 110.091 8.09109C110.091 4.07447 113.347 0.818359 117.364 0.818359C121.38 0.818359 124.637 4.07447 124.637 8.09109ZM139.182 15.3638C143.199 15.3638 146.455 12.1077 146.455 8.09109C146.455 4.07447 143.199 0.818359 139.182 0.818359C135.165 0.818359 131.909 4.07447 131.909 8.09109C131.909 12.1077 135.165 15.3638 139.182 15.3638ZM102.818 51.7275C102.818 55.7441 99.5623 59.0002 95.5457 59.0002C91.5291 59.0002 88.2729 55.7441 88.2729 51.7275C88.2729 47.7108 91.5291 44.4547 95.5457 44.4547C99.5623 44.4547 102.818 47.7108 102.818 51.7275ZM124.637 51.7275C124.637 55.7441 121.38 59.0002 117.364 59.0002C113.347 59.0002 110.091 55.7441 110.091 51.7275C110.091 47.7108 113.347 44.4547 117.364 44.4547C121.38 44.4547 124.637 47.7108 124.637 51.7275ZM139.182 59.0002C143.199 59.0002 146.455 55.7441 146.455 51.7275C146.455 47.7108 143.199 44.4547 139.182 44.4547C135.165 44.4547 131.909 47.7108 131.909 51.7275C131.909 55.7441 135.165 59.0002 139.182 59.0002ZM102.818 73.5456C102.818 77.5622 99.5623 80.8184 95.5457 80.8184C91.5291 80.8184 88.2729 77.5622 88.2729 73.5456C88.2729 69.529 91.5291 66.2729 95.5457 66.2729C99.5623 66.2729 102.818 69.529 102.818 73.5456ZM124.637 73.5456C124.637 77.5622 121.38 80.8184 117.364 80.8184C113.347 80.8184 110.091 77.5622 110.091 73.5456C110.091 69.529 113.347 66.2729 117.364 66.2729C121.38 66.2729 124.637 69.529 124.637 73.5456ZM139.182 80.8184C143.199 80.8184 146.455 77.5622 146.455 73.5456C146.455 69.529 143.199 66.2729 139.182 66.2729C135.165 66.2729 131.909 69.529 131.909 73.5456C131.909 77.5622 135.165 80.8184 139.182 80.8184Z" fill="white"/>
<path d="M95.5457 15.8638C99.8384 15.8638 103.318 12.3838 103.318 8.09109H102.318C102.318 11.8316 99.2862 14.8638 95.5457 14.8638V15.8638ZM87.7729 8.09109C87.7729 12.3838 91.2529 15.8638 95.5457 15.8638V14.8638C91.8052 14.8638 88.7729 11.8316 88.7729 8.09109H87.7729ZM95.5457 0.318359C91.2529 0.318359 87.7729 3.79833 87.7729 8.09109H88.7729C88.7729 4.35061 91.8052 1.31836 95.5457 1.31836V0.318359ZM103.318 8.09109C103.318 3.79833 99.8384 0.318359 95.5457 0.318359V1.31836C99.2862 1.31836 102.318 4.35061 102.318 8.09109H103.318ZM117.364 15.8638C121.657 15.8638 125.137 12.3838 125.137 8.09109H124.137C124.137 11.8316 121.104 14.8638 117.364 14.8638V15.8638ZM109.591 8.09109C109.591 12.3838 113.071 15.8638 117.364 15.8638V14.8638C113.623 14.8638 110.591 11.8316 110.591 8.09109H109.591ZM117.364 0.318359C113.071 0.318359 109.591 3.79833 109.591 8.09109H110.591C110.591 4.35061 113.623 1.31836 117.364 1.31836V0.318359ZM125.137 8.09109C125.137 3.79833 121.657 0.318359 117.364 0.318359V1.31836C121.104 1.31836 124.137 4.35061 124.137 8.09109H125.137ZM145.955 8.09109C145.955 11.8316 142.923 14.8638 139.182 14.8638V15.8638C143.475 15.8638 146.955 12.3838 146.955 8.09109H145.955ZM139.182 1.31836C142.923 1.31836 145.955 4.35061 145.955 8.09109H146.955C146.955 3.79833 143.475 0.318359 139.182 0.318359V1.31836ZM132.409 8.09109C132.409 4.35061 135.442 1.31836 139.182 1.31836V0.318359C134.889 0.318359 131.409 3.79833 131.409 8.09109H132.409ZM139.182 14.8638C135.442 14.8638 132.409 11.8316 132.409 8.09109H131.409C131.409 12.3838 134.889 15.8638 139.182 15.8638V14.8638ZM95.5457 59.5002C99.8384 59.5002 103.318 56.0202 103.318 51.7275H102.318C102.318 55.4679 99.2862 58.5002 95.5457 58.5002V59.5002ZM87.7729 51.7275C87.7729 56.0202 91.2529 59.5002 95.5457 59.5002V58.5002C91.8052 58.5002 88.7729 55.4679 88.7729 51.7275H87.7729ZM95.5457 43.9547C91.2529 43.9547 87.7729 47.4347 87.7729 51.7275H88.7729C88.7729 47.987 91.8052 44.9547 95.5457 44.9547V43.9547ZM103.318 51.7275C103.318 47.4347 99.8384 43.9547 95.5457 43.9547V44.9547C99.2862 44.9547 102.318 47.987 102.318 51.7275H103.318ZM117.364 59.5002C121.657 59.5002 125.137 56.0202 125.137 51.7275H124.137C124.137 55.4679 121.104 58.5002 117.364 58.5002V59.5002ZM109.591 51.7275C109.591 56.0202 113.071 59.5002 117.364 59.5002V58.5002C113.623 58.5002 110.591 55.4679 110.591 51.7275H109.591ZM117.364 43.9547C113.071 43.9547 109.591 47.4347 109.591 51.7275H110.591C110.591 47.987 113.623 44.9547 117.364 44.9547V43.9547ZM125.137 51.7275C125.137 47.4347 121.657 43.9547 117.364 43.9547V44.9547C121.104 44.9547 124.137 47.987 124.137 51.7275H125.137ZM145.955 51.7275C145.955 55.4679 142.923 58.5002 139.182 58.5002V59.5002C143.475 59.5002 146.955 56.0202 146.955 51.7275H145.955ZM139.182 44.9547C142.923 44.9547 145.955 47.987 145.955 51.7275H146.955C146.955 47.4347 143.475 43.9547 139.182 43.9547V44.9547ZM132.409 51.7275C132.409 47.987 135.442 44.9547 139.182 44.9547V43.9547C134.889 43.9547 131.409 47.4347 131.409 51.7275H132.409ZM139.182 58.5002C135.442 58.5002 132.409 55.4679 132.409 51.7275H131.409C131.409 56.0202 134.889 59.5002 139.182 59.5002V58.5002ZM95.5457 81.3184C99.8384 81.3184 103.318 77.8384 103.318 73.5456H102.318C102.318 77.2861 99.2862 80.3184 95.5457 80.3184V81.3184ZM87.7729 73.5456C87.7729 77.8384 91.2529 81.3184 95.5457 81.3184V80.3184C91.8052 80.3184 88.7729 77.2861 88.7729 73.5456H87.7729ZM95.5457 65.7729C91.2529 65.7729 87.7729 69.2529 87.7729 73.5456H88.7729C88.7729 69.8052 91.8052 66.7729 95.5457 66.7729V65.7729ZM103.318 73.5456C103.318 69.2529 99.8384 65.7729 95.5457 65.7729V66.7729C99.2862 66.7729 102.318 69.8052 102.318 73.5456H103.318ZM117.364 81.3184C121.657 81.3184 125.137 77.8384 125.137 73.5456H124.137C124.137 77.2861 121.104 80.3184 117.364 80.3184V81.3184ZM109.591 73.5456C109.591 77.8384 113.071 81.3184 117.364 81.3184V80.3184C113.623 80.3184 110.591 77.2861 110.591 73.5456H109.591ZM117.364 65.7729C113.071 65.7729 109.591 69.2529 109.591 73.5456H110.591C110.591 69.8052 113.623 66.7729 117.364 66.7729V65.7729ZM125.137 73.5456C125.137 69.2529 121.657 65.7729 117.364 65.7729V66.7729C121.104 66.7729 124.137 69.8052 124.137 73.5456H125.137ZM145.955 73.5456C145.955 77.2861 142.923 80.3184 139.182 80.3184V81.3184C143.475 81.3184 146.955 77.8384 146.955 73.5456H145.955ZM139.182 66.7729C142.923 66.7729 145.955 69.8052 145.955 73.5456H146.955C146.955 69.2529 143.475 65.7729 139.182 65.7729V66.7729ZM132.409 73.5456C132.409 69.8052 135.442 66.7729 139.182 66.7729V65.7729C134.889 65.7729 131.409 69.2529 131.409 73.5456H132.409ZM139.182 80.3184C135.442 80.3184 132.409 77.2861 132.409 73.5456H131.409C131.409 77.8384 134.889 81.3184 139.182 81.3184V80.3184Z" fill="#171717"/>
</svg>
