<svg viewBox="0 0 225 237" fill="none" xmlns="http://www.w3.org/2000/svg">
<path fill-rule="evenodd" clip-rule="evenodd" d="M183.429 2.3584H217.262C220.586 2.36118 223.28 5.05198 223.284 8.37271V43.9461C223.28 47.2662 220.587 49.9567 217.264 49.9604H203.711V187.039H217.262C220.585 187.043 223.278 189.734 223.282 193.054V228.627C223.278 231.947 220.585 234.638 217.262 234.641H183.429C180.106 234.637 177.413 231.947 177.409 228.627V214.201H47.591V228.627C47.5873 231.947 44.8946 234.637 41.5717 234.641H7.73805C4.41495 234.638 1.72197 231.947 1.71826 228.627V193.054C1.72197 189.734 4.41495 187.043 7.73805 187.039H21.2896V49.9604H7.73805C4.41495 49.9567 1.72197 47.2662 1.71826 43.9461V8.37271C1.72197 5.05263 4.41495 2.3621 7.73805 2.3584H41.5717C44.8946 2.36241 47.5873 5.05285 47.591 8.37271V22.7991H177.409V8.37271C177.413 5.05285 180.106 2.36241 183.429 2.3584ZM40.8637 9.07955H8.44553V43.2393H40.8637V9.07955ZM40.8637 227.92H8.44553V193.761H40.8637V227.92ZM184.137 227.92H216.558L216.555 193.761H184.137V227.92ZM196.984 187.039H183.429C180.106 187.043 177.413 189.734 177.409 193.054V207.48H47.591V193.054C47.5873 189.734 44.8946 187.043 41.5717 187.039H28.0169V49.9604H41.5701C44.8929 49.9564 47.5856 47.266 47.5893 43.9461V29.5203H177.409V43.9461C177.413 47.266 180.106 49.9564 183.429 49.9604H196.984V187.039ZM184.137 43.2393H216.557L216.555 9.07955H184.137V43.2393Z" fill="black"/>
<path d="M217.262 2.3584L217.264 0.858398H217.262V2.3584ZM183.429 2.3584V0.858397L183.427 0.8584L183.429 2.3584ZM223.284 8.37271H224.784V8.37104L223.284 8.37271ZM223.284 43.9461L224.784 43.9478V43.9461H223.284ZM217.264 49.9604V51.4604H217.266L217.264 49.9604ZM203.711 49.9604V48.4604H202.211V49.9604H203.711ZM203.711 187.039H202.211V188.539H203.711V187.039ZM217.262 187.039L217.264 185.539H217.262V187.039ZM223.282 193.054H224.782V193.052L223.282 193.054ZM223.282 228.627L224.782 228.629V228.627H223.282ZM217.262 234.641V236.141H217.264L217.262 234.641ZM183.429 234.641L183.427 236.141H183.429V234.641ZM177.409 228.627H175.909V228.629L177.409 228.627ZM177.409 214.201H178.909V212.701H177.409V214.201ZM47.591 214.201V212.701H46.091V214.201H47.591ZM47.591 228.627L49.091 228.629V228.627H47.591ZM41.5717 234.641V236.141H41.5736L41.5717 234.641ZM7.73805 234.641L7.73638 236.141H7.73805V234.641ZM1.71826 228.627H0.218261L0.218263 228.629L1.71826 228.627ZM1.71826 193.054L0.218262 193.052V193.054H1.71826ZM7.73805 187.039V185.539H7.73638L7.73805 187.039ZM21.2896 187.039V188.539H22.7896V187.039H21.2896ZM21.2896 49.9604H22.7896V48.4604H21.2896V49.9604ZM7.73805 49.9604L7.73638 51.4604H7.73805V49.9604ZM1.71826 43.9461H0.218261L0.218263 43.9478L1.71826 43.9461ZM1.71826 8.37271L0.218262 8.37104V8.37271H1.71826ZM7.73805 2.3584V0.858397L7.73638 0.858399L7.73805 2.3584ZM41.5717 2.3584L41.5736 0.858398H41.5717V2.3584ZM47.591 8.37271H49.091V8.37104L47.591 8.37271ZM47.591 22.7991H46.091V24.2991H47.591V22.7991ZM177.409 22.7991V24.2991H178.909V22.7991H177.409ZM177.409 8.37271L175.909 8.37104V8.37271H177.409ZM8.44553 9.07955V7.57955H6.94553V9.07955H8.44553ZM40.8637 9.07955H42.3637V7.57955H40.8637V9.07955ZM8.44553 43.2393H6.94553V44.7393H8.44553V43.2393ZM40.8637 43.2393V44.7393H42.3637V43.2393H40.8637ZM8.44553 227.92H6.94553V229.42H8.44553V227.92ZM40.8637 227.92V229.42H42.3637V227.92H40.8637ZM8.44553 193.761V192.261H6.94553V193.761H8.44553ZM40.8637 193.761H42.3637V192.261H40.8637V193.761ZM216.558 227.92V229.42H218.058L218.058 227.92L216.558 227.92ZM184.137 227.92H182.637V229.42H184.137V227.92ZM216.555 193.761L218.055 193.76L218.055 192.261H216.555V193.761ZM184.137 193.761V192.261H182.637V193.761H184.137ZM183.429 187.039V185.539H183.427L183.429 187.039ZM196.984 187.039V188.539H198.484V187.039H196.984ZM177.409 193.054L175.909 193.052V193.054H177.409ZM177.409 207.48V208.98H178.909V207.48H177.409ZM47.591 207.48H46.091V208.98H47.591V207.48ZM47.591 193.054H49.091V193.052L47.591 193.054ZM41.5717 187.039L41.5736 185.539H41.5717V187.039ZM28.0169 187.039H26.5169V188.539H28.0169V187.039ZM28.0169 49.9604V48.4604H26.5169V49.9604H28.0169ZM41.5701 49.9604V51.4604H41.5719L41.5701 49.9604ZM47.5893 43.9461L49.0893 43.9478V43.9461H47.5893ZM47.5893 29.5203V28.0203H46.0893V29.5203H47.5893ZM177.409 29.5203H178.909V28.0203H177.409V29.5203ZM177.409 43.9461H175.909V43.9478L177.409 43.9461ZM183.429 49.9604L183.427 51.4604H183.429V49.9604ZM196.984 49.9604H198.484V48.4604H196.984V49.9604ZM216.557 43.2393V44.7393H218.057L218.057 43.2392L216.557 43.2393ZM184.137 43.2393H182.637V44.7393H184.137V43.2393ZM216.555 9.07955L218.055 9.07948L218.055 7.57955H216.555V9.07955ZM184.137 9.07955V7.57955H182.637V9.07955H184.137ZM217.262 0.858398H183.429V3.8584H217.262V0.858398ZM224.784 8.37104C224.779 4.22174 221.413 0.861867 217.264 0.858399L217.261 3.8584C219.759 3.86049 221.781 5.88222 221.784 8.37439L224.784 8.37104ZM224.784 43.9461V8.37271H221.784V43.9461H224.784ZM217.266 51.4604C221.415 51.4558 224.779 48.0963 224.784 43.9478L221.784 43.9444C221.781 46.4361 219.76 48.4576 217.262 48.4604L217.266 51.4604ZM203.711 51.4604H217.264V48.4604H203.711V51.4604ZM205.211 187.039V49.9604H202.211V187.039H205.211ZM217.262 185.539H203.711V188.539H217.262V185.539ZM224.782 193.052C224.777 188.904 221.413 185.544 217.264 185.539L217.261 188.539C219.758 188.542 221.779 190.564 221.782 193.055L224.782 193.052ZM224.782 228.627V193.054H221.782V228.627H224.782ZM217.264 236.141C221.413 236.137 224.777 232.777 224.782 228.629L221.782 228.625C221.779 231.117 219.758 233.139 217.261 233.141L217.264 236.141ZM183.429 236.141H217.262V233.141H183.429V236.141ZM175.909 228.629C175.914 232.777 179.278 236.136 183.427 236.141L183.43 233.141C180.933 233.138 178.912 231.117 178.909 228.625L175.909 228.629ZM175.909 214.201V228.627H178.909V214.201H175.909ZM47.591 215.701H177.409V212.701H47.591V215.701ZM49.091 228.627V214.201H46.091V228.627H49.091ZM41.5736 236.141C45.7222 236.136 49.0863 232.777 49.091 228.629L46.091 228.625C46.0882 231.117 44.067 233.138 41.5699 233.141L41.5736 236.141ZM7.73805 236.141H41.5717V233.141H7.73805V236.141ZM0.218263 228.629C0.222895 232.777 3.58744 236.137 7.73638 236.141L7.73972 233.141C5.24246 233.139 3.22104 231.117 3.21826 228.625L0.218263 228.629ZM0.218262 193.054V228.627H3.21826V193.054H0.218262ZM7.73638 185.539C3.58744 185.544 0.222895 188.904 0.218263 193.052L3.21826 193.055C3.22104 190.564 5.24246 188.542 7.73972 188.539L7.73638 185.539ZM21.2896 185.539H7.73805V188.539H21.2896V185.539ZM19.7896 49.9604V187.039H22.7896V49.9604H19.7896ZM7.73805 51.4604H21.2896V48.4604H7.73805V51.4604ZM0.218263 43.9478C0.222895 48.0963 3.58744 51.4558 7.73638 51.4604L7.73972 48.4604C5.24246 48.4576 3.22104 46.4361 3.21826 43.9444L0.218263 43.9478ZM0.218262 8.37271V43.9461H3.21826V8.37271H0.218262ZM7.73638 0.858399C3.58744 0.863024 0.222895 4.22256 0.218263 8.37104L3.21826 8.37439C3.22104 5.88271 5.24246 3.86118 7.73972 3.8584L7.73638 0.858399ZM41.5717 0.858398H7.73805V3.8584H41.5717V0.858398ZM49.091 8.37104C49.0863 4.22283 45.7222 0.863409 41.5736 0.8584L41.5699 3.8584C44.067 3.86141 46.0882 5.88287 46.091 8.37439L49.091 8.37104ZM49.091 22.7991V8.37271H46.091V22.7991H49.091ZM177.409 21.2991H47.591V24.2991H177.409V21.2991ZM175.909 8.37271V22.7991H178.909V8.37271H175.909ZM183.427 0.8584C179.278 0.863409 175.914 4.22283 175.909 8.37104L178.909 8.37439C178.912 5.88287 180.933 3.86141 183.43 3.8584L183.427 0.8584ZM8.44553 10.5796H40.8637V7.57955H8.44553V10.5796ZM9.94553 43.2393V9.07955H6.94553V43.2393H9.94553ZM40.8637 41.7393H8.44553V44.7393H40.8637V41.7393ZM39.3637 9.07955V43.2393H42.3637V9.07955H39.3637ZM8.44553 229.42H40.8637V226.42H8.44553V229.42ZM6.94553 193.761V227.92H9.94553V193.761H6.94553ZM40.8637 192.261H8.44553V195.261H40.8637V192.261ZM42.3637 227.92V193.761H39.3637V227.92H42.3637ZM216.558 226.42H184.137V229.42H216.558V226.42ZM215.055 193.761L215.058 227.92L218.058 227.92L218.055 193.76L215.055 193.761ZM184.137 195.261H216.555V192.261H184.137V195.261ZM185.637 227.92V193.761H182.637V227.92H185.637ZM183.429 188.539H196.984V185.539H183.429V188.539ZM178.909 193.055C178.912 190.564 180.933 188.542 183.43 188.539L183.427 185.539C179.278 185.544 175.914 188.904 175.909 193.052L178.909 193.055ZM178.909 207.48V193.054H175.909V207.48H178.909ZM47.591 208.98H177.409V205.98H47.591V208.98ZM46.091 193.054V207.48H49.091V193.054H46.091ZM41.5699 188.539C44.067 188.542 46.0882 190.564 46.091 193.055L49.091 193.052C49.0863 188.904 45.7222 185.544 41.5736 185.539L41.5699 188.539ZM28.0169 188.539H41.5717V185.539H28.0169V188.539ZM26.5169 49.9604V187.039H29.5169V49.9604H26.5169ZM41.5701 48.4604H28.0169V51.4604H41.5701V48.4604ZM46.0893 43.9444C46.0865 46.4359 44.0654 48.4574 41.5683 48.4604L41.5719 51.4604C45.7205 51.4554 49.0847 48.096 49.0893 43.9478L46.0893 43.9444ZM46.0893 29.5203V43.9461H49.0893V29.5203H46.0893ZM177.409 28.0203H47.5893V31.0203H177.409V28.0203ZM178.909 43.9461V29.5203H175.909V43.9461H178.909ZM183.43 48.4604C180.933 48.4574 178.912 46.4359 178.909 43.9444L175.909 43.9478C175.914 48.096 179.278 51.4554 183.427 51.4604L183.43 48.4604ZM196.984 48.4604H183.429V51.4604H196.984V48.4604ZM198.484 187.039V49.9604H195.484V187.039H198.484ZM216.557 41.7393H184.137V44.7393H216.557V41.7393ZM215.055 9.07963L215.057 43.2393L218.057 43.2392L218.055 9.07948L215.055 9.07963ZM184.137 10.5796H216.555V7.57955H184.137V10.5796ZM185.637 43.2393V9.07955H182.637V43.2393H185.637Z" fill="white"/>
</svg>
