<svg viewBox="0 0 52 52" fill="none" xmlns="http://www.w3.org/2000/svg">
<path fill-rule="evenodd" clip-rule="evenodd" d="M50.9281 25.9976C50.9281 12.2315 39.7684 1.07153 26.002 1.07153C12.2354 1.07153 1.07568 12.2315 1.07568 25.9976C1.07568 39.7643 12.2354 50.924 26.002 50.924C39.7684 50.924 50.9281 39.7643 50.9281 25.9976Z" stroke="white"/>
<path fill-rule="evenodd" clip-rule="evenodd" d="M23.7647 11.3888C24.4029 11.0112 25.1444 10.7967 25.9383 10.7967C26.7286 10.7967 27.4726 11.0112 28.1099 11.3888C28.238 11.0761 28.5111 10.6921 28.8808 10.3336C29.0562 10.1655 29.2359 10.0188 29.4129 9.89758C29.3368 9.83728 29.249 9.80425 29.1499 9.80425C28.9696 9.80425 28.8168 9.92304 28.7614 10.0864C28.7147 9.98122 28.6114 9.90849 28.4905 9.90849C28.3244 9.90849 28.1899 10.0424 28.1899 10.2067C28.1899 10.347 28.2862 10.4636 28.4162 10.4955C28.3171 10.627 28.1602 10.7106 27.9823 10.7106C27.682 10.7103 27.4377 10.4664 27.4377 10.1655C27.4377 10.1327 27.4411 10.1015 27.4468 10.0721C27.4777 10.0836 27.5126 10.0903 27.548 10.0903C27.7138 10.0903 27.848 9.95577 27.848 9.79152C27.848 9.62819 27.7138 9.49334 27.548 9.49334C27.3853 9.49334 27.2499 9.62819 27.2499 9.79152C27.2499 9.88274 27.2935 9.96486 27.358 10.0218C27.2426 10.1991 27.0405 10.3161 26.8135 10.3161C26.4547 10.3161 26.1632 10.0255 26.1632 9.66849C26.1632 9.61849 26.1705 9.57183 26.179 9.52607C26.1835 9.53183 26.1811 9.54395 26.1811 9.55516C26.1811 9.72001 26.3168 9.85516 26.4811 9.85516C26.6447 9.85516 26.7783 9.72001 26.7783 9.55516C26.7783 9.39062 26.6447 9.25637 26.4811 9.25637C26.4268 9.25637 26.3771 9.26971 26.3317 9.29516C26.3423 9.26334 26.345 9.23092 26.345 9.19758C26.345 8.96971 26.1617 8.78728 25.9383 8.78577C25.7129 8.78728 25.5299 8.96971 25.5299 9.19758C25.5299 9.23092 25.5338 9.26334 25.5435 9.29516C25.4999 9.26971 25.4477 9.25637 25.3953 9.25637C25.2323 9.25637 25.0974 9.39062 25.0974 9.55516C25.0974 9.72001 25.2323 9.85516 25.3953 9.85516C25.5596 9.85516 25.6944 9.72001 25.6944 9.55516C25.6944 9.54395 25.6944 9.53183 25.6968 9.52607C25.7062 9.57183 25.7105 9.61849 25.7105 9.66849C25.7105 10.0255 25.4214 10.3161 25.0629 10.3161C24.8356 10.3161 24.6335 10.1991 24.5196 10.0218C24.5844 9.96486 24.6238 9.88274 24.6238 9.79152C24.6238 9.62819 24.4908 9.49334 24.328 9.49334C24.1608 9.49334 24.0277 9.62819 24.0277 9.79152C24.0277 9.95577 24.1608 10.0903 24.328 10.0903C24.362 10.0903 24.398 10.0836 24.429 10.0721C24.4353 10.1015 24.4383 10.1327 24.4383 10.1655C24.4383 10.4664 24.1926 10.7106 23.892 10.7106C23.7159 10.7103 23.5605 10.627 23.4602 10.4955C23.589 10.4636 23.685 10.347 23.685 10.2067C23.685 10.0424 23.5514 9.90849 23.3859 9.90849C23.2656 9.90849 23.1611 9.98152 23.1135 10.0864C23.0593 9.92304 22.9056 9.80425 22.7235 9.80425C22.6268 9.80425 22.5377 9.83728 22.4629 9.89758C22.6386 10.0188 22.8196 10.1655 22.9941 10.3336C23.365 10.6921 23.6371 11.0761 23.7647 11.3888" fill="white"/>
<path fill-rule="evenodd" clip-rule="evenodd" d="M24.7192 12.0603C25.1456 11.7049 25.6662 11.6776 26.0016 11.6776C26.6925 11.6776 27.0632 11.9618 27.248 12.1567C27.4056 12.327 27.4362 12.5231 27.4544 12.6621C27.4607 12.7124 27.4729 12.7418 27.5159 12.7418C27.5662 12.7418 27.5835 12.7124 27.5835 12.6146C27.5838 11.85 27.6259 11.6776 27.6259 11.6128C27.6259 11.5694 27.6144 11.5434 27.5395 11.5376C27.4001 11.5324 27.1853 11.4967 27.0565 11.4715C26.9359 11.4449 26.5156 11.374 26.0935 11.374C25.5786 11.374 25.035 11.4155 24.4498 11.7718C23.8922 12.1073 23.4141 12.7418 23.4141 13.72C23.4141 15.4073 24.5932 16.1664 26.091 16.1664C26.5689 16.1664 26.9892 16.0988 27.3871 15.8931C27.4607 15.8485 27.4665 15.8364 27.4665 15.6724V14.9988C27.4665 14.6934 27.4665 14.4473 27.4729 14.2649C27.478 14.0521 27.5395 13.9455 27.7059 13.9161C27.7789 13.9028 27.8204 13.8982 27.8695 13.8982C27.9132 13.8982 27.9489 13.887 27.9489 13.8491C27.9489 13.7997 27.9065 13.7879 27.828 13.7879C27.6259 13.7879 27.478 13.8064 27.2907 13.8064C27.1059 13.8064 26.7225 13.7879 26.4041 13.7879C26.3953 13.7879 26.388 13.7906 26.3789 13.7906C26.3816 13.2031 26.3847 12.6606 26.3868 12.6037C26.3953 12.4734 26.4271 12.4109 26.5562 12.3831C26.5859 12.3743 26.651 12.3718 26.708 12.3718C26.7495 12.3718 26.771 12.3631 26.771 12.3364C26.771 12.3091 26.7456 12.3018 26.6874 12.3018C26.4813 12.3018 26.2371 12.3143 26.1265 12.3143C25.9674 12.3143 25.7416 12.3018 25.5629 12.3018C25.0762 12.3018 24.901 12.4652 24.8392 12.5231C24.7522 12.6037 24.6435 12.7803 24.6435 12.9864C24.6435 13.5394 25.051 13.9285 25.6035 13.9285C25.6204 13.9285 25.665 13.9285 25.6838 13.9243C25.7029 13.9197 25.7307 13.9161 25.7307 13.8888C25.7307 13.8561 25.7029 13.8464 25.6204 13.8464C25.4041 13.8464 25.1007 13.6031 25.1007 13.2049C25.1007 13.0743 25.1129 12.8155 25.3298 12.6203C25.4692 12.4931 25.6289 12.4691 25.7183 12.4691C25.7756 12.4691 25.8344 12.4734 25.8692 12.4846C25.8886 12.4931 25.9013 12.517 25.9013 12.5585V14.1143C25.9013 14.4718 25.9013 14.8709 25.8822 15.0385C25.8692 15.1461 25.8462 15.2312 25.7307 15.2479C25.6741 15.2552 25.5907 15.264 25.5319 15.264C25.4895 15.264 25.4692 15.2749 25.4692 15.294C25.4692 15.3206 25.5001 15.3318 25.5447 15.3318C25.8004 15.3318 26.045 15.3206 26.1453 15.3206C26.1971 15.3206 26.2744 15.3252 26.3789 15.3291C26.3789 15.3291 26.3789 14.6024 26.3789 13.8988C26.4641 13.8988 26.5592 13.9049 26.6044 13.9161C26.8062 13.9582 26.8625 14.0549 26.868 14.2649C26.8729 14.4473 26.8729 14.6821 26.8729 14.9867V15.5624C26.8729 15.6646 26.8498 15.744 26.7574 15.7873C26.6101 15.8546 26.3968 15.8546 26.2383 15.8546C24.7192 15.8546 24.0374 14.9355 24.0374 13.6209C24.0374 12.8691 24.3759 12.3476 24.7192 12.0603" fill="white"/>
<path fill-rule="evenodd" clip-rule="evenodd" d="M16.0589 19.7282C16.4214 19.7282 16.8456 19.8337 17.3317 20.044C17.4556 20.0961 17.5347 20.1221 17.5693 20.1221C17.5999 20.1221 17.6268 20.1112 17.6508 20.0894L17.6865 20.057C17.7083 20.0355 17.7341 20.0234 17.7647 20.0212C17.8296 20.0191 17.862 20.0582 17.862 20.1382L17.8589 20.3661L17.8459 20.8121L17.8556 21.0467C17.8599 21.1052 17.8665 21.1682 17.875 21.2355C17.8771 21.2615 17.8783 21.2809 17.8783 21.294C17.8783 21.3634 17.8447 21.3961 17.7774 21.3915C17.732 21.3894 17.7014 21.344 17.6862 21.2552C17.6429 20.9955 17.5053 20.7409 17.2732 20.4918C16.9459 20.1412 16.5505 19.9658 16.0862 19.9658C15.6441 19.9658 15.2905 20.1397 15.0247 20.4876C14.7593 20.8352 14.6265 21.2985 14.6265 21.877C14.6265 22.4967 14.7632 23.0182 15.0371 23.4418C15.3108 23.8652 15.648 24.0773 16.0483 24.0773C16.1677 24.0773 16.3193 24.0509 16.5029 23.9979C16.6871 23.9449 16.8265 23.887 16.922 23.8243C17.0083 23.7679 17.0686 23.6861 17.1023 23.5776C17.1356 23.4697 17.1526 23.3021 17.1526 23.0752C17.1526 22.8155 17.1056 22.6358 17.0126 22.5352C16.9193 22.4349 16.7444 22.3779 16.4883 22.3649C16.4211 22.3603 16.3874 22.3285 16.3874 22.2688C16.3874 22.2091 16.4265 22.1794 16.5047 22.1794C16.5286 22.1794 16.5668 22.1815 16.6189 22.1858C16.832 22.2055 17.0732 22.2152 17.3429 22.2152C17.6211 22.2152 17.8253 22.2076 17.9559 22.1925C18.0538 22.1794 18.1353 22.1728 18.2005 22.1728C18.2786 22.1728 18.3177 22.2015 18.3177 22.2591C18.3177 22.3118 18.2786 22.3464 18.2005 22.3615C18.0747 22.3876 17.9877 22.4549 17.9402 22.5628C17.8923 22.6712 17.8686 22.8543 17.8686 23.1118C17.8686 23.1921 17.8717 23.2637 17.8783 23.3264C17.8868 23.4346 17.8914 23.5103 17.8914 23.5537C17.8914 23.6209 17.8777 23.67 17.8508 23.7012C17.8235 23.7328 17.7686 23.7637 17.6862 23.794C17.6362 23.8115 17.4638 23.884 17.1686 24.0121C16.6499 24.2355 16.1974 24.3473 15.8114 24.3473C15.2253 24.3473 14.7462 24.1488 14.3741 23.7515C14.0017 23.3546 13.8159 22.8412 13.8159 22.2118C13.8159 21.5088 14.0308 20.9191 14.4605 20.4425C14.8902 19.9664 15.4229 19.7282 16.0589 19.7282" fill="white"/>
<path fill-rule="evenodd" clip-rule="evenodd" d="M21.033 23.2476L21.0591 23.5728C21.0851 23.74 21.1485 23.8679 21.2497 23.9567C21.3506 24.0458 21.4824 24.0903 21.6451 24.0903C21.7512 24.0903 21.8045 24.1234 21.8045 24.1897C21.8045 24.2537 21.7339 24.2855 21.593 24.2855C21.5321 24.2855 21.4451 24.2797 21.3324 24.2682C21.0503 24.2364 20.8215 24.2203 20.6457 24.2203C20.4288 24.2203 20.2572 24.2316 20.1315 24.2543C20.0227 24.2752 19.9445 24.2855 19.8969 24.2855C19.8491 24.2855 19.8188 24.2622 19.8057 24.2161L19.7994 24.1894L19.8936 24.1131C20.05 24.0567 20.1536 23.9879 20.2045 23.9067C20.2554 23.8252 20.2812 23.6903 20.2812 23.5019L20.2842 23.2128V20.6225C20.2842 20.4231 20.2497 20.2813 20.1803 20.1967C20.1106 20.1125 19.9836 20.0558 19.7994 20.0276C19.6888 20.0103 19.6175 19.9931 19.586 19.9764C19.5545 19.96 19.5391 19.9319 19.5391 19.8922C19.5391 19.8306 19.5648 19.8009 19.6169 19.8031C19.656 19.8052 19.7148 19.814 19.7927 19.8291C19.8709 19.8467 20.0021 19.8552 20.1866 19.8552C20.3082 19.8552 20.4591 19.8479 20.6391 19.8337L20.8769 19.8149C21.1003 19.7982 21.2718 19.79 21.3912 19.79C21.4627 19.79 21.4985 19.8167 21.4985 19.8697C21.4985 19.9094 21.493 19.9361 21.4824 19.9488C21.4712 19.9622 21.4442 19.9725 21.4009 19.9788C21.2445 20.0049 21.1442 20.0482 21.0997 20.1091C21.0551 20.1697 21.033 20.2934 21.033 20.4797V23.2476" fill="white"/>
<path fill-rule="evenodd" clip-rule="evenodd" d="M24.769 20.5485L26.4905 22.4821L26.6011 22.6058C26.7481 22.7706 26.8469 22.8531 26.8966 22.8531C26.942 22.8531 26.9669 22.7873 26.9711 22.6549C26.9908 22.1758 27.0005 21.7194 27.0005 21.2861C27.0005 20.7767 26.949 20.4318 26.846 20.2518C26.7426 20.0721 26.5405 19.9712 26.2387 19.9494C26.1672 19.9452 26.1314 19.9197 26.1314 19.8731C26.1314 19.8155 26.163 19.7867 26.226 19.7867C26.3042 19.7867 26.4305 19.7976 26.6042 19.8194C26.7175 19.8324 26.8108 19.8388 26.8848 19.8388C27.0348 19.8388 27.273 19.8182 27.599 19.777C27.6426 19.7724 27.6742 19.7706 27.6939 19.7706C27.7633 19.7706 27.7981 19.8015 27.7981 19.8631C27.7981 19.9185 27.7633 19.9515 27.6939 19.9624C27.4139 20.0146 27.2739 20.2631 27.2739 20.7073V20.867L27.2278 22.8997L27.2148 23.1797L27.2114 23.5406L27.2148 23.7876L27.2278 24.1943C27.2278 24.2549 27.206 24.2843 27.162 24.2821C27.123 24.28 27.083 24.2561 27.0417 24.2106L24.0802 20.9197C24.0284 20.8631 23.9926 20.8349 23.973 20.8349C23.9211 20.8349 23.8951 20.8837 23.8951 20.9812L23.8917 21.0755V22.3373C23.8917 23.0115 23.9254 23.4624 23.9926 23.69C24.0645 23.9331 24.276 24.0706 24.6275 24.1031C24.6926 24.11 24.7251 24.1376 24.7251 24.1861C24.7251 24.2524 24.6914 24.2855 24.6242 24.2855C24.5978 24.2855 24.5557 24.2809 24.4969 24.2724C24.3142 24.2418 24.112 24.227 23.8902 24.227C23.6705 24.227 23.4748 24.2421 23.303 24.2734C23.2269 24.2858 23.1714 24.2921 23.1366 24.2921C23.0781 24.2921 23.0487 24.2655 23.0487 24.2124C23.0487 24.1679 23.0802 24.1373 23.1433 24.1194C23.3014 24.074 23.4169 23.9803 23.4899 23.8385C23.5623 23.697 23.5987 23.4928 23.5987 23.2264L23.6217 22.4534V21.0443C23.6217 20.3773 23.3754 20.0264 22.8826 19.9918C22.8157 19.9873 22.7817 19.96 22.7817 19.9091C22.7817 19.8473 22.8187 19.8161 22.8926 19.8161L23.1181 19.8258L23.2551 19.8224C23.4248 19.8224 23.6066 19.8128 23.8002 19.7934C23.872 19.7867 23.9317 19.7837 23.9796 19.7837C24.0469 19.7837 24.0999 19.7979 24.139 19.8276C24.1778 19.8567 24.2602 19.9464 24.3857 20.0961L24.6099 20.3597C24.6987 20.464 24.7517 20.527 24.769 20.5485" fill="white"/>
<path fill-rule="evenodd" clip-rule="evenodd" d="M30.2467 24.243L29.6379 24.2627C29.4688 24.2627 29.3448 24.2758 29.267 24.3018C29.2321 24.3127 29.2061 24.3179 29.1888 24.3179C29.1409 24.3179 29.1191 24.2973 29.1236 24.2561C29.1258 24.243 29.1355 24.2246 29.153 24.2009C29.1942 24.1488 29.2506 24.0521 29.3224 23.9109L29.7788 23.0736L30.4115 21.8942C30.7852 21.1973 31.0124 20.7303 31.0927 20.4933L31.1712 20.2652C31.1776 20.2415 31.1809 20.2242 31.1809 20.2133C31.1764 20.157 31.1015 20.1285 30.9558 20.1285L30.3982 20.1091L30.1994 20.1285C29.7276 20.1939 29.4633 20.4261 29.407 20.8249C29.4003 20.8773 29.3742 20.9033 29.3288 20.9033C29.2721 20.9033 29.2439 20.8306 29.2439 20.6852C29.2439 20.62 29.2539 20.5388 29.2733 20.4412C29.2906 20.3585 29.2994 20.2849 29.2994 20.2197L29.2961 20.0049L29.3124 19.9203C29.3209 19.8552 29.3491 19.8224 29.397 19.8224C29.423 19.8224 29.4524 19.8246 29.4848 19.8291C29.5958 19.8442 29.9524 19.8518 30.5558 19.8518C30.7773 19.8518 30.9661 19.8442 31.1224 19.8291L31.643 19.7803C31.8536 19.7606 32.0109 19.7509 32.1151 19.7509C32.2279 19.7509 32.2845 19.7815 32.2845 19.8421C32.2845 19.8812 32.2518 19.9552 32.1867 20.0636C32.0342 20.32 31.803 20.7555 31.4921 21.37L31.0912 22.1518L30.6639 22.9858C30.5055 23.2921 30.413 23.4721 30.387 23.5267C30.313 23.6788 30.2609 23.7806 30.2303 23.833C30.2151 23.8591 30.2076 23.8818 30.2076 23.9012C30.2055 23.9555 30.2642 23.9827 30.3836 23.9827L30.7912 23.9924L31.0912 23.9564C31.6106 23.8758 32.0039 23.6418 32.2715 23.2539C32.3212 23.18 32.3561 23.1439 32.3755 23.1461C32.4082 23.1482 32.4242 23.1839 32.4242 23.2536C32.4242 23.5509 32.337 23.8036 32.1624 24.0121C31.9876 24.2203 31.7755 24.3246 31.5261 24.3246C31.4673 24.3246 31.4097 24.3212 31.3533 24.3149L30.9564 24.2758C30.7197 24.2542 30.483 24.243 30.2467 24.243" fill="white"/>
<path fill-rule="evenodd" clip-rule="evenodd" d="M36.0825 22.2088L35.6574 21.2155C35.5556 20.9776 35.4831 20.8585 35.4398 20.8585C35.4138 20.8585 35.3662 20.9352 35.2968 21.0891L35.2353 21.2252L34.8553 22.0925L34.8195 22.1734C34.8044 22.2061 34.7968 22.2343 34.7968 22.2579C34.7968 22.3315 34.8747 22.3682 35.0307 22.3682H35.9916C36.0738 22.3682 36.115 22.3455 36.115 22.3C36.115 22.2891 36.1095 22.2709 36.0986 22.2449L36.0825 22.2088ZM35.9604 20.174L37.4416 23.5731C37.5153 23.7443 37.6019 23.8725 37.7019 23.957C37.8016 24.0412 37.9307 24.0979 38.0892 24.1261C38.1283 24.1328 38.148 24.1637 38.148 24.2188C38.148 24.2785 38.1228 24.307 38.0728 24.3049C38.0447 24.3031 38.0035 24.2964 37.9489 24.2855C37.7816 24.2485 37.5122 24.23 37.1404 24.23C36.7665 24.23 36.5122 24.2473 36.3774 24.2815C36.3447 24.2909 36.3165 24.2952 36.2925 24.2952C36.2316 24.2952 36.2013 24.2643 36.2013 24.2025C36.2013 24.1712 36.225 24.1479 36.2728 24.1325C36.3771 24.1021 36.4635 24.0479 36.5316 23.9697C36.6001 23.8915 36.6344 23.8091 36.6344 23.7225C36.6344 23.6006 36.5401 23.3337 36.3519 22.9215C36.2935 22.7958 36.2292 22.7237 36.1586 22.7052C36.0883 22.6867 35.8389 22.6773 35.4104 22.6773H34.9689L34.6768 22.7294C34.5965 22.7661 34.5059 22.9091 34.4041 23.1579L34.3035 23.4082C34.2731 23.4797 34.258 23.5521 34.258 23.6258C34.258 23.8988 34.4489 24.0567 34.8307 24.1C34.9131 24.1109 34.9535 24.1431 34.9513 24.1961C34.9468 24.2537 34.9077 24.2821 34.8338 24.2821C34.7947 24.2821 34.7392 24.2758 34.6674 24.2628C34.5241 24.2346 34.3956 24.2203 34.2825 24.2203C34.1804 24.2203 34.015 24.2312 33.7868 24.2531C33.6171 24.2703 33.5116 24.2791 33.4704 24.2791C33.4095 24.2791 33.3789 24.2525 33.3789 24.1994C33.3789 24.1552 33.4095 24.1221 33.4701 24.1C33.5874 24.0634 33.681 23.9955 33.7516 23.897C33.8222 23.7985 33.9268 23.5909 34.0659 23.2743L34.9547 21.2267C35.0262 21.0643 35.0759 20.9528 35.1044 20.8921L35.4071 20.2712L35.5631 19.9658V19.9755C35.6325 19.8106 35.6792 19.7282 35.7031 19.7282C35.738 19.7282 35.7977 19.8194 35.8822 20.0015L35.9604 20.174V20.174Z" fill="white"/>
<path fill-rule="evenodd" clip-rule="evenodd" d="M13.8838 29.2137H12.3411C12.1868 29.2137 12.092 29.2337 12.0562 29.2737C12.0205 29.314 12.0023 29.4194 12.0023 29.5906V30.4C12.0023 30.7073 12.0523 30.9291 12.152 31.0646C12.252 31.1997 12.4159 31.2676 12.6438 31.2676C12.7174 31.2676 12.7544 31.2964 12.7544 31.3537C12.7544 31.4222 12.6977 31.4564 12.585 31.4564C12.5459 31.4564 12.4689 31.45 12.3538 31.437C12.0977 31.4064 11.8626 31.3912 11.6477 31.3912C11.5129 31.3912 11.3338 31.4031 11.1105 31.427C10.978 31.4422 10.8944 31.45 10.8599 31.45C10.7902 31.45 10.7556 31.4137 10.7556 31.3406C10.7556 31.2943 10.7829 31.2676 10.8371 31.2612C10.9847 31.2373 11.0905 31.17 11.1544 31.0597C11.2183 30.9488 11.2505 30.7809 11.2505 30.5552L11.2538 30.3794V27.667C11.2538 27.5088 11.2108 27.3922 11.125 27.3173C11.0393 27.2425 10.8805 27.1825 10.6483 27.1367C10.5874 27.1234 10.5571 27.0915 10.5571 27.0406C10.5571 26.9767 10.5917 26.9446 10.6614 26.9446C10.7005 26.9446 10.772 26.9528 10.8762 26.9688C11.052 26.9961 11.258 27.0097 11.4947 27.0097C11.5747 27.0097 11.7462 26.9955 12.0089 26.9676C12.1653 26.9525 12.2835 26.9446 12.3638 26.9446C12.442 26.9446 12.4811 26.9746 12.4811 27.034C12.4811 27.0828 12.4496 27.1128 12.3865 27.1237C12.1305 27.167 12.0023 27.3285 12.0023 27.6079V28.4431C12.0023 28.6637 12.018 28.7934 12.0496 28.8312C12.0811 28.8691 12.1856 28.8882 12.3638 28.8882H13.8838C14.0162 28.8882 14.0971 28.8615 14.1265 28.8085C14.1556 28.7552 14.1705 28.6082 14.1705 28.3673V27.6673C14.1705 27.3894 14.0174 27.2225 13.7114 27.1661L13.5617 27.1367C13.5008 27.1258 13.4705 27.094 13.4705 27.0406C13.4705 26.9767 13.505 26.9446 13.5747 26.9446C13.6138 26.9446 13.6853 26.9528 13.7896 26.9688C13.9674 26.9961 14.1747 27.0097 14.4114 27.0097C14.4938 27.0097 14.6653 26.9955 14.9256 26.9676C15.082 26.9525 15.2002 26.9446 15.2805 26.9446C15.3586 26.9446 15.3977 26.9746 15.3977 27.034C15.3977 27.0828 15.3662 27.1128 15.3032 27.1237C15.0471 27.167 14.9189 27.3285 14.9189 27.6079V30.4C14.9189 30.7073 14.9683 30.9291 15.0671 31.0646C15.1659 31.1997 15.3271 31.2676 15.5505 31.2676C15.6308 31.2676 15.6711 31.2964 15.6711 31.3537C15.6711 31.4222 15.6144 31.4564 15.5017 31.4564C15.4626 31.4564 15.3865 31.45 15.2738 31.437C15.0156 31.4064 14.7802 31.3912 14.5674 31.3912C14.4308 31.3912 14.2505 31.4031 14.0271 31.427C13.8947 31.4422 13.8111 31.45 13.7765 31.45C13.7068 31.45 13.6723 31.4137 13.6723 31.3406C13.6723 31.2943 13.6996 31.2676 13.7538 31.2612C13.9014 31.2373 14.0071 31.1703 14.0711 31.0597C14.135 30.9491 14.1671 30.7812 14.1671 30.5558L14.1705 30.3803V29.6655C14.1705 29.4531 14.1562 29.3246 14.128 29.28C14.0999 29.2358 14.0183 29.2137 13.8838 29.2137" fill="white"/>
<path fill-rule="evenodd" clip-rule="evenodd" d="M19.148 27.1367C18.712 27.1367 18.3714 27.2982 18.1259 27.6219C17.8808 27.9452 17.758 28.3955 17.758 28.9728C17.758 29.6543 17.9123 30.2082 18.2205 30.6343C18.5283 31.0609 18.929 31.2743 19.4217 31.2743C19.8665 31.2743 20.2223 31.0979 20.4893 30.7449C20.7562 30.3925 20.8896 29.9212 20.8896 29.3306C20.8896 28.99 20.8277 28.6576 20.7041 28.3331C20.5805 28.0085 20.4156 27.7509 20.2093 27.56C19.9099 27.2779 19.5562 27.1367 19.148 27.1367ZM19.3826 26.8928C20.0596 26.8928 20.6065 27.0897 21.0232 27.484C21.4399 27.8782 21.648 28.3955 21.648 29.0361C21.648 29.7334 21.4332 30.324 21.0035 30.8079C20.5847 31.2815 20.0074 31.5182 19.272 31.5182C18.5686 31.5182 18.0065 31.3128 17.5856 30.9009C17.1644 30.4894 16.9541 29.9394 16.9541 29.2512C16.9541 28.9558 17.0074 28.6619 17.1138 28.37C17.2199 28.0779 17.3644 27.8331 17.5465 27.6355C17.7571 27.4031 18.0244 27.2212 18.349 27.0897C18.6735 26.9582 19.018 26.8928 19.3826 26.8928V26.8928Z" fill="white"/>
<path fill-rule="evenodd" clip-rule="evenodd" d="M25.4702 27.7648V30.2161C25.4702 30.5827 25.5233 30.8427 25.6299 30.9961C25.736 31.1485 25.9239 31.2339 26.193 31.2512C26.2712 31.2579 26.3102 31.2967 26.3102 31.3673C26.3102 31.4179 26.2763 31.4433 26.2093 31.4433C26.1939 31.4433 26.1669 31.4421 26.1278 31.44L25.8839 31.4303L25.4769 31.4042C25.4442 31.4021 25.4008 31.4012 25.3466 31.4012C25.2205 31.4012 25.1078 31.4042 25.0081 31.4109L24.2887 31.453C24.2127 31.4618 24.1605 31.4661 24.1324 31.4661C24.0651 31.4661 24.0327 31.4376 24.0348 31.3803C24.0369 31.3318 24.0478 31.3006 24.0672 31.2861C24.0869 31.2718 24.129 31.2621 24.1942 31.2579C24.3636 31.247 24.4942 31.1858 24.5866 31.0739C24.6787 30.9621 24.7248 30.8097 24.7248 30.6167L24.7218 30.4636V27.573C24.7218 27.4015 24.6293 27.3158 24.4448 27.3158C24.0108 27.3158 23.7145 27.3476 23.5563 27.4106C23.4412 27.4585 23.3645 27.5121 23.3266 27.5724C23.2887 27.6321 23.2372 27.7806 23.1721 28.0179L23.146 28.1094C23.1221 28.1988 23.0854 28.2436 23.0354 28.2436C22.9639 28.2436 22.9299 28.2097 22.9345 28.1427C22.9366 28.0818 22.9475 27.9973 22.9672 27.8888L22.9996 27.6055L23.0387 27.3158L23.0615 27.1173C23.0699 27.0324 23.1157 26.9903 23.1981 26.9903C23.2199 26.9903 23.2569 26.9924 23.3087 26.9967C23.3936 27.0033 23.5139 27.0067 23.6702 27.0067L24.3342 27.013L25.1254 27.0227C25.6351 27.0227 26.1754 27.0085 26.7463 26.9806C26.859 26.9761 26.9321 26.9739 26.9645 26.9739C27.0836 26.9739 27.1466 27.0239 27.1533 27.1236L27.1696 27.3582C27.1718 27.3952 27.1827 27.483 27.2021 27.6218C27.2172 27.737 27.2248 27.8288 27.2248 27.8985C27.2248 27.97 27.1957 28.0058 27.1369 28.0058C27.0869 28.0058 27.0524 27.9645 27.033 27.8815C26.9872 27.6788 26.8996 27.5327 26.7708 27.4433C26.6418 27.3539 26.4545 27.3094 26.2093 27.3094C25.8793 27.3094 25.6739 27.3348 25.5924 27.3858C25.5108 27.4367 25.4702 27.563 25.4702 27.7648" fill="white"/>
<path fill-rule="evenodd" clip-rule="evenodd" d="M29.761 27.7291V28.4355C29.761 28.6373 29.7758 28.7655 29.8049 28.8197C29.8343 28.874 29.9052 28.9009 30.0183 28.9009L30.1158 28.8979L30.2592 28.8946H30.5358C30.7507 28.8946 30.9167 28.7761 31.034 28.5397L31.1089 28.3803C31.1283 28.3412 31.161 28.3203 31.2064 28.3185C31.254 28.3164 31.278 28.3455 31.278 28.4067C31.278 28.4237 31.2749 28.4715 31.2683 28.55C31.2637 28.6067 31.2619 28.6543 31.2619 28.6937C31.2619 28.7631 31.2716 28.9261 31.291 29.1828C31.304 29.3503 31.3107 29.4958 31.3107 29.62L31.3137 29.7861C31.3137 29.8167 31.3107 29.8373 31.304 29.8482C31.2952 29.8612 31.278 29.8691 31.2519 29.8712C31.1977 29.8755 31.164 29.8343 31.151 29.7473C31.1228 29.5631 31.0577 29.4231 30.9558 29.3276C30.8992 29.2755 30.8304 29.2418 30.7492 29.2267C30.6677 29.2115 30.5152 29.204 30.2916 29.204H30.0704C29.9661 29.204 29.8949 29.2194 29.857 29.2509C29.8192 29.2825 29.7937 29.3458 29.7807 29.4412C29.7677 29.5494 29.761 29.7206 29.761 29.9546V30.247C29.761 30.5525 29.7849 30.7725 29.8328 30.9067C29.8695 31.0043 29.9128 31.0703 29.9628 31.1049C30.0128 31.1397 30.0898 31.157 30.194 31.157C31.0749 31.157 31.6513 30.8888 31.9225 30.3528C31.9377 30.327 31.9507 30.3128 31.9616 30.3106C31.9831 30.3061 32.0034 30.3134 32.0219 30.3318C32.0401 30.3503 32.0495 30.3737 32.0495 30.4021C32.0495 30.6155 31.9919 30.8218 31.877 31.0221C31.7813 31.1918 31.6622 31.3131 31.5189 31.3861C31.3758 31.4591 31.1858 31.4955 30.9492 31.4955C30.8104 31.4955 30.6564 31.487 30.487 31.4694L30.1095 31.4337C29.9704 31.4206 29.7828 31.4143 29.5461 31.4143C29.3877 31.4143 29.1467 31.424 28.8237 31.4434C28.7346 31.45 28.6707 31.4531 28.6316 31.4531C28.5795 31.4531 28.5513 31.4288 28.547 31.38C28.5446 31.34 28.5686 31.3103 28.6186 31.2903C28.7422 31.2428 28.8261 31.1925 28.8707 31.1391C28.9152 31.0861 28.9507 30.9915 28.9767 30.8549C29.0004 30.74 29.0125 30.584 29.0125 30.387V27.8094C29.0125 27.5667 28.9728 27.4021 28.8937 27.3155C28.8143 27.2288 28.6498 27.1682 28.4004 27.1334C28.3419 27.1246 28.3125 27.0928 28.3125 27.0373C28.3125 26.9864 28.3483 26.9609 28.4201 26.9609C28.4349 26.9609 28.4677 26.9631 28.5177 26.9676C28.5567 26.9694 28.6098 26.9706 28.677 26.9706L29.0058 26.9837L30.2398 26.9967C30.9492 26.9967 31.3864 26.987 31.5516 26.9676C31.5689 26.9655 31.584 26.9643 31.597 26.9643C31.6598 26.9643 31.6913 27 31.6913 27.0715C31.6913 27.1215 31.698 27.2103 31.711 27.3385C31.7283 27.5273 31.737 27.6631 31.737 27.7455C31.737 27.9103 31.6946 27.9949 31.6101 27.9994C31.5689 28.0015 31.5483 27.9537 31.5483 27.8555C31.5483 27.6397 31.4695 27.4834 31.3122 27.3864C31.1546 27.2894 30.9004 27.2409 30.5489 27.2409H30.1516L29.9304 27.267C29.8198 27.3015 29.7643 27.4112 29.7643 27.5958L29.761 27.7291" fill="white"/>
<path fill-rule="evenodd" clip-rule="evenodd" d="M34.6901 30.4128C34.6901 30.8179 34.7388 31.0455 34.8361 31.0952C34.8904 31.1231 34.9964 31.1373 35.1543 31.1373C35.8898 31.1373 36.411 30.9212 36.7182 30.4888C36.8128 30.357 36.8722 30.2909 36.8964 30.2909C36.9361 30.2909 36.9558 30.3355 36.9558 30.4246C36.9558 30.7 36.8658 30.9464 36.6855 31.1634C36.5273 31.3543 36.3113 31.45 36.0379 31.45C35.9813 31.45 35.8782 31.4446 35.7285 31.4337C35.6895 31.4315 35.5595 31.424 35.3379 31.4109L34.9831 31.3946C34.8637 31.3882 34.7279 31.3849 34.5764 31.3849C34.3243 31.3849 34.0531 31.4015 33.7625 31.4346C33.6734 31.4446 33.6137 31.45 33.5834 31.45C33.5204 31.45 33.4892 31.4212 33.4892 31.3637C33.4892 31.324 33.517 31.2961 33.5737 31.2806C33.7125 31.2415 33.8085 31.1664 33.8619 31.0549C33.9149 30.9437 33.9416 30.7609 33.9416 30.5076V27.7928C33.9416 27.4467 33.797 27.2503 33.5085 27.2052L33.3134 27.1725C33.2307 27.1591 33.1895 27.1264 33.1895 27.0731C33.1895 27.007 33.2222 26.974 33.2873 26.974C33.3092 26.974 33.3407 26.9773 33.3819 26.9837C33.4125 26.9858 33.4546 26.9903 33.5092 26.9967L33.6492 27.0067C33.7819 27.0194 33.881 27.0261 33.9461 27.0261C34.0504 27.0261 34.2167 27.0131 34.4449 26.987C34.6143 26.9694 34.7873 26.9609 34.9634 26.9609C35.0937 26.9609 35.1588 26.9921 35.1588 27.054C35.1588 27.107 35.1122 27.1355 35.0188 27.14C34.7998 27.1552 34.6901 27.3058 34.6901 27.5918V30.4128" fill="white"/>
<path fill-rule="evenodd" clip-rule="evenodd" d="M39.3913 26.8991C39.5952 26.8991 39.7949 26.9382 39.9901 27.0164L40.2082 27.1076C40.3058 27.1464 40.3752 27.1661 40.4164 27.1661C40.447 27.1661 40.4785 27.1585 40.511 27.1434L40.6349 27.0815C40.6522 27.0727 40.6698 27.0685 40.687 27.0685C40.7328 27.0685 40.7555 27.1043 40.7555 27.1758L40.7492 27.4394C40.7492 27.4806 40.751 27.5197 40.7555 27.5567L40.7979 27.8758L40.8304 28.1718C40.8346 28.1979 40.837 28.2194 40.837 28.237C40.837 28.3303 40.8098 28.377 40.7555 28.377C40.7164 28.377 40.6882 28.3358 40.671 28.2537C40.6079 27.9506 40.4492 27.6888 40.1949 27.4679C39.9407 27.247 39.671 27.1367 39.3864 27.1367C39.1907 27.1367 39.0201 27.2027 38.8743 27.3346C38.7289 27.4664 38.6558 27.6221 38.6558 27.8015C38.6558 27.9679 38.7201 28.1118 38.8482 28.2327C38.931 28.3106 39.1882 28.4376 39.621 28.6134C40.1358 28.824 40.477 29.03 40.6443 29.2321C40.8422 29.4752 40.941 29.7685 40.941 30.1115C40.941 30.4894 40.8043 30.8182 40.531 31.0979C40.2576 31.3782 39.9373 31.5182 39.5707 31.5182C39.421 31.5182 39.1834 31.4673 38.8576 31.3652C38.7058 31.3152 38.594 31.2827 38.5225 31.2676C38.4225 31.2482 38.3646 31.2291 38.3482 31.2109C38.3322 31.1921 38.3185 31.1361 38.3076 31.043C38.2967 30.9409 38.264 30.7937 38.2101 30.6003C38.1273 30.3052 38.0864 30.1164 38.0864 30.034C38.0864 29.9297 38.1198 29.8776 38.1873 29.8776C38.2176 29.8776 38.2392 29.9037 38.2522 29.9555C38.3589 30.3279 38.5434 30.6409 38.8064 30.8943C39.0695 31.1476 39.3422 31.2743 39.6249 31.2743C39.8443 31.2743 40.0404 31.1903 40.2131 31.0224C40.3858 30.8549 40.4725 30.6627 40.4725 30.4464C40.4725 30.2758 40.4273 30.1349 40.337 30.0246C40.2467 29.9143 40.091 29.8103 39.8692 29.7127L39.3737 29.4918C38.9067 29.2834 38.5892 29.0864 38.4219 28.9006C38.2546 28.7149 38.171 28.4679 38.171 28.1597C38.171 27.8015 38.2876 27.5015 38.5207 27.2606C38.754 27.0194 39.0443 26.8991 39.3913 26.8991" fill="white"/>
<path fill-rule="evenodd" clip-rule="evenodd" d="M11.9776 37.3425C12.1152 37.3425 12.2388 37.3173 12.3482 37.267C12.4576 37.2167 12.5539 37.1494 12.6376 37.0661L11.8576 36.2788C11.7276 36.3488 11.6294 36.4328 11.5636 36.5303C11.4979 36.6282 11.4648 36.7349 11.4648 36.8503C11.4648 36.9303 11.4797 37.0006 11.5091 37.0612C11.5388 37.1221 11.5776 37.1734 11.6255 37.2152C11.6733 37.2573 11.7282 37.2888 11.7894 37.3103C11.8509 37.3318 11.9136 37.3425 11.9776 37.3425ZM12.197 34.9091C12.2939 34.9091 12.3824 34.9246 12.4624 34.9561C12.5424 34.9873 12.6112 35.0288 12.6688 35.0803C12.7267 35.1321 12.7724 35.1918 12.8064 35.2603C12.84 35.3282 12.8594 35.3994 12.8642 35.4731L12.6597 35.5137C12.6191 35.5237 12.5888 35.5046 12.5694 35.4564C12.5606 35.4246 12.547 35.3915 12.5279 35.357C12.5088 35.3228 12.4842 35.2912 12.4542 35.2631C12.4239 35.2349 12.3876 35.2115 12.3455 35.1928C12.303 35.1746 12.2536 35.1652 12.197 35.1652C12.1355 35.1652 12.0797 35.1752 12.03 35.1949C11.9803 35.2146 11.9379 35.2415 11.9027 35.277C11.8679 35.3118 11.8412 35.3531 11.8227 35.4003C11.8042 35.4476 11.7948 35.4988 11.7948 35.5543C11.7948 35.5973 11.8 35.6385 11.8097 35.6779C11.8197 35.7173 11.8352 35.7573 11.8567 35.7976C11.8782 35.8382 11.9055 35.8794 11.9388 35.9212C11.9721 35.9628 12.0118 36.0073 12.0585 36.054L12.8182 36.8264C12.8648 36.7428 12.9021 36.6561 12.9297 36.5664C12.9573 36.4767 12.9761 36.3864 12.9861 36.2955C12.9885 36.2721 12.9958 36.2537 13.0082 36.24C13.0203 36.2264 13.0376 36.2197 13.0597 36.2197H13.2606C13.2594 36.3612 13.237 36.4997 13.1933 36.6355C13.1497 36.7712 13.0879 36.8988 13.0082 37.0182L13.5612 37.5803H13.2421C13.2067 37.5803 13.1776 37.5758 13.1555 37.5673C13.1333 37.5588 13.1094 37.5409 13.0836 37.514L12.8164 37.2467C12.7006 37.3585 12.5679 37.447 12.4173 37.5121C12.2667 37.5773 12.1009 37.61 11.9203 37.61C11.8221 37.61 11.7258 37.5934 11.6318 37.56C11.5379 37.5267 11.4533 37.4785 11.3785 37.4152C11.3033 37.3521 11.2433 37.2749 11.1976 37.1843C11.1521 37.0931 11.1294 36.9903 11.1294 36.8761C11.1294 36.7903 11.1439 36.7085 11.1727 36.6318C11.2015 36.5549 11.2415 36.484 11.2927 36.4188C11.3436 36.3537 11.4045 36.2955 11.4752 36.2437C11.5458 36.1921 11.6227 36.1479 11.7064 36.1112C11.6303 36.0164 11.5745 35.9243 11.5397 35.8343C11.5045 35.7449 11.4873 35.6521 11.4873 35.5561C11.4873 35.4664 11.5033 35.3821 11.5361 35.3034C11.5685 35.2249 11.6158 35.1564 11.677 35.0979C11.7385 35.0394 11.813 34.9934 11.9009 34.9597C11.9888 34.9258 12.0876 34.9091 12.197 34.9091V34.9091Z" fill="white"/>
<path fill-rule="evenodd" clip-rule="evenodd" d="M15.6094 36.5997H16.5958L16.1809 35.5248C16.1676 35.4927 16.1543 35.4557 16.1412 35.4142C16.1285 35.3724 16.1152 35.3276 16.1019 35.2794C16.0894 35.3276 16.077 35.3727 16.064 35.4151C16.0509 35.4573 16.0379 35.4945 16.0243 35.5267L15.6094 36.5997ZM17.3406 37.5803H17.064C17.0322 37.5803 17.0064 37.5724 16.9867 37.5564C16.967 37.5403 16.9522 37.5203 16.9425 37.4954L16.6955 36.8576H15.51L15.2631 37.4954C15.2555 37.5176 15.2412 37.5376 15.2206 37.5545C15.1997 37.5718 15.1737 37.5803 15.1431 37.5803H14.8667L15.9228 34.9385H16.2843L17.3406 37.5803V37.5803Z" fill="white"/>
<path fill-rule="evenodd" clip-rule="evenodd" d="M18.2662 36.3082H18.6902C18.7923 36.3082 18.882 36.2948 18.9602 36.2676C19.0383 36.2406 19.1041 36.2027 19.1574 36.1542C19.2111 36.1057 19.2511 36.0479 19.2783 35.98C19.3053 35.9124 19.3186 35.8382 19.3186 35.7573C19.3186 35.5888 19.2668 35.457 19.1632 35.3624C19.0592 35.2679 18.9017 35.2206 18.6902 35.2206H18.2662V36.3082ZM18.2662 36.5921V37.5803H17.9102V34.9385H18.6902C18.8574 34.9385 19.0026 34.9579 19.1262 34.9967C19.2496 35.0354 19.352 35.0903 19.4332 35.1615C19.5141 35.2327 19.5747 35.3188 19.6147 35.4197C19.6547 35.5203 19.6747 35.6327 19.6747 35.7573C19.6747 35.88 19.6532 35.9924 19.6102 36.0945C19.5671 36.1964 19.5041 36.2842 19.4211 36.3582C19.338 36.4318 19.2356 36.4894 19.1132 36.5303C18.9911 36.5715 18.8499 36.5921 18.6902 36.5921H18.2662V36.5921Z" fill="white"/>
<path fill-rule="evenodd" clip-rule="evenodd" d="M20.578 36.5997H21.5644L21.1495 35.5248C21.1359 35.4927 21.1228 35.4557 21.1098 35.4142C21.0968 35.3724 21.0837 35.3276 21.0701 35.2794C21.058 35.3276 21.0453 35.3727 21.0322 35.4151C21.0195 35.4573 21.0062 35.4945 20.9925 35.5267L20.578 36.5997ZM22.3092 37.5803H22.0325C22.0004 37.5803 21.9747 37.5724 21.9553 37.5564C21.9356 37.5403 21.9207 37.5203 21.9107 37.4954L21.6637 36.8576H20.4783L20.2313 37.4954C20.2241 37.5176 20.2098 37.5376 20.1889 37.5545C20.168 37.5718 20.1422 37.5803 20.1116 37.5803H19.835L20.8913 34.9385H21.2525L22.3092 37.5803V37.5803Z" fill="white"/>
<path fill-rule="evenodd" clip-rule="evenodd" d="M23.2347 36.2179H23.6107C23.7138 36.2179 23.8053 36.2054 23.8844 36.18C23.9638 36.1548 24.0301 36.1194 24.0835 36.0733C24.1371 36.027 24.1774 35.9721 24.2044 35.9082C24.2313 35.8445 24.245 35.7736 24.245 35.6961C24.245 35.5388 24.1931 35.4203 24.0901 35.3406C23.9868 35.2606 23.8319 35.2206 23.6253 35.2206H23.2347V36.2179ZM23.2347 36.4779V37.5803H22.8789V34.9385H23.6253C23.7925 34.9385 23.9371 34.9554 24.0586 34.9891C24.1804 35.023 24.2807 35.0718 24.3601 35.1357C24.4392 35.1997 24.498 35.277 24.5362 35.367C24.5744 35.4573 24.5935 35.5585 24.5935 35.6703C24.5935 35.7639 24.5786 35.8509 24.5492 35.9321C24.5195 36.0133 24.4768 36.0861 24.421 36.1506C24.365 36.2151 24.2968 36.2706 24.2165 36.3164C24.1359 36.3627 24.0447 36.3967 23.9425 36.4188C23.9892 36.4485 24.0286 36.4861 24.0604 36.5312L24.831 37.5803H24.5141C24.4489 37.5803 24.401 37.5551 24.3701 37.5048L23.6844 36.5609C23.6635 36.5312 23.641 36.5103 23.6171 36.4973C23.5931 36.4842 23.5559 36.4779 23.5056 36.4779H23.2347V36.4779Z" fill="white"/>
<path fill-rule="evenodd" clip-rule="evenodd" d="M27.11 34.9385V35.2391H26.2545V37.5803H25.8988V35.2391H25.0415V34.9385H27.11" fill="white"/>
<path fill-rule="evenodd" clip-rule="evenodd" d="M29.0641 36.7185C29.0774 36.7512 29.0911 36.7833 29.1044 36.8154C29.1168 36.7818 29.1296 36.7491 29.1432 36.7167C29.1568 36.6839 29.1717 36.653 29.1874 36.6236L30.0835 34.9994C30.0983 34.9712 30.1144 34.9539 30.1323 34.9479C30.1502 34.9415 30.175 34.9385 30.2071 34.9385H30.4708V37.5803H30.1571V35.6391C30.1571 35.6133 30.1577 35.5854 30.159 35.5561C30.1602 35.5267 30.1623 35.4964 30.1644 35.4657L29.2596 37.1176C29.2311 37.1727 29.188 37.2006 29.1302 37.2006H29.0786C29.0208 37.2006 28.9777 37.1727 28.9496 37.1176L28.0241 35.4603C28.0277 35.4924 28.0305 35.5236 28.0326 35.5542C28.0344 35.5848 28.0353 35.6133 28.0353 35.6391V37.5803H27.7217V34.9385H27.9853C28.0174 34.9385 28.042 34.9415 28.0593 34.9479C28.0765 34.9539 28.0932 34.9712 28.109 34.9994L29.0214 36.6254C29.0362 36.6548 29.0505 36.6861 29.0641 36.7185" fill="white"/>
<path fill-rule="evenodd" clip-rule="evenodd" d="M32.9946 34.9385V35.2297H31.7243V36.1073H32.7531V36.3876H31.7243V37.2891H32.9967L32.9946 37.5803H31.3667V34.9385H32.9946" fill="white"/>
<path fill-rule="evenodd" clip-rule="evenodd" d="M33.9421 34.9412C33.953 34.943 33.963 34.9464 33.9715 34.9503C33.9803 34.9548 33.9888 34.9609 33.9973 34.9688C34.0061 34.9767 34.0152 34.9873 34.0252 34.9994L35.5533 36.9885C35.5509 36.9567 35.5488 36.9254 35.547 36.8954C35.5452 36.8654 35.5443 36.8367 35.5443 36.8097V34.9385H35.8576V37.5803H35.6788C35.6503 37.5803 35.6267 37.5754 35.6079 37.5654C35.5888 37.5557 35.57 37.5391 35.5515 37.5157L34.023 35.5267C34.0258 35.5573 34.0273 35.5873 34.0288 35.617C34.03 35.6464 34.0306 35.6733 34.0306 35.6979V37.5803H33.7173V34.9385H33.9015C33.9176 34.9385 33.9309 34.9394 33.9421 34.9412" fill="white"/>
<path fill-rule="evenodd" clip-rule="evenodd" d="M38.5402 34.9385V35.2391H37.6847V37.5803H37.329V35.2391H36.4717V34.9385H38.5402" fill="white"/>
<path fill-rule="evenodd" clip-rule="evenodd" d="M40.5035 35.3515C40.4923 35.3697 40.4805 35.3837 40.4674 35.3928C40.4547 35.4021 40.4389 35.4067 40.4205 35.4067C40.3996 35.4067 40.375 35.3964 40.3468 35.3755C40.3186 35.3543 40.2832 35.3315 40.2408 35.3061C40.1983 35.2809 40.1474 35.2579 40.0877 35.2373C40.028 35.2161 39.9559 35.2058 39.8711 35.2058C39.7911 35.2058 39.7211 35.2164 39.6602 35.2382C39.5993 35.2597 39.5483 35.2888 39.5071 35.3258C39.4659 35.3625 39.435 35.4058 39.4138 35.4555C39.3932 35.5052 39.3826 35.5591 39.3826 35.617C39.3826 35.6906 39.4008 35.7518 39.4371 35.8003C39.4732 35.8488 39.5211 35.8903 39.5808 35.9249C39.6405 35.9594 39.708 35.9891 39.7838 36.0143C39.8593 36.0394 39.9365 36.0655 40.0159 36.0925C40.095 36.1197 40.1726 36.15 40.248 36.184C40.3238 36.2176 40.3914 36.2603 40.4511 36.3121C40.5108 36.3637 40.5586 36.4267 40.5947 36.5021C40.6311 36.577 40.6493 36.6688 40.6493 36.7785C40.6493 36.894 40.6296 37.0025 40.5902 37.104C40.5508 37.2052 40.4935 37.2934 40.4177 37.3685C40.3423 37.4434 40.2496 37.5021 40.1393 37.5455C40.0296 37.5885 39.9044 37.61 39.7644 37.61C39.5923 37.61 39.4362 37.5788 39.2959 37.5167C39.1559 37.4546 39.0359 37.3709 38.9365 37.2652L39.0399 37.0958C39.0496 37.0821 39.0614 37.0706 39.0756 37.0612C39.0899 37.0521 39.1053 37.0476 39.1226 37.0476C39.1386 37.0476 39.1568 37.054 39.1771 37.067C39.1974 37.08 39.2205 37.0961 39.2462 37.1158C39.272 37.1355 39.3014 37.157 39.3347 37.1803C39.368 37.2037 39.4056 37.2252 39.448 37.2449C39.4905 37.2646 39.5386 37.2809 39.5929 37.2937C39.6468 37.3067 39.7077 37.3131 39.7753 37.3131C39.8602 37.3131 39.9359 37.3012 40.002 37.2779C40.0686 37.2546 40.1247 37.2218 40.1708 37.1794C40.2168 37.137 40.252 37.0861 40.2768 37.0273C40.3014 36.9685 40.3138 36.9028 40.3138 36.83C40.3138 36.7503 40.2956 36.6846 40.2593 36.6337C40.2229 36.5828 40.1753 36.54 40.1165 36.5055C40.0574 36.4712 39.9899 36.4418 39.9135 36.4179C39.8374 36.394 39.7599 36.3694 39.6814 36.3443C39.6026 36.3191 39.5253 36.2897 39.4489 36.2567C39.3729 36.2237 39.305 36.1803 39.2462 36.1276C39.1871 36.0746 39.1396 36.0088 39.1032 35.9294C39.0671 35.85 39.0489 35.7521 39.0489 35.6352C39.0489 35.5421 39.0671 35.4518 39.1032 35.3646C39.1396 35.2773 39.1923 35.1997 39.2617 35.1321C39.3314 35.0643 39.4168 35.0106 39.518 34.9697C39.6196 34.9291 39.7359 34.9091 39.8674 34.9091C40.015 34.9091 40.1493 34.9325 40.2705 34.9791C40.3914 35.0258 40.498 35.0934 40.5902 35.1818L40.5035 35.3515" fill="white"/>
<path fill-rule="evenodd" clip-rule="evenodd" d="M25.6205 4.02518C25.6205 3.9373 25.6902 3.86761 25.775 3.86761C25.8629 3.86427 25.9326 3.93427 25.9326 4.02215C25.9326 4.107 25.8659 4.17943 25.778 4.17943C25.6932 4.17943 25.6205 4.11003 25.6205 4.02518ZM26.7114 4.18882C26.6265 4.18579 26.5568 4.11609 26.5598 4.02791C26.5629 3.94336 26.6356 3.87367 26.7205 3.87639C26.8083 3.87973 26.875 3.95215 26.872 4.04033C26.8689 4.12215 26.7992 4.18882 26.7174 4.18882C26.7144 4.18882 26.7114 4.18882 26.7114 4.18882ZM24.6811 4.06155C24.678 3.97367 24.7447 3.90094 24.8295 3.89791C24.9174 3.89185 24.9902 3.95852 24.9932 4.04336C24.9992 4.13124 24.9326 4.20397 24.8477 4.21003C24.8447 4.21003 24.8417 4.21003 24.8386 4.21003C24.7568 4.21003 24.6871 4.14336 24.6811 4.06155ZM27.6417 4.24033C27.5568 4.23124 27.4932 4.15852 27.4992 4.07064C27.5053 3.98579 27.578 3.92215 27.6659 3.92821C27.7508 3.93427 27.8174 4.01003 27.8083 4.09488C27.8023 4.1767 27.7356 4.24033 27.6538 4.24033C27.6508 4.24033 27.6447 4.24033 27.6417 4.24033ZM23.7477 4.1373C23.7386 4.04943 23.8023 3.97367 23.8871 3.96761C23.975 3.95852 24.0508 4.01912 24.0568 4.107C24.0659 4.19185 24.0023 4.26761 23.9174 4.2767C23.9114 4.2767 23.9083 4.2767 23.9023 4.2767C23.8235 4.2767 23.7538 4.21609 23.7477 4.1373ZM28.572 4.32821C28.4841 4.31882 28.4235 4.24033 28.4326 4.15549C28.4447 4.06761 28.5205 4.007 28.6053 4.01579V4.01912C28.6932 4.02791 28.7538 4.107 28.7447 4.19185C28.7356 4.27064 28.6659 4.32821 28.5871 4.32821C28.5841 4.32821 28.578 4.32821 28.572 4.32821ZM22.8144 4.25246C22.8023 4.16458 22.8629 4.08579 22.9477 4.07367C23.0326 4.06155 23.1114 4.12215 23.1235 4.207C23.1356 4.29185 23.075 4.37367 22.9902 4.38579C22.9841 4.38579 22.975 4.38579 22.9689 4.38579C22.8932 4.38579 22.8265 4.32821 22.8144 4.25246ZM29.4932 4.45549C29.4083 4.44336 29.3508 4.36155 29.3629 4.2767C29.378 4.19185 29.4568 4.13427 29.5447 4.14639C29.6295 4.16155 29.6871 4.24033 29.672 4.32821C29.6598 4.40397 29.5932 4.45852 29.5174 4.45852C29.5114 4.45852 29.5023 4.45852 29.4932 4.45549ZM21.8902 4.4067C21.872 4.32215 21.9295 4.24033 22.0144 4.22518C22.0992 4.21003 22.1811 4.26458 22.1962 4.34943C22.2114 4.43427 22.1568 4.51609 22.072 4.53124C22.0629 4.53427 22.0508 4.53427 22.0447 4.53427C21.9689 4.53427 21.9023 4.48246 21.8902 4.4067ZM30.4114 4.62518C30.3265 4.607 30.272 4.52518 30.2902 4.44033C30.3053 4.35549 30.3902 4.30094 30.472 4.31882C30.5568 4.33427 30.6114 4.41912 30.5962 4.50094C30.5811 4.5767 30.5144 4.62821 30.4417 4.62821C30.4326 4.62821 30.4205 4.62518 30.4114 4.62518ZM20.9689 4.60094C20.9508 4.51609 21.0023 4.43124 21.0871 4.41306C21.172 4.39458 21.2538 4.44639 21.275 4.53124C21.2932 4.61609 21.2417 4.69761 21.1568 4.71912C21.1447 4.72215 21.1356 4.72215 21.1235 4.72215C21.0508 4.72215 20.9871 4.67367 20.9689 4.60094ZM31.3205 4.83124C31.2356 4.81003 31.1841 4.72518 31.2053 4.64033C31.2265 4.55821 31.3114 4.507 31.3962 4.52821C31.478 4.54943 31.5295 4.63397 31.5083 4.71912C31.4902 4.78882 31.4265 4.83427 31.3568 4.83427C31.3447 4.83427 31.3326 4.83427 31.3205 4.83124ZM20.0598 4.83427C20.0386 4.75246 20.0871 4.66458 20.1689 4.64336C20.2538 4.61912 20.3386 4.66761 20.3629 4.75246C20.3841 4.83427 20.3356 4.92215 20.2538 4.94336C20.2386 4.94639 20.2235 4.94943 20.2114 4.94943C20.1417 4.94943 20.0808 4.90397 20.0598 4.83427ZM32.2205 5.07639V5.07639C32.1356 5.05246 32.0902 4.96458 32.1144 4.88276C32.1386 4.80094 32.2265 4.75246 32.3083 4.7767C32.3902 4.80094 32.4386 4.88882 32.4144 4.97064C32.3932 5.04033 32.3295 5.08276 32.2629 5.08276C32.2477 5.08276 32.2326 5.07973 32.2205 5.07639ZM19.1629 5.107C19.1356 5.02488 19.1811 4.937 19.2629 4.91003C19.3447 4.88579 19.4326 4.93124 19.4598 5.01276C19.4871 5.09488 19.4417 5.18276 19.3568 5.207C19.3417 5.21306 19.3265 5.21609 19.3114 5.21609C19.2447 5.21609 19.1841 5.17367 19.1629 5.107ZM33.1083 5.36155C33.1083 5.36155 33.1083 5.36155 33.1053 5.36155C33.0265 5.33427 32.9811 5.24336 33.0083 5.16427C33.0386 5.07973 33.1265 5.0373 33.2083 5.06458C33.2902 5.09488 33.3326 5.18276 33.3053 5.26458C33.2841 5.32821 33.2235 5.37064 33.1568 5.37064C33.1417 5.37064 33.1235 5.36761 33.1083 5.36155ZM18.275 5.41912C18.2447 5.3373 18.2871 5.24943 18.3659 5.21912C18.4477 5.18882 18.5386 5.23124 18.5656 5.31003C18.5962 5.39155 18.5538 5.48276 18.475 5.51306C18.475 5.51306 18.475 5.51306 18.475 5.51003C18.4568 5.51912 18.4386 5.52215 18.4205 5.52215C18.3568 5.52215 18.2962 5.48276 18.275 5.41912ZM33.9811 5.68246C33.9023 5.65246 33.8629 5.56155 33.8932 5.47943C33.9235 5.40094 34.0144 5.36155 34.0962 5.39155C34.175 5.42518 34.2144 5.51609 34.1841 5.59488C34.1598 5.65549 34.1023 5.69458 34.0386 5.69458C34.0205 5.69458 33.9992 5.69185 33.9811 5.68246ZM17.3992 5.76761C17.3659 5.68882 17.4053 5.59791 17.4841 5.56458C17.5629 5.53094 17.6538 5.56761 17.6871 5.64943C17.7205 5.72821 17.6841 5.81912 17.6053 5.85246C17.5841 5.86155 17.5629 5.86458 17.5447 5.86458C17.4841 5.86458 17.4235 5.82821 17.3992 5.76761ZM34.8386 6.04336V6.04336C34.7598 6.007 34.7235 5.91306 34.7598 5.8373C34.7962 5.75821 34.8871 5.72215 34.9659 5.75549C35.0447 5.79185 35.0811 5.88276 35.0447 5.96155C35.0205 6.02215 34.9629 6.05549 34.9023 6.05549C34.8811 6.05549 34.8598 6.05246 34.8386 6.04336ZM16.5417 6.15549C16.5053 6.0767 16.5386 5.98549 16.6174 5.94943V5.94639C16.6962 5.91306 16.7871 5.94639 16.8265 6.02215C16.8629 6.10094 16.8295 6.19488 16.7508 6.23124C16.7295 6.24033 16.7053 6.24639 16.6841 6.24639C16.6265 6.24639 16.5689 6.21276 16.5417 6.15549ZM35.6811 6.4373V6.4373C35.6053 6.40094 35.572 6.307 35.6114 6.22821C35.6508 6.15246 35.7417 6.11912 35.8205 6.15852C35.8962 6.19488 35.9295 6.28852 35.8902 6.36761C35.8629 6.42215 35.8083 6.45215 35.7508 6.45215C35.7265 6.45215 35.7053 6.44943 35.6811 6.4373ZM15.7023 6.57973C15.6629 6.50397 15.6932 6.41003 15.7689 6.36761C15.8447 6.32821 15.9386 6.35852 15.9811 6.43427C16.0205 6.51003 15.9898 6.607 15.9141 6.64639C15.8902 6.65852 15.8659 6.66458 15.8417 6.66458C15.7841 6.66458 15.7295 6.63427 15.7023 6.57973ZM36.5053 6.86761C36.4295 6.82821 36.4023 6.73124 36.4447 6.65549C36.4871 6.57973 36.5811 6.55246 36.6568 6.59488C36.7326 6.6373 36.7598 6.73124 36.7174 6.807C36.6902 6.85852 36.6356 6.88882 36.5811 6.88882C36.5568 6.88882 36.5295 6.88276 36.5053 6.86761ZM14.8811 7.0373C14.8386 6.96458 14.8629 6.86761 14.9386 6.82518C15.0144 6.78276 15.1083 6.807 15.1508 6.88276C15.1962 6.95549 15.1689 7.05246 15.0962 7.09488C15.072 7.11003 15.0447 7.11609 15.0174 7.11609C14.9629 7.11609 14.9114 7.08882 14.8811 7.0373ZM37.3114 7.33427C37.2386 7.29185 37.2144 7.19488 37.2598 7.11912C37.3053 7.04609 37.3992 7.02215 37.475 7.06761C37.5477 7.11306 37.572 7.20973 37.5265 7.28276C37.4962 7.33124 37.4447 7.35852 37.3932 7.35852C37.3659 7.35852 37.3386 7.34912 37.3114 7.33427ZM14.0811 7.53124C14.0356 7.45852 14.0568 7.36124 14.1295 7.31609C14.2023 7.27064 14.2992 7.29185 14.3447 7.36458C14.3902 7.437 14.3689 7.53427 14.2962 7.57973C14.272 7.59791 14.2417 7.60397 14.2144 7.60397C14.1629 7.60397 14.1114 7.57973 14.0811 7.53124ZM38.0962 7.83427C38.0265 7.78882 38.0053 7.68882 38.0538 7.61912C38.1023 7.54639 38.1992 7.52821 38.272 7.57639C38.3417 7.62215 38.3629 7.71912 38.3144 7.79185C38.2841 7.8373 38.2356 7.86155 38.1841 7.86155C38.1538 7.86155 38.1235 7.85246 38.0962 7.83427ZM13.3023 8.05852C13.2538 7.98882 13.272 7.89155 13.3417 7.84336C13.4114 7.79185 13.5114 7.81003 13.5598 7.88276C13.6083 7.95246 13.5902 8.04943 13.5205 8.09791C13.4932 8.11609 13.4629 8.12518 13.4326 8.12518C13.3841 8.12518 13.3326 8.10397 13.3023 8.05852ZM38.8598 8.36761C38.7902 8.31609 38.775 8.21912 38.8265 8.14943C38.878 8.07973 38.975 8.06458 39.0447 8.11609C39.1144 8.16761 39.1295 8.26458 39.078 8.33397C39.0477 8.3767 39.0023 8.39791 38.9538 8.39791C38.9205 8.39791 38.8902 8.38882 38.8598 8.36761ZM12.5477 8.61912C12.4962 8.55246 12.5083 8.45246 12.578 8.40094C12.6477 8.34609 12.7447 8.36155 12.7962 8.42821C12.8508 8.49761 12.8356 8.59488 12.7689 8.64912C12.7386 8.67064 12.7053 8.67973 12.672 8.67973C12.6265 8.67973 12.5808 8.65852 12.5477 8.61912ZM39.6023 8.93427V8.93427C39.5356 8.87973 39.5235 8.78276 39.578 8.71609C39.6295 8.64639 39.7295 8.637 39.7962 8.68882C39.8629 8.74336 39.875 8.84033 39.8205 8.91003C39.7902 8.94943 39.7447 8.96761 39.6992 8.96761C39.6659 8.96761 39.6295 8.95852 39.6023 8.93427ZM11.8174 9.21003C11.7629 9.1464 11.772 9.0464 11.8386 8.99185C11.9053 8.9373 12.0023 8.94336 12.0568 9.01003C12.1144 9.0767 12.1053 9.1767 12.0386 9.23124C12.0083 9.25518 11.9747 9.26761 11.9386 9.26761C11.8932 9.26761 11.8508 9.24943 11.8174 9.21003ZM40.3174 9.53124C40.2538 9.47367 40.2447 9.3767 40.3023 9.31003C40.3599 9.24639 40.4568 9.24033 40.5235 9.29488C40.5871 9.35246 40.5932 9.44943 40.5386 9.51609C40.5053 9.55246 40.4629 9.57033 40.4205 9.57033C40.3841 9.57033 40.3477 9.55549 40.3174 9.53124ZM11.1144 9.83124C11.0568 9.76761 11.0598 9.67064 11.1235 9.61306C11.1871 9.55246 11.2871 9.55821 11.3447 9.62185C11.4023 9.68579 11.3992 9.78549 11.3356 9.84336C11.3053 9.87064 11.2689 9.88276 11.2295 9.88276C11.1871 9.88276 11.1447 9.86761 11.1144 9.83124ZM41.0083 10.1585C40.9447 10.0979 40.9417 9.99791 41.0023 9.937C41.0598 9.87336 41.1598 9.87064 41.2235 9.93124C41.2841 9.98882 41.2871 10.0885 41.2295 10.1522C41.1962 10.1828 41.1568 10.2009 41.1144 10.2009C41.075 10.2009 41.0386 10.1858 41.0083 10.1585ZM10.4386 10.4828C10.378 10.4222 10.378 10.3222 10.4386 10.2615C10.4992 10.2009 10.5992 10.2009 10.6598 10.2646C10.7205 10.3252 10.7205 10.4252 10.6568 10.4858C10.6265 10.5161 10.5871 10.5282 10.5477 10.5282C10.5083 10.5282 10.4689 10.5131 10.4386 10.4828ZM41.672 10.8131C41.6114 10.7494 41.6114 10.6525 41.675 10.5918C41.7356 10.5309 41.8356 10.5343 41.8932 10.5949C41.9538 10.6585 41.9538 10.7555 41.8932 10.8161C41.8598 10.8461 41.8235 10.8615 41.7841 10.8615C41.7417 10.8615 41.7023 10.8434 41.672 10.8131ZM9.78712 11.1615C9.72652 11.104 9.72045 11.004 9.78106 10.9403C9.83864 10.8797 9.93864 10.8737 10.0023 10.9343C10.0629 10.9918 10.0689 11.0918 10.0083 11.1555C9.97803 11.1858 9.93561 11.204 9.89621 11.204C9.85682 11.204 9.81742 11.1888 9.78712 11.1615ZM42.3053 11.4979V11.4979C42.2477 11.4312 42.2538 11.3343 42.3174 11.2737C42.3811 11.2191 42.4811 11.2249 42.5386 11.2885C42.5962 11.3525 42.5902 11.4522 42.5265 11.51C42.4962 11.5343 42.4568 11.5494 42.4205 11.5494C42.378 11.5494 42.3356 11.5312 42.3053 11.4979ZM9.16894 11.8676C9.1053 11.8131 9.09591 11.7131 9.15076 11.6464C9.20833 11.5828 9.3053 11.5737 9.37197 11.6312C9.43864 11.6858 9.4447 11.7858 9.39015 11.8494C9.35985 11.8858 9.31439 11.904 9.27197 11.904C9.23561 11.904 9.19924 11.8918 9.16894 11.8676ZM42.9114 12.207C42.8568 12.1403 42.8659 12.0403 42.9326 11.9858C42.9992 11.9312 43.0962 11.9403 43.1538 12.007C43.2083 12.0767 43.1962 12.1737 43.1295 12.2282C43.1023 12.2525 43.0659 12.2646 43.0326 12.2646C42.9871 12.2646 42.9417 12.2434 42.9114 12.207ZM8.58106 12.5979C8.51439 12.5464 8.50227 12.4491 8.55379 12.3797C8.60833 12.3131 8.7053 12.3009 8.775 12.3525C8.84167 12.407 8.85379 12.504 8.80227 12.5737C8.80227 12.5737 8.80227 12.5737 8.79924 12.5737C8.76894 12.6131 8.72348 12.6312 8.67803 12.6312C8.6447 12.6312 8.60833 12.6222 8.58106 12.5979ZM43.4841 12.9403C43.4326 12.8706 43.4477 12.7737 43.5174 12.7222C43.5841 12.6706 43.6841 12.6858 43.7356 12.7522C43.7871 12.8222 43.772 12.9222 43.7023 12.9706C43.675 12.9918 43.6417 13.004 43.6114 13.004C43.5629 13.004 43.5144 12.9828 43.4841 12.9403ZM8.02652 13.3555C7.95379 13.304 7.93864 13.2067 7.99015 13.1373C8.03864 13.0676 8.13561 13.0494 8.2053 13.1009C8.27803 13.1525 8.29318 13.2494 8.24167 13.3191C8.21136 13.3615 8.16288 13.3828 8.11439 13.3828C8.08409 13.3828 8.05379 13.3737 8.02652 13.3555ZM44.0265 13.7009C43.978 13.6282 43.9962 13.5312 44.0689 13.4828C44.1386 13.434 44.2356 13.4525 44.2871 13.5222C44.3356 13.5949 44.3174 13.6918 44.2447 13.7403C44.2174 13.7585 44.1871 13.7676 44.1568 13.7676C44.1083 13.7676 44.0568 13.7434 44.0265 13.7009ZM7.50227 14.1343C7.42955 14.0858 7.40833 13.9888 7.45682 13.9161C7.50227 13.8434 7.59924 13.8252 7.67197 13.8706C7.7447 13.9191 7.76288 14.0158 7.71742 14.0888C7.68712 14.1343 7.63561 14.1585 7.58712 14.1585C7.55682 14.1585 7.52652 14.1494 7.50227 14.1343ZM44.5386 14.4825C44.4932 14.4067 44.5144 14.31 44.5871 14.2673C44.6598 14.2191 44.7568 14.2431 44.8023 14.3161C44.8477 14.3888 44.8265 14.4858 44.7538 14.5312C44.7265 14.5461 44.6992 14.5555 44.672 14.5555C44.6174 14.5555 44.5689 14.5282 44.5386 14.4825ZM7.01136 14.9343C6.93561 14.8888 6.91136 14.7918 6.95682 14.7191C6.99924 14.6434 7.09621 14.6191 7.16894 14.6646C7.2447 14.707 7.26894 14.804 7.22348 14.8797C7.22348 14.8797 7.22348 14.8797 7.22652 14.8797C7.19621 14.9282 7.1447 14.9555 7.09015 14.9555C7.06288 14.9555 7.03561 14.9491 7.01136 14.9343ZM45.0144 15.2858C44.972 15.21 44.9992 15.1131 45.072 15.0706C45.1477 15.0282 45.2447 15.0555 45.2871 15.1312C45.3295 15.207 45.3023 15.3009 45.2265 15.3434C45.2023 15.3555 45.175 15.3646 45.1508 15.3646C45.0962 15.3646 45.0417 15.3343 45.0144 15.2858ZM6.55379 15.7525C6.47803 15.71 6.45076 15.6161 6.49318 15.5403C6.53258 15.4646 6.62652 15.4343 6.70227 15.4767C6.77803 15.5161 6.80833 15.6131 6.76591 15.6888C6.73864 15.7403 6.68409 15.7703 6.62955 15.7703C6.6053 15.7703 6.57803 15.7646 6.55379 15.7525ZM45.4568 16.107V16.107C45.4174 16.0312 45.4477 15.9373 45.5235 15.8949C45.5992 15.8582 45.6962 15.8888 45.7356 15.9646C45.772 16.0434 45.7417 16.137 45.6659 16.1737C45.6417 16.1858 45.6174 16.1918 45.5962 16.1918C45.5386 16.1918 45.4841 16.1612 45.4568 16.107ZM6.13561 16.5915C6.05682 16.5525 6.02652 16.4585 6.06288 16.3828C6.09924 16.304 6.19318 16.2706 6.27197 16.31C6.34773 16.3464 6.38106 16.44 6.3447 16.5158C6.3447 16.5158 6.3447 16.5158 6.3447 16.5191C6.31742 16.5737 6.26288 16.607 6.20227 16.607C6.18106 16.607 6.15682 16.6009 6.13561 16.5915ZM45.8629 16.9494V16.9494C45.8265 16.8706 45.8598 16.7767 45.9386 16.7403C46.0174 16.704 46.1083 16.7403 46.1447 16.8188C46.1811 16.8979 46.1477 16.9888 46.0689 17.0252C46.0477 17.0343 46.0265 17.0403 46.0053 17.0403C45.9447 17.0403 45.8871 17.007 45.8629 16.9494ZM5.75379 17.4434C5.67197 17.41 5.63561 17.3191 5.67197 17.2403C5.7053 17.1615 5.79621 17.1252 5.875 17.1585C5.95379 17.1918 5.99015 17.2828 5.95682 17.3646C5.93258 17.4222 5.875 17.4585 5.81439 17.4585C5.79318 17.4585 5.77197 17.4525 5.75379 17.4434ZM46.2326 17.807C46.1992 17.7252 46.2386 17.6343 46.3174 17.604C46.3962 17.5706 46.4902 17.61 46.5205 17.6888C46.5538 17.7676 46.5144 17.8585 46.4356 17.8915C46.4144 17.9009 46.3962 17.9037 46.375 17.9037C46.3144 17.9037 46.2568 17.8676 46.2326 17.807ZM5.4053 18.3161C5.32652 18.2825 5.28409 18.1946 5.31439 18.1131C5.34773 18.0309 5.43561 17.9918 5.51742 18.0222C5.59924 18.0552 5.63864 18.1434 5.60833 18.2252C5.58409 18.2858 5.52348 18.3252 5.46288 18.3252C5.4447 18.3252 5.42348 18.3222 5.4053 18.3161ZM46.5629 18.6797V18.6797C46.5356 18.5979 46.578 18.5097 46.6598 18.4797C46.7386 18.4494 46.8295 18.4949 46.8568 18.5734C46.8871 18.6555 46.8447 18.7464 46.7629 18.7737C46.7447 18.7797 46.7295 18.7828 46.7114 18.7828C46.6477 18.7828 46.5871 18.7434 46.5629 18.6797ZM5.09621 19.2009C5.01439 19.1737 4.96894 19.0858 4.99924 19.004C5.02652 18.9222 5.11439 18.8764 5.19621 18.907C5.27803 18.9312 5.32045 19.0222 5.29318 19.1037C5.27197 19.1673 5.21136 19.21 5.1447 19.21C5.12955 19.21 5.11439 19.207 5.09621 19.2009ZM46.8599 19.5676C46.8599 19.5676 46.8599 19.5676 46.8568 19.5676C46.8326 19.4858 46.878 19.3979 46.9629 19.3706C47.0447 19.3464 47.1326 19.3918 47.1568 19.4767C47.1811 19.5582 47.1356 19.6434 47.0538 19.6706C47.0386 19.6737 47.0235 19.6767 47.0083 19.6767C46.9417 19.6767 46.878 19.634 46.8599 19.5676ZM4.82652 20.1006C4.74167 20.0764 4.69621 19.9918 4.71742 19.907C4.74167 19.8252 4.82955 19.7767 4.91136 19.8009C4.99318 19.8252 5.04167 19.91 5.02045 19.9949C4.99924 20.0615 4.93561 20.107 4.86894 20.107C4.85379 20.107 4.84167 20.104 4.82652 20.1006ZM47.1144 20.4646C47.0902 20.3794 47.1417 20.2949 47.2235 20.2737C47.3083 20.2522 47.3932 20.3009 47.4144 20.3858C47.4386 20.4673 47.3871 20.5525 47.3023 20.5767C47.2902 20.5797 47.278 20.5797 47.2659 20.5797C47.1962 20.5797 47.1326 20.5343 47.1144 20.4646ZM4.59318 21.0097C4.51136 20.9918 4.45682 20.907 4.47803 20.8222C4.49924 20.7403 4.58409 20.6858 4.66591 20.7067C4.75076 20.7282 4.80227 20.81 4.78409 20.8949C4.76591 20.9676 4.70197 21.0161 4.62955 21.0161C4.61742 21.0161 4.6053 21.0131 4.59318 21.0097ZM47.3295 21.3706C47.3114 21.2858 47.3659 21.2009 47.4508 21.1858C47.5326 21.1676 47.6174 21.2191 47.6356 21.304C47.6538 21.3885 47.5992 21.4706 47.5144 21.4888C47.5053 21.4918 47.4932 21.4949 47.4841 21.4949C47.4114 21.4949 47.3447 21.4434 47.3295 21.3706ZM4.40227 21.9312C4.31742 21.9131 4.26288 21.8309 4.27803 21.7464C4.29621 21.6615 4.37803 21.607 4.45985 21.6222C4.5447 21.6403 4.60227 21.7222 4.58409 21.807C4.57197 21.8797 4.5053 21.9312 4.43258 21.9312C4.42045 21.9312 4.41136 21.9312 4.40227 21.9312ZM47.5083 22.2855C47.5083 22.2855 47.5083 22.2855 47.5053 22.2855C47.4932 22.2009 47.5477 22.1191 47.6356 22.107C47.7205 22.0918 47.7992 22.1494 47.8144 22.2343C47.8295 22.3191 47.772 22.3979 47.6871 22.4131C47.678 22.4161 47.6689 22.4161 47.6598 22.4161C47.5871 22.4161 47.5205 22.3612 47.5083 22.2855ZM4.24742 22.8555C4.16288 22.8434 4.1053 22.7646 4.11742 22.6797C4.12955 22.5918 4.20833 22.5343 4.29621 22.5464C4.38106 22.5585 4.43864 22.6403 4.42652 22.7252C4.41439 22.8037 4.34773 22.8585 4.27197 22.8585C4.26288 22.8585 4.25682 22.8585 4.24742 22.8555ZM47.6447 23.2067C47.6326 23.1222 47.6932 23.0431 47.778 23.0343C47.8659 23.0222 47.9447 23.0828 47.9538 23.1676C47.9659 23.2525 47.9053 23.3312 47.8205 23.3434C47.8114 23.3434 47.8053 23.3434 47.7992 23.3434C47.7205 23.3434 47.6538 23.2858 47.6447 23.2067ZM4.13561 23.7885C4.05076 23.7797 3.98712 23.7009 3.99621 23.6161C4.0053 23.5312 4.08409 23.4676 4.16894 23.4767C4.25379 23.4855 4.31742 23.5646 4.30833 23.6491C4.29924 23.7282 4.23258 23.7885 4.15379 23.7885C4.14773 23.7885 4.14167 23.7885 4.13561 23.7885ZM47.7417 24.1343C47.7356 24.0494 47.7992 23.9737 47.8841 23.9676C47.972 23.9585 48.0477 24.0222 48.0538 24.11C48.0598 24.1949 47.9962 24.2706 47.9114 24.2767C47.9083 24.2797 47.9023 24.2797 47.8992 24.2797C47.8174 24.2797 47.7508 24.2161 47.7417 24.1343ZM4.06288 24.7252C3.975 24.7191 3.91136 24.6434 3.91742 24.5582C3.92045 24.4737 3.99621 24.4067 4.08106 24.4131C4.16894 24.4188 4.23258 24.4919 4.22652 24.5797C4.22348 24.6615 4.15379 24.7252 4.07197 24.7252C4.06894 24.7252 4.06591 24.7252 4.06288 24.7252ZM47.8023 25.0646V25.0646C47.7962 24.9797 47.8659 24.907 47.9508 24.904C48.0386 24.8979 48.1114 24.9646 48.1144 25.0525C48.1174 25.1373 48.0508 25.21 47.9629 25.2161C47.9629 25.2161 47.9598 25.2161 47.9568 25.2161C47.875 25.2161 47.8053 25.1494 47.8023 25.0646ZM4.02955 25.6615C3.94167 25.6615 3.875 25.5888 3.875 25.504C3.87803 25.4161 3.95076 25.3494 4.03561 25.3494C4.12045 25.3525 4.19015 25.4222 4.18712 25.51C4.18712 25.5949 4.11742 25.6615 4.03258 25.6615C4.02955 25.6615 4.02955 25.6615 4.02955 25.6615ZM47.8205 26.0434C47.8205 26.0343 47.8205 26.0282 47.8235 26.0191C47.8205 26.0131 47.8205 26.007 47.8205 25.9976C47.8205 25.9097 47.8902 25.8403 47.978 25.8403C48.0629 25.8403 48.1326 25.9097 48.1326 25.9976C48.1326 26.007 48.1326 26.0131 48.1326 26.0222C48.1326 26.0282 48.1326 26.0343 48.1326 26.0434C48.1326 26.1282 48.0629 26.1979 47.978 26.1979C47.8902 26.1979 47.8205 26.1282 47.8205 26.0434ZM3.875 26.4494C3.875 26.3615 3.94167 26.2919 4.02652 26.2885C4.11439 26.2885 4.18409 26.3555 4.18712 26.4434C4.19015 26.5279 4.12045 26.6009 4.03258 26.6009C3.94773 26.6009 3.87803 26.5343 3.875 26.4494ZM47.9477 27.1373C47.8629 27.134 47.7962 27.0615 47.7992 26.9737C47.8023 26.8888 47.878 26.8222 47.9629 26.8252C48.0477 26.8282 48.1144 26.9009 48.1114 26.9888C48.1083 27.0703 48.0386 27.1373 47.9538 27.1373C47.9538 27.1373 47.9508 27.1373 47.9477 27.1373ZM3.91439 27.3949C3.90833 27.307 3.97197 27.2343 4.05985 27.2282C4.14773 27.2218 4.22045 27.2888 4.22652 27.3734C4.22955 27.4615 4.16591 27.5343 4.07803 27.5403C4.075 27.5403 4.07197 27.5403 4.06894 27.5403C3.98712 27.5403 3.91742 27.4767 3.91439 27.3949ZM47.8811 28.0737C47.7962 28.0676 47.7326 27.9918 47.7386 27.9037C47.7477 27.8191 47.8235 27.7555 47.9083 27.7615C47.9932 27.7706 48.0568 27.8464 48.0508 27.9312C48.0447 28.0131 47.975 28.0737 47.8932 28.0737C47.8901 28.0737 47.8841 28.0737 47.8811 28.0737ZM3.99318 28.334C3.98409 28.2494 4.0447 28.1737 4.13258 28.1646C4.21742 28.1555 4.29318 28.2191 4.30227 28.304C4.31136 28.3888 4.25076 28.4646 4.16591 28.4737C4.15985 28.4767 4.15379 28.4767 4.14773 28.4767C4.06894 28.4767 3.99924 28.4161 3.99318 28.334ZM47.775 29.007C47.6871 28.9949 47.6265 28.9161 47.6386 28.8312C47.6508 28.7464 47.7295 28.6858 47.8144 28.6979C47.8992 28.71 47.9598 28.7858 47.9477 28.8737C47.9386 28.9522 47.872 29.007 47.7932 29.007C47.7871 29.007 47.7811 29.007 47.775 29.007ZM4.11136 29.2737V29.2737C4.09924 29.1888 4.15682 29.11 4.24167 29.0979C4.32955 29.0828 4.40833 29.1434 4.42045 29.2282C4.43258 29.3131 4.375 29.3918 4.29015 29.404C4.28106 29.4067 4.27197 29.4067 4.26591 29.4067C4.19015 29.4067 4.12348 29.3525 4.11136 29.2737ZM47.6265 29.9343C47.5417 29.9191 47.4841 29.8403 47.4992 29.7525C47.5144 29.6676 47.5932 29.6131 47.6811 29.6252C47.7659 29.6403 47.8205 29.7218 47.8083 29.807C47.7932 29.8828 47.7265 29.937 47.6538 29.937C47.6447 29.937 47.6356 29.937 47.6265 29.9343ZM4.26894 30.207C4.25379 30.1222 4.30833 30.0403 4.39318 30.0222C4.47803 30.007 4.55985 30.0615 4.575 30.1464C4.59318 30.2312 4.53864 30.3131 4.45379 30.3312C4.4447 30.3312 4.43258 30.3343 4.42348 30.3343C4.35076 30.3343 4.28409 30.2828 4.26894 30.207ZM47.4386 30.8555C47.3538 30.8373 47.3023 30.7525 47.3205 30.6676C47.3386 30.5858 47.4205 30.5309 47.5053 30.5494C47.5902 30.5676 47.6447 30.6525 47.6265 30.7343C47.6083 30.807 47.5447 30.8582 47.472 30.8582C47.4629 30.8582 47.4508 30.8582 47.4386 30.8555ZM4.46894 31.1312C4.44773 31.0464 4.49924 30.9615 4.58409 30.9434C4.66894 30.9219 4.75379 30.9737 4.77197 31.0585C4.79318 31.1434 4.74167 31.2282 4.65682 31.2464C4.6447 31.2494 4.63258 31.2494 4.62045 31.2494C4.55045 31.2494 4.48409 31.204 4.46894 31.1312ZM47.2144 31.7646C47.1295 31.7431 47.0811 31.6585 47.1023 31.5737C47.1235 31.4919 47.2083 31.44 47.2932 31.4646C47.375 31.4858 47.4265 31.5706 47.4053 31.6555C47.3841 31.7252 47.3235 31.7706 47.2538 31.7706C47.2386 31.7706 47.2265 31.7676 47.2144 31.7646ZM4.70833 32.0461C4.68409 31.9615 4.73258 31.8767 4.81439 31.8525C4.89924 31.8282 4.98409 31.8767 5.00833 31.9615C5.02955 32.0434 4.98106 32.1312 4.89924 32.1525C4.88712 32.1585 4.87197 32.1585 4.85682 32.1585C4.79015 32.1585 4.72652 32.1161 4.70833 32.0461ZM46.9477 32.6676C46.8659 32.6403 46.8205 32.5525 46.8447 32.4706C46.872 32.3888 46.9568 32.3434 47.0417 32.3676C47.1235 32.3949 47.1689 32.4828 47.1417 32.5646V32.5615C47.1235 32.6312 47.0598 32.6737 46.9932 32.6737C46.978 32.6737 46.9629 32.6706 46.9477 32.6676ZM4.98409 32.9494C4.95682 32.8676 5.00227 32.7797 5.08409 32.7525C5.16591 32.7252 5.25379 32.7706 5.28106 32.8525C5.30803 32.9343 5.26288 33.0222 5.18106 33.0494C5.16591 33.0555 5.14773 33.0585 5.13258 33.0585C5.06591 33.0585 5.005 33.0161 4.98409 32.9494ZM46.6447 33.5555C46.5629 33.5252 46.5205 33.4373 46.5508 33.3555C46.578 33.2737 46.6689 33.2312 46.7477 33.2615C46.8295 33.2888 46.872 33.3797 46.8447 33.4615C46.8205 33.5252 46.7598 33.5646 46.6962 33.5646C46.678 33.5646 46.6598 33.5612 46.6447 33.5555ZM5.30227 33.8434C5.27197 33.7646 5.31136 33.6737 5.39318 33.6434C5.47197 33.6131 5.56288 33.6525 5.59318 33.7343C5.62348 33.8131 5.58409 33.904 5.50227 33.9343C5.48409 33.94 5.46591 33.9434 5.44773 33.9434C5.38379 33.9434 5.32652 33.907 5.30227 33.8434ZM46.3023 34.4312C46.2235 34.3979 46.1841 34.307 46.2174 34.2252C46.2477 34.1464 46.3386 34.107 46.4205 34.1403C46.4992 34.1737 46.5386 34.2646 46.5053 34.3434C46.4811 34.404 46.4235 34.4403 46.3598 34.4403C46.3417 34.4403 46.3205 34.4373 46.3023 34.4312ZM5.65682 34.7222V34.7222C5.62348 34.6434 5.65985 34.5525 5.73864 34.5161C5.81742 34.4825 5.90833 34.5191 5.9447 34.6009C5.9447 34.6009 5.9447 34.6009 5.9447 34.5979C5.97803 34.6767 5.94167 34.7706 5.86288 34.804C5.84167 34.8131 5.82045 34.8161 5.79924 34.8161C5.73864 34.8161 5.68106 34.7828 5.65682 34.7222ZM45.9235 35.2888C45.8447 35.2525 45.8114 35.1585 45.8477 35.0797C45.8841 35.0006 45.975 34.9676 46.0538 35.004C46.1326 35.0403 46.1659 35.1312 46.1295 35.21C46.1053 35.2676 46.0477 35.3009 45.9902 35.3009C45.9659 35.3009 45.9447 35.2979 45.9235 35.2888ZM6.04773 35.5858C6.01136 35.507 6.0447 35.4131 6.12348 35.3767C6.19924 35.3403 6.29288 35.3706 6.32955 35.4494C6.36864 35.5282 6.33561 35.6188 6.25682 35.6585C6.23561 35.6676 6.21136 35.6737 6.19015 35.6737C6.13258 35.6737 6.075 35.6403 6.04773 35.5858ZM45.5083 36.1282C45.4326 36.0888 45.4023 35.9949 45.4417 35.9161C45.4811 35.8403 45.575 35.81 45.6508 35.8494C45.7265 35.8888 45.7598 35.9828 45.7205 36.0585C45.6932 36.1131 45.6356 36.1434 45.5811 36.1434C45.5568 36.1434 45.5326 36.137 45.5083 36.1282ZM6.47803 36.4312C6.43864 36.3525 6.46591 36.2585 6.54167 36.2191C6.61742 36.1767 6.71439 36.207 6.75379 36.2828C6.79318 36.3585 6.76591 36.4522 6.69015 36.4949C6.66591 36.507 6.64167 36.5131 6.61742 36.5131C6.55985 36.5131 6.5053 36.4828 6.47803 36.4312ZM45.0599 36.9494C44.9841 36.9067 44.9568 36.81 44.9992 36.7373C45.0417 36.6615 45.1386 36.6343 45.2144 36.6767C45.2871 36.7191 45.3144 36.8161 45.272 36.8888C45.2447 36.9403 45.1902 36.9703 45.1356 36.9703C45.1083 36.9703 45.0841 36.9615 45.0599 36.9494ZM6.94167 37.2555H6.9447C6.89924 37.1797 6.92348 37.0858 6.99924 37.0403C7.07197 36.9979 7.16894 37.0222 7.21136 37.0949C7.25682 37.1706 7.23258 37.2646 7.15682 37.31C7.13258 37.3252 7.1053 37.3312 7.07803 37.3312C7.02348 37.3312 6.97197 37.304 6.94167 37.2555ZM44.575 37.7525C44.4992 37.707 44.478 37.61 44.5235 37.5373C44.5689 37.4615 44.6659 37.4403 44.7386 37.4858C44.8114 37.5312 44.8356 37.6282 44.7902 37.7009C44.7598 37.7494 44.7083 37.7767 44.6568 37.7737C44.6295 37.7737 44.5992 37.7676 44.575 37.7525ZM7.44167 38.0585C7.39621 37.9858 7.41439 37.8915 7.48712 37.8434C7.55985 37.7949 7.65682 37.8158 7.7053 37.8888C7.75076 37.9615 7.73227 38.0585 7.65985 38.104C7.63258 38.1222 7.60227 38.1312 7.57197 38.1312C7.52348 38.1312 7.47197 38.104 7.44167 38.0585ZM44.0538 38.5312C43.9841 38.4828 43.9659 38.3858 44.0144 38.3161C44.0629 38.2434 44.1598 38.2252 44.2295 38.2737C44.3023 38.3222 44.3205 38.4219 44.272 38.4919C44.2417 38.5373 44.1932 38.5585 44.1417 38.5585C44.1114 38.5585 44.0811 38.5525 44.0538 38.5312ZM7.975 38.8403C7.92652 38.7706 7.94167 38.6737 8.01136 38.6222C8.08409 38.5734 8.18106 38.5888 8.22955 38.6585C8.28106 38.7312 8.26288 38.8282 8.19318 38.8764C8.16591 38.8979 8.13561 38.907 8.10227 38.907C8.05379 38.907 8.0053 38.8828 7.975 38.8403ZM43.5023 39.2918C43.4326 39.2403 43.4205 39.1403 43.472 39.0737C43.5235 39.004 43.6205 38.9888 43.6901 39.0403C43.7598 39.0915 43.772 39.1918 43.7205 39.2585V39.2615C43.6901 39.3009 43.6447 39.3222 43.5962 39.3222C43.5629 39.3222 43.5295 39.3131 43.5023 39.2918ZM8.54167 39.5979C8.49015 39.5312 8.50227 39.4312 8.56894 39.3797C8.63864 39.3282 8.73561 39.3403 8.78712 39.4067C8.84167 39.4737 8.82955 39.5737 8.76288 39.6252C8.73258 39.6494 8.69924 39.6585 8.66591 39.6585C8.61742 39.6585 8.57197 39.6373 8.54167 39.5979ZM42.9174 40.0252C42.8508 39.9706 42.8417 39.8737 42.8962 39.807C42.9508 39.7403 43.0508 39.7312 43.1174 39.7828C43.1841 39.8373 43.1932 39.937 43.1386 40.004C43.1083 40.0403 43.0629 40.0615 43.0174 40.0615C42.9811 40.0615 42.9477 40.0494 42.9174 40.0252ZM9.13864 40.3343C9.08409 40.2676 9.09015 40.1676 9.15682 40.1131C9.22348 40.0555 9.32318 40.0646 9.37803 40.1312C9.43258 40.1949 9.42652 40.2949 9.35985 40.3494C9.32955 40.3767 9.29318 40.3888 9.25985 40.3888C9.21439 40.3888 9.17167 40.3676 9.13864 40.3343ZM42.3053 40.7343C42.2386 40.6767 42.2326 40.5797 42.2902 40.5161C42.2902 40.5161 42.2902 40.5161 42.2902 40.5131C42.3477 40.4494 42.4477 40.4434 42.5114 40.5009C42.575 40.5585 42.5811 40.6585 42.5235 40.7222C42.4932 40.7555 42.4508 40.7737 42.4083 40.7737C42.372 40.7737 42.3326 40.7615 42.3053 40.7343ZM9.76894 41.0403C9.70833 40.9767 9.71439 40.8767 9.775 40.8191C9.83864 40.7615 9.93864 40.7646 9.99621 40.8282C10.0568 40.8918 10.0538 40.9888 9.99015 41.0494C9.95985 41.0767 9.92045 41.0888 9.88409 41.0888C9.84167 41.0888 9.79924 41.0734 9.76894 41.0403ZM41.6598 41.4191C41.5962 41.3585 41.5962 41.2585 41.6568 41.1979C41.7174 41.1343 41.8144 41.1343 41.878 41.1949C41.9386 41.2525 41.9386 41.3525 41.8811 41.4131V41.4161C41.8508 41.4464 41.8083 41.4615 41.7689 41.4615C41.7295 41.4615 41.6902 41.4464 41.6598 41.4191ZM10.4265 41.7191C10.3659 41.6585 10.3629 41.5615 10.4235 41.4979C10.4841 41.4373 10.5841 41.4373 10.6447 41.4979C10.7053 41.5585 10.7083 41.6585 10.6477 41.7191C10.6174 41.7494 10.575 41.7646 10.5353 41.7646C10.4962 41.7646 10.4568 41.7494 10.4265 41.7191ZM40.9871 42.0737C40.9265 42.01 40.9295 41.91 40.9932 41.8525C41.0568 41.7919 41.1538 41.7949 41.2144 41.8585C41.272 41.9222 41.2689 42.0191 41.2083 42.0797C41.178 42.107 41.1386 42.1219 41.0992 42.1219C41.0598 42.1219 41.0174 42.107 40.9871 42.0737ZM11.1114 42.3706C11.0477 42.3131 11.0417 42.2131 11.1023 42.1494C11.1598 42.0858 11.2568 42.0828 11.3205 42.1403C11.3841 42.1976 11.3902 42.2979 11.3326 42.3612C11.3023 42.3949 11.2598 42.41 11.2171 42.41C11.178 42.41 11.1414 42.3979 11.1114 42.3706ZM40.2871 42.6979C40.2295 42.6343 40.2356 42.5343 40.3023 42.4767C40.3659 42.4222 40.4659 42.4282 40.5235 42.4949C40.578 42.5585 40.572 42.6585 40.5053 42.7131C40.478 42.74 40.4417 42.7525 40.4053 42.7525C40.3599 42.7525 40.3174 42.7343 40.2871 42.6979ZM11.8232 42.9919C11.7568 42.9373 11.7474 42.8403 11.8053 42.7737C11.8598 42.707 11.9568 42.6979 12.0235 42.7525C12.0902 42.807 12.0992 42.907 12.0447 42.9737C12.0144 43.01 11.9689 43.0282 11.9235 43.0282C11.8871 43.0282 11.8538 43.0161 11.8232 42.9919ZM39.5598 43.2949C39.5053 43.2282 39.5174 43.1282 39.5841 43.0737C39.6508 43.0222 39.7508 43.0309 39.8053 43.1009C39.8568 43.1676 39.8477 43.2646 39.778 43.3191C39.7508 43.3403 39.7174 43.3525 39.6811 43.3525C39.6356 43.3525 39.5902 43.3312 39.5598 43.2949ZM12.5629 43.5828C12.4932 43.5312 12.4811 43.4312 12.5326 43.3646C12.5841 43.2949 12.6841 43.2828 12.7508 43.334C12.8205 43.3858 12.8326 43.4828 12.7811 43.5525C12.7508 43.5949 12.7023 43.6131 12.6565 43.6131C12.6235 43.6131 12.5902 43.604 12.5629 43.5828ZM38.8083 43.8585C38.7568 43.7885 38.772 43.6919 38.8417 43.6403C38.9114 43.5888 39.0083 43.604 39.0598 43.6737C39.1114 43.7434 39.0962 43.8434 39.0265 43.8919C38.9992 43.9131 38.9659 43.9222 38.9356 43.9222C38.8871 43.9222 38.8386 43.9009 38.8083 43.8585ZM13.3235 44.1403C13.2538 44.0915 13.2356 43.9949 13.2871 43.9222C13.3356 43.8525 13.4326 43.8343 13.5023 43.8858C13.575 43.9343 13.5902 44.0312 13.5417 44.1009C13.5114 44.1464 13.4629 44.1673 13.4141 44.1673C13.3841 44.1673 13.3508 44.1585 13.3235 44.1403ZM38.0326 44.3919C37.9871 44.3188 38.0053 44.2222 38.078 44.1737C38.1477 44.1252 38.2447 44.1464 38.2932 44.2161C38.3417 44.2888 38.3205 44.3858 38.2508 44.4343C38.2235 44.4525 38.1932 44.4615 38.1629 44.4615C38.1144 44.4615 38.0629 44.4343 38.0326 44.3919ZM14.1083 44.6646C14.0356 44.6191 14.0144 44.5222 14.0629 44.4494C14.1083 44.3767 14.2053 44.3555 14.278 44.4009C14.3508 44.4494 14.372 44.5461 14.3265 44.6191C14.2962 44.6646 14.2447 44.6888 14.1932 44.6888C14.1659 44.6888 14.1356 44.6828 14.1083 44.6646ZM37.2356 44.8888C37.1902 44.8161 37.2144 44.7191 37.2902 44.6737C37.3629 44.6282 37.4598 44.6525 37.5023 44.7282C37.5477 44.8009 37.5235 44.8979 37.4508 44.9434V44.9403C37.4265 44.9555 37.3962 44.9646 37.3689 44.9646C37.3174 44.9646 37.2659 44.937 37.2356 44.8888ZM14.9174 45.1555C14.8417 45.1131 14.8174 45.0191 14.8598 44.9434C14.9023 44.8676 14.9992 44.8434 15.072 44.8858C15.1477 44.9312 15.172 45.0252 15.1295 45.1009C15.1023 45.1494 15.0477 45.1767 14.9932 45.1767C14.9689 45.1767 14.9417 45.1706 14.9174 45.1555ZM36.4174 45.3525C36.378 45.2767 36.4053 45.1828 36.4811 45.1403C36.5568 45.1009 36.6508 45.1282 36.6932 45.204C36.7326 45.2797 36.7053 45.3737 36.6295 45.4161C36.6053 45.4282 36.5811 45.4343 36.5568 45.4343C36.4992 45.4343 36.4477 45.404 36.4174 45.3525ZM15.7417 45.6131V45.6131C15.6659 45.5737 15.6356 45.4797 15.678 45.4009C15.7174 45.3252 15.8114 45.2949 15.8871 45.3373C15.9629 45.3767 15.9932 45.4706 15.9538 45.5464C15.9265 45.6009 15.872 45.6312 15.8144 45.6312C15.7902 45.6312 15.7659 45.6252 15.7417 45.6131ZM35.5811 45.7828C35.5447 45.704 35.575 45.61 35.6508 45.5737C35.7295 45.5343 35.8235 45.5646 35.8598 45.6434C35.8992 45.7191 35.8689 45.8131 35.7902 45.8525C35.7689 45.8646 35.7447 45.8676 35.7205 45.8676C35.6629 45.8676 35.6083 45.8373 35.5811 45.7828ZM16.5871 46.0343C16.5114 45.9976 16.478 45.904 16.5144 45.8252C16.5508 45.7464 16.6417 45.7131 16.7205 45.7494C16.7992 45.7888 16.8326 45.8797 16.7962 45.9585C16.7689 46.0161 16.7144 46.0464 16.6538 46.0464C16.6326 46.0464 16.6083 46.0434 16.5871 46.0343ZM34.7265 46.1737C34.6902 46.0949 34.7265 46.004 34.8053 45.9676C34.8841 45.9312 34.978 45.9676 35.0114 46.0464C35.0477 46.1252 35.0114 46.2191 34.9326 46.2525C34.9114 46.2615 34.8902 46.2676 34.8689 46.2676C34.8083 46.2676 34.7508 46.2312 34.7265 46.1737ZM17.4508 46.4161V46.4161C17.372 46.3828 17.3326 46.2918 17.3659 46.2128C17.3992 46.1312 17.4902 46.0949 17.572 46.1282C17.572 46.1282 17.572 46.1282 17.5689 46.1282C17.6508 46.1615 17.6871 46.2525 17.6538 46.3343C17.6295 46.3918 17.572 46.4282 17.5083 46.4282C17.4902 46.4282 17.4689 46.4252 17.4508 46.4161ZM33.8538 46.5279C33.8235 46.4494 33.8629 46.3585 33.9447 46.3252C33.9447 46.3252 33.9447 46.3252 33.9417 46.3282C34.0235 46.2949 34.1144 46.3343 34.1447 46.4161C34.178 46.4949 34.1356 46.5858 34.0568 46.6191C34.0386 46.6252 34.0205 46.6282 33.9992 46.6282C33.9386 46.6282 33.878 46.5915 33.8538 46.5279ZM18.3265 46.7615C18.2477 46.7312 18.2053 46.6434 18.2356 46.5615C18.2659 46.4797 18.3538 46.44 18.4356 46.4706C18.5174 46.4979 18.5568 46.5888 18.5295 46.6706C18.5053 46.7343 18.4447 46.7706 18.3811 46.7706C18.3629 46.7706 18.3447 46.7676 18.3265 46.7615ZM32.9689 46.8464C32.9386 46.7646 32.9841 46.6767 33.0659 46.6494C33.1477 46.6191 33.2356 46.6646 33.2629 46.7464C33.2902 46.8282 33.2477 46.9161 33.1659 46.9434C33.1508 46.9494 33.1326 46.9525 33.1174 46.9525C33.0508 46.9525 32.9902 46.91 32.9689 46.8464ZM19.2205 47.0706V47.0706C19.1386 47.0434 19.0932 46.9555 19.1205 46.8737C19.1477 46.7919 19.2356 46.7464 19.3174 46.7737C19.3989 46.8009 19.4447 46.8888 19.4174 46.9703C19.3962 47.0373 19.3356 47.0797 19.2689 47.0797C19.2538 47.0797 19.2386 47.0767 19.2205 47.0706ZM32.072 47.1252C32.0477 47.0434 32.0932 46.9555 32.178 46.9312C32.2598 46.9067 32.3477 46.9525 32.372 47.0373C32.3962 47.1191 32.3477 47.207 32.2659 47.2312C32.2508 47.2343 32.2356 47.2373 32.2205 47.2373C32.1538 47.2373 32.0902 47.1919 32.072 47.1252ZM20.1265 47.3403C20.0447 47.3191 19.9962 47.2312 20.0174 47.1494C20.0417 47.0646 20.1265 47.0161 20.2114 47.0403C20.2114 47.0403 20.2114 47.0403 20.2083 47.0403C20.2932 47.0615 20.3417 47.1494 20.3205 47.2312C20.2992 47.3009 20.2386 47.3464 20.1689 47.3464C20.1538 47.3464 20.1417 47.3464 20.1265 47.3403ZM31.1629 47.3646C31.1417 47.2797 31.1932 47.1949 31.278 47.1737C31.3629 47.1525 31.4447 47.204 31.4659 47.2888C31.4871 47.3737 31.4356 47.4585 31.3508 47.4797L31.3538 47.4767C31.3417 47.4797 31.3265 47.4828 31.3144 47.4828C31.2447 47.4828 31.1811 47.4343 31.1629 47.3646ZM21.0447 47.5737V47.5706C20.9598 47.5525 20.9083 47.4676 20.9265 47.3858C20.9477 47.3009 21.0295 47.2494 21.1144 47.2676C21.1992 47.2855 21.2508 47.3706 21.2326 47.4555C21.2144 47.5282 21.1508 47.5764 21.078 47.5764C21.0659 47.5764 21.0568 47.5737 21.0447 47.5737ZM30.2447 47.5646C30.2295 47.4797 30.2841 47.3979 30.3689 47.3797C30.4508 47.3646 30.5356 47.4161 30.5538 47.5006C30.5689 47.5858 30.5144 47.6676 30.4295 47.6858C30.4205 47.6888 30.4083 47.6888 30.3992 47.6888C30.3265 47.6888 30.2598 47.6373 30.2447 47.5646ZM21.9689 47.7646C21.8871 47.7464 21.8295 47.6643 21.8447 47.5828C21.8598 47.4949 21.9417 47.4403 22.0265 47.4555C22.1114 47.4706 22.1689 47.5525 22.1538 47.6373C22.1386 47.7131 22.072 47.7646 21.9992 47.7646C21.9902 47.7646 21.9811 47.7646 21.9689 47.7646ZM29.3205 47.7252C29.3083 47.6403 29.3659 47.5585 29.4508 47.5464C29.5356 47.5312 29.6144 47.5885 29.6295 47.6767C29.6417 47.7615 29.5841 47.8403 29.4992 47.8555C29.4902 47.8555 29.4841 47.8555 29.475 47.8555C29.3992 47.8555 29.3326 47.8009 29.3205 47.7252ZM22.9053 47.9131C22.8174 47.9009 22.7598 47.8222 22.772 47.7373C22.7841 47.6522 22.8629 47.5919 22.9477 47.604C23.0326 47.6161 23.0932 47.6949 23.0811 47.7828C23.0689 47.8585 23.0023 47.9161 22.9265 47.9161C22.9174 47.9161 22.9114 47.9161 22.9053 47.9131ZM28.3902 47.8464C28.378 47.7615 28.4417 47.6828 28.5265 47.6737C28.6114 47.6615 28.6902 47.7252 28.6992 47.81C28.7083 47.8949 28.6477 47.9737 28.5629 47.9828C28.5568 47.9828 28.5508 47.9828 28.5447 47.9828C28.4659 47.9828 28.3992 47.9252 28.3902 47.8464ZM23.8447 48.0252V48.0252C23.7568 48.0161 23.6932 47.9403 23.7023 47.8555C23.7114 47.7676 23.7871 47.707 23.872 47.7131C23.9598 47.7222 24.0205 47.7979 24.0144 47.8858C24.0053 47.9646 23.9386 48.0252 23.8598 48.0252C23.8538 48.0252 23.8477 48.0252 23.8447 48.0252ZM27.4538 47.9252C27.4477 47.8403 27.5114 47.7646 27.5992 47.7585C27.5992 47.7585 27.5992 47.7585 27.5992 47.7615C27.6841 47.7525 27.7598 47.8191 27.7659 47.904C27.772 47.9888 27.7083 48.0646 27.6205 48.0706C27.6174 48.0706 27.6144 48.0706 27.6114 48.0706C27.5295 48.0706 27.4598 48.01 27.4538 47.9252ZM24.7871 48.0949C24.6992 48.0918 24.6326 48.0191 24.6386 47.9312C24.6447 47.8464 24.7174 47.7797 24.8023 47.7828C24.8902 47.7888 24.9538 47.8615 24.9508 47.9494C24.9447 48.0309 24.878 48.0979 24.7932 48.0979C24.7932 48.0979 24.7902 48.0979 24.7871 48.0949ZM26.5174 47.9673C26.5144 47.8828 26.5811 47.81 26.6689 47.807C26.7538 47.8037 26.8265 47.8737 26.8295 47.9585C26.8295 48.0431 26.7629 48.1161 26.678 48.1188C26.675 48.1188 26.675 48.1188 26.672 48.1188C26.5871 48.1188 26.5174 48.0525 26.5174 47.9673ZM25.7326 48.1282C25.6447 48.1282 25.575 48.0555 25.578 47.9706C25.578 47.8828 25.6477 47.8131 25.7356 47.8158C25.8205 47.8158 25.8902 47.8858 25.8902 47.9737C25.8871 48.0585 25.8174 48.1282 25.7326 48.1282V48.1282Z" fill="white"/>
</svg>
