<svg width="140" height="93" viewBox="0 0 140 93" fill="none" xmlns="http://www.w3.org/2000/svg">
<path fill-rule="evenodd" clip-rule="evenodd" d="M49.5798 89.9001V92.6801H49.9998V91.6801H50.6098L51.4498 92.6801H51.9998L51.0898 91.5901C51.492 91.5294 51.7846 91.1766 51.7698 90.7701C51.7698 90.1101 51.2198 89.9001 50.6998 89.9001H49.5798ZM50.6798 91.2401H49.9998V90.3101H50.6798C50.9798 90.3101 51.2698 90.4301 51.2698 90.7801C51.2698 91.1301 50.9798 91.2401 50.6798 91.2401Z" fill="white"/>
<path d="M56.44 89.9001V90.3101H55V91.0701H56.35V91.4801H55V92.2601H56.49V92.6701H54.52V89.9001H56.44Z" fill="white"/>
<path d="M60 89.85C60.3029 89.8465 60.602 89.9187 60.87 90.06V90.49C60.6184 90.333 60.3264 90.2531 60.03 90.26C59.69 90.26 59.48 90.36 59.48 90.6C59.45 91.2 61 91 61 92C61 92.59 60.5 92.79 59.95 92.78C59.6014 92.7885 59.2567 92.7058 58.95 92.54V92C59.2484 92.1888 59.597 92.2829 59.95 92.27C60.31 92.27 60.57 92.19 60.57 91.92C60.57 91.28 58.98 91.54 58.98 90.55C59 90.09 59.44 89.85 60 89.85Z" fill="white"/>
<path d="M65.6298 89.9001V90.3201H64.7098V92.6901H64.2598V90.3201H63.3398V89.9001H65.6298Z" fill="white"/>
<path fill-rule="evenodd" clip-rule="evenodd" d="M68.72 89.8901L67.54 92.6801H68.01L68.26 92.0801H69.66L69.91 92.6801H70.39L69.22 89.8901H68.72ZM69.5 91.6801H68.42L68.95 90.5001L69 90.3401V90.4901L69.5 91.6801Z" fill="white"/>
<path d="M75.16 89.9001V91.6601C75.16 92.4701 74.59 92.7401 73.97 92.7401C73.35 92.7401 72.78 92.4701 72.78 91.6601V89.9001H73.23V91.6301C73.23 92.1401 73.54 92.3101 73.97 92.3101C74.4 92.3101 74.7 92.1301 74.7 91.6301V89.9001H75.16Z" fill="white"/>
<path fill-rule="evenodd" clip-rule="evenodd" d="M78 89.9001V92.6801H78.43V91.6801H79L79.84 92.6801H80.39L79.5 91.5901C79.9022 91.5294 80.1947 91.1766 80.18 90.7701C80.18 90.1101 79.63 89.9001 79.11 89.9001H78ZM79.13 91.2301H78.45V90.3001H79.13C79.43 90.3001 79.72 90.4201 79.72 90.7701C79.72 91.1201 79.43 91.2301 79.13 91.2301Z" fill="white"/>
<path fill-rule="evenodd" clip-rule="evenodd" d="M83.7598 89.8901L82.5798 92.6801H83.0998L83.3498 92.0801H84.7498L84.9998 92.6801H85.4298L84.2598 89.8901H83.7598ZM84.0498 90.4901L84.5398 91.6801H83.4598L83.9498 90.5001L83.9998 90.3401L84.0498 90.4901Z" fill="white"/>
<path d="M87.9399 92.6801V89.9001H88.3699L89.8699 91.9001C89.8699 91.8001 89.8699 91.7001 89.8699 91.5901V89.9001H90.3199V92.6901H89.8899L88.3899 90.6901C88.3899 90.7901 88.3899 90.8901 88.3899 90.9901V92.7301L87.9399 92.6801Z" fill="white"/>
<path d="M95.1599 89.9001V90.3201H94.2399V92.6901H93.7899V90.3201H92.8699V89.9001H95.1599Z" fill="white"/>
<path d="M66.3399 32.0001C67.5154 32.1137 68.6613 31.5866 69.3399 30.6201C69.9327 29.633 70.6192 28.7054 71.3899 27.8501C71.7279 27.549 71.8676 27.0834 71.7514 26.646C71.6352 26.2085 71.2827 25.8737 70.8399 25.7801C69.6648 25.4656 68.4111 25.8009 67.5499 26.6601C66.5913 27.7543 65.7375 28.9362 64.9999 30.1901C64.3799 31.1701 65.4899 31.8801 66.3399 32.0001Z" fill="white"/>
<path fill-rule="evenodd" clip-rule="evenodd" d="M137.75 47.38C138.114 47.2538 138.514 47.279 138.86 47.45C139.405 47.7175 139.722 48.3003 139.65 48.9035C139.578 49.5067 139.133 49.9985 138.54 50.13C136.572 50.5861 134.56 50.8209 132.54 50.83C131.259 50.8405 129.98 50.73 128.72 50.5L128.47 51.08C126.64 55.37 123.07 61.75 117.97 62.75C113.88 63.56 111.88 61.12 111.88 57.26C111.892 56.5563 111.955 55.8544 112.07 55.16C109.57 57.9134 106.963 60.5534 104.25 63.08C99.6599 67.37 94.4499 71.49 88.2499 72.6C77.1199 74.6 78.3599 60.25 79.9899 51.05C71.1299 57.3 62.8099 62.36 58.8099 62.56L58.1199 62.63C52.7099 62.99 52.0599 59.15 53.1699 54.52C50.4966 57.5 47.6966 60.3534 44.7699 63.08C40.1799 67.37 34.9699 71.49 28.7699 72.6C15.4393 74.9949 19.8423 53.9394 21.4259 46.3662L21.426 46.3658L21.4262 46.3648C21.489 46.0646 21.5473 45.7856 21.5999 45.53C21.6249 45.4051 21.6549 45.2826 21.6849 45.1601L21.6849 45.16C21.7149 45.0375 21.7449 44.915 21.7699 44.79C15.0757 47.6498 8.15518 49.9477 1.07995 51.66C-0.330054 52 -0.550054 49 1.58995 48.38C8.68951 46.6923 15.6577 44.4932 22.4399 41.8C24.5744 32.4522 28.19 23.5059 33.1499 15.3C36.3499 10.22 39.4899 5.95004 44.9299 2.95004C47.0258 1.6434 49.4613 0.985815 51.9299 1.06004C54.3499 1.25004 56.7999 2.87004 57.3499 5.25004C58.1599 8.74004 57.0699 13.97 55.6499 17.25C54.4688 19.8928 52.9128 22.3514 51.0299 24.55L50.8699 24.73C50.0099 25.7434 49.1166 26.71 48.1899 27.63L47.7999 28C41.437 34.0545 34.1359 39.039 26.1799 42.76C24.4208 48.8751 23.4858 55.1976 23.3999 61.56C23.3548 62.8482 23.5203 64.1352 23.8899 65.37C24.4299 66.94 25.7499 68.47 27.4799 68.55C32.3999 68.77 36.6999 65.44 40.3199 62.1C45.7815 57.052 50.8371 51.5818 55.4399 45.74C56.2587 44.6545 57.1796 43.6499 58.1899 42.74C58.7299 41.77 59.2099 40.99 59.5399 40.46C59.8777 39.7495 60.481 39.2 61.2199 38.93C62.3999 38.68 63.4199 40.03 63.3299 41.23C63.1131 42.4229 62.5497 43.5255 61.7099 44.4C59.6999 47 58.1999 51.49 57.5299 54.67C57.1599 56.45 56.7999 58.89 58.8699 59.45C62.0699 60.3 71.3499 54.57 80.6299 47.82C80.7385 47.2831 80.8435 46.7899 80.9382 46.3447L80.9388 46.3418C81.0009 46.0502 81.0585 45.7792 81.1099 45.53C83.27 35.06 86.9999 24.36 92.6999 15.27C95.8899 10.19 98.9999 5.91004 104.44 2.89004C106.536 1.5834 108.971 0.925815 111.44 1.00004C113.953 1.13106 116.117 2.81604 116.86 5.22004C118.196 10.5817 116.383 14.5516 115.041 17.4892C114.927 17.7403 114.815 17.9838 114.71 18.22C110.11 28.59 97.1199 38.49 84.9399 47.49L84.4599 47.84C83.4566 52.3452 82.937 56.9446 82.9099 61.56C82.8648 62.8482 83.0303 64.1352 83.3999 65.37C83.9399 66.94 85.2599 68.47 86.9899 68.55C91.9099 68.77 96.2099 65.44 99.8299 62.1C105.273 57.0596 110.312 51.5995 114.9 45.77C116.29 44.02 117.9 42.13 119.9 41.42C122.22 39.61 125 38.57 127.9 39.82C129.225 40.4392 130.197 41.6279 130.54 43.05C130.73 43.7814 130.764 44.5446 130.64 45.29C130.575 45.6849 130.464 46.0709 130.31 46.44C130.248 46.5873 130.187 46.6384 130.151 46.6691C130.135 46.6827 130.124 46.6923 130.119 46.7044C130.108 46.7334 130.135 46.777 130.228 46.9247L130.25 46.96C130.94 48.03 132.98 48.07 134.03 47.87C135.29 47.9628 136.557 47.7961 137.75 47.38ZM38.5497 13.3278C38.3198 13.6872 38.0906 14.0456 37.8599 14.4L37.8799 14.39C34.9453 19.0574 32.4895 24.0092 30.5499 29.17C29.6789 31.4031 28.7263 34.4826 27.8114 37.4404L27.8112 37.4412L27.8103 37.444C27.5702 38.2203 27.3327 38.9881 27.0999 39.73C34.6799 36.05 42.3699 30.43 46.6799 24.65C48.7491 21.857 50.4155 18.787 51.6299 15.53C52.6999 13.02 54.5699 7.26004 51.6299 5.53004C50.3042 4.85862 48.7692 4.72951 47.3499 5.17004C43.0544 6.2847 40.771 9.85487 38.5497 13.3278ZM86.3599 40.52C86.3599 40.52 88.8799 32.16 90.0799 29.12C92.0098 23.978 94.4521 19.0432 97.3699 14.39C97.6006 14.0356 97.8298 13.6772 98.0597 13.3178C100.281 9.84487 102.564 6.2747 106.86 5.16004C108.279 4.71951 109.814 4.84862 111.14 5.52004C114.08 7.25004 112.21 13.01 111.14 15.52C109.813 19.0646 107.959 22.3887 105.64 25.38C99.6399 32.59 88.4499 41.85 85.2499 44.38C85.4999 43.38 85.7599 42.38 86.0299 41.46L86.3599 40.52ZM124.07 42.58C119.06 43.13 113.3 59.88 119.13 58.78H119.15C120.73 58.48 123.6 53.29 124.91 49.08C123.459 48.2195 122.67 46.5696 122.91 44.9C123.033 44.0209 123.441 43.2062 124.07 42.58Z" fill="white"/>
</svg>
