<?xml version="1.0" encoding="iso-8859-1"?>
<!-- Generator: Adobe Illustrator 19.0.0, SVG Export Plug-In . SVG Version: 6.00 Build 0)  -->
<svg version="1.1" id="Capa_1" xmlns="http://www.w3.org/2000/svg" xmlns:xlink="http://www.w3.org/1999/xlink" x="0px" y="0px"
	 viewBox="0 0 512 512" style="enable-background:new 0 0 512 512;" xml:space="preserve">
<g>
	<g>
		<path d="M398.685,142.398H113.315c-8.586,0-15.546,6.961-15.546,15.546s6.961,15.546,15.546,15.546h285.369
			c8.586,0,15.546-6.961,15.546-15.546S407.27,142.398,398.685,142.398z"/>
	</g>
</g>
<g>
	<g>
		<path d="M398.685,190.074H113.315c-8.586,0-15.546,6.961-15.546,15.546s6.961,15.546,15.546,15.546h285.369
			c8.586,0,15.546-6.961,15.546-15.546S407.27,190.074,398.685,190.074z"/>
	</g>
</g>
<g>
	<g>
		<path d="M398.685,237.749H113.315c-8.586,0-15.546,6.961-15.546,15.546c0,8.586,6.961,15.546,15.546,15.546h285.369
			c8.586,0,15.546-6.961,15.546-15.546C414.231,244.71,407.27,237.749,398.685,237.749z"/>
	</g>
</g>
<g>
	<g>
		<path d="M375.264,410.631c-3.438-4.018-4.086-4.878-4.086-8.169c0-3.289,0.648-4.149,4.085-8.165
			c4.601-5.377,11.555-13.502,11.555-28.383c0-8.586-6.961-15.546-15.546-15.546c-8.586,0-15.546,6.961-15.546,15.546
			c0,3.289-0.648,4.149-4.085,8.165c-4.602,5.377-11.556,13.502-11.556,28.383c0,14.882,6.954,23.009,11.555,28.386
			c3.438,4.018,4.086,4.878,4.086,8.169c0,3.291-0.648,4.152-4.086,8.169c-1.742,2.036-3.908,4.569-5.853,7.709
			c-4.52,7.299-2.268,16.881,5.033,21.401c2.55,1.578,5.377,2.331,8.169,2.331c5.205,0,10.292-2.613,13.233-7.364
			c0.686-1.107,1.777-2.383,3.042-3.86c4.601-5.377,11.555-13.503,11.555-28.387C386.82,424.134,379.865,416.008,375.264,410.631z"
			/>
	</g>
</g>
<g>
	<g>
		<path d="M303.629,410.631c-3.438-4.018-4.086-4.878-4.086-8.169c0-3.289,0.648-4.148,4.085-8.165
			c4.601-5.377,11.556-13.501,11.556-28.383c0-8.586-6.961-15.546-15.546-15.546c-8.586,0-15.546,6.961-15.546,15.546
			c0,3.289-0.648,4.148-4.085,8.165c-4.602,5.377-11.557,13.5-11.557,28.383c0,14.883,6.954,23.009,11.556,28.386
			c3.438,4.018,4.086,4.878,4.086,8.169c0,3.291-0.648,4.151-4.086,8.169c-1.742,2.036-3.909,4.568-5.854,7.709
			c-4.52,7.299-2.268,16.881,5.033,21.401c2.55,1.578,5.377,2.331,8.169,2.331c5.205,0,10.292-2.613,13.233-7.364
			c0.686-1.107,1.777-2.383,3.042-3.86c4.602-5.377,11.556-13.503,11.556-28.387C315.185,424.132,308.231,416.008,303.629,410.631z"
			/>
	</g>
</g>
<g>
	<g>
		<path d="M227.908,402.462c0-3.289,0.648-4.148,4.086-8.165c4.603-5.377,11.557-13.501,11.557-28.383
			c0-8.586-6.961-15.546-15.546-15.546s-15.546,6.961-15.546,15.546c0,3.289-0.648,4.148-4.086,8.165
			c-4.602,5.377-11.557,13.5-11.557,28.383c0,14.883,6.954,23.009,11.556,28.386c3.439,4.018,4.086,4.878,4.086,8.169
			c0,3.291-0.648,4.151-4.086,8.169c-1.742,2.036-3.909,4.568-5.854,7.709c-4.52,7.299-2.267,16.881,5.033,21.401
			c2.549,1.578,5.376,2.331,8.169,2.331c5.205,0,10.291-2.613,13.232-7.364c0.686-1.107,1.777-2.383,3.042-3.86
			c4.602-5.377,11.556-13.503,11.556-28.387c0-14.884-6.954-23.009-11.556-28.386C228.554,406.613,227.908,405.752,227.908,402.462z
			"/>
	</g>
</g>
<g>
	<g>
		<path d="M156.274,402.462c0-3.289,0.648-4.148,4.086-8.165c4.602-5.377,11.557-13.501,11.557-28.383
			c0-8.586-6.961-15.546-15.546-15.546c-8.586,0-15.546,6.961-15.546,15.546c0,3.289-0.648,4.148-4.086,8.165
			c-4.602,5.377-11.557,13.5-11.557,28.383c0,14.883,6.954,23.009,11.556,28.386c3.439,4.018,4.086,4.878,4.086,8.169
			c0,3.291-0.648,4.151-4.086,8.169c-1.742,2.036-3.909,4.568-5.854,7.709c-4.52,7.299-2.267,16.881,5.033,21.401
			c2.549,1.578,5.376,2.331,8.169,2.331c5.205,0,10.291-2.613,13.232-7.364c0.686-1.107,1.777-2.383,3.042-3.86
			c4.602-5.377,11.556-13.503,11.556-28.387c0-14.884-6.954-23.009-11.556-28.386C156.921,406.613,156.274,405.752,156.274,402.462z
			"/>
	</g>
</g>
<g>
	<g>
		<path d="M457.171,33.373H54.829C24.595,33.373,0,57.97,0,88.203v176.064c0,29.87,24.3,54.171,54.17,54.171h403.66
			c29.869,0,54.17-24.3,54.17-54.171V88.203C512,57.97,487.404,33.373,457.171,33.373z M480.907,264.266
			c0,12.725-10.352,23.078-23.077,23.078H54.17c-12.724,0-23.077-10.352-23.077-23.078V123.818h449.815V264.266z M480.907,92.725
			H31.093v-4.522c0-13.089,10.648-23.736,23.736-23.736h402.343c13.088,0,23.735,10.647,23.735,23.736V92.725z"/>
	</g>
</g>
<g>
</g>
<g>
</g>
<g>
</g>
<g>
</g>
<g>
</g>
<g>
</g>
<g>
</g>
<g>
</g>
<g>
</g>
<g>
</g>
<g>
</g>
<g>
</g>
<g>
</g>
<g>
</g>
<g>
</g>
</svg>
