<svg width="18" height="19" viewBox="0 0 18 19" fill="none" xmlns="http://www.w3.org/2000/svg">
<path fill-rule="evenodd" clip-rule="evenodd" d="M12.0139 8.46608L13.2011 18.2836C13.2421 18.6222 13.0008 18.9298 12.6622 18.9707C12.637 18.9738 12.612 18.9752 12.5872 18.9752C12.2793 18.9752 12.0129 18.7451 11.975 18.4318L11.8949 17.7699H5.32689L5.24684 18.4318C5.20897 18.7452 4.94246 18.9752 4.6346 18.9752C4.60983 18.9752 4.58488 18.9738 4.55967 18.9707C4.22109 18.9298 3.97979 18.6222 4.02077 18.2836L5.20795 8.46602H4.94715C4.6061 8.46602 4.32965 8.18957 4.32965 7.84852V0.6175C4.32965 0.27645 4.6061 0 4.94715 0C5.2882 0 5.56465 0.27645 5.56465 0.6175V3.61551H9.60652C10.4879 3.61551 11.2049 4.33257 11.2049 5.21392V7.23108H12.2747C12.6157 7.23108 12.8922 7.50753 12.8922 7.84858C12.8922 8.18963 12.6157 8.46608 12.2747 8.46608H12.0139ZM9.60658 4.85051H9.22848V7.23108H9.96999V5.21392C9.96999 5.01353 9.80697 4.85057 9.60658 4.85051ZM7.25197 4.85051H7.99348V7.23108H7.25197V4.85051ZM10.7699 8.46602H6.45214L6.17594 10.7501H11.0461L10.7699 8.46602ZM5.56471 4.85057H6.01697V7.23115H5.56471V4.85057ZM6.02654 11.9853L5.4763 16.5351H11.7457L11.1954 11.9853H6.02654Z" fill="black"/>
</svg>
