<svg width="18" height="19" viewBox="0 0 18 19" fill="none" xmlns="http://www.w3.org/2000/svg">
<path fill-rule="evenodd" clip-rule="evenodd" d="M16.418 0H17.4727C17.7639 0 18 0.236109 18 0.527344C18 0.818578 17.7639 1.05469 17.4727 1.05469H16.418C16.1272 1.05469 15.8906 1.29125 15.8906 1.58203V13.2539V14.3086C15.8906 15.0371 15.3955 15.6519 14.7241 15.8349C14.796 16.0155 14.8359 16.2121 14.8359 16.418C14.8359 17.2903 14.1262 18 13.2539 18C12.3816 18 11.6719 17.2903 11.6719 16.418C11.6719 16.2331 11.704 16.0522 11.7626 15.8871H4.12805C4.18658 16.0522 4.21875 16.2331 4.21875 16.418C4.21875 17.2903 3.50905 18 2.63672 18C1.76439 18 1.05469 17.2903 1.05469 16.418C1.05469 16.2121 1.09462 16.0155 1.16652 15.8349C0.495176 15.6519 0 15.0371 0 14.3086C0 13.5801 0.495176 12.9653 1.16652 12.7823C1.09462 12.6017 1.05469 12.4051 1.05469 12.1992V5.80078C1.05469 4.92845 1.76439 4.21875 2.63672 4.21875H4.27279C4.51733 3.03877 5.59013 2.10938 6.89062 2.10938H7.94531C9.24588 2.10938 10.3186 3.0388 10.5632 4.21875H12.1992C13.0716 4.21875 13.7812 4.92845 13.7812 5.80078V12.1992C13.7812 12.3841 13.7491 12.5615 13.6905 12.7266H14.8359V1.58203C14.8359 0.709699 15.5456 0 16.418 0ZM12.1992 5.27344H11.6719V12.7266H12.1992C12.49 12.7266 12.7266 12.49 12.7266 12.1992V5.80078C12.7266 5.51 12.49 5.27344 12.1992 5.27344ZM6.89062 3.16406H7.94531C8.63402 3.16406 9.23875 3.61118 9.46635 4.21875H5.36959C5.59719 3.61118 6.20191 3.16406 6.89062 3.16406ZM10.6172 5.27344H4.21875V12.7266H10.6172V5.27344ZM2.10938 5.80078C2.10938 5.51 2.34594 5.27344 2.63672 5.27344H3.16406V12.7266H2.63672C2.34594 12.7266 2.10938 12.49 2.10938 12.1992V5.80078ZM2.10938 16.418C2.10938 16.7087 2.34594 16.9453 2.63672 16.9453C2.9275 16.9453 3.16406 16.7087 3.16406 16.418C3.16406 16.1272 2.9275 15.8906 2.63672 15.8906C2.34594 15.8906 2.10938 16.1272 2.10938 16.418ZM13.2539 16.9453C12.9631 16.9453 12.7266 16.7087 12.7266 16.418C12.7266 16.1272 12.9631 15.8906 13.2539 15.8906C13.5447 15.8906 13.7812 16.1272 13.7812 16.418C13.7812 16.7087 13.5447 16.9453 13.2539 16.9453ZM14.3086 14.8359C14.5994 14.8359 14.8359 14.5994 14.8359 14.3086V13.7812H1.58203C1.29125 13.7812 1.05469 14.0178 1.05469 14.3086C1.05469 14.5994 1.29125 14.8359 1.58203 14.8359H1.58207H14.3086Z" fill="black"/>
<path d="M9.03516 6.32812H5.80078C5.50955 6.32812 5.27344 6.56423 5.27344 6.85547C5.27344 7.1467 5.50955 7.38281 5.80078 7.38281H7.48828V7.91016C7.48828 8.20139 7.72439 8.4375 8.01562 8.4375C8.30686 8.4375 8.54297 8.20139 8.54297 7.91016V7.38281H9.03516C9.32639 7.38281 9.5625 7.1467 9.5625 6.85547C9.5625 6.56423 9.32639 6.32812 9.03516 6.32812Z" fill="black"/>
</svg>
