<svg width="18" height="19" viewBox="0 0 18 19" fill="none" xmlns="http://www.w3.org/2000/svg">
<path fill-rule="evenodd" clip-rule="evenodd" d="M17.9654 7.89474C17.9654 7.60407 17.7298 7.36842 17.4391 7.36842H15.8401C15.5838 4.01432 12.8983 1.32902 9.54435 1.07312V0.526316C9.54435 0.235649 9.3087 0 9.01803 0C8.72737 0 8.49172 0.235649 8.49172 0.526316V1.07109C6.11119 1.23112 4.6313 2.45807 3.79365 3.49898C2.91301 4.59333 2.32708 6.03372 2.20151 7.36842H0.526804C0.236137 7.36842 0.000488281 7.60407 0.000488281 7.89474C0.000488281 8.59803 0.289681 9.26182 0.814804 9.76382C1.32915 10.2555 1.99947 10.5263 2.70224 10.5263H5.346C4.88137 10.7661 4.36803 11.0505 3.80091 11.3814C2.93385 11.8872 2.6357 12.602 2.29049 13.4296L2.29045 13.4297L2.29038 13.4299L2.29038 13.4299C2.05562 13.9928 1.78956 14.6307 1.28403 15.3889C1.02056 15.7842 1.3447 16.1331 1.64515 16.4165C2.02954 16.7791 2.68884 17.3113 3.10537 17.6273L3.1634 17.6715C3.38652 17.8418 3.54873 17.9656 3.75512 17.9656C3.91031 17.9656 4.04242 17.8954 4.12701 17.8107C4.74263 17.1952 5.53326 16.8421 6.29614 16.8421H8.48344C9.52652 16.8421 10.5248 16.3974 11.2207 15.6239L15.4224 11.0003C15.5452 10.8652 15.5844 10.6829 15.5426 10.5173C16.8963 10.4104 17.9654 9.27544 17.9654 7.89474ZM9.01901 2.10579C12.0334 2.10579 14.5165 4.42214 14.7833 7.36842H3.25824C3.50814 5.07512 5.35659 2.10579 9.01901 2.10579ZM11.9579 10.5263H9.52112C9.56144 10.67 9.56803 10.8015 9.55915 10.9123C9.506 11.5808 8.86965 12.1169 8.04642 12.6316H9.85263L11.9579 10.5263ZM11.2189 14.0606L10.4399 14.9179C9.94158 15.4718 9.22849 15.7895 8.48344 15.7895H6.29614C5.3914 15.7895 4.47003 16.1418 3.7114 16.7676C3.32498 16.4723 2.68961 15.9549 2.36572 15.6513C2.79859 14.946 3.05256 14.337 3.26196 13.8349C3.57835 13.0763 3.76933 12.6184 4.3313 12.2906C5.30908 11.7202 6.10077 11.3041 6.75161 11.0185C7.93579 10.4989 8.28456 10.5812 8.32516 10.5943C8.45702 10.7014 8.51301 10.789 8.50986 10.8288C8.50828 10.8485 8.48031 11.0319 7.98701 11.402C7.59701 11.6945 7.06306 11.997 6.52616 12.3012L6.52613 12.3012L6.52604 12.3013C6.28844 12.4359 6.05025 12.5708 5.82372 12.7054C5.61993 12.8264 5.52221 13.0687 5.58498 13.2972C5.64775 13.5258 5.85551 13.6842 6.09249 13.6842H10.0706C10.2102 13.6842 10.3441 13.6287 10.4428 13.53L12.9543 11.0184C13.4328 10.5399 13.829 10.4344 14.2712 10.7018L11.2189 14.0606ZM2.70224 9.47368H15.3338C16.02 9.47368 16.6054 9.0267 16.8226 8.41403H1.15115C1.3833 9.02042 1.99993 9.47368 2.70224 9.47368Z" fill="black"/>
</svg>
