<svg width="18" height="19" viewBox="0 0 18 19" fill="none" xmlns="http://www.w3.org/2000/svg">
<path fill-rule="evenodd" clip-rule="evenodd" d="M16.4832 7.51711H16.4834C17.3553 7.79601 17.992 8.65823 17.992 9.67583V10.792C17.992 11.7203 17.4619 12.5192 16.7076 12.8639V13.1511C16.7076 15.7815 14.5087 17.9215 11.8055 17.9215H11.6227C11.3909 18.5496 10.7732 19 10.0493 19H8.45642C7.53506 19 6.7859 18.2707 6.7859 17.3744V17.2714C6.7859 16.3752 7.53506 15.6458 8.45642 15.6458H10.0493C10.8024 15.6458 11.4408 16.1336 11.6485 16.8013H11.8055C13.8735 16.8013 15.5562 15.1638 15.5562 13.1511V13.0452H14.7902C14.497 13.6238 13.8842 14.0226 13.1778 14.0226H12.3541C12.0361 14.0226 11.7785 13.7721 11.7785 13.4624V7.00555C11.7785 6.69636 12.0361 6.44529 12.3541 6.44529H13.1778C13.8842 6.44529 14.4967 6.84422 14.7902 7.42231H15.332V7.28619C15.332 3.88634 12.4897 1.12024 8.99598 1.12024C5.49346 1.12024 2.65996 3.8788 2.65996 7.28619V7.42231H3.2016C3.49522 6.84422 4.10777 6.44529 4.81417 6.44529H5.63766C5.95586 6.44529 6.21342 6.69636 6.21342 7.00555V13.4624C6.21342 13.7721 5.95586 14.0226 5.63766 14.0226H4.81417C4.10777 14.0226 3.49492 13.6238 3.2016 13.0452H2.11638C0.949368 13.0452 0 12.0345 0 10.792V9.67583C0 8.65823 0.636686 7.79601 1.50859 7.51711V7.28619C1.50859 3.25867 4.85827 0 8.99598 0C13.1245 0 16.4832 3.26852 16.4832 7.28619V7.51711ZM1.15122 9.67583V10.792C1.15122 11.4168 1.58412 11.925 2.11638 11.925H3.01703V8.54255H2.11638C1.58412 8.54255 1.15122 9.05121 1.15122 9.67583ZM4.81417 7.56567H5.06205V12.9023H4.81417C4.4638 12.9023 4.17749 12.6289 4.1687 12.2899V8.17812C4.17749 7.83907 4.4638 7.56567 4.81417 7.56567ZM7.93712 17.3744C7.93712 17.653 8.1701 17.8798 8.45642 17.8798H10.0493C10.3356 17.8798 10.5686 17.653 10.5686 17.3744V17.2714C10.5686 16.9916 10.3342 16.7662 10.0493 16.7662H8.45642C8.1701 16.7662 7.93712 16.9928 7.93712 17.2714V17.3744ZM13.1778 12.9023H12.9299V7.56567H13.1778C13.5282 7.56567 13.8143 7.83907 13.8233 8.17812V12.2899C13.8143 12.6289 13.5282 12.9023 13.1778 12.9023ZM15.8756 11.925C16.4078 11.925 16.8407 11.4168 16.8407 10.792V9.67583C16.8407 9.05121 16.4078 8.54255 15.8756 8.54255H14.9749V11.925H15.8756Z" fill="black"/>
</svg>
