<svg id="Capa_1" enable-background="new 0 0 512.004 512.004" height="512" viewBox="0 0 512.004 512.004" width="512" xmlns="http://www.w3.org/2000/svg"><g><path d="m497.004 265.002h-57.366c4.375-12.066 7.932-25.73 10.822-40 35.403 0 61.544-28.365 61.544-61 0-29.622-21.226-54.368-49.265-59.855.25-9.16.265-15.034.265-16.145 0-8.284-6.716-15-15-15h-176c-8.284 0-15 6.716-15 15 0 5.168.305 113.388 23.366 177h-80.706c13.011-11.279 19.519-22.167 21.287-25.401 6.103-9.962-1.063-22.838-12.797-22.838-5.973 0-11.116 3.497-13.534 8.546-.203-.101-7.485 15.193-29.04 27.082 8.003-34.613-18.443-67.389-53.575-67.389-35.196 0-61.685 32.901-53.53 67.584-21.786-11.735-30.222-27.619-30.166-27.513l-.035.019c-2.525-4.738-7.51-7.965-13.254-7.965-12.222 0-19.205 13.796-12.28 23.637 2.414 4.045 9.021 13.967 21.058 24.238h-8.792c-8.284 0-15 6.716-15 15v144c0 8.284 6.716 15 15 15h65c8.284 0 15-6.716 15-15v-65h322v65c0 8.284 6.716 15 15 15h65c8.284 0 15-6.716 15-15 0-16.054 0-129.064 0-144-.002-8.284-6.718-15-15.002-15zm-35.618-130.206c12.001 4.28 20.617 15.753 20.617 29.206 0 15.539-11.492 28.44-26.423 30.66 2.956-21.205 4.736-42.182 5.806-59.866zm-28.604-31.794c-1.157 43.366-7.109 122.907-25.491 162h-94.574c-18.471-39.282-24.352-119.271-25.491-162zm-320.778 112c13.785 0 25 11.215 25 25s-11.215 25-25 25-25-11.215-25-25 11.214-25 25-25zm-47 194h-35v-50h35zm417 0h-35v-50h35zm0-80c-20.491 0-429.666 0-452 0v-34h452z"/><path d="m349.397 194.608c5.859 5.859 15.355 5.858 21.213 0l16-16c5.858-5.857 5.858-15.355 0-21.213-5.857-5.857-15.355-5.857-21.213 0l-5.394 5.394-5.394-5.394c-5.857-5.857-15.355-5.857-21.213 0s-5.858 15.355 0 21.213z"/></g></svg>