<svg width="18" height="19" viewBox="0 0 18 19" fill="none" xmlns="http://www.w3.org/2000/svg">
<path fill-rule="evenodd" clip-rule="evenodd" d="M14.6308 8.02364H15.9685C17.0844 8.02364 17.9922 8.93149 17.9922 10.0474V10.3005C17.9922 12.1968 16.4495 13.7396 14.5531 13.7396H13.3776C13.1791 14.2051 12.8892 14.6291 12.5243 14.9822H14.6486C14.959 14.9822 15.2415 15.14 15.4043 15.4044C15.5671 15.6688 15.5809 15.9921 15.4411 16.2693L15.0204 17.1039C14.6865 17.7661 14.0184 18.1775 13.2768 18.1775H2.2567C1.51227 18.1775 0.843075 17.7639 0.510164 17.0981L0.0944954 16.2667C-0.0440726 15.9895 -0.0295164 15.6667 0.133371 15.4031C0.296294 15.1396 0.578507 14.9822 0.888377 14.9822H3.0127C2.47245 14.4595 2.09505 13.782 1.93816 13.0433L0.941312 8.34991C0.83917 7.86892 0.958069 7.3739 1.26755 6.99178C1.57703 6.60966 2.03654 6.3905 2.52826 6.3905H13.0087C13.5004 6.3905 13.9599 6.60966 14.2694 6.99178C14.5091 7.28766 14.6338 7.65128 14.6308 8.02364ZM5.64716 14.9822H9.88976C10.5125 14.9822 11.1219 14.7664 11.6058 14.3744C12.0897 13.9825 12.4275 13.4312 12.5569 12.822L13.5537 8.12862C13.5889 7.96339 13.548 7.79337 13.4417 7.66211C13.3354 7.53086 13.1775 7.45559 13.0087 7.45559H2.52822C2.35934 7.45559 2.20149 7.53086 2.09519 7.66211C1.9889 7.79337 1.94807 7.96339 1.98315 8.12862L2.98 12.822C3.10937 13.4312 3.44715 13.9825 3.93105 14.3744C4.41496 14.7664 5.02444 14.9822 5.64716 14.9822ZM13.2768 17.1124H2.2567C1.91835 17.1124 1.61413 16.9244 1.46285 16.6217L1.1756 16.0473H5.64716H9.88976H14.3603L14.0693 16.6244C13.9176 16.9254 13.6139 17.1124 13.2768 17.1124ZM14.5531 12.6745C15.8622 12.6745 16.9272 11.6095 16.9272 10.3005V10.0474C16.9272 9.51877 16.4971 9.08873 15.9685 9.08873H14.4387L13.6771 12.6745H14.5531Z" fill="black"/>
<path d="M6.44514 5.28996C6.73925 5.28996 6.97769 5.05152 6.97769 4.75741V4.15894C6.97769 3.9538 7.08153 3.76642 7.2555 3.65767C7.74292 3.35302 8.0339 2.82801 8.0339 2.25325V1.45674C8.0339 1.16263 7.79546 0.924194 7.50136 0.924194C7.20725 0.924194 6.96881 1.16263 6.96881 1.45674V2.25325C6.96881 2.45838 6.86496 2.64577 6.691 2.75451C6.20358 3.05916 5.9126 3.58418 5.9126 4.15894V4.75741C5.9126 5.05152 6.15104 5.28996 6.44514 5.28996Z" fill="black"/>
<path d="M9.20723 4.36576C9.50133 4.36576 9.73977 4.12733 9.73977 3.83322V3.23475C9.73977 3.02961 9.84362 2.84222 10.0176 2.73348C10.505 2.42883 10.796 1.90381 10.796 1.32905V0.532544C10.796 0.238438 10.5575 0 10.2634 0C9.96933 0 9.7309 0.238438 9.7309 0.532544V1.32905C9.7309 1.53419 9.62705 1.72157 9.45309 1.83032C8.96566 2.13497 8.67468 2.65999 8.67468 3.23475V3.83322C8.67468 4.12733 8.91308 4.36576 9.20723 4.36576Z" fill="black"/>
</svg>
