<svg width="18" height="19" viewBox="0 0 18 19" fill="none" xmlns="http://www.w3.org/2000/svg">
<path fill-rule="evenodd" clip-rule="evenodd" d="M12.1392 2.0155L17.5994 3.36736C17.8347 3.42559 18 3.6368 18 3.87933V18.0945C18 18.2567 17.9254 18.4098 17.7977 18.5098C17.7039 18.5833 17.5892 18.6219 17.4727 18.6219C17.4304 18.6219 17.3878 18.6169 17.3459 18.6065L12.0064 17.2844L6.29091 18.563C6.21414 18.5801 6.13449 18.5799 6.05772 18.5621L0.409241 17.2642C0.169739 17.2093 0 16.996 0 16.7504V2.52746C0 2.36665 0.0733338 2.21476 0.19899 2.11478C0.324783 2.01467 0.489304 1.97732 0.645859 2.01357L6.19327 3.29334L11.897 2.01289C11.9769 1.9949 12.0598 1.99572 12.1392 2.0155ZM12.1392 16.2308L16.9453 17.4208V4.292L12.0065 3.06922L6.30711 4.34872C6.23007 4.36602 6.15001 4.36588 6.0731 4.34803L1.05469 3.19021V16.3304L6.17734 17.5075L11.8974 16.2281C11.9772 16.2102 12.06 16.2111 12.1392 16.2308Z" fill="black"/>
<path d="M5.09766 7.42273C5.09766 7.13242 4.86076 6.89539 4.57031 6.89539C4.27986 6.89539 4.04297 7.13242 4.04297 7.42273C4.04297 7.71318 4.27986 7.95007 4.57031 7.95007C4.86076 7.95007 5.09766 7.71318 5.09766 7.42273Z" fill="black"/>
<path fill-rule="evenodd" clip-rule="evenodd" d="M10.9688 12.0985C10.9688 12.4764 11.0875 12.941 11.3001 13.4254L5.59753 10.4066C5.86299 10.1456 6.08533 9.8378 6.23666 9.6042C6.73421 8.83667 7.03125 8.02107 7.03125 7.42273C7.03125 6.06578 5.92726 4.96179 4.57031 4.96179C3.21336 4.96179 2.10938 6.06578 2.10938 7.42273C2.10938 8.02107 2.40642 8.83667 2.90396 9.6042C3.1723 10.0182 3.66367 10.6648 4.22218 10.8719C4.22218 10.8719 13.0023 15.5173 13.0265 15.5258C13.1575 15.5815 13.2926 15.6141 13.4297 15.6141C14.1272 15.6141 14.7732 14.7782 15.0962 14.28C15.5936 13.5125 15.8906 12.6969 15.8906 12.0985C15.8906 10.7416 14.7866 9.63757 13.4297 9.63757C12.0727 9.63757 10.9688 10.7416 10.9688 12.0985ZM3.16406 7.42273C3.16406 6.64737 3.79495 6.01648 4.57031 6.01648C5.34581 6.01648 5.97656 6.64737 5.97656 7.42273C5.97656 7.79008 5.75134 8.38953 5.4028 8.9501C5.02831 9.55229 4.69322 9.8264 4.57031 9.87817C4.44727 9.8264 4.11232 9.55229 3.73782 8.9501C3.38928 8.38953 3.16406 7.79008 3.16406 7.42273ZM14.8359 12.0985C14.8359 11.3232 14.2052 10.6923 13.4297 10.6923C12.6543 10.6923 12.0234 11.3232 12.0234 12.0985C12.0234 12.4659 12.2487 13.0653 12.5972 13.6259C12.9212 14.1469 13.2153 14.422 13.3684 14.5203L13.4309 14.5533C13.5549 14.5004 13.8888 14.2262 14.2622 13.6257C14.6107 13.0653 14.8359 12.4659 14.8359 12.0985Z" fill="black"/>
<path d="M13.4297 12.6259C13.7201 12.6259 13.957 12.389 13.957 12.0985C13.957 11.8081 13.7201 11.5712 13.4297 11.5712C13.1392 11.5712 12.9023 11.8081 12.9023 12.0985C12.9023 12.389 13.1392 12.6259 13.4297 12.6259Z" fill="black"/>
</svg>
