<svg width="18" height="19" viewBox="0 0 18 19" fill="none" xmlns="http://www.w3.org/2000/svg">
<path fill-rule="evenodd" clip-rule="evenodd" d="M13.6426 7.40825H16.0984C16.9281 7.40825 17.603 6.73332 17.603 5.90358V1.50467C17.603 0.675072 16.928 0 16.0984 0H4.35064C1.95172 0 0 1.95172 0 4.35064V16.1205C0 17.7083 1.29173 19 2.87931 19H14.7237C16.3115 19 17.603 17.7083 17.603 16.1207C17.603 15.8108 17.3518 15.5596 17.042 15.5596H12.9564L13.0573 14.6308H13.6445C14.5193 14.6308 15.2309 13.9192 15.2309 13.0444C15.2309 12.1696 14.5193 11.458 13.6445 11.458H11.1534V9.89762C12.4147 9.66612 13.4111 8.66968 13.6426 7.40825ZM10.5923 8.82739C9.69526 8.82739 8.93568 8.22784 8.69316 7.40839H12.4915C12.249 8.22784 11.4893 8.82739 10.5923 8.82739ZM4.35064 1.12198C2.5704 1.12198 1.12198 2.5704 1.12198 4.35064V15.5596H3.84908V6.84726C3.84908 6.53748 4.10015 6.28627 4.41007 6.28627H16.0984C16.3093 6.28627 16.4811 6.11464 16.4811 5.90358V1.50467C16.4811 1.29375 16.3094 1.12198 16.0984 1.12198H4.35064ZM14.7237 17.878H2.87931C2.10639 17.878 1.44843 17.3765 1.21388 16.6817H16.3892C16.1546 17.3765 15.4966 17.878 14.7237 17.878ZM13.6445 13.5088C13.9007 13.5088 14.109 13.3005 14.109 13.0444C14.109 12.7882 13.9007 12.5801 13.6445 12.5801H13.2802L13.1793 13.5088H13.6445ZM11.8277 15.5596H9.35693L9.03294 12.5801H12.1516L11.8277 15.5596ZM7.99011 11.6444C8.09651 11.5258 8.24843 11.458 8.40774 11.458H10.0313V9.89762C8.76984 9.66612 7.7734 8.66968 7.5419 7.40825H4.97106V15.5596H8.22828L7.84994 12.0797C7.83283 11.9212 7.88371 11.7629 7.99011 11.6444Z" fill="black"/>
<path fill-rule="evenodd" clip-rule="evenodd" d="M5.62874 5.35755H12.9328C13.8444 5.35755 14.5862 4.6158 14.5862 3.70415C14.5862 2.79251 13.8444 2.0509 12.9328 2.0509H5.62874C4.71709 2.0509 3.97534 2.79251 3.97534 3.70415C3.97534 4.6158 4.71709 5.35755 5.62874 5.35755ZM13.464 3.70415C13.464 3.99712 13.2257 4.23543 12.9328 4.23543H7.08137V3.17288H12.9328C13.2257 3.17288 13.464 3.41119 13.464 3.70415ZM5.95939 3.17288H5.62874C5.33578 3.17288 5.09747 3.41119 5.09747 3.70415C5.09747 3.99712 5.33578 4.23543 5.62874 4.23543H5.95939V3.17288Z" fill="black"/>
</svg>
