<svg width="18" height="19" viewBox="0 0 18 19" fill="none" xmlns="http://www.w3.org/2000/svg">
<path fill-rule="evenodd" clip-rule="evenodd" d="M13.8184 9.5C13.8184 9.85365 13.6219 10.1716 13.3055 10.3298C12.9892 10.488 12.6169 10.4544 12.334 10.2422L10.1074 8.57227H7.84375L5.61719 10.2422C5.45268 10.3656 5.25789 10.4286 5.06151 10.4286C4.9202 10.4286 4.77803 10.396 4.64566 10.3298C4.32931 10.1716 4.13281 9.85365 4.13281 9.5V8.57227H3.55339C2.54282 8.57227 1.7207 7.74436 1.7207 6.72671V1.84552C1.7207 0.82791 2.54282 0 3.55339 0H14.3978C15.4083 0 16.2305 0.82791 16.2305 1.84552V6.72674C16.2305 7.74436 15.4083 8.57227 14.3978 8.57227H13.8184V9.5ZM3.55339 7.45898H4.68945C4.99687 7.45898 5.24609 7.70821 5.24609 8.01559V9.12887L7.32422 7.57028C7.42055 7.49802 7.53775 7.45895 7.6582 7.45895H10.293C10.4134 7.45895 10.5306 7.49802 10.627 7.57028L12.7051 9.12887V8.01559C12.7051 7.70817 12.9543 7.45895 13.2617 7.45895H14.3978C14.7945 7.45895 15.1172 7.13049 15.1172 6.72671V1.84552C15.1172 1.44177 14.7945 1.11328 14.3978 1.11328H3.55339C3.15669 1.11328 2.83398 1.44177 2.83398 1.84552V6.72674C2.83398 7.13049 3.15669 7.45898 3.55339 7.45898Z" fill="black"/>
<path fill-rule="evenodd" clip-rule="evenodd" d="M7.27169 16.7062C7.14596 15.6435 6.43097 14.7796 5.47734 14.4246C5.68244 14.1064 5.80201 13.7282 5.80201 13.3223C5.80201 12.1968 4.88641 11.2812 3.76099 11.2812C2.63558 11.2812 1.71998 12.1968 1.71998 13.3223C1.71998 13.7221 1.83602 14.0951 2.03548 14.4104C1.06214 14.756 0.32908 15.6289 0.201646 16.7062L0.0038531 18.378C-0.0148129 18.5359 0.0349137 18.6943 0.140564 18.8132C0.246214 18.9321 0.397621 19 0.556634 19H6.9167C7.07571 19 7.22716 18.9319 7.33277 18.8131C7.43838 18.6942 7.48815 18.5358 7.46948 18.3779L7.27169 16.7062ZM3.76099 12.3945C4.27254 12.3945 4.68873 12.8107 4.68873 13.3222C4.68873 13.8338 4.27254 14.25 3.76099 14.25C3.24944 14.25 2.83326 13.8338 2.83326 13.3222C2.83326 12.8107 3.24944 12.3945 3.76099 12.3945ZM1.30725 16.837L1.18304 17.8867H6.29033L6.16612 16.837C6.06675 15.9968 5.3538 15.3632 4.50778 15.3632H2.96559C2.11957 15.3632 1.40662 15.9968 1.30725 16.837Z" fill="black"/>
<path fill-rule="evenodd" clip-rule="evenodd" d="M17.9099 18.3779L17.7121 16.7062C17.5864 15.6435 16.8714 14.7796 15.9178 14.4246C16.1229 14.1064 16.2424 13.7282 16.2424 13.3223C16.2424 12.1968 15.3268 11.2812 14.2014 11.2812C13.076 11.2812 12.1604 12.1968 12.1604 13.3223C12.1604 13.7221 12.2764 14.0951 12.4759 14.4104C11.5026 14.756 10.7695 15.6289 10.6421 16.7062L10.4443 18.378C10.4256 18.5359 10.4753 18.6943 10.581 18.8132C10.6866 18.9321 10.838 19 10.9971 19H17.3571C17.5161 19 17.6676 18.932 17.7732 18.8131C17.8788 18.6943 17.9286 18.5359 17.9099 18.3779ZM14.2014 12.3945C14.713 12.3945 15.1292 12.8107 15.1292 13.3223C15.1292 13.8338 14.713 14.25 14.2014 14.25C13.6899 14.25 13.2737 13.8338 13.2737 13.3223C13.2737 12.8107 13.6898 12.3945 14.2014 12.3945ZM11.7476 16.837L11.6234 17.8867H16.7307L16.6065 16.837C16.5071 15.9968 15.7942 15.3633 14.9482 15.3633H13.406C12.56 15.3633 11.8471 15.9968 11.7476 16.837Z" fill="black"/>
<path d="M4.91211 3.72534H10.1816C10.4891 3.72534 10.7383 3.47612 10.7383 3.1687C10.7383 2.86129 10.4891 2.61206 10.1816 2.61206H4.91211C4.6047 2.61206 4.35547 2.86129 4.35547 3.1687C4.35547 3.47612 4.6047 3.72534 4.91211 3.72534Z" fill="black"/>
<path d="M13.5957 5.39526C13.5957 5.08785 13.3465 4.83862 13.0391 4.83862H4.91211C4.6047 4.83862 4.35547 5.08785 4.35547 5.39526C4.35547 5.70268 4.6047 5.9519 4.91211 5.9519H13.0391C13.3465 5.9519 13.5957 5.70268 13.5957 5.39526Z" fill="black"/>
</svg>
