<svg id="Capa_1" enable-background="new 0 0 512 512" height="512" viewBox="0 0 512 512" width="512" xmlns="http://www.w3.org/2000/svg"><g><path d="m29.405 441.534-12.957 51.828c-1.12 4.481-.113 9.229 2.729 12.869 2.843 3.641 7.204 5.769 11.823 5.769h450c4.619 0 8.98-2.128 11.823-5.769 2.842-3.641 3.849-8.388 2.729-12.869l-12.957-51.828c-5.482-21.927-17.582-40.757-33.855-54.583 25.056-4.722 38.12-11.111 38.967-11.534 7.41-3.705 10.413-12.715 6.708-20.125s-12.716-10.413-20.125-6.708c-.267.134-28.367 13.416-83.29 13.416-9.832 0-64.27 0-75 0 0 0-.029-15.72-.054-16.077 36.222-20.975 60.054-60.007 60.054-103.923 0-11.694 0-200.223 0-212 0-5.682-3.21-10.875-8.292-13.416-1.354-.678-34.06-16.584-111.708-16.584s-110.354 15.906-111.708 16.584c-5.082 2.541-8.292 7.734-8.292 13.416v212c0 43.737 23.673 82.856 60.054 103.923-.025.357-.054.714-.054 1.077v15c-11.208 0-65.432 0-75 0-54.619 0-82.724-13.147-83.364-13.452-7.395-3.649-16.359-.642-20.052 6.744-3.705 7.41-.701 16.42 6.708 20.125.847.424 13.912 6.813 38.967 11.534-16.273 13.826-28.372 32.656-33.854 54.583zm351.325-49.534c34.479 0 64.399 23.361 72.761 56.81l8.297 33.19h-190.788v-66.972l34.541-23.028zm-124.73-3.028-30-20v-10.769c9.592 2.478 19.645 3.797 30 3.797s20.408-1.319 30-3.797v10.769zm-90-348.508c12.995-3.974 41.628-10.464 90-10.464s77.005 6.49 90 10.464v28.894c-17.738-4.472-46.962-9.358-90-9.358s-72.262 4.886-90 9.358zm0 60c12.992-3.973 41.622-10.464 90-10.464s77.008 6.491 90 10.464v28.893c-17.738-4.472-46.962-9.358-90-9.358s-72.262 4.886-90 9.358c0-10.882 0-18.563 0-28.893zm0 60c12.992-3.973 41.622-10.464 90-10.464s77.008 6.491 90 10.464v79.85c-10.843-2.398-20.788-7.047-31.133-11.896-16.416-7.696-35.023-16.418-58.867-16.418s-42.451 8.722-58.867 16.418c-10.346 4.85-20.291 9.499-31.133 11.896zm4.473 109.56c14.962-3.01 27.746-8.981 39.394-14.442 14.899-6.985 28.972-13.582 46.133-13.582s31.234 6.597 46.133 13.582c11.648 5.461 24.432 11.432 39.394 14.442-11.807 35.946-45.682 61.976-85.527 61.976s-73.72-26.03-85.527-61.976zm-39.203 121.976h75.189l34.541 23.028v66.972h-190.789l8.298-33.19c8.362-33.449 38.283-56.81 72.761-56.81z"/><circle cx="196" cy="437" r="15"/><circle cx="316" cy="437" r="15"/></g></svg>