<svg width="24" height="24" viewBox="0 0 24 24" fill="none" xmlns="http://www.w3.org/2000/svg">
<path d="M1.37837 20.6969L0.771012 23.1263C0.718512 23.3364 0.765716 23.559 0.898934 23.7296C1.0322 23.9002 1.23662 24 1.45314 24H22.5469C22.7634 24 22.9678 23.9002 23.1011 23.7296C23.2343 23.5589 23.2815 23.3364 23.229 23.1263L22.6217 20.6969C22.3647 19.6691 21.7975 18.7864 21.0347 18.1383C22.2092 17.917 22.8216 17.6175 22.8613 17.5977C23.2086 17.424 23.3494 17.0017 23.1757 16.6543C23.002 16.307 22.5797 16.1662 22.2324 16.3399C22.2198 16.3462 20.9027 16.9688 18.3281 16.9688C17.8673 16.9688 15.3155 16.9688 14.8125 16.9688C14.8125 16.9688 14.8112 16.2319 14.81 16.2151C16.5079 15.2319 17.625 13.4023 17.625 11.3438C17.625 10.7956 17.625 1.9583 17.625 1.40625C17.625 1.13991 17.4745 0.896484 17.2363 0.777375C17.1729 0.745594 15.6398 0 12 0C8.36026 0 6.82717 0.745594 6.7637 0.777375C6.52548 0.896484 6.37501 1.13991 6.37501 1.40625V11.3438C6.37501 13.3939 7.48468 15.2276 9.19004 16.2151C9.18887 16.2319 9.18751 16.2486 9.18751 16.2656V16.9688C8.66214 16.9688 6.12039 16.9688 5.67189 16.9688C3.11162 16.9688 1.7942 16.3525 1.7642 16.3382C1.41756 16.1671 0.997372 16.3081 0.824262 16.6543C0.650591 17.0017 0.791403 17.424 1.1387 17.5977C1.1784 17.6175 1.79082 17.917 2.96528 18.1383C2.20248 18.7864 1.63534 19.6691 1.37837 20.6969V20.6969ZM17.8467 18.375C19.4629 18.375 20.8654 19.47 21.2574 21.038L21.6463 22.5938H12.7031V19.4544L14.3222 18.375H17.8467ZM12 18.2331L10.5938 17.2956V16.7908C11.0434 16.9069 11.5146 16.9688 12 16.9688C12.4854 16.9688 12.9566 16.9069 13.4063 16.7908V17.2956L12 18.2331ZM7.78126 1.89675C8.3904 1.71047 9.73257 1.40625 12 1.40625C14.2674 1.40625 15.6096 1.71047 16.2188 1.89675V3.25116C15.3873 3.04153 14.0174 2.8125 12 2.8125C9.98261 2.8125 8.61273 3.04153 7.78126 3.25116V1.89675ZM7.78126 4.70925C8.39026 4.52302 9.73229 4.21875 12 4.21875C14.2677 4.21875 15.6098 4.52302 16.2188 4.70925V6.06361C15.3873 5.85398 14.0174 5.62495 12 5.62495C9.98261 5.62495 8.61273 5.85398 7.78126 6.06361C7.78126 5.55352 7.78126 5.19347 7.78126 4.70925ZM7.78126 7.52175C8.39026 7.33552 9.73229 7.03125 12 7.03125C14.2677 7.03125 15.6098 7.33552 16.2188 7.52175V11.2647C15.7105 11.1523 15.2443 10.9344 14.7594 10.7071C13.9899 10.3463 13.1177 9.9375 12 9.9375C10.8823 9.9375 10.0101 10.3463 9.24062 10.7071C8.75565 10.9344 8.28948 11.1524 7.78126 11.2647V7.52175ZM7.99093 12.6574C8.69228 12.5163 9.29153 12.2364 9.83753 11.9804C10.5359 11.653 11.1956 11.3438 12 11.3438C12.8044 11.3438 13.4641 11.653 14.1625 11.9804C14.7085 12.2364 15.3077 12.5163 16.0091 12.6574C15.4556 14.3423 13.8677 15.5625 12 15.5625C10.1323 15.5625 8.54439 14.3423 7.99093 12.6574ZM6.15329 18.375H9.67778L11.2969 19.4544V22.5938H2.35365L2.74262 21.038C3.13459 19.47 4.53714 18.375 6.15329 18.375Z" fill="black"/>
<path d="M9.1875 21.1875C9.57583 21.1875 9.89062 20.8727 9.89062 20.4844C9.89062 20.096 9.57583 19.7812 9.1875 19.7812C8.79917 19.7812 8.48438 20.096 8.48438 20.4844C8.48438 20.8727 8.79917 21.1875 9.1875 21.1875Z" fill="black"/>
<path d="M14.8125 21.1875C15.2008 21.1875 15.5156 20.8727 15.5156 20.4844C15.5156 20.096 15.2008 19.7812 14.8125 19.7812C14.4242 19.7812 14.1094 20.096 14.1094 20.4844C14.1094 20.8727 14.4242 21.1875 14.8125 21.1875Z" fill="black"/>
</svg>
