<svg width="18" height="19" viewBox="0 0 18 19" fill="none" xmlns="http://www.w3.org/2000/svg">
<path fill-rule="evenodd" clip-rule="evenodd" d="M2.12402 8.99992C2.12402 5.20868 5.20844 2.12427 8.99968 2.12427C12.7909 2.12427 15.8753 5.20868 15.8753 8.99992C15.8753 12.7912 12.7909 15.8756 8.99968 15.8756C5.20844 15.8756 2.12402 12.7912 2.12402 8.99992ZM3.17871 8.99992C3.17871 12.2096 5.78989 14.8209 8.99968 14.8209C12.2095 14.8209 14.8206 12.2096 14.8206 8.99992C14.8206 5.79027 12.2095 3.17896 8.99968 3.17896C5.78989 3.17896 3.17871 5.79027 3.17871 8.99992Z" fill="black"/>
<path fill-rule="evenodd" clip-rule="evenodd" d="M8.62938 3.8046C9.76235 4.20546 10.4829 5.32181 10.3816 6.51932L10.2784 7.73647L13.8184 7.48021C13.9957 7.4673 14.1679 7.54489 14.2758 7.68648C14.3837 7.82793 14.413 8.01428 14.3537 8.1821L14.1955 8.62924C13.8197 9.69135 12.8153 10.3909 11.7047 10.3909C11.6304 10.3909 11.5557 10.3879 11.4807 10.3814L10.2636 10.2784L10.5199 13.8184C10.5326 13.9958 10.4552 14.1679 10.3136 14.2758C10.2205 14.3468 10.1079 14.3837 9.99388 14.3837C9.93469 14.3837 9.87523 14.3739 9.81796 14.3535L9.37068 14.1953C8.23772 13.7946 7.51715 12.6783 7.6185 11.4807L7.72164 10.2635L4.1817 10.5199C4.16893 10.5207 4.15616 10.5212 4.14353 10.5212C3.97983 10.5212 3.82437 10.445 3.72426 10.3136C3.61632 10.1721 3.58707 9.98564 3.64639 9.81796L3.8046 9.37068C4.20546 8.23772 5.32167 7.51688 6.51932 7.6185L7.73647 7.72164L7.48021 4.1817C7.46744 4.00414 7.54489 3.8322 7.68648 3.72426C7.82793 3.61632 8.01428 3.58707 8.1821 3.64639L8.62938 3.8046ZM10.7131 9.25807L11.5697 9.33058C12.1701 9.38153 12.7374 9.08806 13.0484 8.5934L10.7155 8.76232C10.7264 8.84004 10.7323 8.91928 10.7323 9.00003C10.7323 9.08765 10.7257 9.17375 10.7131 9.25807ZM9.40666 13.0484C8.912 12.7373 8.61867 12.1705 8.66948 11.5697L8.74199 10.7131C8.82617 10.7257 8.91228 10.7323 9.00003 10.7323C9.08064 10.7323 9.15988 10.7264 9.23775 10.7157L9.40666 13.0484ZM6.43033 8.66948C6.38542 8.66564 6.34038 8.66385 6.29575 8.66385C5.74588 8.66385 5.23927 8.94922 4.95171 9.40666L7.28452 9.23775C7.27367 9.16002 7.26776 9.08078 7.26776 9.00003C7.26776 8.91242 7.27435 8.82631 7.28699 8.74199L6.43033 8.66948ZM8.5934 4.95171C9.08806 5.26276 9.38139 5.82951 9.33058 6.43033L9.25807 7.28699C9.17389 7.27435 9.08779 7.26776 9.00003 7.26776C8.91942 7.26776 8.84018 7.27367 8.76232 7.28438L8.5934 4.95171ZM9.00003 9.67761C9.3737 9.67761 9.67761 9.3737 9.67761 9.00003C9.67761 8.62636 9.3737 8.32245 9.00003 8.32245C8.62636 8.32245 8.32245 8.62636 8.32245 9.00003C8.32245 9.3737 8.62636 9.67761 9.00003 9.67761Z" fill="black"/>
<path fill-rule="evenodd" clip-rule="evenodd" d="M2.28516 0H15.7148C16.9748 0 18 1.02516 18 2.28516V15.7148C18 16.9748 16.9748 18 15.7148 18H2.28516C1.02516 18 0 16.9748 0 15.7148V2.28516C0 1.02516 1.02516 0 2.28516 0ZM15.7148 16.9453C16.3934 16.9453 16.9453 16.3934 16.9453 15.7148V2.28516C16.9453 1.60661 16.3934 1.05469 15.7148 1.05469H2.28516C1.60661 1.05469 1.05469 1.60661 1.05469 2.28516V15.7148C1.05469 16.3934 1.60661 16.9453 2.28516 16.9453H15.7148Z" fill="black"/>
</svg>
