<svg width="18" height="19" viewBox="0 0 18 19" fill="none" xmlns="http://www.w3.org/2000/svg">
<path fill-rule="evenodd" clip-rule="evenodd" d="M4.59205 1.00264H4.17319C3.89632 1.00264 3.67188 0.778198 3.67188 0.501319C3.67188 0.224441 3.89632 0 4.17319 0H13.6983C13.9751 0 14.1996 0.224441 14.1996 0.501319C14.1996 0.778198 13.9751 1.00264 13.6983 1.00264H13.2794V5.64009C13.2794 5.91697 13.055 6.14141 12.7781 6.14141H5.09337C4.81649 6.14141 4.59205 5.91697 4.59205 5.64009V1.00264ZM5.59469 1.00264V5.13877H12.2768V1.00264H5.59469Z" fill="black"/>
<path fill-rule="evenodd" clip-rule="evenodd" d="M16.493 9.35018V8.92982C16.493 7.6661 15.4648 6.63794 14.2011 6.63794H13.9033C12.6396 6.63794 11.6115 7.66605 11.6115 8.92982V10.6528C11.5505 10.4894 11.4712 10.3349 11.3764 10.1914V8.92982C11.3764 7.6661 10.3483 6.63794 9.08461 6.63794H8.78677C7.52305 6.63794 6.49494 7.66605 6.49494 8.92982V10.1914C6.40014 10.3349 6.32088 10.4894 6.25992 10.6528V8.92982C6.25992 7.6661 5.23182 6.63794 3.96809 6.63794H3.67026C2.40653 6.63794 1.37843 7.66605 1.37843 8.92982V9.35018C0.568045 9.70381 0 10.5124 0 11.4516V15.6899C0 15.9667 0.224441 16.1912 0.501319 16.1912H2.3182V17.9554H1.8796C1.60272 17.9554 1.37828 18.1798 1.37828 18.4567C1.37828 18.7336 1.60272 18.958 1.8796 18.958H3.75944C4.03632 18.958 4.26076 18.7336 4.26076 18.4567C4.26076 18.1798 4.03632 17.9554 3.75944 17.9554H3.32084V16.1912H5.13787C5.41475 16.1912 5.63919 15.9667 5.63919 15.6899V12.6842H5.7585C5.89852 12.6842 6.025 12.6266 6.11594 12.5341V15.6899C6.11594 15.9667 6.34038 16.1912 6.61726 16.1912H8.4343V17.9554H7.99569C7.71881 17.9554 7.49437 18.1798 7.49437 18.4567C7.49437 18.7336 7.71881 18.958 7.99569 18.958H9.87554C10.1524 18.958 10.3769 18.7336 10.3769 18.4567C10.3769 18.1798 10.1524 17.9554 9.87554 17.9554H9.43693V16.1912H11.254C11.5308 16.1912 11.7553 15.9667 11.7553 15.6899V12.5341C11.8462 12.6266 11.9727 12.6842 12.1127 12.6842H12.232V15.6899C12.232 15.9667 12.4565 16.1912 12.7334 16.1912H14.5504V17.9554H14.1118C13.8349 17.9554 13.6105 18.1798 13.6105 18.4567C13.6105 18.7336 13.8349 18.958 14.1118 18.958H15.9916C16.2685 18.958 16.493 18.7336 16.493 18.4567C16.493 18.1798 16.2685 17.9554 15.9916 17.9554H15.553V16.1912H17.3701C17.6469 16.1912 17.8714 15.9667 17.8714 15.6899V11.4516C17.8714 10.5124 17.3033 9.70381 16.493 9.35018ZM1.00249 15.1885V11.4516C1.00249 10.7407 1.58081 10.1624 2.29168 10.1624H3.34731C4.05818 10.1624 4.6365 10.7407 4.6365 11.4516V15.1885H1.00249ZM2.38092 9.15973H3.34731C4.14375 9.15973 4.8463 9.5683 5.25713 10.1866V8.92982C5.25713 8.21895 4.67881 7.64058 3.96794 7.64058H3.67011C2.95924 7.64058 2.38092 8.21895 2.38092 8.92982V9.15973ZM8.78667 7.64058H9.08451C9.79538 7.64058 10.3737 8.21895 10.3737 8.92982V9.34877C10.0945 9.2274 9.78675 9.15973 9.46335 9.15973H8.40773C8.08437 9.15973 7.77661 9.2274 7.49738 9.34877V8.92982C7.49748 8.21895 8.0758 7.64058 8.78667 7.64058ZM8.40778 10.1624C7.69691 10.1624 7.11858 10.7407 7.11858 11.4516V15.1885H10.7526V11.4516C10.7526 10.7407 10.1743 10.1624 9.4634 10.1624H8.40778ZM16.8687 15.1885H13.2347V11.4516C13.2347 10.7407 13.813 10.1624 14.5239 10.1624H15.5795C16.2904 10.1624 16.8687 10.7407 16.8687 11.4516V15.1885ZM14.2011 7.64058H13.9032C13.1924 7.64058 12.614 8.21895 12.614 8.92982V10.1866C13.0249 9.5683 13.7275 9.15973 14.5239 9.15973H15.4903V8.92982C15.4903 8.21895 14.9119 7.64058 14.2011 7.64058Z" fill="black"/>
</svg>
