<svg width="17" height="19" viewBox="0 0 17 19" fill="none" xmlns="http://www.w3.org/2000/svg">
<path fill-rule="evenodd" clip-rule="evenodd" d="M16.0189 2.0471C16.0189 0.918312 15.1006 0 13.9717 0H2.04725C0.918312 0 0 0.918312 0 2.0471V2.64346C0 3.19054 0.216133 3.68774 0.566933 4.05536L0.0885696 12.7491C0.0397186 13.5778 0 14.9287 0 15.7603V16.9528C0 18.0817 0.918312 19 2.04725 19H13.9717C15.1006 19 16.0189 18.0817 16.0189 16.9528V15.7603C16.0189 14.9293 15.9792 13.5786 15.9305 12.7511L15.452 4.05536C15.8028 3.68774 16.0189 3.19054 16.0189 2.64346V2.0471ZM1.11328 2.0471C1.11328 1.53221 1.53221 1.11328 2.04725 1.11328H13.9717C14.4867 1.11328 14.9056 1.53221 14.9056 2.0471V2.64346C14.9056 2.93555 14.7707 3.19662 14.5601 3.36797C14.5479 3.37666 14.5361 3.3858 14.5247 3.39536C14.3699 3.50959 14.1785 3.57729 13.9717 3.57729H2.04725C1.83981 3.57729 1.64803 3.5093 1.49293 3.39449C1.48235 3.38565 1.47162 3.37724 1.46031 3.36913C1.24882 3.19778 1.11328 2.93613 1.11328 2.64332V2.0471ZM13.9717 17.8867C14.4867 17.8867 14.9056 17.4678 14.9056 16.9528V15.7603C14.9056 14.9474 14.8668 13.626 14.8191 12.8145L14.3699 4.65143C14.241 4.67694 14.1079 4.69057 13.9717 4.69057H2.04725C1.91099 4.69057 1.77792 4.67694 1.64919 4.65143L1.19997 12.8124C1.15213 13.6252 1.11328 14.9467 1.11328 15.7603V16.9528C1.11328 17.4678 1.53221 17.8867 2.04725 17.8867H13.9717Z" fill="black"/>
<path fill-rule="evenodd" clip-rule="evenodd" d="M7.45292 6.81702C7.45292 6.50956 7.7021 6.26038 8.00956 6.26038C8.31687 6.26038 8.5662 6.50956 8.5662 6.81702V8.60566C8.5662 9.35133 8.21598 10.0164 7.67181 10.4462V14.8661C7.67181 15.6662 7.02094 16.317 6.22077 16.317C5.42075 16.317 4.76988 15.6662 4.76988 14.8661V10.4462C4.22571 10.0164 3.87549 9.35133 3.87549 8.60566V6.81702C3.87549 6.50956 4.12467 6.26038 4.43213 6.26038C4.73959 6.26038 4.98877 6.50956 4.98877 6.81702V8.60566C4.98877 9.08475 5.2639 9.50063 5.66413 9.7043V6.81702C5.66413 6.50956 5.91331 6.26038 6.22077 6.26038C6.52823 6.26038 6.77741 6.50956 6.77741 6.81702V9.7043C7.17779 9.50063 7.45292 9.08475 7.45292 8.60566V6.81702ZM6.22077 15.2037C6.40704 15.2037 6.55853 15.0523 6.55853 14.8661V10.9263C6.44821 10.9424 6.33543 10.9509 6.22077 10.9509C6.10596 10.9509 5.99333 10.9424 5.88302 10.9263V14.8661C5.88302 15.0523 6.0345 15.2037 6.22077 15.2037Z" fill="black"/>
<path fill-rule="evenodd" clip-rule="evenodd" d="M9.7981 6.26038C9.49078 6.26038 9.24146 6.50956 9.24146 6.81702V14.8661C9.24146 15.6662 9.89246 16.317 10.6925 16.317C11.4927 16.317 12.1435 15.6662 12.1435 14.8661V8.60566C12.1435 7.31248 11.0914 6.26038 9.7981 6.26038ZM10.3547 7.50673C10.7553 7.7104 11.0302 8.12657 11.0302 8.60566V11.6264H10.3547V7.50673ZM10.6925 15.2037C10.8788 15.2037 11.0302 15.0523 11.0302 14.8661V12.7397H10.3547V14.8661C10.3547 15.0523 10.5062 15.2037 10.6925 15.2037Z" fill="black"/>
</svg>
