<svg width="18" height="19" viewBox="0 0 18 19" fill="none" xmlns="http://www.w3.org/2000/svg">
<path fill-rule="evenodd" clip-rule="evenodd" d="M0.569809 0H16.2037C16.5136 0 16.7647 0.251193 16.7647 0.56102V18.439C16.7647 18.7488 16.5135 19 16.2037 19H0.569809C0.259982 19 0.00878906 18.7488 0.00878906 18.439V0.56102C0.00878906 0.251193 0.259982 0 0.569809 0ZM4.35252 17.878H7.82584V5.76004H4.35252V17.878ZM12.421 17.878H8.94788V5.76004H12.421V17.878ZM13.543 17.878H15.6427V1.12204H1.13083V17.878H3.23048V5.19902C3.23048 4.8892 3.48167 4.638 3.7915 4.638H12.982C13.2918 4.638 13.543 4.8892 13.543 5.19902V17.878Z" fill="black"/>
<path d="M10.2943 2.31921H6.47935C6.16953 2.31921 5.91833 2.57041 5.91833 2.88023C5.91833 3.19006 6.16953 3.44125 6.47935 3.44125H10.2943C10.6041 3.44125 10.8553 3.19006 10.8553 2.88023C10.8553 2.57041 10.6041 2.31921 10.2943 2.31921Z" fill="black"/>
</svg>
