<svg width="18" height="19" viewBox="0 0 18 19" fill="none" xmlns="http://www.w3.org/2000/svg">
<path fill-rule="evenodd" clip-rule="evenodd" d="M1.85266 4.93624C1.85266 3.49743 3.02319 2.3269 4.46199 2.3269C5.9008 2.3269 7.07133 3.49743 7.07133 4.93624V8.31347C7.07133 8.60413 6.83568 8.83978 6.54501 8.83978H2.37898C2.08831 8.83978 1.85266 8.60413 1.85266 8.31347V4.93624ZM2.90529 4.93624V7.78715H6.0187V4.93624C6.0187 4.07785 5.32038 3.37954 4.46199 3.37954C3.60361 3.37954 2.90529 4.07785 2.90529 4.93624Z" fill="black"/>
<path fill-rule="evenodd" clip-rule="evenodd" d="M17.3575 8.00965C16.9373 7.56814 16.3703 7.32495 15.7607 7.32495H11.4157C10.8062 7.32495 10.2391 7.56814 9.81896 8.00965C9.6652 8.17123 9.53927 8.35127 9.4425 8.54428C9.29404 8.51274 9.14022 8.49583 8.98247 8.49583C8.1311 8.49583 7.3911 8.97972 7.02169 9.68667C6.79759 9.60765 6.55875 9.56432 6.31268 9.56432H2.61138C1.47071 9.56432 0.483939 10.4905 0.411729 11.6288L0.00106193 18.0981C-0.00816614 18.2432 0.0430619 18.3856 0.142536 18.4917C0.242044 18.5977 0.380922 18.6578 0.526325 18.6578H17.0136C17.2941 18.6578 17.5253 18.4377 17.5392 18.1575L17.9622 9.63835C17.9924 9.02965 17.7777 8.4512 17.3575 8.00965ZM8.98243 9.54842C9.62131 9.54842 10.1411 10.0682 10.1411 10.7071C10.1411 11.3459 9.62131 11.8657 8.98243 11.8657C8.34355 11.8657 7.8238 11.3459 7.8238 10.7071C7.8238 10.0682 8.34355 9.54842 8.98243 9.54842ZM6.02289 17.6052V14.3142C6.02289 13.3844 6.5664 12.5792 7.35236 12.1994C6.9944 11.8088 6.77482 11.2896 6.77152 10.72C6.62885 10.6542 6.47303 10.617 6.31264 10.617H2.61134C2.02555 10.617 1.49931 11.1108 1.46218 11.6954L1.0871 17.6051V17.6052H6.02289ZM7.07555 17.6051V14.3141C7.07555 13.6004 7.65618 13.0198 8.3699 13.0198H9.59503C10.3087 13.0198 10.8894 13.6004 10.8894 14.3141V17.6051H7.07555ZM16.5126 17.6051L16.9108 9.58618C16.9266 9.26818 16.8143 8.96597 16.5949 8.7353C16.3754 8.50464 16.0791 8.37762 15.7607 8.37762H11.4156C11.0972 8.37762 10.801 8.50464 10.5815 8.7353C10.5042 8.8166 10.4404 8.90692 10.3906 9.00351C10.8809 9.40944 11.1937 10.0224 11.1937 10.7071C11.1937 11.2818 10.9732 11.8058 10.6125 12.1994C11.3985 12.5791 11.942 13.3844 11.942 14.3141V17.6051H16.5126Z" fill="black"/>
<path fill-rule="evenodd" clip-rule="evenodd" d="M10.722 3.89266C10.722 2.31224 12.0078 1.02649 13.5882 1.02649C15.1686 1.02649 16.4544 2.31224 16.4544 3.89266C16.4544 5.47305 15.1686 6.75881 13.5882 6.75881C12.0078 6.75881 10.722 5.47305 10.722 3.89266ZM11.7747 3.8927C11.7747 4.89266 12.5882 5.70621 13.5882 5.70621C14.5882 5.70621 15.4017 4.89266 15.4017 3.8927C15.4017 2.89274 14.5882 2.07916 13.5882 2.07916C12.5882 2.07916 11.7747 2.89274 11.7747 3.8927Z" fill="black"/>
</svg>
