<svg width="18" height="19" viewBox="0 0 18 19" fill="none" xmlns="http://www.w3.org/2000/svg">
<path fill-rule="evenodd" clip-rule="evenodd" d="M17.8251 7.30453C16.2439 5.8832 14.0417 5.48024 12.0961 6.18821C12.1681 4.11913 11.1044 2.14918 9.26404 1.08455C9.1007 0.990047 8.89929 0.990047 8.73596 1.08455C6.89553 2.14922 5.83188 4.11909 5.90388 6.18818C3.95826 5.48027 1.75618 5.88323 0.174848 7.30453C0.0345046 7.43071 -0.0277571 7.62224 0.0116179 7.80681C0.455466 9.88612 2.00027 11.5065 3.99036 12.0774C2.71594 13.7091 2.41859 15.9279 3.28171 17.871C3.35832 18.0435 3.52123 18.1619 3.70893 18.1815C5.82365 18.4019 7.84204 17.4335 9.00002 15.7172C10.1546 17.4285 12.17 18.4026 14.2911 18.1815C14.4788 18.1619 14.6418 18.0435 14.7183 17.871C15.5815 15.9279 15.2841 13.709 14.0097 12.0774C15.9998 11.5065 17.5446 9.88612 17.9884 7.80681C18.0277 7.62224 17.9655 7.43071 17.8251 7.30453ZM8.99995 2.16216C10.5304 3.18886 11.3062 5.02454 10.9639 6.84943L9.93468 8.26598C9.8045 8.21005 9.6682 8.16586 9.52729 8.1338V6.84539C9.52729 6.55416 9.29118 6.31805 8.99995 6.31805C8.70871 6.31805 8.4726 6.55416 8.4726 6.84539V8.1338C8.33173 8.16586 8.19543 8.21005 8.06521 8.26598L7.03601 6.84943C6.69366 5.02454 7.46945 3.18886 8.99995 2.16216ZM6.18273 7.46931C4.55303 6.57978 2.56744 6.75036 1.11806 7.88869C1.62156 9.66155 3.12766 10.9666 4.96893 11.205L6.63442 10.6638C6.62085 10.5126 6.62106 10.3843 6.63442 10.2355L5.40909 9.8374C5.13213 9.7474 4.9805 9.44991 5.07053 9.17291C5.1605 8.89595 5.45778 8.74429 5.73502 8.83436L6.96074 9.2326C7.03436 9.10977 7.11895 8.99432 7.21281 8.88709L6.18273 7.46931ZM8.4726 14.5168C7.67691 16.1944 5.96944 17.2236 4.1287 17.1544C3.49402 15.4242 3.94539 13.4831 5.295 12.208L6.96078 11.6668C7.0344 11.7896 7.11898 11.9051 7.21285 12.0123L6.45477 13.0557C6.2836 13.2913 6.33584 13.6211 6.57146 13.7923C6.80697 13.9634 7.13677 13.9113 7.30805 13.6757L8.06525 12.6334C8.19543 12.6894 8.33173 12.7336 8.4726 12.7656V14.5168ZM7.67902 10.4497C7.67902 11.178 8.27158 11.7706 8.99995 11.7706C9.72831 11.7706 10.3209 11.178 10.3209 10.4497C10.3209 9.72131 9.72831 9.12875 8.99995 9.12875C8.27158 9.12875 7.67902 9.72131 7.67902 10.4497ZM13.8713 17.1544C12.0297 17.2243 10.323 16.1944 9.52732 14.5167V12.7656C9.6682 12.7335 9.8045 12.6893 9.93468 12.6334L10.6919 13.6756C10.8631 13.9112 11.1929 13.9634 11.4285 13.7922C11.6641 13.621 11.7163 13.2913 11.5452 13.0556L10.7871 12.0122C10.8809 11.905 10.9655 11.7896 11.0391 11.6667L12.705 12.208C14.0546 13.4831 14.5059 15.4242 13.8713 17.1544ZM11.3655 10.6638L13.0309 11.2049C14.8723 10.9666 16.3784 9.66155 16.8818 7.88869C15.4325 6.7504 13.4469 6.57975 11.8172 7.46931L10.7871 8.88709C10.8809 8.99432 10.9655 9.10977 11.0391 9.23264L12.2649 8.83436C12.5419 8.74429 12.8394 8.89591 12.9294 9.17291C13.0194 9.44991 12.8678 9.7474 12.5908 9.8374L11.3655 10.2355C11.3786 10.382 11.3793 10.5104 11.3655 10.6638Z" fill="black"/>
</svg>
