<svg width="18" height="19" viewBox="0 0 18 19" fill="none" xmlns="http://www.w3.org/2000/svg">
<path d="M5.80078 7.625H5.27344V7.09766C5.27344 6.80638 5.03737 6.57031 4.74609 6.57031C4.45482 6.57031 4.21875 6.80638 4.21875 7.09766V7.625H3.69141C3.40013 7.625 3.16406 7.86107 3.16406 8.15234C3.16406 8.44362 3.40013 8.67969 3.69141 8.67969H4.21875V9.20703C4.21875 9.49831 4.45482 9.73438 4.74609 9.73438C5.03737 9.73438 5.27344 9.49831 5.27344 9.20703V8.67969H5.80078C6.09206 8.67969 6.32812 8.44362 6.32812 8.15234C6.32812 7.86107 6.09206 7.625 5.80078 7.625Z" fill="black"/>
<path d="M13.7812 6.92188C13.7812 7.21315 13.5452 7.44922 13.2539 7.44922C12.9626 7.44922 12.7266 7.21315 12.7266 6.92188C12.7266 6.6306 12.9626 6.39453 13.2539 6.39453C13.5452 6.39453 13.7812 6.6306 13.7812 6.92188Z" fill="black"/>
<path d="M13.7812 9.38281C13.7812 9.67409 13.5452 9.91016 13.2539 9.91016C12.9626 9.91016 12.7266 9.67409 12.7266 9.38281C12.7266 9.09154 12.9626 8.85547 13.2539 8.85547C13.5452 8.85547 13.7812 9.09154 13.7812 9.38281Z" fill="black"/>
<path d="M12.5508 8.15234C12.5508 8.44362 12.3147 8.67969 12.0234 8.67969C11.7322 8.67969 11.4961 8.44362 11.4961 8.15234C11.4961 7.86107 11.7322 7.625 12.0234 7.625C12.3147 7.625 12.5508 7.86107 12.5508 8.15234Z" fill="black"/>
<path d="M15.0117 8.15234C15.0117 8.44362 14.7757 8.67969 14.4844 8.67969C14.1931 8.67969 13.957 8.44362 13.957 8.15234C13.957 7.86107 14.1931 7.625 14.4844 7.625C14.7757 7.625 15.0117 7.86107 15.0117 8.15234Z" fill="black"/>
<path d="M9.52734 7.625H8.47266C8.18138 7.625 7.94531 7.86107 7.94531 8.15234C7.94531 8.44362 8.18138 8.67969 8.47266 8.67969H9.52734C9.81862 8.67969 10.0547 8.44362 10.0547 8.15234C10.0547 7.86107 9.81862 7.625 9.52734 7.625Z" fill="black"/>
<path fill-rule="evenodd" clip-rule="evenodd" d="M17.4529 7.74379L17.9978 13.7296C17.9993 13.7455 18 13.7614 18 13.7773C18 15.2312 16.8172 16.4141 15.3633 16.4141C14.5271 16.4141 13.7321 16.0109 13.2366 15.3356L13.2348 15.3332L13.2343 15.3323L11.0814 12.3505C10.999 12.364 10.9144 12.3711 10.8281 12.3711C10.0767 12.3711 9.44632 11.8443 9.28592 11.1406H8.71408C8.55368 11.8443 7.92334 12.3711 7.17188 12.3711C7.08563 12.3711 7.00104 12.364 6.91864 12.3505L4.76573 15.3323L4.7634 15.3356C4.26791 16.0109 3.47292 16.4141 2.63672 16.4141C1.18282 16.4141 0 15.2312 0 13.7773C0 13.7614 0.000686644 13.7455 0.00219727 13.7296L0.546844 7.7464C0.647095 6.70462 1.1283 5.74332 1.90173 5.03676C2.54965 4.44501 3.3577 4.07463 4.21875 3.96669V3.58203C4.21875 3.29076 4.45482 3.05469 4.74609 3.05469C5.03737 3.05469 5.27344 3.29076 5.27344 3.58203V3.96683C6.19643 4.08356 7.06036 4.50378 7.72366 5.16406H8.47266V2.52734C8.47266 2.23607 8.70872 2 9 2C9.29128 2 9.52734 2.23607 9.52734 2.52734V5.16406H10.2763C10.9396 4.50378 11.8036 4.08356 12.7266 3.96683V3.58203C12.7266 3.29076 12.9626 3.05469 13.2539 3.05469C13.5452 3.05469 13.7812 3.29076 13.7812 3.58203V3.96669C14.6423 4.07463 15.4503 4.44501 16.0983 5.03676C16.8717 5.74332 17.3529 6.70462 17.4529 7.74379ZM6.64453 10.7891C6.64453 11.0798 6.88115 11.3164 7.17188 11.3164C7.4626 11.3164 7.69922 11.0798 7.69922 10.7891C7.69922 10.4983 7.4626 10.2617 7.17188 10.2617C6.88115 10.2617 6.64453 10.4983 6.64453 10.7891ZM10.3008 10.7891C10.3008 10.4983 10.5374 10.2617 10.8281 10.2617C11.1189 10.2617 11.3555 10.4983 11.3555 10.7891C11.3555 11.0798 11.1189 11.3164 10.8281 11.3164C10.5374 11.3164 10.3008 11.0798 10.3008 10.7891ZM14.0882 14.7134C14.3902 15.124 14.8549 15.3594 15.3633 15.3594C16.2282 15.3594 16.9332 14.6616 16.9452 13.7996L16.4029 7.84212C16.3282 7.06621 15.9673 6.3455 15.3869 5.81541C14.803 5.28203 14.0455 4.98828 13.2539 4.98828C12.3552 4.98828 11.4957 5.3728 10.8957 6.04311C10.7956 6.15489 10.6528 6.21875 10.5028 6.21875H7.49721C7.34724 6.21875 7.20442 6.15489 7.10431 6.04311C6.50432 5.3728 5.64478 4.98828 4.74609 4.98828C3.95453 4.98828 3.19702 5.28203 2.6131 5.81541C2.03275 6.3455 1.67184 7.06621 1.597 7.84486L1.05482 13.7996C1.06677 14.6616 1.77182 15.3594 2.63672 15.3594C3.14511 15.3594 3.60983 15.124 3.91182 14.7134L5.98837 11.8373C5.74063 11.558 5.58984 11.1909 5.58984 10.7891C5.58984 9.91675 6.29956 9.20703 7.17188 9.20703C7.79178 9.20703 8.32915 9.5656 8.58856 10.0859H9.41144C9.67085 9.5656 10.2082 9.20703 10.8281 9.20703C11.7004 9.20703 12.4102 9.91675 12.4102 10.7891C12.4102 11.1909 12.2594 11.558 12.0116 11.8373L14.0882 14.7134Z" fill="black"/>
</svg>
