<svg width="18" height="19" viewBox="0 0 18 19" fill="none" xmlns="http://www.w3.org/2000/svg">
<path fill-rule="evenodd" clip-rule="evenodd" d="M12.1392 2.01551L17.5994 3.36738C17.8347 3.42561 18 3.63682 18 3.87934V18.0946C18 18.2567 17.9254 18.4099 17.7977 18.5098C17.7039 18.5833 17.5892 18.6219 17.4727 18.6219C17.4304 18.6219 17.3878 18.617 17.3459 18.6065L12.0064 17.2844L6.29091 18.563C6.21414 18.5801 6.13449 18.5799 6.05772 18.5622L0.409241 17.2643C0.169739 17.2093 0 16.9961 0 16.7504V2.52747C0 2.36666 0.0733338 2.21478 0.19899 2.1148C0.324783 2.01469 0.489304 1.97733 0.645859 2.01359L6.19327 3.29336L11.897 2.0129C11.9769 1.99491 12.0598 1.99574 12.1392 2.01551ZM12.1392 16.2309L16.9453 17.4208V4.29202L12.0065 3.06924L6.30711 4.34873C6.23007 4.36604 6.15001 4.3659 6.0731 4.34805L1.05469 3.19022V16.3304L6.17734 17.5075L11.8974 16.2281C11.9772 16.2103 12.06 16.2111 12.1392 16.2309Z" fill="black"/>
<path d="M5.09766 7.42271C5.09766 7.1324 4.86076 6.89537 4.57031 6.89537C4.27986 6.89537 4.04297 7.1324 4.04297 7.42271C4.04297 7.71317 4.27986 7.95006 4.57031 7.95006C4.86076 7.95006 5.09766 7.71317 5.09766 7.42271Z" fill="black"/>
<path fill-rule="evenodd" clip-rule="evenodd" d="M10.9688 12.0985C10.9688 12.4764 11.0875 12.941 11.3001 13.4254L5.59753 10.4066C5.86299 10.1455 6.08533 9.83778 6.23666 9.60419C6.73421 8.83665 7.03125 8.02106 7.03125 7.42271C7.03125 6.06577 5.92726 4.96178 4.57031 4.96178C3.21336 4.96178 2.10938 6.06577 2.10938 7.42271C2.10938 8.02106 2.40642 8.83665 2.90396 9.60419C3.1723 10.0182 3.66367 10.6648 4.22218 10.8719C4.22218 10.8719 13.0023 15.5173 13.0265 15.5258C13.1575 15.5814 13.2926 15.6141 13.4297 15.6141C14.1272 15.6141 14.7732 14.7782 15.0962 14.28C15.5936 13.5124 15.8906 12.6968 15.8906 12.0985C15.8906 10.7415 14.7866 9.63756 13.4297 9.63756C12.0727 9.63756 10.9688 10.7415 10.9688 12.0985ZM3.16406 7.42271C3.16406 6.64735 3.79495 6.01646 4.57031 6.01646C5.34581 6.01646 5.97656 6.64735 5.97656 7.42271C5.97656 7.79007 5.75134 8.38951 5.4028 8.95009C5.02831 9.55228 4.69322 9.82639 4.57031 9.87816C4.44727 9.82639 4.11232 9.55228 3.73782 8.95009C3.38928 8.38951 3.16406 7.79007 3.16406 7.42271ZM14.8359 12.0985C14.8359 11.3231 14.2052 10.6922 13.4297 10.6922C12.6543 10.6922 12.0234 11.3231 12.0234 12.0985C12.0234 12.4659 12.2487 13.0653 12.5972 13.6259C12.9212 14.1469 13.2153 14.422 13.3684 14.5203L13.4309 14.5533C13.5549 14.5004 13.8888 14.2261 14.2622 13.6257C14.6107 13.0653 14.8359 12.4659 14.8359 12.0985Z" fill="black"/>
<path d="M13.4297 12.6258C13.7201 12.6258 13.957 12.3889 13.957 12.0985C13.957 11.808 13.7201 11.5712 13.4297 11.5712C13.1392 11.5712 12.9023 11.808 12.9023 12.0985C12.9023 12.3889 13.1392 12.6258 13.4297 12.6258Z" fill="black"/>
</svg>
