<svg width="18" height="19" viewBox="0 0 18 19" fill="none" xmlns="http://www.w3.org/2000/svg">
<path fill-rule="evenodd" clip-rule="evenodd" d="M14.9909 11.733L16.2299 16.6894C16.4782 17.6843 15.8715 18.6953 14.8776 18.9436C13.8873 19.1927 12.8749 18.5947 12.6236 17.5916L11.7365 14.0427H11.3247C11.2159 16.794 8.94399 18.999 6.16643 18.999C3.3197 18.999 1.00366 16.6829 1.00366 13.8362C1.00366 12.7766 1.32247 11.7582 1.92557 10.8912C2.43182 10.1634 3.11125 9.58507 3.89886 9.19943V8.0539C3.89886 7.34526 4.2884 6.70824 4.92208 6.3914L7.40021 5.15235C8.62125 4.54287 10.09 5.42533 10.09 6.81485V10.3297H13.1877C14.042 10.3297 14.7835 10.9043 14.9909 11.733ZM7.95391 6.26081L5.4762 7.49963C5.26501 7.60528 5.13379 7.81762 5.13382 8.05394H5.13386V11.7711C5.13386 12.1127 5.41181 12.3906 5.7534 12.3906C6.09499 12.3906 6.37706 12.1127 6.37706 11.7711V8.81987C6.37706 8.47773 6.6503 8.20033 6.99245 8.20033C7.3346 8.20033 7.61199 8.47773 7.61199 8.81987V8.87873C8.05404 9.00691 8.47363 9.19152 8.85519 9.42372V6.81485C8.85519 6.56823 8.70334 6.34657 8.48283 6.24908H8.4828C8.31766 6.17602 8.12302 6.17642 7.95391 6.26081ZM6.16643 17.7599C4.00292 17.7599 2.24274 15.9998 2.24274 13.8362C2.24274 12.5346 2.87327 11.3571 3.89886 10.634V11.7711C3.89886 12.7959 4.72848 13.6297 5.75333 13.6297C6.77818 13.6297 7.61191 12.7959 7.61191 11.7711V10.1873C8.15085 10.4001 8.62715 10.7269 9.01469 11.1364L9.01858 11.1406L9.01859 11.1406C9.0248 11.1474 9.03099 11.1541 9.03758 11.1605C9.08579 11.2123 9.13299 11.2649 9.1783 11.3192C9.18658 11.3301 9.19504 11.3407 9.20398 11.351C9.76081 12.0324 10.0902 12.901 10.0902 13.8362C10.0902 15.9998 8.33002 17.7599 6.16643 17.7599ZM13.8257 17.2909C13.9103 17.6288 14.2503 17.8237 14.5764 17.7417C14.9086 17.6588 15.1106 17.3215 15.0278 16.9897L13.7888 12.0337C13.7197 11.7576 13.4725 11.5647 13.1877 11.5647H10.8039C10.9945 11.9539 11.1375 12.3737 11.2257 12.8079H12.2203C12.5046 12.8079 12.7524 12.9972 12.8214 13.273L13.8257 17.2909Z" fill="black"/>
<path fill-rule="evenodd" clip-rule="evenodd" d="M6.3728 2.47813C6.3728 1.11169 7.48449 0 8.85093 0C10.2174 0 11.3291 1.11169 11.3291 2.47813C11.3291 3.84457 10.2174 4.95625 8.85093 4.95625C7.48449 4.95625 6.3728 3.84457 6.3728 2.47813ZM7.61185 2.47813C7.61185 3.16131 8.16771 3.71717 8.85093 3.71717C9.53415 3.71717 10.09 3.16135 10.09 2.47813C10.09 1.79491 9.53415 1.23904 8.85093 1.23904C8.16771 1.23904 7.61185 1.79494 7.61185 2.47813Z" fill="black"/>
</svg>
