<svg width="18" height="19" viewBox="0 0 18 19" fill="none" xmlns="http://www.w3.org/2000/svg">
<path fill-rule="evenodd" clip-rule="evenodd" d="M16.9453 6.77782C16.9453 6.97887 16.9069 7.17113 16.8375 7.34801C17.5069 7.5323 18 8.14603 18 8.87305C18 9.74536 17.2903 10.4551 16.418 10.4551H13.4139L9.81038 13.5439L12.3592 15.7285H13.2188C13.51 15.7285 13.7461 15.9646 13.7461 16.2559C13.7461 16.5471 13.51 16.7832 13.2188 16.7832H12.1641C12.0381 16.7832 11.9165 16.7382 11.8209 16.6563L9 14.2384L6.17912 16.6563C6.08354 16.7382 5.96187 16.7832 5.83594 16.7832H4.78125C4.48997 16.7832 4.25391 16.5471 4.25391 16.2559C4.25391 15.9646 4.48997 15.7285 4.78125 15.7285H5.64079L8.18962 13.5439L4.58611 10.4551H1.58203C0.709717 10.4551 0 9.74536 0 8.87305C0 8.00073 0.709717 7.29102 1.58203 7.29102H3.19922V5.50093C3.19922 4.13368 3.87845 2.86462 5.01608 2.10616C5.19324 1.98805 5.42395 1.98805 5.6011 2.10616C6.73874 2.86449 7.41797 4.13368 7.41797 5.50093V7.29102H9.61922C9.56374 7.13597 9.53133 6.97021 9.52776 6.79787C9.51869 6.37572 9.67882 5.97458 9.97874 5.66833C10.1775 5.46523 10.4274 5.31952 10.6974 5.24303C10.6273 5.07068 10.5866 4.88391 10.5824 4.68849C10.5734 4.26634 10.7335 3.8652 11.0334 3.55896C11.3361 3.24969 11.7569 3.07227 12.1878 3.07227H14.3226C14.7415 3.07227 15.1352 3.23541 15.4314 3.53163C15.7275 3.82785 15.8906 4.22171 15.8906 4.64056V4.66844C15.8906 4.86826 15.8526 5.05928 15.7842 5.2352C16.0472 5.30537 16.2885 5.44339 16.4861 5.64101C16.7822 5.93723 16.9453 6.33109 16.9453 6.74994V6.77782ZM12.1878 4.12695C12.0387 4.12695 11.8927 4.18875 11.7871 4.29669C11.6873 4.39859 11.634 4.52974 11.6369 4.66597C11.6429 4.95024 11.8794 5.18164 12.1641 5.18164H14.3226C14.6056 5.18164 14.8359 4.95134 14.8359 4.66844V4.64043C14.8359 4.50323 14.7825 4.37428 14.6856 4.27733C14.5886 4.18037 14.4597 4.12695 14.3226 4.12695H12.1878ZM10.5822 6.77534C10.5793 6.63911 10.6326 6.50797 10.7323 6.40607C10.8379 6.29826 10.984 6.23633 11.1331 6.23633H15.3773C15.5143 6.23633 15.6433 6.28975 15.7402 6.3867C15.8372 6.4838 15.8906 6.61275 15.8906 6.74994V6.77782C15.8906 7.06085 15.6603 7.29102 15.3772 7.29102H11.1094C10.8247 7.29102 10.5882 7.05975 10.5822 6.77534ZM5.30859 3.2052C4.64241 3.77621 4.25391 4.61049 4.25391 5.50093V7.29102H6.36328V5.50093C6.36328 4.61049 5.97478 3.77621 5.30859 3.2052ZM9 12.8493L6.20686 10.4551H11.7933L9 12.8493ZM1.58203 9.40039H16.418C16.7087 9.40039 16.9453 9.16391 16.9453 8.87305C16.9453 8.58232 16.7087 8.3457 16.418 8.3457H1.58203C1.29131 8.3457 1.05469 8.58232 1.05469 8.87305C1.05469 9.16391 1.29131 9.40039 1.58203 9.40039Z" fill="black"/>
</svg>
