<svg id="Capa_1" enable-background="new 0 0 512 512" height="512" viewBox="0 0 512 512" width="512" xmlns="http://www.w3.org/2000/svg"><g><path d="m482.532 60.139c-14.559-43.373-78.16-60.139-134.191-60.139-51.219 0-118.953 14.93-134.143 60.144-19.444 55.25 8.933 120.712 74.193 172.233v219.623c0 33.084 26.916 60 60 60s60-26.916 60-60v-219.614c65.306-51.454 93.665-116.916 74.141-172.247zm-104.14 391.861c0 16.542-13.458 30-30 30s-30-13.458-30-30v-151h60zm0-181h-60v-31h60zm9.907-61h-5.606l10.211-41.409c1.983-8.043-2.929-16.171-10.972-18.155-8.048-1.983-16.173 2.928-18.155 10.973l-11.982 48.591h-7.856l-16.35-49.688c-2.59-7.87-11.066-12.149-18.937-9.56-7.869 2.589-12.149 11.068-9.56 18.937l13.265 40.311h-3.882c-55.958-43.54-81.194-96.861-65.942-140 .141-.397.12-.27.185-.525 21.098-53.244 192.822-51.922 211.485.537 18.279 51.567-22.395 106.176-65.904 139.988z"/><path d="m198.461 301.335h-15.02v-214.319c0-17.004-16.674-29.072-32.839-23.739l-86.964 28.712c-6.146 2.029-10.297 7.771-10.297 14.244v195.102h-14.94c-8.284 0-15 6.716-15 15v180.665c0 8.284 6.716 15 15 15h160.06c8.284 0 15-6.716 15-15v-180.665c0-8.284-6.716-15-15-15zm-115.12-184.258 70.101-23.145v118.068h-70.101zm0 124.923h70.101v59.335h-70.101zm100.12 240h-130.06v-90h130.06zm0-120h-130.06v-30.665h130.06z"/></g></svg>