<svg width="18" height="19" viewBox="0 0 18 19" fill="none" xmlns="http://www.w3.org/2000/svg">
<path fill-rule="evenodd" clip-rule="evenodd" d="M14.8418 11.3328C14.8497 11.3351 14.8574 11.3375 14.8652 11.3401C15.7621 11.6391 16.2868 12.5888 16.0642 13.5063L15.0265 18.5554C14.9733 18.8142 14.7455 18.9999 14.4812 18.9999H2.69455C2.68023 18.9999 2.6662 18.9988 2.65214 18.9977C2.63651 18.9991 2.62093 19 2.60545 19C2.3445 19 2.11153 18.8156 2.05972 18.5498L1.07566 13.5033C0.855078 12.5868 1.37951 11.6387 2.27544 11.3401C2.28204 11.3379 2.28869 11.3358 2.2954 11.3339L4.33631 10.7378L5.80328 9.33141V8.95282C5.09675 8.24711 4.65163 7.27232 4.65163 6.19723V3.89645C4.65163 1.74796 6.39955 0 8.54807 0C10.7018 0 12.4371 1.75371 12.4371 3.89641V6.19719C12.4371 7.27229 11.992 8.24708 11.2854 8.95279V9.33138L12.7618 10.7397L14.8418 11.3328ZM10.1315 13.6731L11.7234 11.2851L10.8383 10.4322L9.26365 12.8053L10.1315 13.6731ZM8.54804 1.11328C9.45699 1.11328 10.2655 1.55136 10.7737 2.22734C10.2515 2.92051 9.42612 3.33984 8.54804 3.33984H5.82083C6.07948 2.071 7.20397 1.11328 8.54804 1.11328ZM5.75745 4.45309V6.19723C5.75745 7.73189 7.01338 8.98043 8.54807 8.98043C10.0827 8.98043 11.3313 7.73189 11.3313 6.19723V3.89645C11.3313 3.70526 11.3118 3.51853 11.2749 3.33806C10.5551 4.04151 9.57745 4.45309 8.54807 4.45309H5.75745ZM6.25787 10.4322L7.83253 12.8053L6.96469 13.6731L5.37274 11.2851L6.25787 10.4322ZM3.06464 17.8866H7.99143H7.99147V14.2207L7.27177 14.9404C7.02314 15.1891 6.60948 15.1474 6.41503 14.8556L4.42563 11.8715L2.619 12.3991C2.27165 12.5197 2.07008 12.8911 2.15947 13.2488C2.16423 13.2674 2.87355 16.9063 3.03306 17.7246L3.03406 17.7297L3.06464 17.8866ZM7.21295 9.85799C7.62962 10.0104 8.07931 10.0937 8.54807 10.0937C9.01684 10.0937 9.46653 10.0104 9.88319 9.85799L8.54807 11.8701L7.21295 9.85799ZM14.0274 17.8866L14.9759 13.2717C15.0699 12.8185 14.8272 12.506 14.5231 12.3996L12.6706 11.8714L10.6811 14.8556C10.4865 15.1476 10.0728 15.1889 9.82438 14.9404L9.09726 14.2207V17.8866H14.0274Z" fill="black"/>
<path d="M13.001 15.6602H11.8877C11.5803 15.6602 11.3311 15.9094 11.3311 16.2168C11.3311 16.5242 11.5803 16.7734 11.8877 16.7734H13.001C13.3084 16.7734 13.5576 16.5242 13.5576 16.2168C13.5576 15.9094 13.3084 15.6602 13.001 15.6602Z" fill="black"/>
</svg>
