<svg width="18" height="19" viewBox="0 0 18 19" fill="none" xmlns="http://www.w3.org/2000/svg">
<path fill-rule="evenodd" clip-rule="evenodd" d="M17.0189 2.0471C17.0189 0.918312 16.1006 0 14.9717 0H3.04725C1.91831 0 1 0.918312 1 2.0471V2.64346C1 3.19054 1.21613 3.68774 1.56693 4.05536L1.08857 12.7491C1.03972 13.5778 1 14.9287 1 15.7603V16.9528C1 18.0817 1.91831 19 3.04725 19H14.9717C16.1006 19 17.0189 18.0817 17.0189 16.9528V15.7603C17.0189 14.9293 16.9792 13.5786 16.9305 12.7511L16.452 4.05536C16.8028 3.68774 17.0189 3.19054 17.0189 2.64346V2.0471ZM2.11328 2.0471C2.11328 1.53221 2.53221 1.11328 3.04725 1.11328H14.9717C15.4867 1.11328 15.9056 1.53221 15.9056 2.0471V2.64346C15.9056 2.93555 15.7707 3.19662 15.5601 3.36797C15.5479 3.37666 15.5361 3.3858 15.5247 3.39536C15.3699 3.50959 15.1785 3.57729 14.9717 3.57729H3.04725C2.83981 3.57729 2.64803 3.5093 2.49293 3.39449C2.48235 3.38565 2.47162 3.37724 2.46031 3.36913C2.24882 3.19778 2.11328 2.93613 2.11328 2.64332V2.0471ZM14.9717 17.8867C15.4867 17.8867 15.9056 17.4678 15.9056 16.9528V15.7603C15.9056 14.9474 15.8668 13.626 15.8191 12.8145L15.3699 4.65143C15.241 4.67694 15.1079 4.69057 14.9717 4.69057H3.04725C2.91099 4.69057 2.77792 4.67694 2.64919 4.65143L2.19997 12.8124C2.15213 13.6252 2.11328 14.9467 2.11328 15.7603V16.9528C2.11328 17.4678 2.53221 17.8867 3.04725 17.8867H14.9717Z" fill="black"/>
<path fill-rule="evenodd" clip-rule="evenodd" d="M8.45292 6.81696C8.45292 6.5095 8.7021 6.26031 9.00956 6.26031C9.31687 6.26031 9.5662 6.5095 9.5662 6.81696V8.6056C9.5662 9.35126 9.21598 10.0163 8.67181 10.4461V14.8661C8.67181 15.6661 8.02094 16.317 7.22077 16.317C6.42075 16.317 5.76988 15.6661 5.76988 14.8661V10.4461C5.22571 10.0163 4.87549 9.35126 4.87549 8.6056V6.81696C4.87549 6.5095 5.12467 6.26031 5.43213 6.26031C5.73959 6.26031 5.98877 6.5095 5.98877 6.81696V8.6056C5.98877 9.08469 6.2639 9.50057 6.66413 9.70424V6.81696C6.66413 6.5095 6.91331 6.26031 7.22077 6.26031C7.52823 6.26031 7.77741 6.5095 7.77741 6.81696V9.70424C8.17779 9.50057 8.45292 9.08469 8.45292 8.6056V6.81696ZM7.22077 15.2037C7.40704 15.2037 7.55853 15.0522 7.55853 14.8661V10.9262C7.44821 10.9423 7.33543 10.9509 7.22077 10.9509C7.10596 10.9509 6.99333 10.9423 6.88302 10.9262V14.8661C6.88302 15.0522 7.0345 15.2037 7.22077 15.2037Z" fill="black"/>
<path fill-rule="evenodd" clip-rule="evenodd" d="M10.7981 6.26031C10.4908 6.26031 10.2415 6.5095 10.2415 6.81696V14.8661C10.2415 15.6661 10.8925 16.317 11.6925 16.317C12.4927 16.317 13.1435 15.6661 13.1435 14.8661V8.6056C13.1435 7.31242 12.0914 6.26031 10.7981 6.26031ZM11.3547 7.50667C11.7553 7.71033 12.0302 8.12651 12.0302 8.6056V11.6264H11.3547V7.50667ZM11.6925 15.2037C11.8788 15.2037 12.0302 15.0522 12.0302 14.8661V12.7397H11.3547V14.8661C11.3547 15.0522 11.5062 15.2037 11.6925 15.2037Z" fill="black"/>
</svg>
