<svg width="18" height="19" viewBox="0 0 18 19" fill="none" xmlns="http://www.w3.org/2000/svg">
<path d="M15.4316 6.79102C15.1242 6.79102 14.875 7.04024 14.875 7.34766V9.68555C14.875 12.6526 12.4611 15.0664 9.49414 15.0664C6.52713 15.0664 4.11328 12.6526 4.11328 9.68555V7.34766C4.11328 7.04024 3.86405 6.79102 3.55664 6.79102C3.24923 6.79102 3 7.04024 3 7.34766V9.68555C3 13.0789 5.61625 15.8723 8.9375 16.1556V17.8867H5.7832C5.47579 17.8867 5.22656 18.1359 5.22656 18.4434C5.22656 18.7508 5.47579 19 5.7832 19H13.2051C13.5125 19 13.7617 18.7508 13.7617 18.4434C13.7617 18.1359 13.5125 17.8867 13.2051 17.8867H10.0508V16.1556C13.372 15.8722 15.9883 13.0789 15.9883 9.68555V7.34766C15.9883 7.04024 15.7391 6.79102 15.4316 6.79102Z" fill="black"/>
<path fill-rule="evenodd" clip-rule="evenodd" d="M13.7617 9.68555C13.7617 12.0387 11.8473 13.9531 9.49414 13.9531C7.141 13.9531 5.22656 12.0387 5.22656 9.68555V4.26758C5.22656 1.91444 7.141 0 9.49414 0C11.8473 0 13.7617 1.91444 13.7617 4.26758V9.68555ZM12.6484 5.30664H11.6465C11.3391 5.30664 11.0898 5.05741 11.0898 4.75C11.0898 4.44259 11.3391 4.19336 11.6465 4.19336H12.6465C12.6068 2.48833 11.2085 1.11328 9.49414 1.11328C7.77976 1.11328 6.38144 2.48833 6.34174 4.19336H7.3418C7.64921 4.19336 7.89844 4.44259 7.89844 4.75C7.89844 5.05741 7.64921 5.30664 7.3418 5.30664H6.33984V6.41992H7.3418C7.64921 6.41992 7.89844 6.66915 7.89844 6.97656C7.89844 7.28398 7.64921 7.5332 7.3418 7.5332H6.33984V8.64648H7.3418C7.64921 8.64648 7.89844 8.89571 7.89844 9.20312C7.89844 9.51054 7.64921 9.75977 7.3418 9.75977H6.34174C6.38144 11.4648 7.77976 12.8398 9.49414 12.8398C11.2085 12.8398 12.6068 11.4648 12.6465 9.75977H11.6465C11.3391 9.75977 11.0898 9.51054 11.0898 9.20312C11.0898 8.89571 11.3391 8.64648 11.6465 8.64648H12.6484V7.5332H11.6465C11.3391 7.5332 11.0898 7.28398 11.0898 6.97656C11.0898 6.66915 11.3391 6.41992 11.6465 6.41992H12.6484V5.30664Z" fill="black"/>
</svg>
