<svg width="18" height="19" viewBox="0 0 18 19" fill="none" xmlns="http://www.w3.org/2000/svg">
<path fill-rule="evenodd" clip-rule="evenodd" d="M2.406 0H15.5942C16.917 0 17.9932 1.07614 17.9932 2.39892V16.257C17.9932 17.5798 16.917 18.6559 15.5942 18.6559H2.406C1.08322 18.6559 0.00708008 17.5797 0.00708008 16.257V2.39892C0.00708008 1.07614 1.08325 0 2.406 0ZM7.12677 10.8675C7.12677 10.426 6.96164 10.0044 6.66187 9.68028C6.17423 9.15315 5.90569 8.4674 5.90569 7.74926V5.53281H5.11992V7.74926C5.11992 8.46736 4.85138 9.15315 4.36374 9.68028C4.06393 10.0044 3.89883 10.426 3.89883 10.8675V11.3018H7.12677V10.8675ZM7.12677 12.3972V14.7671H3.89883V12.3972H7.12677ZM3.89887 17.5606H7.12681V15.8624H3.89887V17.5606ZM14.1014 17.5606H10.8734V15.8624H14.1014V17.5606ZM14.1014 10.8675C14.1014 10.426 13.9362 10.0044 13.6364 9.68028C13.1489 9.15315 12.8803 8.4674 12.8803 7.74926V5.53281H12.0945V7.74926C12.0945 8.46732 11.826 9.15315 11.3384 9.68028C11.0385 10.0044 10.8734 10.426 10.8734 10.8675V11.3018H14.1014V10.8675ZM14.1014 12.3972V14.7671H10.8734V12.3972H14.1014ZM15.5942 17.5606C16.313 17.5606 16.8978 16.9758 16.8978 16.257H16.8979V2.39892C16.8979 1.68008 16.3131 1.0953 15.5942 1.0953H2.406C1.6872 1.0953 1.10242 1.68012 1.10238 2.39892V16.2569C1.10238 16.9757 1.68717 17.5605 2.406 17.5605H2.80353V10.8676C2.80353 10.1495 3.07211 9.4637 3.55971 8.93656C3.85952 8.61245 4.02461 8.1908 4.02461 7.74929V4.9852C4.02461 4.68273 4.2698 4.43755 4.57227 4.43755H6.45338C6.7558 4.43755 7.00103 4.68273 7.00103 4.9852V7.74929C7.00103 8.1908 7.16612 8.61245 7.46593 8.93656C7.95353 9.46366 8.22208 10.1494 8.22208 10.8676V17.5605H9.77813V10.8676C9.77813 10.1495 10.0467 9.4637 10.5343 8.93656C10.8341 8.61245 10.9992 8.1908 10.9992 7.74929V4.9852C10.9992 4.68273 11.2444 4.43755 11.5468 4.43755H13.4279C13.7304 4.43755 13.9756 4.68273 13.9756 4.9852V7.74929C13.9756 8.1908 14.1407 8.61245 14.4405 8.93656C14.9281 9.4637 15.1967 10.1494 15.1967 10.8676V17.5606H15.5942Z" fill="black"/>
</svg>
