<svg width="18" height="19" viewBox="0 0 18 19" fill="none" xmlns="http://www.w3.org/2000/svg">
<path fill-rule="evenodd" clip-rule="evenodd" d="M9 0C4.04437 0 0 4.04469 0 9C0 11.3946 0.938742 13.6521 2.64333 15.3567C4.34791 17.0612 6.6054 18 9 18C13.9556 18 18 13.9553 18 9C18 4.04437 13.9553 0 9 0ZM9 1.05469C9.87356 1.05469 10.7144 1.19679 11.5013 1.45842C11.3527 1.68465 11.2721 1.97167 11.2721 2.3079C11.2721 2.87746 11.5266 3.38657 11.7728 3.87895L11.7729 3.87914C11.9732 4.27971 12.1623 4.65806 12.1623 4.97872C12.1623 5.1718 12.1105 5.22306 11.9548 5.27906C11.6736 5.38021 11.1752 5.37816 10.8279 5.37673L10.7711 5.37652C9.90144 5.37363 8.91654 5.37047 7.86547 6.42154C7.72024 6.56677 7.64163 6.57418 7.13879 6.32275C6.67867 6.09268 5.90854 5.70762 5.19465 6.42154C4.7771 6.83909 4.61222 7.42711 4.72764 8.02346C4.53258 7.94772 4.33419 7.89334 4.14088 7.84035L4.14018 7.84016L4.14014 7.84015C3.82554 7.75395 3.46897 7.65625 3.41089 7.50895C3.37054 7.40654 3.30743 6.96076 4.19157 5.52533C4.52626 4.98199 4.92873 4.18655 4.56124 3.55475C4.38838 3.25758 4.09985 3.09663 3.78457 3.01113C5.18112 1.79332 7.00587 1.05469 9 1.05469ZM1.05469 9C1.05469 13.3811 4.61893 16.9453 9 16.9453C9.01419 16.9453 9.02831 16.945 9.04244 16.9448L9.06697 16.9444C8.80478 16.288 8.60129 15.1301 8.60129 13.0262C8.57169 12.9081 8.14987 12.6667 7.94657 12.5504L7.94656 12.5504L7.94595 12.55C7.44462 12.2633 6.82073 11.9064 6.82073 11.2457V10.3593C6.80143 10.3307 6.71193 10.2242 6.34451 10.0063C5.97343 9.78623 5.39016 9.49201 4.45321 9.05228C4.2852 8.97342 4.07936 8.917 3.86146 8.8573L3.86145 8.8573C3.33569 8.71323 2.68137 8.53393 2.42972 7.89585C2.17336 7.24577 2.43165 6.3714 3.29354 4.97218C3.67868 4.347 3.65474 4.1169 3.64876 4.08554C3.61325 4.05274 3.46212 3.97044 2.84913 3.97642C1.72818 5.34639 1.05469 7.09594 1.05469 9ZM10.3718 16.3751C10.3751 16.4828 10.2713 16.702 10.1741 16.7966C10.0409 16.6167 9.65595 15.8518 9.65595 13.0263C9.65595 12.3133 8.99816 11.937 8.46963 11.6347L8.4696 11.6346L8.45444 11.626C8.26542 11.5179 7.937 11.3301 7.87191 11.2254V10.3555C7.87191 10.2134 7.84898 10.0867 7.80342 9.97267C8.67981 9.89213 9.10675 9.5834 9.43054 9.34926L9.43056 9.34924C9.65795 9.18482 9.77207 9.1023 10.0189 9.1023C10.0239 9.1023 10.0272 9.10257 10.0287 9.10269C10.0293 9.10273 10.0296 9.10276 10.0295 9.10273C10.0849 9.12984 10.2026 9.32649 10.2731 9.44435L10.2731 9.44437L10.2733 9.44476L10.2743 9.44635C10.3328 9.54411 10.399 9.65475 10.4756 9.76535C11.1456 10.7333 12.0198 10.9248 12.5982 11.0515L12.5983 11.0515L12.5983 11.0515L12.5984 11.0515C12.7517 11.0851 12.9796 11.135 13.0473 11.18C13.0495 11.1908 13.0526 11.2115 13.0526 11.2457C13.0526 12.3345 12.2181 13.1229 11.4819 13.8186L11.4545 13.8445C10.8756 14.3913 10.3715 14.8674 10.3715 15.4685L10.3714 15.5275C10.3707 16.3391 10.3713 16.3591 10.3718 16.3751ZM11.427 16.3774C11.429 16.4395 11.4311 16.5032 11.421 16.5677C14.6218 15.5413 16.9453 12.5371 16.9453 9C16.9453 5.93518 15.2008 3.27041 12.6529 1.94562C12.3757 1.95304 12.3268 2.0469 12.3268 2.30783C12.3268 2.62849 12.516 3.00684 12.7163 3.40741L12.7164 3.40761C12.9626 3.89998 13.2171 4.40909 13.2171 4.97865C13.2171 5.60236 12.8956 6.0615 12.3118 6.27145C11.8576 6.43485 11.2925 6.43292 10.7962 6.43123L10.7677 6.43113L10.7673 6.43113C9.97687 6.42864 9.35188 6.42666 8.61128 7.16727C7.89739 7.88119 7.12726 7.49612 6.66714 7.26606C6.1643 7.01462 6.08572 7.02204 5.94046 7.16727C5.63952 7.46821 5.75986 7.86962 5.82557 8.02825C5.99938 8.44784 6.50239 8.93784 7.34811 8.93784C8.19953 8.93784 8.49734 8.72255 8.81258 8.49456L8.81273 8.49445C9.08812 8.29534 9.43081 8.04758 10.0189 8.04758C10.6665 8.04758 10.9624 8.5422 11.1785 8.90336L11.1793 8.90483C11.2342 8.9965 11.2861 9.08313 11.3428 9.16506C11.7766 9.79182 12.309 9.90844 12.8239 10.0212L12.8239 10.0212C13.1115 10.0842 13.3831 10.1437 13.617 10.293C13.8407 10.4359 14.1073 10.7171 14.1073 11.2457C14.1073 12.789 13.0086 13.8272 12.2063 14.5852L12.2062 14.5852L12.2059 14.5855C11.9701 14.8083 11.7474 15.0188 11.5992 15.1991C11.4404 15.3923 11.4263 15.4679 11.4262 15.4687L11.4262 15.5286C11.4255 16.1511 11.4258 16.3183 11.4261 16.3468C11.4264 16.357 11.4267 16.3672 11.427 16.3774Z" fill="black"/>
</svg>
