<svg width="18" height="19" viewBox="0 0 18 19" fill="none" xmlns="http://www.w3.org/2000/svg">
<path fill-rule="evenodd" clip-rule="evenodd" d="M3.16406 6.30859V6.83594C3.16406 7.12721 2.92799 7.36328 2.63672 7.36328C2.34544 7.36328 2.10938 7.12721 2.10938 6.83594V3.67188C2.10938 3.3806 2.34544 3.14453 2.63672 3.14453H3.69141C4.56372 3.14453 5.27344 3.85425 5.27344 4.72656C5.27344 5.59888 4.56372 6.30859 3.69141 6.30859H3.16406ZM3.69141 5.25391C3.98213 5.25391 4.21875 5.01729 4.21875 4.72656C4.21875 4.43584 3.98213 4.19922 3.69141 4.19922H3.16406V5.25391H3.69141Z" fill="black"/>
<path fill-rule="evenodd" clip-rule="evenodd" d="M16.8148 11.6326L16.1039 9.49971C15.8883 8.85262 15.2851 8.41797 14.6032 8.41797H8.74059C8.05861 8.41797 7.45546 8.85262 7.23985 9.49971L6.5289 11.6326C5.84802 11.809 5.34375 12.4288 5.34375 13.1641V16.3633C5.34375 16.6546 5.57982 16.8906 5.87109 16.8906H6.39844V17.418C6.39844 18.2903 7.10815 19 7.98047 19C8.85278 19 9.5625 18.2903 9.5625 17.418V16.8906H13.7812V17.418C13.7812 18.2903 14.491 19 15.3633 19C16.2356 19 16.9453 18.2903 16.9453 17.418V16.8906H17.4727C17.7639 16.8906 18 16.6546 18 16.3633V13.1641C18 12.4288 17.4957 11.809 16.8148 11.6326ZM8.74059 9.47266H14.6032C14.8304 9.47266 15.0315 9.61754 15.1033 9.83328L15.6863 11.582H14.5271L14.6814 11.4275C14.8874 11.2215 14.8874 10.8877 14.6814 10.6818C14.4756 10.4758 14.1417 10.4758 13.9357 10.6818L13.0354 11.582H10.3083L10.4627 11.4275C10.6687 11.2215 10.6687 10.8877 10.4627 10.6818C10.2568 10.4758 9.92299 10.4758 9.717 10.6818L8.81667 11.582H7.65747L8.2403 9.83328C8.31226 9.61754 8.51331 9.47266 8.74059 9.47266ZM7.98047 17.9453C8.27119 17.9453 8.50781 17.7087 8.50781 17.418V16.8906H7.45312V17.418C7.45312 17.7087 7.68974 17.9453 7.98047 17.9453ZM15.8906 17.418C15.8906 17.7087 15.654 17.9453 15.3633 17.9453C15.0726 17.9453 14.8359 17.7087 14.8359 17.418V16.8906H15.8906V17.418ZM6.39844 15.8359H16.9453V13.1641C16.9453 12.8733 16.7087 12.6367 16.418 12.6367H6.92935L6.92592 12.6369H6.92427C6.63423 12.6375 6.39844 12.8737 6.39844 13.1641V15.8359Z" fill="black"/>
<path fill-rule="evenodd" clip-rule="evenodd" d="M4.74609 17.9453H4.21875V16.3633C4.21875 16.072 3.98268 15.8359 3.69141 15.8359H3.16406V9.47266H4.74609C6.2 9.47266 7.38281 8.28984 7.38281 6.83594V3.63672C7.38281 2.18282 6.2 1 4.74609 1H1.58203C0.709717 1 0 1.70972 0 2.58203V7.89062C0 8.76294 0.709717 9.47266 1.58203 9.47266H2.10938V15.8359H1.58203C1.29076 15.8359 1.05469 16.072 1.05469 16.3633V17.9453H0.527344C0.236069 17.9453 0 18.1814 0 18.4727C0 18.7639 0.236069 19 0.527344 19H4.74609C5.03737 19 5.27344 18.7639 5.27344 18.4727C5.27344 18.1814 5.03737 17.9453 4.74609 17.9453ZM1.05469 7.89062V2.58203C1.05469 2.29131 1.29131 2.05469 1.58203 2.05469H4.74609C5.61841 2.05469 6.32812 2.7644 6.32812 3.63672V6.83594C6.32812 7.70825 5.61841 8.41797 4.74609 8.41797H1.58203C1.29131 8.41797 1.05469 8.18135 1.05469 7.89062ZM3.16406 16.8906H2.10938V17.9453H3.16406V16.8906Z" fill="black"/>
<path d="M9.03516 13.6914H7.98047C7.68919 13.6914 7.45312 13.9275 7.45312 14.2188C7.45312 14.51 7.68919 14.7461 7.98047 14.7461H9.03516C9.32643 14.7461 9.5625 14.51 9.5625 14.2188C9.5625 13.9275 9.32643 13.6914 9.03516 13.6914Z" fill="black"/>
<path d="M15.3633 13.6914H14.3086C14.0173 13.6914 13.7812 13.9275 13.7812 14.2188C13.7812 14.51 14.0173 14.7461 14.3086 14.7461H15.3633C15.6546 14.7461 15.8906 14.51 15.8906 14.2188C15.8906 13.9275 15.6546 13.6914 15.3633 13.6914Z" fill="black"/>
</svg>
