<svg width="18" height="19" viewBox="0 0 18 19" fill="none" xmlns="http://www.w3.org/2000/svg">
<path fill-rule="evenodd" clip-rule="evenodd" d="M3.36069 1.6308H14.6395C15.4822 1.6308 16.1676 2.31635 16.1676 3.15886V12.9765C16.1676 13.8192 15.4822 14.5046 14.6395 14.5046H3.36069C2.51804 14.5046 1.83263 13.8192 1.83263 12.9765V12.0881C1.55275 12.0754 1.32959 11.8451 1.32959 11.562C1.32959 11.279 1.55275 11.0488 1.83263 11.0359V5.15837C1.55275 5.1456 1.32959 4.9153 1.32959 4.63226C1.32959 4.34923 1.55275 4.11893 1.83263 4.10616V3.15886C1.83263 2.31635 2.51804 1.6308 3.36069 1.6308ZM14.6395 13.4499C14.9006 13.4499 15.1129 13.2376 15.1129 12.9765V3.15886C15.1129 2.89793 14.9006 2.68549 14.6395 2.68549H3.36069C3.09962 2.68549 2.88731 2.89793 2.88731 3.15886V4.10492H2.97987C3.27101 4.10492 3.50722 4.34099 3.50722 4.63226C3.50722 4.92354 3.27101 5.15961 2.97987 5.15961H2.88731V11.0347H2.97987C3.27101 11.0347 3.50722 11.2709 3.50722 11.562C3.50722 11.8533 3.27101 12.0894 2.97987 12.0894H2.88731V12.9765C2.88731 13.2376 3.09962 13.4499 3.36069 13.4499H14.6395Z" fill="black"/>
<path fill-rule="evenodd" clip-rule="evenodd" d="M1.52806 0H16.4719C17.3146 0 18 0.685547 18 1.52806V14.6074C18 15.4499 17.3146 16.1355 16.4719 16.1355H15.4723V16.4423C15.4723 17.2072 14.8499 17.8296 14.085 17.8296C13.3201 17.8296 12.6977 17.2072 12.6977 16.4423V16.1355H5.30228V16.4423C5.30228 17.2072 4.6799 17.8296 3.91498 17.8296C3.15005 17.8296 2.52768 17.2072 2.52768 16.4423V16.1355H1.52806C0.68541 16.1355 0 15.4499 0 14.6074V1.52806C0 0.685547 0.68541 0 1.52806 0ZM3.91498 16.7749C4.09831 16.7749 4.24759 16.6256 4.24759 16.4423V16.1355H3.58237V16.4423C3.58237 16.6256 3.73164 16.7749 3.91498 16.7749ZM14.4176 16.4423C14.4176 16.6256 14.2684 16.7749 14.085 16.7749C13.9017 16.7749 13.7524 16.6256 13.7524 16.4423V16.1355H14.4176V16.4423ZM16.4719 15.0808C16.733 15.0808 16.9453 14.8685 16.9453 14.6074V1.52806C16.9453 1.267 16.733 1.05469 16.4719 1.05469H1.52806C1.267 1.05469 1.05469 1.267 1.05469 1.52806V14.6074C1.05469 14.8685 1.267 15.0808 1.52806 15.0808H16.4719Z" fill="black"/>
<path fill-rule="evenodd" clip-rule="evenodd" d="M6.85306 5.61951V5.98782C7.67621 6.21867 8.28169 6.97508 8.28169 7.87088C8.28169 8.94933 7.4043 9.82672 6.32571 9.82672C5.24727 9.82672 4.36987 8.94933 4.36987 7.87088C4.36987 6.97508 4.97536 6.21867 5.79837 5.98782V5.61951C5.79837 5.32823 6.03458 5.09216 6.32571 5.09216C6.61699 5.09216 6.85306 5.32823 6.85306 5.61951ZM5.42456 7.87088C5.42456 8.36774 5.82886 8.77203 6.32571 8.77203C6.82271 8.77203 7.22701 8.36774 7.22701 7.87088C7.22701 7.37389 6.82271 6.96973 6.32571 6.96973C5.82886 6.96973 5.42456 7.37389 5.42456 7.87088Z" fill="black"/>
<path fill-rule="evenodd" clip-rule="evenodd" d="M9.98901 8.12589C9.98901 7.04744 10.8664 6.17004 11.9449 6.17004C13.0233 6.17004 13.9008 7.04744 13.9008 8.12589C13.9008 9.02168 13.2953 9.77823 12.4722 10.0089V11.2378C12.4722 11.5289 12.2361 11.7651 11.9449 11.7651C11.6537 11.7651 11.4175 11.5289 11.4175 11.2378V10.0089C10.5945 9.77809 9.98901 9.02168 9.98901 8.12589ZM12.4722 8.12589V8.85606C12.6985 8.69209 12.8461 8.42595 12.8461 8.12589C12.8461 7.62903 12.4418 7.22473 11.9449 7.22473C11.448 7.22473 11.0437 7.62903 11.0437 8.12589C11.0437 8.42595 11.1913 8.69209 11.4175 8.85606V8.12589C11.4175 7.83461 11.6537 7.59854 11.9449 7.59854C12.2361 7.59854 12.4722 7.83461 12.4722 8.12589Z" fill="black"/>
</svg>
