<svg width="18" height="19" viewBox="0 0 18 19" fill="none" xmlns="http://www.w3.org/2000/svg">
<path fill-rule="evenodd" clip-rule="evenodd" d="M12.1328 3.89648C12.1328 2.97569 12.8819 2.22656 13.8027 2.22656C14.7235 2.22656 15.4727 2.97569 15.4727 3.89648C15.4727 4.81728 14.7235 5.56641 13.8027 5.56641C12.8819 5.56641 12.1328 4.81728 12.1328 3.89648ZM13.2461 3.89648C13.2461 4.20342 13.4958 4.45312 13.8027 4.45312C14.1097 4.45312 14.3594 4.20342 14.3594 3.89648C14.3594 3.58955 14.1097 3.33984 13.8027 3.33984C13.4958 3.33984 13.2461 3.58955 13.2461 3.89648Z" fill="black"/>
<path fill-rule="evenodd" clip-rule="evenodd" d="M12.1328 8.38672C12.1328 7.46592 12.8819 6.7168 13.8027 6.7168C14.7235 6.7168 15.4727 7.46592 15.4727 8.38672C15.4727 9.30751 14.7235 10.0566 13.8027 10.0566C12.8819 10.0566 12.1328 9.30751 12.1328 8.38672ZM13.2461 8.38672C13.2461 8.69365 13.4958 8.94336 13.8027 8.94336C14.1097 8.94336 14.3594 8.69365 14.3594 8.38672C14.3594 8.07979 14.1097 7.83008 13.8027 7.83008C13.4958 7.83008 13.2461 8.07979 13.2461 8.38672Z" fill="black"/>
<path fill-rule="evenodd" clip-rule="evenodd" d="M12.1328 12.8398C12.1328 11.919 12.8819 11.1699 13.8027 11.1699C14.7235 11.1699 15.4727 11.919 15.4727 12.8398C15.4727 13.7606 14.7235 14.5098 13.8027 14.5098C12.8819 14.5098 12.1328 13.7606 12.1328 12.8398ZM13.2461 12.8398C13.2461 13.1468 13.4958 13.3965 13.8027 13.3965C14.1097 13.3965 14.3594 13.1468 14.3594 12.8398C14.3594 12.5329 14.1097 12.2832 13.8027 12.2832C13.4958 12.2832 13.2461 12.5329 13.2461 12.8398Z" fill="black"/>
<path fill-rule="evenodd" clip-rule="evenodd" d="M17.6992 15.0664V1.66992C17.6992 0.749127 16.9501 0 16.0293 0H11.5762C10.6554 0 9.90625 0.749127 9.90625 1.66992V15.0664C9.90625 15.9872 10.6554 16.7363 11.5762 16.7363H11.7954L11.2296 17.8867H10.4629C10.1555 17.8867 9.90625 18.1359 9.90625 18.4434C9.90625 18.7508 10.1555 19 10.4629 19H17.1426C17.45 19 17.6992 18.7508 17.6992 18.4434C17.6992 18.1359 17.45 17.8867 17.1426 17.8867H16.3759L15.8101 16.7363H16.0293C16.9501 16.7363 17.6992 15.9872 17.6992 15.0664ZM12.4702 17.8867L13.036 16.7363H14.5695L15.1352 17.8867H12.4702ZM11.0195 15.0664C11.0195 15.3733 11.2692 15.623 11.5762 15.623H16.0293C16.3362 15.623 16.5859 15.3733 16.5859 15.0664V1.66992C16.5859 1.36299 16.3362 1.11328 16.0293 1.11328H11.5762C11.2692 1.11328 11.0195 1.36299 11.0195 1.66992V15.0664Z" fill="black"/>
<path fill-rule="evenodd" clip-rule="evenodd" d="M3.22656 3.89648C3.22656 2.97569 3.97569 2.22656 4.89648 2.22656C5.81728 2.22656 6.56641 2.97569 6.56641 3.89648C6.56641 4.81728 5.81728 5.56641 4.89648 5.56641C3.97569 5.56641 3.22656 4.81728 3.22656 3.89648ZM4.33984 3.89648C4.33984 4.20342 4.58955 4.45312 4.89648 4.45312C5.20342 4.45312 5.45312 4.20342 5.45312 3.89648C5.45312 3.58955 5.20342 3.33984 4.89648 3.33984C4.58955 3.33984 4.33984 3.58955 4.33984 3.89648Z" fill="black"/>
<path fill-rule="evenodd" clip-rule="evenodd" d="M3.22656 8.38672C3.22656 7.46592 3.97569 6.7168 4.89648 6.7168C5.81728 6.7168 6.56641 7.46592 6.56641 8.38672C6.56641 9.30751 5.81728 10.0566 4.89648 10.0566C3.97569 10.0566 3.22656 9.30751 3.22656 8.38672ZM4.33984 8.38672C4.33984 8.69365 4.58955 8.94336 4.89648 8.94336C5.20342 8.94336 5.45312 8.69365 5.45312 8.38672C5.45312 8.07979 5.20342 7.83008 4.89648 7.83008C4.58955 7.83008 4.33984 8.07979 4.33984 8.38672Z" fill="black"/>
<path fill-rule="evenodd" clip-rule="evenodd" d="M3.22656 12.8398C3.22656 11.919 3.97569 11.1699 4.89648 11.1699C5.81728 11.1699 6.56641 11.919 6.56641 12.8398C6.56641 13.7606 5.81728 14.5098 4.89648 14.5098C3.97569 14.5098 3.22656 13.7606 3.22656 12.8398ZM4.33984 12.8398C4.33984 13.1468 4.58955 13.3965 4.89648 13.3965C5.20342 13.3965 5.45312 13.1468 5.45312 12.8398C5.45312 12.5329 5.20342 12.2832 4.89648 12.2832C4.58955 12.2832 4.33984 12.5329 4.33984 12.8398Z" fill="black"/>
<path fill-rule="evenodd" clip-rule="evenodd" d="M8.79297 15.0664V1.66992C8.79297 0.749127 8.04384 0 7.12305 0H2.66992C1.74913 0 1 0.749127 1 1.66992V15.0664C1 15.9872 1.74913 16.7363 2.66992 16.7363H2.88913L2.32336 17.8867H1.55664C1.24923 17.8867 1 18.1359 1 18.4434C1 18.7508 1.24923 19 1.55664 19H8.23633C8.54374 19 8.79297 18.7508 8.79297 18.4434C8.79297 18.1359 8.54374 17.8867 8.23633 17.8867H7.46961L6.90384 16.7363H7.12305C8.04384 16.7363 8.79297 15.9872 8.79297 15.0664ZM3.564 17.8867L4.12977 16.7363H5.6632L6.22897 17.8867H3.564ZM2.11328 15.0664C2.11328 15.3733 2.36299 15.623 2.66992 15.623H7.12305C7.42998 15.623 7.67969 15.3733 7.67969 15.0664V1.66992C7.67969 1.36299 7.42998 1.11328 7.12305 1.11328H2.66992C2.36299 1.11328 2.11328 1.36299 2.11328 1.66992V15.0664Z" fill="black"/>
</svg>
