<svg width="18" height="19" viewBox="0 0 18 19" fill="none" xmlns="http://www.w3.org/2000/svg">
<path fill-rule="evenodd" clip-rule="evenodd" d="M7.22505 13.2784H9.37302C9.69656 13.2784 9.95888 13.5407 9.95888 13.8643C9.95888 14.1878 9.69656 14.4501 9.37305 14.4501H7.02979C6.90302 14.4501 6.77975 14.409 6.67831 14.3329L6.14884 13.9359C5.74765 14.2572 5.23933 14.4501 4.68652 14.4501C3.39445 14.4501 2.34326 13.3989 2.34326 12.1068C2.34326 10.8147 3.39445 9.76355 4.68652 9.76355C5.99786 9.76355 7.02979 10.8403 7.02979 12.1068C7.02979 12.4227 6.9666 12.724 6.85281 12.9992L7.22505 13.2784ZM5.62326 12.8094L5.62554 12.8067C6.20323 12.0337 5.64007 10.9352 4.68652 10.9352C4.04049 10.9352 3.51491 11.4607 3.51491 12.1068C3.51491 12.7528 4.04049 13.2784 4.68652 13.2784C5.06845 13.2784 5.40824 13.0946 5.62221 12.8109L5.62326 12.8094Z" fill="black"/>
<path fill-rule="evenodd" clip-rule="evenodd" d="M16.6053 12.3247L16.5998 12.3222L14.0605 11.1818L15.4855 5.85814H16.2075C17.1766 5.85814 17.9649 5.06975 17.9649 4.1007C17.9649 3.13165 17.1766 2.34326 16.2075 2.34326H13.8642C12.8952 2.34326 12.1068 3.13165 12.1068 4.1007C12.1068 5.06975 12.8952 5.85814 13.8642 5.85814H14.2726L12.9777 10.6955C11.6029 10.0781 10.5065 9.58271 9.62485 9.18438L9.62446 9.1842C6.08193 7.58367 6.00717 7.5499 5.27232 7.4573V3.51488H6.44393C6.76744 3.51488 7.02975 3.2526 7.02975 2.92905C7.02975 2.60551 6.76747 2.34323 6.44393 2.34323H2.92905C2.60603 2.34323 2.34323 2.08042 2.34323 1.7574C2.34323 1.43439 2.60603 1.17158 2.92905 1.17158C3.25256 1.17158 3.51488 0.909298 3.51488 0.585754C3.51488 0.262211 3.2526 0 2.92905 0C1.96 0 1.17161 0.788386 1.17161 1.75744C1.17161 2.72649 1.96 3.51488 2.92905 3.51488H4.10067V7.45684C1.792 7.746 0 9.72102 0 12.1068C0 14.4925 1.792 16.4675 4.1007 16.7567V17.3791C4.1007 17.7026 4.36298 17.9649 4.68653 17.9649C5.01004 17.9649 5.27235 17.7026 5.27235 17.3791V16.7932H15.0359V17.3791C15.0359 17.7026 15.2982 17.9649 15.6217 17.9649C15.9452 17.9649 16.2075 17.7026 16.2075 17.3791V16.7191C17.217 16.4584 17.9649 15.5399 17.9649 14.45C17.9649 13.5401 17.4312 12.706 16.6053 12.3247ZM13.8642 4.68649C13.5412 4.68649 13.2784 4.42368 13.2784 4.10067C13.2784 3.77765 13.5412 3.51484 13.8642 3.51484H16.2075C16.5305 3.51484 16.7933 3.77765 16.7933 4.10067C16.7933 4.42368 16.5305 4.68649 16.2075 4.68649H13.8642ZM4.68649 15.6216H15.6216C16.2677 15.6216 16.7933 15.0961 16.7933 14.45C16.7933 13.9895 16.5341 13.5834 16.1168 13.3897L6.18046 8.92709C5.7114 8.71168 5.22989 8.59193 4.68649 8.59193C2.74839 8.59193 1.17161 10.1687 1.17161 12.1068C1.17161 14.0449 2.74839 15.6216 4.68649 15.6216Z" fill="black"/>
</svg>
