<svg width="18" height="19" viewBox="0 0 18 19" fill="none" xmlns="http://www.w3.org/2000/svg">
<path fill-rule="evenodd" clip-rule="evenodd" d="M15.963 7.8302C15.8567 7.8302 15.7514 7.7981 15.6617 7.73573L15.5427 7.6529L13.4686 13.0613L16.6794 15.8844C16.8442 16.0293 16.902 16.2612 16.8246 16.4665C16.7472 16.6719 16.5506 16.8078 16.3311 16.8078H1.66883C1.44935 16.8078 1.25283 16.6719 1.17538 16.4665C1.09797 16.2612 1.1558 16.0293 1.32061 15.8844L4.53136 13.0613L2.45732 7.6529L2.33824 7.73577C2.24856 7.79813 2.1432 7.83023 2.03699 7.83023C1.97308 7.83023 1.90888 7.81863 1.84753 7.79501C1.68423 7.73215 1.5628 7.5924 1.52329 7.42196L1.20818 6.06272L0.316443 4.78102C-0.240889 3.97999 -0.0426078 2.87489 0.758427 2.31756C1.14645 2.04756 1.61635 1.94483 2.08171 2.02833C2.547 2.11182 2.9519 2.37145 3.2219 2.75951L4.11363 4.0412L5.27854 4.80918C5.42465 4.90548 5.51342 5.06797 5.51563 5.24291C5.51781 5.41781 5.43312 5.58248 5.28951 5.6824L5.17043 5.76522L9 9.13231L12.8296 5.76515L12.7105 5.68233C12.5669 5.58241 12.4822 5.41777 12.4844 5.24284C12.4866 5.0679 12.5754 4.90541 12.7215 4.80911L13.8864 4.04113L14.7781 2.75947C15.0481 2.37145 15.453 2.11179 15.9183 2.02829C16.3836 1.94479 16.8536 2.04756 17.2416 2.31756C18.0426 2.87489 18.2409 3.97995 17.6835 4.78099L16.7918 6.06268L16.4767 7.42193C16.4372 7.59236 16.3157 7.73211 16.1524 7.79497C16.0911 7.81859 16.0269 7.8302 15.963 7.8302ZM14.6942 4.72685C14.6559 4.78187 14.6075 4.82908 14.5516 4.86593L13.952 5.26115L15.625 6.42514L15.7872 5.7256C15.8023 5.66032 15.8298 5.59851 15.868 5.54353L16.8177 4.17859C17.0428 3.85497 16.9628 3.40852 16.6391 3.18335C16.4824 3.07426 16.2925 3.03277 16.1046 3.06649C15.9166 3.10024 15.753 3.20518 15.6439 3.36191L14.6942 4.72685ZM2.37498 6.42521L2.21281 5.72567C2.19769 5.66039 2.17023 5.59858 2.13198 5.5436L1.18231 4.17862C0.957095 3.85497 1.03725 3.40852 1.36083 3.18338C1.48201 3.09904 1.62302 3.05513 1.76762 3.05513C1.81002 3.05513 1.85277 3.0589 1.89538 3.06656C2.08336 3.10027 2.24698 3.20518 2.35603 3.36198L3.30571 4.72692C3.34399 4.7819 3.39237 4.82912 3.44834 4.86603L4.04789 5.26129L2.37498 6.42521ZM4.93418 14.1116L3.06738 15.753H5.56358L4.93418 14.1116ZM14.9326 15.753H11.3067H6.69326L3.45133 7.29909L4.49311 6.57424L14.9326 15.753ZM9.79868 9.8346L12.6238 12.3185L14.5486 7.29909L13.5069 6.57424L9.79868 9.8346Z" fill="black"/>
</svg>
