<svg width="18" height="19" viewBox="0 0 18 19" fill="none" xmlns="http://www.w3.org/2000/svg">
<path fill-rule="evenodd" clip-rule="evenodd" d="M12.7535 12.754C13.7563 11.7512 14.3086 10.4179 14.3086 8.99971C14.3086 7.58165 13.7563 6.24832 12.7535 5.24554C11.7507 4.24263 10.4174 3.69043 8.99922 3.69043C7.58116 3.69043 6.24783 4.24263 5.24506 5.24554C4.24228 6.24832 3.68994 7.58165 3.68994 8.99971C3.68994 10.4179 4.24214 11.7512 5.24506 12.754C6.24783 13.7568 7.58102 14.3091 8.99922 14.3091C10.4174 14.3091 11.7507 13.7568 12.7535 12.754ZM8.20615 12.1893C7.93176 11.4703 7.76299 10.5408 7.7189 9.53062H10.2795C10.2356 10.5408 10.0668 11.4703 9.79243 12.1893C9.51503 12.9162 9.18681 13.2472 8.99922 13.2472C8.81163 13.2472 8.48341 12.9162 8.20615 12.1893ZM9.79243 5.81024C9.51503 5.08336 9.18681 4.75226 8.99922 4.75226C8.81163 4.75226 8.48341 5.08336 8.20601 5.81024C7.93176 6.5293 7.76285 7.45874 7.7189 8.4688H10.2795C10.2356 7.45874 10.0667 6.5293 9.79243 5.81024ZM12.0026 12.0031C11.6045 12.4012 11.1411 12.7105 10.6369 12.9211C11.0526 12.0258 11.2903 10.7954 11.3423 9.53062H13.214C13.0984 10.4642 12.6784 11.3274 12.0026 12.0031ZM11.3423 8.4688H13.214C13.0984 7.53537 12.6784 6.67212 12.0026 5.99632C11.6045 5.59821 11.1411 5.28894 10.6369 5.07828C11.0526 5.9738 11.2903 7.20399 11.3423 8.4688ZM5.99583 5.99632C6.39395 5.59821 6.8573 5.28894 7.36171 5.07828C6.94601 5.97366 6.70816 7.20399 6.65611 8.4688H4.78445C4.90009 7.53537 5.32018 6.67212 5.99583 5.99632ZM6.65611 9.53062H4.78445C4.90009 10.4642 5.32018 11.3274 5.99583 12.0031C6.39395 12.4014 6.8573 12.7105 7.36171 12.9211C6.94601 12.0258 6.70816 10.7954 6.65611 9.53062Z" fill="black"/>
<path d="M15.6753 2.96466H16.1114C16.4046 2.96466 16.6424 2.72694 16.6424 2.43375C16.6424 2.14055 16.4046 1.90283 16.1114 1.90283H14.4629C14.1697 1.90283 13.932 2.14055 13.932 2.43375V4.08211C13.932 4.37544 14.1697 4.61316 14.4629 4.61316C14.7561 4.61316 14.9939 4.37544 14.9939 4.08211V3.79742C17.7008 6.91191 17.5739 11.651 14.6121 14.6126C13.0989 16.126 11.0606 16.9358 8.98722 16.9358C8.05736 16.9358 7.12023 16.7728 6.22045 16.4373C5.94579 16.335 5.63996 16.4745 5.53751 16.7492C5.43506 17.024 5.57473 17.3298 5.84939 17.4323C6.8615 17.8097 7.92621 18.0001 8.99628 18.0001C9.61234 18.0001 10.2303 17.937 10.8407 17.8099C12.5556 17.4532 14.1193 16.6072 15.363 15.3636C17.0627 13.6638 17.9988 11.4038 17.9988 9C17.9988 6.7478 17.177 4.62195 15.6753 2.96466V2.96466Z" fill="black"/>
<path d="M3.5387 13.2997C3.2455 13.2997 3.00778 13.5374 3.00778 13.8306V14.2058C0.298004 11.0912 0.423935 6.35 3.38667 3.38726C5.54755 1.22639 8.68675 0.500058 11.5795 1.49144C11.8567 1.58647 12.1587 1.4387 12.2537 1.1613C12.3489 0.883893 12.201 0.582043 11.9237 0.486874C10.3534 -0.0513187 8.66533 -0.145389 7.04182 0.214962C5.37328 0.585202 3.84975 1.4225 2.63576 2.63635C0.936035 4.33621 0 6.5961 0 8.9999C0 11.2131 0.794037 13.3038 2.24643 14.9482H1.8902C1.597 14.9482 1.35928 15.1859 1.35928 15.4791C1.35928 15.7723 1.597 16.01 1.8902 16.01H3.5387C3.83189 16.01 4.06961 15.7723 4.06961 15.4791V13.8306C4.06975 13.5374 3.83203 13.2997 3.5387 13.2997Z" fill="black"/>
</svg>
