<svg width="24" height="24" viewBox="0 0 24 24" fill="none" xmlns="http://www.w3.org/2000/svg">
<path d="M14.9731 4.55685C15.3409 4.55685 15.6933 4.23346 15.6763 3.85373C15.6592 3.47278 15.3673 3.1506 14.9731 3.1506C14.6053 3.1506 14.253 3.47399 14.27 3.85373C14.2871 4.23468 14.5789 4.55685 14.9731 4.55685Z" fill="black"/>
<path d="M20.5893 8.16291H16.4423C16.728 7.78852 17.0476 7.35033 17.3517 6.89184C18.2553 5.52942 18.6945 4.49241 18.6945 3.7215C18.6945 1.66945 17.0251 0 14.9731 0C12.9211 0 11.2516 1.66945 11.2516 3.7215C11.2516 4.57172 11.7868 5.7495 12.8879 7.32216C13.6546 8.4173 14.4103 9.2903 14.442 9.32695C14.5756 9.4808 14.7693 9.56916 14.973 9.56916H20.5893C21.6945 9.56916 22.5938 10.4684 22.5938 11.5736C22.5938 12.6788 21.6945 13.578 20.5893 13.578H16.377C15.5265 12.0315 13.8812 10.9809 11.995 10.9809C10.1087 10.9809 8.46323 12.0314 7.61283 13.5781C7.61109 13.5781 7.60936 13.5781 7.60758 13.5781H5.21095C2.33766 13.578 0 15.9157 0 18.789C0 21.6623 2.33766 24 5.21095 24H11.995C12.1988 24 12.3925 23.9116 12.526 23.7578C12.5708 23.7061 13.636 22.4756 14.718 20.9301C16.2483 18.7444 16.9922 17.1246 16.9922 15.978C16.9922 15.6379 16.9579 15.3056 16.8929 14.9843H20.5893C22.47 14.9843 24 13.4542 24 11.5736C24 9.69291 22.47 8.16291 20.5893 8.16291V8.16291ZM14.9718 7.76423C13.8788 6.39539 12.6578 4.54969 12.6578 3.72145C12.6578 2.44481 13.6965 1.4062 14.9731 1.4062C16.2497 1.4062 17.2883 2.44481 17.2883 3.72145C17.2883 4.4287 16.3735 6.01411 14.9718 7.76423ZM5.21095 22.5938C3.11306 22.5938 1.40625 20.8869 1.40625 18.789C1.40625 16.6911 3.11306 14.9843 5.21095 14.9843H7.09711C7.032 15.3056 6.99787 15.6378 6.99787 15.978C6.99787 17.1242 7.73105 18.7315 9.2392 20.8916C9.68934 21.5363 10.1364 22.1249 10.5063 22.5938H5.21095V22.5938ZM11.9961 22.203C11.597 21.7136 10.9928 20.9468 10.3922 20.0866C8.66241 17.609 8.40412 16.449 8.40412 15.978C8.40412 13.998 10.015 12.3871 11.995 12.3871C13.9751 12.3871 15.5859 13.998 15.5859 15.978C15.586 17.3506 13.5635 20.2844 11.9961 22.203V22.203Z" fill="black"/>
<path d="M11.995 15.463C11.6273 15.463 11.2749 15.7864 11.2919 16.1662C11.309 16.5471 11.6009 16.8693 11.995 16.8693C12.3628 16.8693 12.7152 16.5459 12.6981 16.1662C12.6811 15.7852 12.3892 15.463 11.995 15.463V15.463Z" fill="black"/>
</svg>
