<svg width="18" height="19" viewBox="0 0 18 19" fill="none" xmlns="http://www.w3.org/2000/svg">
<path fill-rule="evenodd" clip-rule="evenodd" d="M16.7801 3.00837C17.0892 2.96992 17.4001 3.06605 17.6333 3.27218C17.8664 3.47804 18 3.77426 18 4.08517V13.9589C18 14.2698 17.8664 14.566 17.6333 14.7718C17.4 14.978 17.089 15.0741 16.7801 15.0357C16.5425 15.0061 16.3047 14.978 16.0667 14.9511V15.5136C16.0667 15.7474 16.2578 15.9375 16.4928 15.9375C16.784 15.9375 17.0202 16.1737 17.0202 16.4648C17.0202 16.7561 16.784 16.9922 16.4928 16.9922C15.6763 16.9922 15.012 16.3289 15.012 15.5136V14.8412C11.001 14.4574 6.95654 14.4587 2.94585 14.8453V15.5136C2.94585 16.3289 2.28159 16.9922 1.46516 16.9922C1.17389 16.9922 0.93782 16.7561 0.93782 16.4648C0.93782 16.1737 1.17389 15.9375 1.46516 15.9375C1.7 15.9375 1.89116 15.7473 1.89116 15.5136V14.9559C1.66731 14.9813 1.44347 15.0079 1.21989 15.0357C1.17526 15.0413 1.13049 15.0439 1.08586 15.0439C0.822601 15.0439 0.566208 14.9482 0.366669 14.7718C0.133621 14.566 0 14.2698 0 13.9589V4.08517C0 3.77426 0.133621 3.47804 0.366669 3.27218C0.599854 3.06605 0.910904 2.96992 1.21976 3.00837C6.38237 3.65011 11.6175 3.65011 16.7801 3.00837ZM1.08984 4.05496C1.08545 4.05441 1.07556 4.05317 1.06499 4.06251C1.05469 4.07158 1.05469 4.08105 1.05469 4.08517V10.0793C1.50362 10.0039 1.96024 9.96574 2.4185 9.96574C4.02196 9.96574 5.55455 10.4228 6.88115 11.2918C7.27364 10.8684 7.71281 10.485 8.1936 10.148C9.56923 9.18393 11.1875 8.6743 12.8738 8.6743C14.3232 8.6743 15.7128 9.04687 16.9453 9.75934V4.08503C16.9453 4.08105 16.9453 4.07158 16.935 4.06251C16.9244 4.05331 16.9144 4.05441 16.9103 4.05496C11.6614 4.70741 6.3387 4.70741 1.08984 4.05496ZM1.08971 13.9891L1.0893 13.9891C1.08495 13.9896 1.07523 13.9906 1.06499 13.9814C1.05469 13.9723 1.05469 13.9628 1.05469 13.9589V11.151C1.50197 11.0644 1.959 11.0204 2.4185 11.0204C3.77792 11.0204 5.07884 11.3975 6.21236 12.1156C5.88455 12.5782 5.60509 13.0757 5.37863 13.6018C4.37517 13.6585 3.37294 13.7389 2.37291 13.8427L2.35423 13.8446C1.93236 13.8885 1.51076 13.9367 1.08971 13.9891ZM16.9103 13.9891C16.9144 13.9896 16.9244 13.9909 16.935 13.9814C16.9453 13.9723 16.9453 13.9628 16.9453 13.9589V11.0093C15.7492 10.1708 14.347 9.72899 12.8736 9.72899C11.4053 9.72899 9.99619 10.1726 8.79895 11.0116C7.8555 11.6729 7.09648 12.5389 6.57216 13.5456C7.38103 13.515 8.19058 13.4996 9 13.4996C11.6429 13.4996 14.2858 13.6628 16.9102 13.9891H16.9103Z" fill="black"/>
<path fill-rule="evenodd" clip-rule="evenodd" d="M8.24953 7.71465C8.24953 8.74132 7.41292 9.57642 6.3846 9.57642C5.35614 9.57642 4.51953 8.74132 4.51953 7.71465C4.51953 6.68811 5.35614 5.85287 6.3846 5.85287C7.41292 5.85287 8.24953 6.68811 8.24953 7.71465ZM7.19484 7.71478C7.19484 7.2697 6.83133 6.9077 6.3846 6.9077C5.93773 6.9077 5.57422 7.2697 5.57422 7.71478C5.57422 8.15973 5.93773 8.52187 6.3846 8.52187C6.83133 8.52187 7.19484 8.15973 7.19484 7.71478Z" fill="black"/>
</svg>
