<svg width="18" height="19" viewBox="0 0 18 19" fill="none" xmlns="http://www.w3.org/2000/svg">
<path fill-rule="evenodd" clip-rule="evenodd" d="M7.14429 14.3158C7.14429 13.2183 8.0372 12.3255 9.13465 12.3255C10.2321 12.3255 11.125 13.2183 11.125 14.3158C11.125 15.4134 10.2322 16.3062 9.13465 16.3062C8.03711 16.3062 7.14429 15.4134 7.14429 14.3158ZM8.2352 14.3157C8.2352 14.8117 8.63874 15.2152 9.13465 15.2152C9.63056 15.2152 10.0341 14.8117 10.0341 14.3157C10.0341 13.8197 9.63065 13.4163 9.13465 13.4163C8.63865 13.4163 8.2352 13.8197 8.2352 14.3157Z" fill="black"/>
<path d="M9.13469 3.0881C5.60069 3.0881 2.23178 4.78729 0.116782 7.63483C-0.0597633 7.87247 -0.0371269 8.21356 0.191419 8.40174C0.293873 8.4862 0.416782 8.52683 0.538509 8.52683C0.705691 8.52683 0.870691 8.4502 0.977691 8.30547C2.88678 5.72165 5.93624 4.17901 9.13478 4.17901C12.1626 4.17901 15.0567 5.56138 16.9765 7.90065C17.1596 8.12383 17.487 8.16147 17.7191 7.98992V7.98992C17.9716 7.80329 18.0132 7.44383 17.8138 7.20129C15.6878 4.61574 12.4854 3.0881 9.13469 3.0881Z" fill="black"/>
<path d="M9.1347 6.108C6.33461 6.108 3.74516 7.51409 2.20788 9.86937C2.04325 10.1216 2.11425 10.4596 2.36652 10.6243C2.61861 10.789 2.95679 10.718 3.12143 10.4656C4.45652 8.42018 6.70452 7.19891 9.1347 7.19891C11.5649 7.19891 13.8129 8.42009 15.148 10.4656C15.2526 10.6259 15.4272 10.713 15.6052 10.713C15.7075 10.713 15.8109 10.6844 15.9029 10.6243C16.1552 10.4596 16.2262 10.1216 16.0615 9.86937C14.5242 7.51409 11.9347 6.108 9.1347 6.108Z" fill="black"/>
<path d="M9.13474 8.94693C7.07393 8.94693 5.15729 10.1471 4.25429 11.9997C4.14456 12.2191 4.1952 12.4865 4.37756 12.6507C4.60138 12.8521 4.94629 12.834 5.14793 12.6101C5.19047 12.5628 5.2232 12.5101 5.24638 12.4546C5.97574 10.9854 7.49847 10.0378 9.13474 10.0378C10.7692 10.0378 12.2906 10.9835 13.0232 12.4547C13.0463 12.5102 13.079 12.5627 13.1216 12.61C13.2293 12.7297 13.3779 12.7906 13.5272 12.7906C13.6572 12.7906 13.7877 12.7444 13.8919 12.6506C14.0728 12.4877 14.1243 12.2233 14.0177 12.0046C13.1122 10.1471 11.1956 8.94693 9.13474 8.94693Z" fill="black"/>
</svg>
