<svg viewBox="0 0 20 20" fill="none" xmlns="http://www.w3.org/2000/svg">
<path fill-rule="evenodd" clip-rule="evenodd" d="M16.9843 13.5836L16.8107 11.9486C16.6935 10.9536 15.8827 10.1112 14.9985 9.84064V8.14154C14.9985 6.9005 13.9515 5.89374 12.7106 5.89374H6.28007C5.0392 5.89374 4.06669 6.9005 4.06669 8.14154V9.84064C3.10212 10.1112 2.2983 10.9536 2.21791 11.9486V11.9488L2.01603 13.5834C1.94475 14.1875 2.11233 14.7593 2.49635 15.1912C2.87941 15.6222 3.41964 15.8609 4.02626 15.8609H14.9644C15.571 15.8609 16.1161 15.6221 16.4995 15.1909C16.8832 14.7594 17.0556 14.1875 16.9843 13.5836ZM4.70973 8.14154C4.70973 7.25513 5.39367 6.53677 6.28007 6.53677H12.7106C13.597 6.53677 14.3555 7.25513 14.3555 8.14154V9.75202H4.70973V8.14154ZM14.9644 15.2179C15.3848 15.2179 15.7594 15.0557 16.0191 14.7637C16.279 14.4711 16.3949 14.0793 16.3456 13.6602L16.1534 12.0253C16.0473 11.1257 15.225 10.3951 14.3197 10.3951H4.67088C3.76567 10.3951 2.9433 11.1261 2.83719 12.0258L2.64503 13.6593C2.59573 14.0785 2.71192 14.4713 2.9719 14.7639C3.23156 15.0557 3.60582 15.2179 4.02626 15.2179H14.9644Z" fill="currentColor"/>
<path fill-rule="evenodd" clip-rule="evenodd" d="M3.70789 13.2859C3.70789 12.5768 4.28468 11.9998 4.99399 11.9998C5.7033 11.9998 6.28009 12.5768 6.28009 13.2859C6.28009 13.9951 5.7033 14.572 4.99399 14.572C4.28468 14.572 3.70789 13.9951 3.70789 13.2859ZM4.35095 13.2859C4.35095 13.6406 4.6395 13.929 4.99399 13.929C5.34848 13.929 5.63706 13.6406 5.63703 13.2859C5.63703 12.9313 5.34848 12.6429 4.99399 12.6429C4.63953 12.6429 4.35095 12.9313 4.35095 13.2859Z" fill="currentColor"/>
<path d="M5.95853 16.1796C5.78081 16.1796 5.63699 16.3236 5.63699 16.5012C5.63699 16.9444 5.27656 17.305 4.83318 17.305C4.38983 17.305 4.02936 16.9444 4.02936 16.5012C4.02936 16.3236 3.88557 16.1796 3.70782 16.1796C3.53011 16.1796 3.38629 16.3236 3.38629 16.5012C3.38629 17.299 4.03531 17.948 4.83315 17.948C5.63099 17.948 6.28 17.299 6.28 16.5012C6.28006 16.3236 6.13627 16.1796 5.95853 16.1796Z" fill="currentColor"/>
<path d="M15.6043 16.1796C15.4266 16.1796 15.2827 16.3236 15.2827 16.5012C15.2827 16.9444 14.9223 17.305 14.4789 17.305C14.0356 17.305 13.6751 16.9444 13.6751 16.5012C13.6751 16.3236 13.5313 16.1796 13.3536 16.1796C13.1759 16.1796 13.032 16.3236 13.032 16.5012C13.032 17.299 13.6811 17.948 14.4789 17.948C15.2767 17.948 15.9258 17.299 15.9258 16.5012C15.9258 16.3236 15.782 16.1796 15.6043 16.1796Z" fill="currentColor"/>
<path fill-rule="evenodd" clip-rule="evenodd" d="M12.7106 13.2859C12.7106 12.5768 13.2874 11.9998 13.9967 11.9998C14.706 11.9998 15.2828 12.5768 15.2828 13.2859C15.2828 13.9951 14.706 14.572 13.9967 14.572C13.2874 14.572 12.7106 13.9951 12.7106 13.2859ZM13.3536 13.2859C13.3536 13.6406 13.6422 13.929 13.9967 13.929C14.3512 13.929 14.6397 13.6406 14.6397 13.2859C14.6397 12.9313 14.3512 12.6429 13.9967 12.6429C13.6422 12.6429 13.3536 12.9313 13.3536 13.2859Z" fill="currentColor"/>
<path fill-rule="evenodd" clip-rule="evenodd" d="M7.56616 3H11.4244C11.6022 3 11.7833 3.14109 11.7832 3.31866V4.9263C11.7832 5.10384 11.6022 5.25067 11.4244 5.25067H7.56616C7.38844 5.25067 7.28192 5.10384 7.28192 4.9263V3.31866C7.28192 3.14109 7.38844 3 7.56616 3ZM7.92496 4.60764H11.1402V3.64304H7.92496V4.60764Z" fill="currentColor"/>
</svg>
