<svg viewBox="0 0 20 20" fill="none" xmlns="http://www.w3.org/2000/svg">
<path fill-rule="evenodd" clip-rule="evenodd" d="M14.3843 10.606C14.3843 10.5284 14.3535 10.454 14.2987 10.3992L11.6658 7.76631C11.628 7.72852 11.5822 7.70449 11.5341 7.69169C11.5758 7.15324 11.3326 6.52321 11.2044 6.2344C11.5425 5.89099 11.7515 5.42027 11.7515 4.90151C11.7515 3.85304 10.8985 3 9.85001 3C8.80156 3 7.94853 3.85304 7.94853 4.90148C7.94853 5.38266 8.12856 5.82234 8.42431 6.15762C8.03759 6.45894 7.2304 7.10745 6.57155 7.76628C5.60381 8.7339 5.89033 11.1259 5.90305 11.2273C5.91562 11.3279 5.97934 11.4149 6.07159 11.457C6.16373 11.4994 6.27113 11.4907 6.35557 11.4345L7.23319 10.8494C7.30033 10.8047 7.363 10.734 7.37642 10.6544L7.37669 10.6527C7.38463 10.601 7.5564 9.48453 8.27498 8.83359V11.7014L6.53363 14.8632C5.96885 15.9928 5.27929 17.2579 5.11731 17.42C4.97147 17.5659 4.98078 17.7291 5.0421 17.8333L5.04345 17.8356C5.09445 17.9224 5.14006 18 5.3782 18C5.6436 18 6.14478 17.9034 7.15238 17.6156C7.2379 17.5912 7.30725 17.529 7.34141 17.4469C7.35544 17.4133 8.70149 14.1922 9.55561 12.9546C9.93348 13.1941 10.3653 13.4132 10.803 13.5226C11.8038 13.7728 12.3366 15.3887 12.3366 16.4581C12.3366 17.6669 12.6547 17.922 12.9216 17.922H13.7993C13.9608 17.922 14.0918 17.7898 14.0918 17.6282C14.0918 17.0304 14.0762 14.0168 13.7684 13.4012C13.4837 12.832 12.1383 11.8849 11.7251 11.6032C11.6496 11.1774 11.5805 10.7309 11.524 10.3041C12.1264 10.6743 13.0493 11.1911 13.5067 11.1911C14.3743 11.1911 14.3843 10.6298 14.3843 10.606ZM9.85001 3.58509C10.5759 3.58509 11.1664 4.1756 11.1664 4.90151C11.1664 5.62743 10.5759 6.21794 9.85001 6.21794C9.12409 6.21794 8.53359 5.62743 8.53359 4.90151C8.53359 4.17557 9.12409 3.58509 9.85001 3.58509ZM5.85931 17.3411C6.14627 17.2789 6.51395 17.1861 6.8559 17.0911C7.12318 16.4591 8.27325 13.7846 9.07493 12.6215C8.89174 12.4835 8.7338 12.3524 8.61099 12.2451L7.03517 15.1342C6.88918 15.4263 6.28297 16.6298 5.85931 17.3411ZM13.2451 13.6635C13.4136 14.0005 13.4956 15.9474 13.5056 17.337H13.0301C12.9919 17.2639 12.9216 17.0146 12.9216 16.4581C12.9216 15.2092 12.3252 13.2966 10.9618 12.9557C10.0581 12.7298 9.07945 11.913 8.86004 11.6509V8.26567C8.86004 8.16425 8.79052 8.07012 8.70439 8.01683C8.61811 7.96354 8.50177 7.95882 8.41121 8.00396C7.30335 8.55791 6.90802 9.98988 6.8119 10.4298L6.44738 10.6715C6.41352 9.89602 6.47674 8.68945 6.98624 8.17992C7.6804 7.48576 8.57331 6.78176 8.88708 6.53979C9.16983 6.70673 9.49883 6.80294 9.85028 6.80294C10.1638 6.80294 10.4593 6.72624 10.7202 6.59133C10.8783 6.98379 11.0434 7.56524 10.9048 7.84225C10.593 8.46603 11.0299 11.051 11.1712 11.8284C11.1853 11.9065 11.2307 11.9761 11.2967 12.0201C11.9503 12.456 13.0572 13.2879 13.2451 13.6635ZM11.3842 8.31208C11.3604 8.5759 11.3829 9.02432 11.4362 9.55582C12.1386 10.0142 13.1816 10.606 13.5067 10.606C13.5729 10.606 13.6256 10.6016 13.6673 10.5952L11.3842 8.31208Z" fill="currentColor"/>
</svg>
