<svg viewBox="0 0 25 25" fill="none" xmlns="http://www.w3.org/2000/svg">
<path fill-rule="evenodd" clip-rule="evenodd" d="M9.11653 5H15.8005C18.0706 5 19.9173 6.84676 19.9172 9.11662V15.8006C19.9172 18.0705 18.0706 19.9172 15.8005 19.9172H9.11653C6.84668 19.9172 5 18.0706 5 15.8006V9.11662C5 6.84676 6.84668 5 9.11653 5ZM15.8006 18.5937C17.3408 18.5937 18.5938 17.3408 18.5938 15.8006H18.5937V9.11662C18.5937 7.57656 17.3407 6.32353 15.8005 6.32353H9.11653C7.57647 6.32353 6.32353 7.57656 6.32353 9.11662V15.8006C6.32353 17.3408 7.57647 18.5938 9.11653 18.5937H15.8006Z" fill="currentColor"/>
<path fill-rule="evenodd" clip-rule="evenodd" d="M8.61482 12.4588C8.61482 10.3393 10.3391 8.61499 12.4586 8.61499C14.5781 8.61499 16.3024 10.3393 16.3024 12.4588C16.3024 14.5782 14.5781 16.3024 12.4586 16.3024C10.3391 16.3024 8.61482 14.5782 8.61482 12.4588ZM9.93835 12.4587C9.93835 13.8483 11.069 14.9788 12.4586 14.9788C13.8482 14.9788 14.9789 13.8483 14.9789 12.4587C14.9789 11.069 13.8483 9.93843 12.4586 9.93843C11.0689 9.93843 9.93835 11.069 9.93835 12.4587Z" fill="currentColor"/>
<path fill-rule="evenodd" clip-rule="evenodd" d="M16.4636 7.49274C16.2086 7.49274 15.9581 7.59597 15.778 7.77685C15.5971 7.95685 15.493 8.20744 15.493 8.46333C15.493 8.71841 15.5971 8.96891 15.778 9.1498C15.958 9.3298 16.2086 9.43391 16.4636 9.43391C16.7195 9.43391 16.9692 9.3298 17.1501 9.1498C17.331 8.96891 17.4342 8.71833 17.4342 8.46333C17.4342 8.20744 17.331 7.95685 17.1501 7.77685C16.9701 7.59597 16.7195 7.49274 16.4636 7.49274Z" fill="currentColor"/>
</svg>
