<svg viewBox="0 0 75 75" fill="none" xmlns="http://www.w3.org/2000/svg">
<path fill-rule="evenodd" clip-rule="evenodd" d="M50.3125 28C50.8302 28 51.25 28.4197 51.25 28.9375V32.6875C51.25 33.2052 50.8302 33.625 50.3125 33.625H49.3316C48.8975 38.3904 45.1884 42.2301 40.4652 42.8967L41.4544 44.875H42.75C43.2677 44.875 43.6875 45.2948 43.6875 45.8125C43.6875 46.3302 43.2677 46.75 42.75 46.75H31.5C30.9823 46.75 30.5625 46.3302 30.5625 45.8125C30.5625 45.2948 30.9823 44.875 31.5 44.875H32.7956L33.7847 42.8967C29.0616 42.2301 25.3524 38.3904 24.9183 33.625H23.9375C23.4197 33.625 23 33.2052 23 32.6875V28.9375C23 28.4197 23.4197 28 23.9375 28H50.3125ZM35.8294 43L34.8919 44.875H39.3581L38.4206 43H35.8294ZM39 41.125H35.25C30.8823 41.125 27.2741 37.8378 26.8028 33.6244H47.4473C46.9759 37.8378 43.3676 41.125 39 41.125ZM24.875 31.75H49.375V29.875H24.875V31.75Z" fill="currentColor"/>
</svg>
