<svg viewBox="0 0 75 75" fill="none" xmlns="http://www.w3.org/2000/svg">
<path fill-rule="evenodd" clip-rule="evenodd" d="M51.3734 39.7727C52.8364 40.6206 54.1748 42.2366 54.9092 45.1728C55.381 47.0591 53.9541 48.8838 52.0103 48.8838H50.9142C50.4514 51.1531 48.4393 52.8659 46.0341 52.8659C43.6289 52.8659 41.6168 51.1531 41.154 48.8838H30.8668C30.3993 51.352 28.3821 52.8685 25.9726 52.8685C23.2768 52.8685 21 50.6846 21 47.8883V45.8972C21 42.461 23.5013 39.598 26.7797 39.031L28.6218 32.9554H27.9723C27.4223 32.9554 26.9763 32.5097 26.9763 31.9599V27.9778C26.9763 27.4281 27.4222 26.9823 27.9723 26.9823H29.9644C31.6121 26.9823 32.9526 28.3221 32.9526 29.9689V30.9644H35.9407C36.4908 30.9644 36.9368 31.4101 36.9368 31.9599C36.9368 32.5097 36.4909 32.9554 35.9407 32.9554H33.9459C34.5726 33.7879 34.9446 34.8223 34.9446 35.942V45.8971V45.8973V46.8928H39.62C41.1561 45.0732 41.068 42.3416 39.3536 40.6281C39.1733 40.448 39.0617 40.199 39.0617 39.924V37.933C39.0617 36.5576 39.9969 35.3971 41.265 35.0516C41.1292 34.7106 41.0538 34.3395 41.0538 33.9508V25.9866C41.0538 24.3398 42.3942 23 44.0419 23H52.0103C53.6579 23 54.9984 24.3398 54.9984 25.9866V33.9508C54.9984 35.5976 53.6579 36.9374 52.0103 36.9374H51.8389C51.9495 37.2489 52.0103 37.5839 52.0103 37.9329C52.0103 38.6265 51.7718 39.2652 51.3734 39.7727ZM29.9644 28.9732H28.9684H28.9683V30.9642H30.9604V29.9687C30.9604 29.4198 30.5136 28.9732 29.9644 28.9732ZM27.4997 50.5071C25.1949 51.6257 22.9921 50.0106 22.9921 47.8883C22.9921 46.2416 24.3325 44.9018 25.9799 44.9017H25.9801H25.9802C27.6279 44.9017 28.9684 46.2414 28.9684 47.8883C28.9684 49.0462 28.3919 50.0742 27.4997 50.5071ZM30.8603 46.8927H32.9526V45.8973C32.9526 43.1526 30.7184 40.9196 27.9723 40.9196C26.088 40.9196 24.445 41.971 23.5992 43.5176C24.3068 43.1309 25.1181 42.9107 25.9798 42.9106H25.98H25.9802C28.3854 42.9106 30.3975 44.6235 30.8603 46.8927ZM32.9526 41.0255C31.8848 39.9353 30.4629 39.1928 28.8747 38.9867L30.6774 33.0412C31.982 33.3615 32.9526 34.5405 32.9526 35.9419V41.0255ZM44.0418 24.9912C43.4927 24.9912 43.0458 25.4377 43.0458 25.9867V26.9822H53.0062V25.9867C53.0062 25.4378 52.5594 24.9912 52.0102 24.9912H44.0418ZM43.0459 28.9732H53.0063V33.9509C53.0063 34.4998 52.5594 34.9464 52.0103 34.9464H44.0419C43.4927 34.9464 43.0459 34.4998 43.0459 33.9509V28.9732ZM41.0538 37.933V38.9285H42.0498H49.0221C49.5713 38.9285 50.0181 38.4819 50.0181 37.933C50.0181 37.3841 49.5714 36.9375 49.0221 36.9375H42.0498C41.5006 36.9375 41.0538 37.384 41.0538 37.933ZM46.034 50.8748C44.7355 50.8748 43.6283 50.0292 43.2171 48.8705H48.8508C48.4397 50.0292 47.3325 50.8748 46.034 50.8748ZM41.9928 46.8927H52.0103C52.6589 46.8927 53.1337 46.2838 52.9765 45.6558C52.1794 42.4688 50.5651 40.9196 48.0414 40.9196H42.0498H41.9927C42.9364 42.7916 42.9365 45.0207 41.9928 46.8927Z" fill="currentColor"/>
<path fill-rule="evenodd" clip-rule="evenodd" d="M25.9802 48.8836C26.5302 48.8836 26.9762 48.4379 26.9762 47.8881C26.9762 47.3383 26.5302 46.8926 25.9802 46.8926C25.4301 46.8926 24.9841 47.3383 24.9841 47.8881C24.9841 48.4379 25.4301 48.8836 25.9802 48.8836Z" fill="currentColor"/>
<path fill-rule="evenodd" clip-rule="evenodd" d="M48.0261 42.9106H46.034C45.4839 42.9106 45.038 43.3564 45.038 43.9062C45.038 44.4559 45.4839 44.9017 46.034 44.9017H48.0261C48.5762 44.9017 49.0221 44.4559 49.0221 43.9062C49.0221 43.3564 48.5762 42.9106 48.0261 42.9106Z" fill="currentColor"/>
</svg>
