<svg viewBox="0 0 75 75" fill="none" xmlns="http://www.w3.org/2000/svg">
<path fill-rule="evenodd" clip-rule="evenodd" d="M35.0417 45.1739H38.6217C39.1609 45.1739 39.5981 45.6119 39.5981 46.1522C39.5981 46.6925 39.1609 47.1305 38.6217 47.1305H34.7163C34.505 47.1305 34.2995 47.0618 34.1305 46.9348L33.248 46.2718C32.5794 46.8084 31.7322 47.1305 30.8108 47.1305C28.6574 47.1305 26.9054 45.375 26.9054 43.2174C26.9054 41.0597 28.6574 39.3043 30.8108 39.3043C32.9964 39.3043 34.7163 41.1024 34.7163 43.2174C34.7163 43.7448 34.611 44.248 34.4213 44.7077L35.0417 45.1739ZM32.3721 44.3906C32.3733 44.389 32.3747 44.3877 32.3759 44.3861C33.3387 43.0952 32.4001 41.2608 30.8108 41.2608C29.7341 41.2608 28.8581 42.1385 28.8581 43.2173C28.8581 44.2962 29.7341 45.1738 30.8108 45.1738C31.4474 45.1738 32.0137 44.8669 32.3703 44.3932L32.3721 44.3906Z" fill="currentColor"/>
<path fill-rule="evenodd" clip-rule="evenodd" d="M50.6756 43.5813L50.6664 43.5772L46.4341 41.6727L48.8092 32.7826H50.0125C51.6276 32.7826 52.9416 31.4661 52.9416 29.8479C52.9416 28.2296 51.6276 26.9131 50.0125 26.9131H46.107C44.4919 26.9131 43.178 28.2296 43.178 29.8479C43.178 31.4661 44.4919 32.7826 46.107 32.7826H46.7876L44.6295 40.8607C42.3382 39.8296 40.5108 39.0024 39.0414 38.3372L39.0408 38.3369C33.1365 35.6641 33.012 35.6077 31.7872 35.4531V28.8696H33.7399C34.2791 28.8696 34.7163 28.4316 34.7163 27.8913C34.7163 27.351 34.2791 26.913 33.7399 26.913H27.8818C27.3434 26.913 26.9054 26.4741 26.9054 25.9347C26.9054 25.3953 27.3434 24.9564 27.8818 24.9564C28.4209 24.9564 28.8581 24.5185 28.8581 23.9782C28.8581 23.4379 28.421 23 27.8818 23C26.2667 23 24.9527 24.3165 24.9527 25.9348C24.9527 27.553 26.2667 28.8696 27.8818 28.8696H29.8344V35.4523C25.9867 35.9352 23 39.2333 23 43.2174C23 47.2014 25.9867 50.4995 29.8345 50.9824V52.0217C29.8345 52.5619 30.2716 52.9999 30.8109 52.9999C31.3501 52.9999 31.7873 52.562 31.7873 52.0217V51.0434H48.0598V52.0217C48.0598 52.5619 48.497 52.9999 49.0362 52.9999C49.5754 52.9999 50.0126 52.562 50.0126 52.0217V50.9196C51.695 50.4842 52.9415 48.9504 52.9415 47.1304C52.9415 45.611 52.052 44.218 50.6756 43.5813ZM46.107 30.8261C45.5687 30.8261 45.1306 30.3872 45.1306 29.8478C45.1306 29.3084 45.5687 28.8695 46.107 28.8695H50.0125C50.5508 28.8695 50.9888 29.3084 50.9888 29.8478C50.9888 30.3872 50.5508 30.8261 50.0125 30.8261H46.107ZM30.8108 49.0869H49.0361C50.1128 49.0869 50.9888 48.2093 50.9888 47.1304C50.9888 46.3613 50.5568 45.6833 49.8613 45.3597L33.3008 37.9075C32.519 37.5478 31.7165 37.3479 30.8108 37.3479C27.5806 37.3479 24.9527 39.9809 24.9527 43.2174C24.9527 46.4538 27.5806 49.0869 30.8108 49.0869Z" fill="currentColor"/>
</svg>
