<svg viewBox="0 0 75 75" fill="none" xmlns="http://www.w3.org/2000/svg">
<path fill-rule="evenodd" clip-rule="evenodd" d="M28.9941 44.1132C26.0802 42.8508 23.9082 40.3927 23.0345 37.3693C22.9178 36.9652 23.1048 36.5353 23.4801 36.3443C24.988 35.5784 26.6927 35.1839 28.3869 35.196C28.0791 33.554 28.1649 31.8425 28.6662 30.196C28.7886 29.7935 29.1791 29.534 29.5991 29.5785C31.3102 29.7581 32.9201 30.3433 34.3138 31.2621C34.4093 30.9836 34.5132 30.7086 34.6262 30.4386C35.3227 28.7788 36.2959 27.4027 37.4403 26.4592C37.7651 26.1915 38.2348 26.1915 38.5596 26.4592C39.704 27.4027 40.6772 28.7788 41.3737 30.4386C41.4867 30.7086 41.5907 30.9836 41.6861 31.2621C43.0798 30.3433 44.6897 29.7581 46.4008 29.5785C46.8197 29.5346 47.2113 29.7935 47.3338 30.196C47.835 31.8423 47.9208 33.5537 47.613 35.196C49.3072 35.1836 51.0119 35.5784 52.5198 36.3443C52.8951 36.5353 53.0821 36.9652 52.9654 37.3693C52.0917 40.3927 49.9194 42.8508 47.0058 44.1132C45.6522 44.6998 44.2262 44.9911 42.8044 44.9911C42.3032 44.9911 41.8024 44.9545 41.3055 44.8823L41.1473 45.3556C40.7907 46.4236 39.9287 47.2147 38.8789 47.5018V52.0641C38.8789 52.5486 38.4854 52.9413 38 52.9413C37.5145 52.9413 37.121 52.5486 37.121 52.0641V47.5016C36.0712 47.2147 35.2092 46.4234 34.8524 45.3556L34.6942 44.8819C32.7879 45.1594 30.8257 44.9068 28.9941 44.1132ZM37.1373 38.3904C36.8771 37.0525 36.2875 35.7344 35.3925 34.6039C35.3733 34.8506 35.3632 35.0961 35.3635 35.3392C35.3635 37.7136 36.3161 39.9577 38.0002 41.6036C39.6841 39.9575 40.6367 37.7136 40.6367 35.3392C40.6367 35.0961 40.6266 34.8506 40.6074 34.6039C39.7113 35.7355 39.1226 37.0541 38.8628 38.3904C38.7825 38.8027 38.4209 39.1004 38 39.1004C37.579 39.1004 37.2174 38.8027 37.1373 38.3904ZM39.4797 44.8008C39.267 45.4374 38.6724 45.8653 38 45.8653C37.3275 45.8653 36.7329 45.4374 36.52 44.8008L36.4133 44.4812C36.9524 44.3071 37.482 44.089 37.9974 43.826C38.5145 44.0897 39.0457 44.3076 39.5863 44.4819L39.4797 44.8008ZM46.3058 42.5039C48.5031 41.552 50.1943 39.7871 51.0368 37.5966C49.8002 37.0984 48.4447 36.8809 47.1163 36.9686C46.8389 37.7021 46.4777 38.4101 46.0339 39.078C44.8147 40.9133 43.0898 42.2866 41.0915 43.064C42.8248 43.4121 44.6316 43.2294 46.3058 42.5039ZM45.8401 31.4334C46.3322 33.734 45.8836 36.1296 44.5689 38.1085C43.5531 39.6372 42.1162 40.7819 40.4506 41.43C41.7046 39.6692 42.3945 37.5516 42.3945 35.3392C42.3945 34.6045 42.3162 33.8381 42.1683 33.0713C43.2397 32.2551 44.4926 31.6911 45.8401 31.4334ZM40.2107 32.4365C39.7573 30.8516 38.9716 29.3706 38 28.3386C37.0283 29.3706 36.2426 30.8516 35.7892 32.4365C36.7013 33.3082 37.452 34.3418 38 35.4692C38.5479 34.3418 39.2984 33.3084 40.2107 32.4365ZM30.1598 31.4334C31.5073 31.6911 32.7602 32.2551 33.8316 33.0713C33.6837 33.8381 33.6054 34.6045 33.6054 35.3392C33.6054 37.5514 34.295 39.6687 35.5489 41.4295C33.8837 40.7819 32.4468 39.6377 31.431 38.1085C30.1163 36.1296 29.6677 33.734 30.1598 31.4334ZM29.9662 39.078C29.5222 38.4101 29.161 37.7021 28.8836 36.9686C27.5552 36.8809 26.1997 37.0984 24.9633 37.5966C25.8056 39.7871 27.497 41.552 29.6941 42.5039C31.3686 43.2294 33.1751 43.4119 34.9078 43.0633C32.9098 42.2864 31.1855 40.9135 29.9662 39.078Z" fill="currentColor"/>
<path fill-rule="evenodd" clip-rule="evenodd" d="M35.3633 25.6316C35.3633 26.1161 34.9698 26.5088 34.4844 26.5088C33.9989 26.5088 33.6055 26.1161 33.6055 25.6316C33.6055 25.1471 33.9989 24.7544 34.4844 24.7544C34.9698 24.7544 35.3633 25.1471 35.3633 25.6316Z" fill="currentColor"/>
<path fill-rule="evenodd" clip-rule="evenodd" d="M42.3945 25.6316C42.3945 26.1161 42.0011 26.5088 41.5156 26.5088C41.0302 26.5088 40.6367 26.1161 40.6367 25.6316C40.6367 25.1471 41.0302 24.7544 41.5156 24.7544C42.0011 24.7544 42.3945 25.1471 42.3945 25.6316Z" fill="currentColor"/>
<path fill-rule="evenodd" clip-rule="evenodd" d="M38.8789 23.8772C38.8789 24.3617 38.4855 24.7544 38 24.7544C37.5145 24.7544 37.1211 24.3617 37.1211 23.8772C37.1211 23.3927 37.5145 23 38 23C38.4855 23 38.8789 23.3927 38.8789 23.8772Z" fill="currentColor"/>
</svg>
