<svg width="73" height="73" viewBox="0 0 73 73" fill="none" xmlns="http://www.w3.org/2000/svg">
<path fill-rule="evenodd" clip-rule="evenodd" d="M47.74 41.9C47.34 41.9 46.95 42.01 46.59 42.2C45.89 40.12 44.61 38.32 42.87 36.96L41.79 36.12C43.12 34.93 43.89 33.27 43.89 31.31C43.89 30.8 43.84 30.29 43.74 29.78C45.48 29.4 46.77 27.85 46.77 26.02C46.77 23.9 45.04 22.17 42.92 22.17C41.67 22.17 40.52 22.77 39.8 23.76C38.73 23.07 37.51 22.65 36.18 22.65C34.85 22.65 33.63 23.07 32.56 23.76C31.84 22.77 30.69 22.17 29.44 22.17C27.32 22.17 25.59 23.9 25.59 26.02C25.59 27.85 26.89 29.4 28.62 29.78C28.52 30.29 28.47 30.81 28.47 31.31C28.47 33.27 29.24 34.93 30.57 36.12L29.49 36.96C27.75 38.32 26.47 40.12 25.77 42.2C25.41 42 25.02 41.9 24.62 41.9C22.73 41.9 21.25 44.12 21.25 46.95C21.25 49.78 22.73 52 24.66 52L25.35 51.93C28.05 51.66 30.64 50.7 32.87 49.16C33.81 49.45 34.9 49.6 36.15 49.6C37.4 49.6 38.5 49.45 39.43 49.16C41.66 50.7 44.25 51.66 46.95 51.93L47.74 52C49.63 52 51.11 49.78 51.11 46.95C51.11 44.12 49.63 41.9 47.74 41.9ZM42.28 37.72C43.96 39.03 45.17 40.79 45.79 42.83C45.31 43.34 44.93 44.03 44.68 44.86L43.38 44.43C43.41 44.16 43.43 43.88 43.43 43.59C43.43 41.13 42.43 38.64 40.77 36.89L41.01 36.74L42.28 37.72ZM42.93 23.14C44.52 23.14 45.82 24.43 45.82 26.03C45.82 27.41 44.83 28.58 43.51 28.85C42.99 27.12 41.96 25.49 40.59 24.34C41.13 23.59 41.99 23.14 42.93 23.14ZM26.58 26.03C26.58 24.44 27.87 23.14 29.47 23.14C30.41 23.14 31.27 23.59 31.81 24.34C30.43 25.49 29.41 27.13 28.89 28.85C27.56 28.58 26.58 27.41 26.58 26.03ZM29.46 31.32C29.46 27.76 32.4 23.62 36.19 23.62C39.98 23.62 42.92 27.76 42.92 31.32C42.92 35.31 39.54 37.09 36.19 37.09C32.84 37.09 29.46 35.3 29.46 31.32ZM30.12 37.72L31.4 36.72C31.4267 36.7367 31.4533 36.7544 31.48 36.7722C31.5333 36.8078 31.5867 36.8433 31.64 36.87C29.99 38.62 28.98 41.12 28.98 43.57C28.98 43.86 29 44.14 29.03 44.41L27.73 44.84C27.48 44.01 27.1 43.32 26.62 42.81C27.23 40.8 28.43 39.03 30.12 37.72ZM22.25 46.95C22.25 46.55 22.29 46.17 22.35 45.81C23.66 46.08 24.65 47.24 24.65 48.64V51.05C23.35 51.04 22.25 49.17 22.25 46.95ZM25.61 50.93V48.63C25.61 46.79 24.31 45.25 22.59 44.87C23.02 43.68 23.79 42.85 24.65 42.85C25.64 42.85 26.57 43.97 26.91 45.57C26.94 45.7 27.02 45.82 27.14 45.89C27.26 45.96 27.4 45.97 27.53 45.93L29.19 45.38C29.57 46.9 30.45 48.02 31.82 48.72C29.95 49.91 27.82 50.66 25.61 50.93ZM29.94 43.58C29.94 41.27 30.94 38.92 32.54 37.34C33.6 37.79 34.83 38.05 36.19 38.05C37.55 38.05 38.78 37.8 39.84 37.34C41.45 38.91 42.44 41.26 42.44 43.58C42.44 46.98 40.39 48.63 36.19 48.63C31.99 48.63 29.94 46.98 29.94 43.58ZM43.2 45.38L44.86 45.93C44.99 45.97 45.13 45.96 45.25 45.89C45.37 45.82 45.45 45.71 45.48 45.57C45.82 43.97 46.75 42.85 47.74 42.85C48.6 42.85 49.37 43.67 49.8 44.87C48.08 45.25 46.78 46.79 46.78 48.63V50.93C44.57 50.66 42.45 49.91 40.57 48.72C41.94 48.02 42.82 46.9 43.2 45.38ZM47.79 51.04H47.74V48.64C47.74 47.25 48.73 46.08 50.04 45.81C50.1 46.17 50.14 46.56 50.14 46.95C50.14 49.17 49.04 51.04 47.79 51.04ZM33.31 31.31C33.8402 31.31 34.27 30.6653 34.27 29.87C34.27 29.0747 33.8402 28.43 33.31 28.43C32.7798 28.43 32.35 29.0747 32.35 29.87C32.35 30.6653 32.7798 31.31 33.31 31.31ZM33.79 33C33.79 33.83 34.6 34.5 35.71 34.65V35.12C35.04 35.05 34.38 34.83 33.81 34.45L33.57 34.29L33.04 35.09L33.28 35.25C34.14 35.83 35.15 36.13 36.19 36.13C37.23 36.13 38.24 35.83 39.1 35.25L39.34 35.09L38.81 34.29L38.57 34.45C38 34.83 37.34 35.05 36.67 35.12V34.65C37.78 34.5 38.59 33.83 38.59 33C38.59 32.06 37.53 31.32 36.18 31.32C34.85 31.32 33.79 32.06 33.79 33ZM36.2 32.28C37.03 32.28 37.64 32.66 37.64 33C37.64 33.34 37.02 33.72 36.2 33.72C35.37 33.72 34.76 33.34 34.76 33C34.75 32.66 35.37 32.28 36.2 32.28ZM40.04 29.87C40.04 30.6653 39.6102 31.31 39.08 31.31C38.5498 31.31 38.12 30.6653 38.12 29.87C38.12 29.0747 38.5498 28.43 39.08 28.43C39.6102 28.43 40.04 29.0747 40.04 29.87ZM31.87 44.79C31.87 43.17 33.77 41.9 36.2 41.9C38.62 41.9 40.53 43.17 40.53 44.79C40.53 46.41 38.63 47.68 36.2 47.68C33.77 47.68 31.87 46.41 31.87 44.79ZM32.83 44.79C32.83 45.83 34.38 46.71 36.2 46.71C38.02 46.71 39.56 45.83 39.57 44.79C39.57 43.75 38.03 42.87 36.2 42.87C34.37 42.87 32.83 43.75 32.83 44.79Z" fill="currentColor"/>
</svg>
