<?xml version="1.0" encoding="utf-8"?>
<!-- Generator: Adobe Illustrator 24.1.1, SVG Export Plug-In . SVG Version: 6.00 Build 0)  -->
<svg version="1.1" id="Слой_1" xmlns="http://www.w3.org/2000/svg" xmlns:xlink="http://www.w3.org/1999/xlink" x="0px" y="0px"
	 viewBox="0 0 73 73" style="enable-background:new 0 0 73 73;" xml:space="preserve">
<style type="text/css">
	.st0{fill:#B27A78;}
</style>
<g>
	<g>
		<path class="st0" d="M33.79,33c0,0.83,0.81,1.5,1.92,1.65v0.47c-0.67-0.07-1.33-0.29-1.9-0.67l-0.24-0.16l-0.53,0.8l0.24,0.16
			c0.86,0.58,1.87,0.88,2.91,0.88s2.05-0.3,2.91-0.88l0.24-0.16l-0.53-0.8l-0.24,0.16c-0.57,0.38-1.23,0.6-1.9,0.67v-0.47
			c1.11-0.15,1.92-0.82,1.92-1.65c0-0.94-1.06-1.68-2.41-1.68C34.85,31.32,33.79,32.06,33.79,33z M36.2,32.28
			c0.83,0,1.44,0.38,1.44,0.72c0,0.34-0.62,0.72-1.44,0.72c-0.83,0-1.44-0.38-1.44-0.72C34.75,32.66,35.37,32.28,36.2,32.28z"/>
	</g>
	<g>
		<ellipse class="st0" cx="33.31" cy="29.87" rx="0.96" ry="1.44"/>
	</g>
	<g>
		<ellipse class="st0" cx="39.08" cy="29.87" rx="0.96" ry="1.44"/>
	</g>
	<g>
		<path class="st0" d="M47.74,41.9c-0.4,0-0.79,0.11-1.15,0.3c-0.7-2.08-1.98-3.88-3.72-5.24l-1.08-0.84
			c1.33-1.19,2.1-2.85,2.1-4.81c0-0.51-0.05-1.02-0.15-1.53c1.74-0.38,3.03-1.93,3.03-3.76c0-2.12-1.73-3.85-3.85-3.85
			c-1.25,0-2.4,0.6-3.12,1.59c-1.07-0.69-2.29-1.11-3.62-1.11s-2.55,0.42-3.62,1.11c-0.72-0.99-1.87-1.59-3.12-1.59
			c-2.12,0-3.85,1.73-3.85,3.85c0,1.83,1.3,3.38,3.03,3.76c-0.1,0.51-0.15,1.03-0.15,1.53c0,1.96,0.77,3.62,2.1,4.81l-1.08,0.84
			c-1.74,1.36-3.02,3.16-3.72,5.24c-0.36-0.2-0.75-0.3-1.15-0.3c-1.89,0-3.37,2.22-3.37,5.05c0,2.83,1.48,5.05,3.41,5.05h0
			l0.69-0.07c2.7-0.27,5.29-1.23,7.52-2.77c0.94,0.29,2.03,0.44,3.28,0.44s2.35-0.15,3.28-0.44c2.23,1.54,4.82,2.5,7.52,2.77
			L47.74,52c1.89,0,3.37-2.22,3.37-5.05C51.11,44.12,49.63,41.9,47.74,41.9z M42.28,37.72c1.68,1.31,2.89,3.07,3.51,5.11
			c-0.48,0.51-0.86,1.2-1.11,2.03l-1.3-0.43c0.03-0.27,0.05-0.55,0.05-0.84c0-2.46-1-4.95-2.66-6.7c0.08-0.05,0.16-0.1,0.24-0.15
			L42.28,37.72z M42.93,23.14c1.59,0,2.89,1.29,2.89,2.89c0,1.38-0.99,2.55-2.31,2.82c-0.52-1.73-1.55-3.36-2.92-4.51
			C41.13,23.59,41.99,23.14,42.93,23.14z M26.58,26.03c0-1.59,1.29-2.89,2.89-2.89c0.94,0,1.8,0.45,2.34,1.2
			c-1.38,1.15-2.4,2.79-2.92,4.51C27.56,28.58,26.58,27.41,26.58,26.03z M29.46,31.32c0-3.56,2.94-7.7,6.73-7.7s6.73,4.14,6.73,7.7
			c0,3.99-3.38,5.77-6.73,5.77S29.46,35.3,29.46,31.32z M30.12,37.72l1.28-1c0.08,0.05,0.16,0.11,0.24,0.15
			c-1.65,1.75-2.66,4.25-2.66,6.7c0,0.29,0.02,0.57,0.05,0.84l-1.3,0.43c-0.25-0.83-0.63-1.52-1.11-2.03
			C27.23,40.8,28.43,39.03,30.12,37.72z M22.25,46.95c0-0.4,0.04-0.78,0.1-1.14c1.31,0.27,2.3,1.43,2.3,2.83v2.41
			C23.35,51.04,22.25,49.17,22.25,46.95z M25.61,50.93v-2.3c0-1.84-1.3-3.38-3.02-3.76c0.43-1.19,1.2-2.02,2.06-2.02
			c0.99,0,1.92,1.12,2.26,2.72c0.03,0.13,0.11,0.25,0.23,0.32c0.12,0.07,0.26,0.08,0.39,0.04l1.66-0.55
			c0.38,1.52,1.26,2.64,2.63,3.34C29.95,49.91,27.82,50.66,25.61,50.93z M29.94,43.58c0-2.31,1-4.66,2.6-6.24
			c1.06,0.45,2.29,0.71,3.65,0.71c1.36,0,2.59-0.25,3.65-0.71c1.61,1.57,2.6,3.92,2.6,6.24c0,3.4-2.05,5.05-6.25,5.05
			S29.94,46.98,29.94,43.58z M43.2,45.38l1.66,0.55c0.13,0.04,0.27,0.03,0.39-0.04s0.2-0.18,0.23-0.32c0.34-1.6,1.27-2.72,2.26-2.72
			c0.86,0,1.63,0.82,2.06,2.02c-1.72,0.38-3.02,1.92-3.02,3.76v2.3c-2.21-0.27-4.33-1.02-6.21-2.21
			C41.94,48.02,42.82,46.9,43.2,45.38L43.2,45.38z M47.79,51.04l-0.05,0v-2.4c0-1.39,0.99-2.56,2.3-2.83
			c0.06,0.36,0.1,0.75,0.1,1.14C50.14,49.17,49.04,51.04,47.79,51.04z"/>
	</g>
	<g>
		<path class="st0" d="M36.2,41.9c-2.43,0-4.33,1.27-4.33,2.89s1.9,2.89,4.33,2.89s4.33-1.27,4.33-2.89S38.62,41.9,36.2,41.9z
			 M36.2,46.71c-1.82,0-3.37-0.88-3.37-1.92c0-1.04,1.54-1.92,3.37-1.92s3.37,0.88,3.37,1.92C39.56,45.83,38.02,46.71,36.2,46.71z"
			/>
	</g>
</g>
</svg>
