<svg viewBox="0 0 75 75" fill="none" xmlns="http://www.w3.org/2000/svg">
<path fill-rule="evenodd" clip-rule="evenodd" d="M41.1474 32.7766C40.9974 32.8858 40.819 32.9415 40.6396 32.9415C40.5151 32.9415 40.39 32.9146 40.273 32.8597L37.9708 31.7802L35.6686 32.8597C35.3836 32.9936 35.0487 32.9616 34.7942 32.7766C34.5395 32.5918 34.4056 32.2829 34.4449 31.9707L34.7604 29.4476L33.022 27.5918C32.8068 27.362 32.7337 27.0337 32.8308 26.7342C32.9281 26.435 33.1805 26.2123 33.4894 26.1531L35.9866 25.6734L37.2145 23.4466C37.3664 23.1711 37.656 23 37.9708 23C38.2854 23 38.5753 23.1711 38.7272 23.4466L39.955 25.6734L42.452 26.1531C42.7611 26.2125 43.0133 26.435 43.1106 26.7342C43.2079 27.0337 43.1348 27.362 42.9197 27.5918L41.1813 29.4476L41.4967 31.9707C41.5358 32.2829 41.4019 32.5918 41.1474 32.7766ZM39.5884 30.6309L39.417 29.2601C39.3851 29.0053 39.4682 28.7497 39.6437 28.5624L40.5882 27.5539L39.2313 27.2934C38.9794 27.245 38.7619 27.0869 38.6379 26.8622L37.9708 25.6524L37.3038 26.8624C37.1797 27.0872 36.9623 27.245 36.7103 27.2934L35.3536 27.5541L36.298 28.5624C36.4734 28.7497 36.5566 29.0053 36.5246 29.2601L36.3533 30.6309L37.6042 30.0443C37.7202 29.9897 37.8456 29.9625 37.9708 29.9625C38.0962 29.9625 38.2214 29.9897 38.3377 30.0443L39.5884 30.6309Z" fill="currentColor"/>
<path fill-rule="evenodd" clip-rule="evenodd" d="M52.2407 34.9248C52.5498 34.9842 52.802 35.2069 52.8993 35.5062C52.9966 35.8054 52.9233 36.1339 52.7081 36.3635L50.9697 38.2196L51.2852 40.7426C51.3242 41.0549 51.1904 41.3635 50.9359 41.5485C50.7858 41.6575 50.6076 41.7135 50.4281 41.7135C50.3036 41.7135 50.1784 41.6865 50.0617 41.6317L47.7593 40.5519L45.4571 41.6317C45.172 41.7653 44.8371 41.7334 44.5826 41.5483C44.3282 41.3635 44.1943 41.0549 44.2334 40.7426L44.5488 38.2193L42.8104 36.3635C42.5955 36.1337 42.5222 35.8054 42.6195 35.5062C42.7168 35.2069 42.969 34.9842 43.278 34.9248L45.7751 34.4451L47.0029 32.2183C47.1548 31.9428 47.4447 31.7717 47.7593 31.7717C48.0741 31.7717 48.3637 31.9428 48.5156 32.2183L49.7435 34.4451L52.2407 34.9248ZM49.2055 38.0318C49.1737 37.7771 49.2567 37.5215 49.4321 37.3341L50.3767 36.3258L49.02 36.0652C48.7678 36.0167 48.5503 35.8589 48.4265 35.6341L47.7593 34.4241L47.0922 35.6341C46.9684 35.8589 46.751 36.0167 46.4988 36.0652L45.1421 36.3258L46.0864 37.3341C46.2621 37.5215 46.345 37.7771 46.3133 38.0318L46.1417 39.4026L47.3926 38.816C47.5089 38.7616 47.6341 38.7342 47.7595 38.7342C47.8847 38.7342 48.0099 38.7616 48.1261 38.816L49.3771 39.4026L49.2055 38.0318Z" fill="currentColor"/>
<path fill-rule="evenodd" clip-rule="evenodd" d="M33.9091 45.6734L36.4061 46.1529C36.7152 46.2122 36.9676 46.435 37.0647 46.7342C37.1618 47.0335 37.0887 47.362 36.8735 47.5915L35.1351 49.4474L35.4508 51.9707C35.4899 52.2829 35.356 52.5915 35.1013 52.7766C34.9512 52.8855 34.7731 52.9415 34.5937 52.9415C34.469 52.9415 34.3438 52.9145 34.2271 52.8597L31.9249 51.7799L29.6225 52.8597C29.3377 52.9936 29.0028 52.9614 28.7483 52.7766C28.4936 52.5915 28.3597 52.2829 28.3988 51.9707L28.7143 49.4474L26.9761 47.5915C26.7609 47.362 26.6878 47.0335 26.7849 46.7342C26.8822 46.435 27.1344 46.2122 27.4435 46.1529L29.9407 45.6734L31.1686 43.4466C31.3205 43.1711 31.6101 42.9998 31.9249 42.9998C32.2395 42.9998 32.5294 43.1711 32.6813 43.4466L33.9091 45.6734ZM33.3709 49.2598C33.3392 49.0051 33.4223 48.7495 33.5978 48.5622L34.5421 47.5538L33.1854 47.2932C32.9332 47.2448 32.7158 47.0867 32.592 46.8621L31.9249 45.6521L31.2577 46.8621C31.1338 47.0867 30.9164 47.2448 30.6642 47.2932L29.3075 47.5538L30.2521 48.5622C30.4275 48.7495 30.5107 49.0051 30.4787 49.2598L30.3074 50.6306L31.5581 50.044C31.6743 49.9897 31.7995 49.9622 31.9249 49.9622C32.0501 49.9622 32.1755 49.9897 32.2916 50.044L33.5425 50.6306L33.3709 49.2598Z" fill="currentColor"/>
<path fill-rule="evenodd" clip-rule="evenodd" d="M46.0008 45.6734L48.498 46.1529C48.8071 46.2122 49.0593 46.435 49.1564 46.7342C49.2537 47.0335 49.1806 47.362 48.9654 47.5915L47.227 49.4474L47.5425 51.9707C47.5816 52.2829 47.4477 52.5915 47.1932 52.7766C47.0431 52.8855 46.865 52.9415 46.6854 52.9415C46.5609 52.9415 46.4357 52.9145 46.319 52.8597L44.0166 51.7799L41.7144 52.8597C41.4293 52.9936 41.0944 52.9614 40.84 52.7766C40.5855 52.5915 40.4516 52.2829 40.4907 51.9707L40.8062 49.4474L39.0678 47.5915C38.8528 47.362 38.7795 47.0335 38.8768 46.7342C38.9741 46.435 39.2263 46.2122 39.5354 46.1529L42.0324 45.6734L43.2602 43.4466C43.4124 43.1711 43.702 42.9998 44.0166 42.9998C44.3314 42.9998 44.621 43.1711 44.7729 43.4466L46.0008 45.6734ZM45.4628 49.2598C45.4311 49.0051 45.514 48.7495 45.6897 48.5622L46.634 47.5538L45.2773 47.2932C45.0251 47.2448 44.8077 47.0867 44.6839 46.8621L44.0166 45.6521L43.3496 46.8621C43.2258 47.0867 43.0083 47.2448 42.7561 47.2932L41.3994 47.5538L42.344 48.5622C42.5194 48.7495 42.6026 49.0051 42.5706 49.2598L42.399 50.6306L43.65 50.044C43.7662 49.9897 43.8914 49.9622 44.0168 49.9622C44.142 49.9622 44.2672 49.9897 44.3835 50.044L45.6344 50.6306L45.4628 49.2598Z" fill="currentColor"/>
<path fill-rule="evenodd" clip-rule="evenodd" d="M30.8511 41.7135C30.7263 41.7135 30.6012 41.6865 30.4844 41.6317L28.1823 40.5519L25.8798 41.6317C25.595 41.7653 25.2599 41.7334 25.0054 41.5483C24.7509 41.3635 24.6171 41.0549 24.6561 40.7426L24.9716 38.2193L23.2332 36.3635C23.0182 36.1337 22.9451 35.8054 23.0422 35.5062C23.1395 35.2069 23.3917 34.9842 23.7008 34.9248L26.1981 34.4451L27.4257 32.2185C27.5776 31.9431 27.8675 31.7717 28.182 31.7717C28.4968 31.7717 28.7865 31.9431 28.9384 32.2185L30.1662 34.4453L32.6635 34.9248C32.9725 34.9842 33.2247 35.2069 33.3221 35.5062C33.4194 35.8054 33.346 36.1339 33.1309 36.3635L31.3927 38.2196L31.7082 40.7426C31.7472 41.0549 31.6134 41.3635 31.3589 41.5485C31.2086 41.6575 31.0304 41.7135 30.8511 41.7135ZM26.736 38.0318L26.5647 39.4026L27.8154 38.816C27.9317 38.7616 28.0568 38.7342 28.1823 38.7342C28.3074 38.7342 28.4328 38.7616 28.5489 38.816L29.7998 39.4026L29.6282 38.0318C29.5965 37.7771 29.6796 37.5215 29.8551 37.3341L30.7994 36.3258L29.4428 36.0652C29.1906 36.0167 28.9731 35.8589 28.8493 35.6341L28.1823 34.4241L27.515 35.6341C27.3912 35.8589 27.1737 36.0167 26.9215 36.0652L25.5648 36.3258L26.5094 37.3341C26.6849 37.5215 26.768 37.7771 26.736 38.0318Z" fill="currentColor"/>
</svg>
