<svg viewBox="0 0 75 75" fill="none" xmlns="http://www.w3.org/2000/svg">
<path fill-rule="evenodd" clip-rule="evenodd" d="M5.84864 25.1333C6.01453 25.1333 6.14724 25.1666 6.31313 25.2333V25.5333C6.21359 25.4666 6.04771 25.4333 5.915 25.4333C5.64958 25.4333 5.38416 25.5666 5.38416 25.9C5.38416 26.3 5.68275 26.4 5.88182 26.4C5.94817 26.4 6.01453 26.4 6.04771 26.3666V25.8333H6.34631V26.5666C6.21359 26.6333 6.04771 26.6666 5.88182 26.6666C5.48369 26.6666 5.08556 26.4333 5.08556 25.9C5.05238 25.3666 5.45051 25.1333 5.84864 25.1333V25.1333Z" fill="currentColor"/>
<path fill-rule="evenodd" clip-rule="evenodd" d="M8.76818 25.1666V26.6333H8.4364V25.1666H8.76818V25.1666Z" fill="currentColor"/>
<path fill-rule="evenodd" clip-rule="evenodd" d="M10.8916 26.6333V25.1666H11.1902L11.8869 26.1333C11.8869 26.0666 11.8869 26 11.8869 25.9333V25.1666H12.1855V26.6333H11.8869L11.1902 25.6666C11.1902 25.7333 11.1902 25.8 11.1902 25.8666V26.6333H10.8916V26.6333Z" fill="currentColor"/>
<path fill-rule="evenodd" clip-rule="evenodd" d="M14.2426 26.6333V26.4L14.9393 25.4333H14.2757V25.1666H15.3706V25.4L14.6407 26.3333H15.4038V26.6333H14.2426V26.6333Z" fill="currentColor"/>
<path fill-rule="evenodd" clip-rule="evenodd" d="M17.892 25.1666L17.2948 26.6333H17.6266L17.7261 26.3666H18.3897L18.4892 26.6333H18.821L18.2238 25.1666H17.892ZM18.0911 25.5666L18.2901 26.1H17.8256L18.0247 25.5666C18.0247 25.5666 18.0579 25.5333 18.0579 25.4666C18.0579 25.4833 18.0662 25.5 18.0745 25.5166C18.0828 25.5333 18.0911 25.55 18.0911 25.5666Z" fill="currentColor"/>
<path fill-rule="evenodd" clip-rule="evenodd" d="M5.84863 46.9333C5.98134 46.9333 6.14723 46.9667 6.27994 47.0333V47.3333C6.18041 47.2667 6.0477 47.2333 5.91499 47.2333C5.64956 47.2333 5.38414 47.3667 5.38414 47.7333C5.38414 48.0667 5.64956 48.2 5.91499 48.2C6.08087 48.2 6.21358 48.1667 6.27994 48.0667V48.3667C6.14723 48.4333 6.01452 48.4667 5.84863 48.4667C5.4505 48.4667 5.05237 48.2333 5.05237 47.7333C5.05237 47.1667 5.4505 46.9333 5.84863 46.9333V46.9333Z" fill="currentColor"/>
<path fill-rule="evenodd" clip-rule="evenodd" d="M9.43179 46.9667L8.83459 48.4333H9.16637L9.2659 48.1667H9.92945L10.029 48.4333H10.3608L9.76357 46.9667H9.43179ZM9.63086 47.3667L9.82992 47.9H9.36544L9.5645 47.3667C9.5645 47.3667 9.59768 47.3333 9.59768 47.2667C9.59768 47.2833 9.60597 47.3 9.61427 47.3167C9.62256 47.3333 9.63086 47.35 9.63086 47.3667Z" fill="currentColor"/>
<path fill-rule="evenodd" clip-rule="evenodd" d="M13.8776 46.9667V47.2333H13.4463V48.4333H13.1145V47.2333H12.6832V46.9667H13.8776V46.9667Z" fill="currentColor"/>
<path fill-rule="evenodd" clip-rule="evenodd" d="M17.5602 46.9667V47.2333H16.8303V47.5667H17.4939V47.8333H16.8303V48.1667H17.5602V48.4333H16.5317V46.9667H17.5602V46.9667Z" fill="currentColor"/>
<path fill-rule="evenodd" clip-rule="evenodd" d="M20.2809 46.9667V48.4333H20.5795V47.9333H20.7785L21.1767 48.4333H21.5416L21.1103 47.8667C21.3094 47.8 21.4421 47.7 21.4421 47.4333C21.4421 47.0667 21.1767 46.9667 20.8781 46.9667H20.2809ZM20.8781 47.6667H20.5795V47.2667H20.8781C21.0108 47.2667 21.1103 47.3 21.1103 47.4667C21.1103 47.6 21.0108 47.6667 20.8781 47.6667Z" fill="currentColor"/>
<path fill-rule="evenodd" clip-rule="evenodd" d="M24.5276 46.9667V48.4333H24.1958V46.9667H24.5276V46.9667Z" fill="currentColor"/>
<path fill-rule="evenodd" clip-rule="evenodd" d="M27.2812 48.4333V46.9667H27.5798L28.2766 47.9333C28.2766 47.8667 28.2766 47.8 28.2766 47.7333V46.9667H28.5752V48.4333H28.2766L27.5798 47.4667C27.5798 47.5333 27.5798 47.6 27.5798 47.6667V48.4333H27.2812V48.4333Z" fill="currentColor"/>
<path fill-rule="evenodd" clip-rule="evenodd" d="M32.0588 46.9333C32.2247 46.9333 32.3574 46.9667 32.5233 47.0333V47.3333C32.4238 47.2667 32.2579 47.2333 32.1252 47.2333C31.8598 47.2333 31.5944 47.3667 31.5944 47.7C31.5944 48.1 31.893 48.2 32.092 48.2C32.1584 48.2 32.2247 48.2 32.2579 48.1667V47.6333H32.5565V48.3667C32.4238 48.4333 32.2579 48.4667 32.092 48.4667C31.6939 48.4667 31.2958 48.2333 31.2958 47.7C31.2626 47.1667 31.6607 46.9333 32.0588 46.9333V46.9333Z" fill="currentColor"/>
<path fill-rule="evenodd" clip-rule="evenodd" d="M19.4609 32.1429C19.2274 32.2387 18.9918 32.3353 18.7547 32.4334C18.4561 32 18.0579 31.6334 17.5603 31.3334C17.0294 31.0334 16.4654 30.8 15.835 30.6334C15.2047 30.4667 14.5743 30.3667 13.9439 30.3334C13.2804 30.3 12.6832 30.3 12.1192 30.3334C11.3561 30.3667 10.4935 30.5334 9.53131 30.8334C8.56916 31.1334 7.67336 31.5334 6.81075 32.0667C5.98131 32.6334 5.21822 33.2667 4.62103 34.0334C4.02383 34.8 3.65888 35.7 3.59252 36.7C3.55935 37.5667 3.69206 38.3334 3.99065 39C4.32243 39.6667 4.68738 40.2 5.11869 40.5667C4.35561 41.2667 3.72523 42 3.19439 42.7C2.66355 43.4 2.2986 44.0667 2.06636 44.6667C2.03318 44.7334 2 44.8 2 44.9334C2 45.0667 2 45.1334 2.06636 45.1C2.16589 45.1334 2.26542 45 2.39813 44.7334C2.66355 44.2 3.06168 43.6 3.65888 42.9334C4.25607 42.3 4.91963 41.6334 5.68271 40.9334C6.5785 41.5667 7.64019 41.9667 8.86776 42.1334C10.0953 42.3334 11.2565 42.4 12.3514 42.3334C13.6785 42.2667 14.9724 42.0334 16.2 41.6667C17.4276 41.3 18.622 40.7334 19.75 40.0334C20.878 39.3334 21.9397 38.4334 22.9019 37.3334C23.864 36.2334 24.7266 34.9334 25.5229 33.4C25.8547 32.7667 26.1864 32.1334 26.5182 31.4334L27.6131 29.3334C27.779 29.2667 27.9449 29.2 28.1771 29.1C28.2393 29.0732 28.2968 29.0488 28.3502 29.0262C28.4959 28.9643 28.6108 28.9155 28.7079 28.8667C29.3715 28.6 30.035 28.3 30.6322 27.9334C31.2294 27.6 31.7603 27.2 32.2248 26.8334C32.6561 26.4667 33.021 26.0667 33.3196 25.7C33.585 25.3 33.7509 24.9667 33.7841 24.6334C33.8505 24.1667 33.7178 23.8667 33.386 23.7C33.0542 23.5334 32.7224 23.4667 32.3907 23.5C31.9925 23.5334 31.5944 23.6334 31.1631 23.8C30.7318 23.9667 30.3005 24.2 29.8692 24.5C29.0729 25.0667 28.2435 25.8 27.4472 26.7C26.6178 27.6 25.8547 28.6334 25.1248 29.7667C24.0299 30.2 22.9682 30.6334 21.9729 31.0667C21.1868 31.4353 20.3385 31.7831 19.4609 32.1429ZM27.8453 28.8C27.9449 28.7334 28.0776 28.7 28.2103 28.6667C28.2936 28.6458 28.3769 28.6117 28.452 28.581L28.452 28.581C28.4966 28.5628 28.5382 28.5458 28.5752 28.5334C29.1393 28.3 29.7033 28 30.2341 27.7C30.765 27.4 31.2626 27.0667 31.7271 26.7334C32.1916 26.4 32.5565 26.0334 32.822 25.7C33.1206 25.3334 33.2864 25 33.3196 24.6667C33.386 24.3667 33.2864 24.1667 33.0874 24.0334C32.8883 23.9 32.6561 23.8667 32.3575 23.9334C31.7935 24 31.1631 24.4 30.4664 25.0667C30.1014 25.4334 29.6369 25.9667 29.1393 26.6667C29.0205 26.8594 28.8992 27.0522 28.7775 27.2456C28.4572 27.7547 28.1338 28.2686 27.8453 28.8ZM13.214 38.0334C13.778 38.0334 14.3752 37.9334 14.9393 37.7667C15.5364 37.6 16.0673 37.3334 16.565 37C17.0626 36.6667 17.4939 36.2667 17.8257 35.8C18.1575 35.3334 18.3234 34.8 18.3565 34.2334C18.3565 33.8667 18.3234 33.5334 18.2238 33.2334C17.7925 33.4667 17.3612 33.6667 16.8967 33.8667C16.6645 33.9667 16.4323 34.075 16.2001 34.1833L16.2 34.1834C15.9678 34.2917 15.7355 34.4 15.5033 34.5C14.8065 34.8334 14.0435 35.2334 13.1808 35.7C12.3182 36.1667 11.4224 36.7334 10.5266 37.3334C10.9911 37.5667 11.4556 37.7667 11.9201 37.8667C12.4178 37.9667 12.8491 38.0334 13.214 38.0334ZM11.7542 38.2334C12.285 38.3667 12.8159 38.4334 13.3136 38.4334C13.9439 38.4334 14.6407 38.3334 15.3374 38.1667C16.0341 37.9667 16.6977 37.7 17.2617 37.3334C17.8257 36.9667 18.3234 36.5334 18.6883 36C19.0533 35.4667 19.2523 34.8334 19.2855 34.1667C19.2855 33.7 19.2192 33.2667 19.0533 32.9C20.0486 32.4334 21.0439 32 21.9729 31.6L22.3215 31.4498L22.3216 31.4497C23.1489 31.093 24.0207 30.7171 24.8925 30.3667V30.4L24.8924 30.4002L24.8924 30.4002C24.5939 30.8668 24.2953 31.3334 23.9967 31.8334C23.6981 32.3334 23.3995 32.8667 23.1009 33.4C21.6411 36.1334 20.0818 38.2 18.4229 39.6C16.764 41 14.8729 41.8 12.6832 42C11.5883 42.1 10.4603 42.0334 9.29907 41.8C8.13785 41.6 7.1757 41.1 6.41262 40.3667C6.64486 40.1667 6.84392 40 7.07617 39.8334L7.07621 39.8333C7.30844 39.6667 7.54067 39.5 7.7729 39.3C8.17103 39 8.56916 38.7 8.96729 38.4334C9.36542 38.1667 9.79673 37.8667 10.228 37.5667C10.6925 37.8667 11.1902 38.1 11.7542 38.2334ZM17.0626 31.6334C16.5981 31.3334 16.1005 31.1334 15.5364 30.9667C14.9724 30.8 14.4084 30.7334 13.8112 30.6667C13.214 30.6334 12.6832 30.6334 12.1855 30.7C11.4888 30.7667 10.7257 30.9 9.92944 31.1667C9.13318 31.4334 8.37009 31.8 7.67336 32.2667C6.97664 32.7334 6.37944 33.3334 5.91495 34.0334C5.45047 34.7334 5.15187 35.5667 5.08551 36.5334C5.01916 37.2334 5.08551 37.8667 5.28458 38.4334C5.45047 39 5.71589 39.4667 6.01449 39.8C6.37944 39.4334 6.77757 39.1 7.27523 38.7334C7.67331 38.4334 8.03821 38.1668 8.40311 37.9001L8.40327 37.9C8.58574 37.7834 8.78479 37.65 8.99628 37.5084L8.99633 37.5084L8.99636 37.5083C9.20785 37.3667 9.43179 37.2167 9.66402 37.0667C9.16636 36.6334 8.90093 36.1 8.8014 35.5C8.73505 35.2334 8.8014 35.1 8.93411 35.1C8.96729 35.1 9.00047 35.2 9.06682 35.4334C9.13318 35.7334 9.26589 36 9.46495 36.2C9.63084 36.4334 9.82991 36.6334 10.0621 36.8C10.9248 36.2667 11.8537 35.7334 12.7827 35.2667L12.7828 35.2667C13.7117 34.8 14.6407 34.3334 15.5364 33.9334L18.2238 32.7L18.2084 32.6831C17.8495 32.2897 17.5206 31.9291 17.0626 31.6334Z" fill="currentColor"/>
<path fill-rule="evenodd" clip-rule="evenodd" d="M26.8418 36.6502C26.9304 36.5682 27.0213 36.4841 27.1155 36.4H27.215C26.9828 36.6667 26.7837 36.9333 26.6178 37.1667C26.4519 37.3667 26.2197 37.6667 25.9874 38.0333C25.6225 38.5667 25.3239 39.0333 25.0253 39.5C24.7267 39.9667 24.4944 40.4 24.2954 40.8C24.1627 41.0667 24.1295 41.2667 24.229 41.3333C24.3285 41.4333 24.5276 41.4667 24.8594 41.4667C25.0916 41.4667 25.2575 41.4333 25.3902 41.3667C25.4874 41.3179 25.6023 41.2512 25.7481 41.1667C25.8014 41.1357 25.8588 41.1024 25.9211 41.0667C25.9542 41.04 25.9914 41.0107 26.0323 40.9784C26.1958 40.8493 26.4187 40.6733 26.6842 40.4333C26.8273 40.3039 26.9766 40.1745 27.132 40.0397C27.337 39.8621 27.5526 39.6752 27.779 39.4667C28.01 39.2703 28.2316 39.0739 28.4588 38.8723C28.6559 38.6976 28.8573 38.5191 29.0729 38.3333C29.2913 38.1453 29.5023 37.9573 29.7094 37.7727C29.9429 37.5647 30.1715 37.361 30.4 37.1667C30.6145 37.0079 30.8175 36.853 31.0102 36.7058C31.384 36.4206 31.7193 36.1646 32.0257 35.9667C32.4902 35.6667 32.9879 35.3667 33.5187 35.1333C33.751 35.0333 33.9832 34.9333 34.2155 34.9C34.4477 34.8667 34.6468 34.8667 34.7795 34.9333C35.0117 35.0333 35.1113 35.2333 35.0781 35.5C35.0449 35.7667 34.9454 35.9667 34.8127 36.1C34.6468 36.3 34.4477 36.4333 34.2155 36.5C34.0528 36.5701 33.9063 36.6074 33.7534 36.6464C33.688 36.6631 33.6214 36.68 33.5519 36.7C33.2533 36.7333 32.9215 36.8333 32.6229 36.9333C32.2912 37.0667 32.0589 37.2 31.8599 37.4C31.694 37.5667 31.4949 37.8333 31.2958 38.2333C31.0968 38.6 30.9972 39.1 30.9641 39.6333C30.9309 40.3667 31.0636 40.8333 31.329 41.1333C31.5944 41.4333 31.9594 41.5667 32.3575 41.5667C32.6893 41.5667 33.0211 41.5 33.3528 41.4C33.6846 41.3 34.0164 41.1667 34.315 41C34.6136 40.8333 34.9122 40.6667 35.1776 40.5C35.443 40.3333 35.6753 40.1667 35.8743 40C36.2387 39.7315 36.5675 39.4452 36.8868 39.1672C37.0036 39.0655 37.1191 38.9649 37.2346 38.8667C37.6328 38.5 37.9977 38.1667 38.2631 37.9333L38.5617 37.6333C38.6944 37.5 38.7608 37.3667 38.6944 37.3C38.6281 37.2333 38.5285 37.2667 38.3958 37.3667C38.2631 37.4667 38.1968 37.5333 38.1636 37.5667C37.9314 37.7667 37.6328 38.0333 37.3342 38.3C37.0024 38.5667 36.6374 38.8667 36.2061 39.2333C35.9075 39.5333 35.6089 39.7333 35.3435 39.9C35.1113 40.0667 34.879 40.2 34.6799 40.3C34.2155 40.5667 33.8505 40.6667 33.6183 40.6333C33.2201 40.5667 32.9879 40.0667 32.9215 39.1333C32.8884 38.4 33.0211 37.8333 33.2533 37.4667C33.386 37.2667 33.6183 37.1333 33.9169 37.0667C34.1542 36.9951 34.4086 36.9577 34.6799 36.9178C34.7878 36.9019 34.8984 36.8856 35.0117 36.8667C35.4762 36.8 35.8743 36.7333 36.2061 36.6C36.5711 36.4667 36.8033 36.2667 36.936 36C37.1019 35.6 37.0687 35.2667 36.8033 34.9333C36.5379 34.6 36.1066 34.4333 35.5757 34.3667C34.9122 34.3 34.2155 34.4333 33.5187 34.7333C33.1206 34.9 32.6893 35.1333 32.1585 35.4667C31.6276 35.8 31.1631 36.1 30.7982 36.4C30.1014 36.9333 29.4711 37.4667 28.9402 37.9333C28.683 38.1756 28.4179 38.4101 28.1489 38.6481C27.8627 38.9013 27.572 39.1585 27.2814 39.4333L27.215 39.4C27.3477 39.2 27.5468 38.9 27.8454 38.4667C28.0399 38.149 28.2702 37.8313 28.5099 37.5005C28.5972 37.3801 28.6858 37.2579 28.7743 37.1333C29.1393 36.6667 29.4711 36.2333 29.7697 35.8C30.1014 35.3667 30.3337 35.0667 30.4996 34.8667C31.0968 34.3333 31.7603 33.7667 32.4571 33.2C33.1538 32.6 33.8837 32.0334 34.6135 31.4667L34.6136 31.4667C35.3435 30.9 36.0734 30.3333 36.8033 29.8C37.5332 29.2667 38.1968 28.7333 38.8271 28.2C38.9939 28.0595 39.1598 27.9198 39.3249 27.7809C40.1776 27.0631 41.007 26.3649 41.8131 25.6667C41.8848 25.6046 41.9561 25.5429 42.027 25.4815C42.908 24.7191 43.7279 24.0095 44.4342 23.3C45.1972 22.5333 45.8276 21.8333 46.3253 21.2C46.8229 20.5667 47.1215 20 47.1879 19.5C47.2211 19.1 47.1547 18.7667 46.9888 18.4667C46.7898 18.1667 46.4248 18 45.894 18C45.2968 18 44.7328 18.1667 44.1687 18.5C43.6047 18.8 43.0407 19.2 42.4435 19.6333C41.8131 20.1 41.0832 20.7333 40.2538 21.5C39.3912 22.3 38.5617 23.1333 37.6659 24.0333C36.7701 24.9333 35.9075 25.8333 35.0781 26.7333C34.2486 27.6333 33.5187 28.4333 32.9215 29.1C31.9594 30.1333 31.0636 31.2 30.2342 32.2667C29.9966 32.5721 29.7618 32.8721 29.5313 33.1667C28.9568 33.9006 28.4089 34.6006 27.9117 35.2667C27.8292 35.3377 27.7468 35.4129 27.6613 35.4909C27.5062 35.6324 27.3412 35.7829 27.1486 35.9333C26.85 36.2 26.5846 36.4333 26.3192 36.6667C26.0538 36.9 25.8215 37.1 25.6225 37.2667C25.4234 37.4333 25.3239 37.5333 25.2907 37.5667L25.2907 37.5667C25.1248 37.7333 25.0585 37.8667 25.0916 37.9333C25.1912 38.0333 25.3239 38 25.5561 37.8C25.7622 37.5929 25.9683 37.4121 26.1976 37.2109C26.2267 37.1854 26.2562 37.1596 26.286 37.1333C26.4677 36.9964 26.6495 36.8282 26.8418 36.6502ZM32.9769 32.1556C32.4258 32.6343 31.8031 33.1753 31.0968 33.7667C31.893 32.7 32.5898 31.8 33.2201 31.0333C33.398 30.8126 33.5725 30.5952 33.7428 30.3832C34.1123 29.9228 34.4615 29.488 34.7795 29.1C35.244 28.5333 35.6753 28 36.0734 27.5C36.4715 27 36.9028 26.4667 37.3673 25.9C38.429 24.6333 39.4243 23.5 40.3533 22.5333C40.4191 22.4648 40.4843 22.397 40.5488 22.3298C41.3946 21.4494 42.1279 20.6861 42.7753 20.0667C43.2066 19.6667 43.6711 19.2667 44.1687 18.9333C44.6664 18.6 45.0645 18.4333 45.4295 18.4333C45.9271 18.4333 46.1594 18.6667 46.1262 19.2C46.0599 19.6667 45.8276 20.2333 45.3963 20.8333C44.965 21.4667 44.401 22.1333 43.6711 22.8667C42.9412 23.6 42.1449 24.3667 41.2491 25.2C40.3533 26.0333 39.4243 26.8667 38.429 27.7L38.429 27.7C37.9645 28.1 37.5 28.5 37.0356 28.8667C36.8719 28.9959 36.7 29.1292 36.5227 29.2667C36.197 29.5194 35.8532 29.786 35.5094 30.0667C34.9454 30.5 34.315 31 33.6183 31.6C33.4159 31.7742 33.2024 31.9597 32.9769 32.1556Z" fill="currentColor"/>
<path fill-rule="evenodd" clip-rule="evenodd" d="M46.7898 36.6667C46.3916 37.0334 45.8608 37.4334 45.2304 37.9334C44.6001 38.4334 44.0029 38.8667 43.472 39.3001C42.6426 39.9334 41.8463 40.4667 41.1164 40.9001C40.3865 41.3334 39.7229 41.5667 39.0926 41.5667C38.1636 41.5667 37.7323 41.1667 37.7986 40.3667C37.865 39.8667 38.0972 39.3334 38.5286 38.7334C39.3912 37.6001 40.3533 36.5001 41.415 35.4667C41.2823 35.5334 41.0169 35.7001 40.6519 35.9667C40.2538 36.2334 39.922 36.5001 39.6234 36.7334C39.3248 36.9667 39.0594 37.2001 38.8603 37.3667C38.6281 37.5334 38.429 37.7334 38.1968 37.9334C37.865 38.2001 37.6659 38.3001 37.5996 38.2667C37.5332 38.2001 37.5664 38.1334 37.6328 38.0667C37.6991 38.0001 37.8318 37.8334 38.0641 37.6001C38.1636 37.5001 38.3295 37.3334 38.5617 37.1334C38.794 36.9334 39.0594 36.7334 39.3248 36.5334C39.5902 36.3001 39.8888 36.1001 40.1543 35.8667C40.4529 35.6334 40.7183 35.4667 40.9505 35.3001C41.4814 34.9334 41.9458 34.6667 42.2444 34.5667C42.5762 34.4667 42.9412 34.4001 43.3061 34.4001C43.7374 34.4001 43.9697 34.4334 44.036 34.5334C44.1024 34.6001 44.0029 34.8001 43.7374 35.0667C43.472 35.3667 43.1402 35.7334 42.7753 36.1667C42.4103 36.6001 42.0122 37.0667 41.6141 37.6001C41.2491 38.0334 40.9505 38.4667 40.6851 38.8667C40.4197 39.2667 40.2206 39.6001 40.1211 39.8001C39.9552 40.1667 39.9552 40.4001 40.0879 40.5334C40.2538 40.7001 40.5524 40.6667 41.0169 40.4001C41.4814 40.1667 41.9458 39.8667 42.4103 39.5334C42.8748 39.2001 43.4388 38.8001 44.0692 38.3001C45.0645 37.5334 45.8608 36.8667 46.5243 36.3334C47.1879 35.8001 47.8183 35.2667 48.4818 34.7334C48.6477 34.6001 48.8136 34.5001 48.9795 34.4001C49.1454 34.3334 49.3776 34.2667 49.6762 34.2667C50.0412 34.2667 50.2734 34.3001 50.4061 34.3667C50.5388 34.4334 50.4725 34.6001 50.2734 34.8667C49.9416 35.3001 49.5767 35.8001 49.1454 36.4001C48.7141 36.9667 48.2828 37.5334 47.8846 38.0667C47.5197 38.5334 46.9225 39.3334 46.093 40.4334C45.2636 41.5667 44.036 43.1667 42.5099 45.3001C41.6141 46.5334 40.7515 47.7334 39.922 48.9001C39.0926 50.0667 38.3627 51.1001 37.7323 52.0667C37.1019 53.0001 36.5711 53.8001 36.1066 54.4667C35.6753 55.1334 35.3767 55.5667 35.244 55.8334C35.0781 56.1001 34.9786 56.3001 34.9786 56.4001C34.9786 56.5001 34.9786 56.6001 35.0449 56.6334C35.1776 56.7001 35.3767 56.6001 35.6421 56.3001C35.7416 56.2001 35.9075 56.0001 36.1398 55.7001C36.372 55.4001 36.6043 55.0667 36.8697 54.6667C37.1351 54.2667 37.4337 53.8667 37.7323 53.4001C38.0309 52.9667 38.3295 52.5334 38.6281 52.1334C39.0926 51.4667 39.7229 50.6001 40.486 49.5334C41.2491 48.4667 42.1781 47.2334 43.2398 45.8334C44.0692 44.7667 44.9318 43.7334 45.8276 42.7001C46.7234 41.6667 47.586 40.7334 48.4486 39.8667C48.6145 39.7001 48.8136 39.5001 49.0127 39.3001C49.2449 39.0667 49.4772 38.8667 49.7094 38.6334C49.9416 38.4001 50.1739 38.2001 50.4061 38.0001C50.6384 37.8001 50.8043 37.6334 50.937 37.5001C51.0033 37.4334 51.1029 37.3667 51.2356 37.2667C51.3683 37.1667 51.4678 37.1667 51.5342 37.2001C51.6005 37.2667 51.4346 37.5001 51.0697 37.8667C50.8043 38.1001 50.4725 38.4334 50.0412 38.8334C49.643 39.2334 49.1786 39.6667 48.6809 40.1667C47.8846 40.9667 47.0552 41.9001 46.1262 42.9667C45.2304 44.0334 44.3346 45.1001 43.5384 46.1334C42.5762 47.4334 41.6804 48.6334 40.851 49.7667C40.0215 50.9001 39.2916 51.9334 38.6613 52.8667C37.9977 53.8001 37.4005 54.6667 36.8365 55.4667C36.2725 56.2667 35.7085 56.9001 35.2108 57.3667C35.0117 57.5334 34.8458 57.6667 34.6468 57.7667C34.4477 57.8667 34.2486 57.9001 34.0496 57.9001C33.5187 57.8334 33.2865 57.5667 33.2865 57.0334C33.2865 56.6667 33.4524 56.2001 33.7842 55.6001C34.1159 55.0001 34.5141 54.3001 34.9786 53.5334C35.3435 52.9667 35.6753 52.4001 36.0402 51.8667C36.4052 51.3334 36.7701 50.7667 37.2015 50.1334C37.6328 49.5334 38.0972 48.8334 38.5949 48.1001C39.1258 47.3667 39.7229 46.5001 40.486 45.4667C41.4814 44.1001 42.4767 42.7001 43.472 41.3001C44.5005 39.9001 45.6286 38.3334 46.8561 36.6334L46.7898 36.6667V36.6667Z" fill="currentColor"/>
<path fill-rule="evenodd" clip-rule="evenodd" d="M42.9743 46.9333L42.543 46.8C42.6425 46.6666 51.5341 33.2333 72.3032 23.1L72.3696 23.2666C51.7332 33.7666 43.0738 46.8 42.9743 46.9333V46.9333Z" fill="currentColor"/>
<path fill-rule="evenodd" clip-rule="evenodd" d="M73 22.9667C72.7678 22.9 72.1706 22.8 71.7393 22.8C70.6776 22.8667 64.971 26.0334 64.9047 26.0667L63.0799 25.4L62.5491 25.7334L64.6061 27.4667L73 22.9667V22.9667Z" fill="currentColor"/>
<path fill-rule="evenodd" clip-rule="evenodd" d="M64.1084 26.9333V26.9333L63.5775 27.3L63.9093 27.7333L64.4733 27.4333" fill="currentColor"/>
</svg>
