<svg viewBox="0 0 75 75" fill="none" xmlns="http://www.w3.org/2000/svg">
<path fill-rule="evenodd" clip-rule="evenodd" d="M24.1813 43.2555C23.658 43.2555 23.1347 43.0854 22.7174 42.7446C22.4428 42.5207 15.9997 37.1918 16 31.1535C16 26.6648 19.6701 23.0131 24.1813 23.0131C28.6925 23.0131 32.3625 26.6648 32.3625 31.1535C32.3625 37.1918 25.9193 42.5207 25.6451 42.7446C25.2278 43.0851 24.7045 43.2555 24.1813 43.2555ZM29.8427 31.1535C29.8427 28.0476 27.3028 25.5204 24.1813 25.5204C21.0594 25.5204 18.5199 28.0476 18.5199 31.1538C18.5199 35.5815 23.3083 39.9351 24.1813 40.6917C25.0516 39.9374 29.8427 35.5828 29.8427 31.1535Z" fill="currentColor"/>
<path fill-rule="evenodd" clip-rule="evenodd" d="M24.1812 26.8972C26.5118 26.8972 28.408 28.784 28.408 31.1029C28.408 33.4222 26.5118 35.3089 24.1812 35.3089C21.8507 35.3089 19.9545 33.4222 19.9545 31.1029C19.9545 28.784 21.8507 26.8972 24.1812 26.8972ZM24.1812 29.4045C23.24 29.4045 22.4743 30.1664 22.4743 31.1029C22.4743 32.0394 23.24 32.8013 24.1812 32.8013C25.1225 32.8013 25.8882 32.0394 25.8882 31.1029C25.8882 30.1664 25.1225 29.4045 24.1812 29.4045Z" fill="currentColor"/>
<path fill-rule="evenodd" clip-rule="evenodd" d="M27.4671 46.0063C26.9753 45.5166 26.1775 45.5166 25.6854 46.0063L24.1812 47.5026L22.677 46.0063C22.1853 45.5166 21.3874 45.5166 20.8953 46.0063C20.4032 46.4959 20.4032 47.2895 20.8953 47.7791L22.3995 49.2758L20.8953 50.7721C20.4032 51.2618 20.4032 52.0556 20.8953 52.5453C21.1414 52.7901 21.4635 52.9125 21.786 52.9125C22.1085 52.9125 22.431 52.7901 22.677 52.5453L24.1809 51.0486L25.6851 52.5453C25.9311 52.7901 26.2536 52.9125 26.5761 52.9125C26.8982 52.9125 27.221 52.7901 27.4668 52.5453C27.9589 52.0556 27.9589 51.2618 27.4668 50.7721L25.9629 49.2758L27.4668 47.7791C27.9592 47.2895 27.9592 46.4959 27.4671 46.0063V46.0063Z" fill="currentColor"/>
<path fill-rule="evenodd" clip-rule="evenodd" d="M50.8185 43.2424C50.2952 43.2424 49.7719 43.072 49.3546 42.7316C49.0804 42.5076 42.6372 37.1787 42.6372 31.1405C42.6375 26.6517 46.3076 23 50.8188 23C55.33 23 59.0001 26.6517 59.0001 31.1405C59.0001 37.1787 52.5569 42.5076 52.2823 42.7316C51.8653 43.072 51.3417 43.2424 50.8185 43.2424ZM56.4799 31.1405C56.4799 28.0342 53.9403 25.5073 50.8185 25.5073C47.6969 25.5073 45.1571 28.0342 45.1571 31.1405C45.1571 35.5681 49.9455 39.9217 50.8185 40.6783C51.6895 39.9236 56.4799 35.5691 56.4799 31.1405Z" fill="currentColor"/>
<path fill-rule="evenodd" clip-rule="evenodd" d="M50.8185 26.8838C53.1493 26.8838 55.0456 28.7705 55.0456 31.0898C55.0456 33.4088 53.1493 35.2955 50.8185 35.2955C48.4879 35.2955 46.5917 33.4091 46.5917 31.0898C46.5917 28.7705 48.4879 26.8838 50.8185 26.8838ZM50.8185 29.3914C49.8772 29.3914 49.1115 30.1533 49.1115 31.0898C49.1115 32.0263 49.8772 32.7882 50.8185 32.7882C51.7597 32.7882 52.5254 32.0263 52.5254 31.0898C52.5254 30.1533 51.7597 29.3914 50.8185 29.3914Z" fill="currentColor"/>
<path fill-rule="evenodd" clip-rule="evenodd" d="M54.1043 45.993C53.6125 45.5033 52.8147 45.5033 52.3226 45.993L50.8184 47.4896L49.3146 45.993C48.8225 45.5033 48.0246 45.5033 47.5325 45.993C47.0404 46.4826 47.0404 47.2762 47.5325 47.7658L49.0367 49.2625L47.5325 50.7591C47.0404 51.2484 47.0404 52.0423 47.5325 52.532C47.7786 52.7768 48.1011 52.8992 48.4235 52.8992C48.7457 52.8992 49.0685 52.7768 49.3142 52.532L50.8184 51.0353L52.3226 52.532C52.5686 52.7768 52.8911 52.8992 53.2133 52.8992C53.5358 52.8992 53.8583 52.7768 54.1043 52.532C54.5964 52.0423 54.5964 51.2488 54.1043 50.7591L52.6001 49.2625L54.1043 47.7658C54.5964 47.2765 54.5964 46.4826 54.1043 45.993V45.993Z" fill="currentColor"/>
<path fill-rule="evenodd" clip-rule="evenodd" d="M32.4291 48.9901C32.4216 48.95 32.4108 48.9101 32.3989 48.8706C32.3871 48.8321 32.3727 48.7929 32.3579 48.7554C32.3419 48.7179 32.3242 48.68 32.3048 48.6441C32.2854 48.6082 32.2644 48.5733 32.2418 48.539C32.2192 48.5047 32.1939 48.4711 32.168 48.4404C32.1417 48.4084 32.1142 48.3777 32.0847 48.3484C32.0561 48.319 32.025 48.2916 31.9931 48.2654C31.9613 48.2397 31.9278 48.2155 31.8934 48.193C31.8596 48.1704 31.8235 48.1486 31.7874 48.1293C31.7514 48.1101 31.7133 48.0924 31.6756 48.0774C31.6378 48.0617 31.5991 48.0474 31.5598 48.0356C31.5204 48.0239 31.48 48.0141 31.4403 48.0056C31.4003 47.9974 31.359 47.9916 31.3176 47.9873C31.2356 47.9788 31.1523 47.9788 31.07 47.9873C31.0299 47.9916 30.9886 47.9974 30.9476 48.0056C30.9079 48.0141 30.8675 48.0239 30.8282 48.0356C30.7885 48.0474 30.7501 48.0617 30.712 48.0774C30.6743 48.0924 30.6366 48.1101 30.6005 48.1293C30.5644 48.1486 30.529 48.1704 30.4945 48.193C30.4601 48.2155 30.4266 48.2397 30.3955 48.2654C30.3627 48.2916 30.3325 48.319 30.3029 48.3484C30.2738 48.3777 30.2459 48.4084 30.2199 48.4404C30.1937 48.4711 30.1694 48.5047 30.1461 48.539C30.1242 48.5733 30.1022 48.6082 30.0831 48.6441C30.0638 48.68 30.0461 48.7179 30.03 48.7554C30.0149 48.7929 30.0005 48.8321 29.989 48.8706C29.9772 48.9101 29.967 48.95 29.9588 48.9901C29.9503 49.0303 29.9444 49.0714 29.9401 49.1115C29.9362 49.1523 29.9342 49.1941 29.9342 49.2353C29.9342 49.2761 29.9362 49.3169 29.9401 49.358C29.9444 49.3988 29.9503 49.4399 29.9588 49.4801C29.967 49.5202 29.9772 49.5604 29.989 49.5986C30.0008 49.6381 30.0149 49.6763 30.03 49.7141C30.0461 49.7523 30.0638 49.7892 30.0831 49.8251C30.1022 49.861 30.1242 49.8969 30.1461 49.9305C30.1694 49.9648 30.1937 49.9981 30.2199 50.0298C30.2459 50.0618 30.2738 50.0928 30.3029 50.1212C30.3325 50.1502 30.3627 50.178 30.3955 50.2038C30.4266 50.2296 30.4601 50.2547 30.4945 50.2772C30.529 50.3001 30.5644 50.321 30.6005 50.3399C30.6366 50.3591 30.6743 50.3768 30.712 50.3928C30.7501 50.4078 30.7885 50.4218 30.8282 50.4336C30.8675 50.4463 30.9079 50.4561 30.9476 50.4636C30.9886 50.4721 31.0296 50.478 31.07 50.4822C31.1113 50.4861 31.1533 50.4887 31.1943 50.4887C31.2356 50.4887 31.2766 50.4861 31.3176 50.4822C31.359 50.478 31.4 50.4721 31.4403 50.4636C31.48 50.4561 31.5204 50.4463 31.5598 50.4336C31.5991 50.4218 31.6378 50.4078 31.6756 50.3928C31.7133 50.3768 31.7514 50.3591 31.7874 50.3399C31.8235 50.321 31.8596 50.3001 31.8934 50.2772C31.9278 50.2547 31.9613 50.2296 31.9931 50.2038C32.025 50.178 32.0561 50.1502 32.0847 50.1212C32.1142 50.0928 32.1417 50.0618 32.168 50.0298C32.1939 49.9981 32.2192 49.9648 32.2418 49.9305C32.2644 49.8969 32.2854 49.861 32.3048 49.8251C32.3242 49.7892 32.3419 49.7523 32.3579 49.7141C32.373 49.6763 32.3871 49.6381 32.3989 49.5986C32.4108 49.5604 32.4216 49.5202 32.4291 49.4801C32.4377 49.4399 32.4432 49.3988 32.4475 49.358C32.4518 49.3169 32.4544 49.2761 32.4544 49.2353C32.4544 49.1941 32.4518 49.1523 32.4475 49.1115C32.4432 49.0714 32.4373 49.0303 32.4291 48.9901Z" fill="currentColor"/>
<path fill-rule="evenodd" clip-rule="evenodd" d="M36.545 48.9901C36.5365 48.95 36.5266 48.9101 36.5148 48.8706C36.503 48.8315 36.4886 48.7929 36.4738 48.7554C36.4577 48.7179 36.44 48.68 36.4207 48.6441C36.4013 48.6082 36.3803 48.5733 36.3577 48.539C36.3351 48.5047 36.3098 48.4711 36.2839 48.4404C36.2576 48.4078 36.2301 48.3777 36.2005 48.3484C36.172 48.319 36.1408 48.2916 36.109 48.2654C36.0772 48.2397 36.0437 48.2155 36.0093 48.193C35.9755 48.1704 35.9394 48.1486 35.9033 48.1293C35.8672 48.1101 35.8292 48.0924 35.7915 48.0774C35.7537 48.0617 35.7153 48.0474 35.6756 48.0356C35.6363 48.0239 35.5959 48.0141 35.5562 48.0056C35.5162 47.9974 35.4749 47.9916 35.4339 47.9873C35.3515 47.9788 35.2682 47.9788 35.1858 47.9873C35.1448 47.9916 35.1038 47.9974 35.0635 48.0056C35.0238 48.0141 34.9834 48.0239 34.9441 48.0356C34.9044 48.0474 34.866 48.0617 34.8279 48.0774C34.7902 48.0924 34.7525 48.1101 34.7164 48.1293C34.6803 48.1486 34.6442 48.1704 34.6104 48.193C34.576 48.2155 34.5425 48.2397 34.5107 48.2654C34.4789 48.2916 34.4477 48.319 34.4192 48.3484C34.3896 48.3777 34.3617 48.4078 34.3358 48.4404C34.3099 48.4711 34.2853 48.5047 34.262 48.539C34.2394 48.5733 34.2184 48.6082 34.199 48.6441C34.1797 48.68 34.162 48.7179 34.1459 48.7554C34.1308 48.7929 34.1167 48.8321 34.1049 48.8706C34.0931 48.9101 34.0822 48.95 34.0747 48.9901C34.0662 49.0303 34.0603 49.0714 34.0563 49.1115C34.0521 49.1523 34.0504 49.1941 34.0504 49.2353C34.0504 49.2761 34.0521 49.3169 34.0563 49.358C34.0603 49.3988 34.0662 49.4399 34.0747 49.4801C34.0822 49.5202 34.0931 49.5604 34.1049 49.5986C34.1167 49.6381 34.1311 49.6763 34.1459 49.7141C34.162 49.7523 34.1797 49.7892 34.199 49.8251C34.2184 49.861 34.2394 49.8969 34.262 49.9305C34.2853 49.9648 34.3099 49.9981 34.3358 50.0298C34.3621 50.0618 34.3896 50.0928 34.4192 50.1212C34.4477 50.1502 34.4789 50.178 34.5107 50.2038C34.5425 50.2296 34.576 50.2547 34.6104 50.2772C34.6442 50.3001 34.6803 50.321 34.7164 50.3399C34.7525 50.3591 34.7902 50.3768 34.8279 50.3928C34.866 50.4084 34.9044 50.4218 34.9441 50.4336C34.9834 50.4463 35.0238 50.4561 35.0635 50.4636C35.1045 50.4721 35.1448 50.478 35.1858 50.4822C35.2272 50.4861 35.2692 50.4887 35.3102 50.4887C35.3505 50.4887 35.3925 50.4861 35.4339 50.4822C35.4749 50.478 35.5159 50.4721 35.5562 50.4636C35.5959 50.4561 35.6363 50.4463 35.6756 50.4336C35.7153 50.4218 35.7537 50.4084 35.7915 50.3928C35.8292 50.3768 35.8672 50.3591 35.9033 50.3399C35.9394 50.321 35.9755 50.3001 36.0093 50.2772C36.0437 50.2547 36.0772 50.2296 36.109 50.2038C36.1408 50.178 36.172 50.1502 36.2005 50.1212C36.2301 50.0928 36.258 50.0618 36.2839 50.0298C36.3098 49.9981 36.3351 49.9648 36.3577 49.9305C36.3803 49.8969 36.4013 49.861 36.4207 49.8251C36.44 49.7892 36.4577 49.7523 36.4738 49.7141C36.4889 49.6763 36.503 49.6381 36.5148 49.5986C36.5266 49.5604 36.5368 49.5202 36.545 49.4801C36.5532 49.4399 36.5591 49.3988 36.5634 49.358C36.5676 49.3169 36.5693 49.2761 36.5693 49.2353C36.5693 49.1941 36.5676 49.1523 36.5634 49.1115C36.5591 49.0714 36.5532 49.0303 36.545 48.9901Z" fill="currentColor"/>
<path fill-rule="evenodd" clip-rule="evenodd" d="M40.6609 48.9901C40.6533 48.95 40.6425 48.9101 40.6307 48.8706C40.6189 48.8321 40.6044 48.7929 40.5897 48.7554C40.5736 48.7179 40.5559 48.68 40.5365 48.6441C40.5172 48.6082 40.4962 48.5733 40.4735 48.539C40.4509 48.5047 40.4256 48.4711 40.3997 48.4404C40.3735 48.4078 40.3459 48.3777 40.3164 48.3484C40.2878 48.319 40.2567 48.2916 40.2249 48.2654C40.193 48.2397 40.1596 48.2155 40.1251 48.193C40.0913 48.1704 40.0553 48.1486 40.0192 48.1293C39.9831 48.1101 39.945 48.0924 39.9076 48.0774C39.8696 48.0617 39.8312 48.0474 39.7915 48.0356C39.7521 48.0239 39.7118 48.0141 39.6721 48.0056C39.632 47.9974 39.5907 47.9916 39.5497 47.9873C39.4674 47.9788 39.384 47.9788 39.3017 47.9873C39.2607 47.9916 39.2197 47.9974 39.1793 48.0056C39.1396 48.0141 39.0993 48.0239 39.0599 48.0356C39.0202 48.0474 38.9818 48.0617 38.9438 48.0774C38.9064 48.0924 38.8683 48.1101 38.8322 48.1293C38.7961 48.1486 38.7607 48.1704 38.7263 48.193C38.6918 48.2155 38.6584 48.2397 38.6265 48.2654C38.5947 48.2916 38.5642 48.319 38.535 48.3484C38.5055 48.3777 38.4776 48.4078 38.4517 48.4404C38.4258 48.4711 38.4012 48.5047 38.3779 48.539C38.3552 48.5733 38.3342 48.6082 38.3149 48.6441C38.2955 48.68 38.2778 48.7179 38.2617 48.7554C38.2466 48.7929 38.2325 48.8321 38.2207 48.8706C38.2089 48.9101 38.1987 48.95 38.1905 48.9901C38.1823 49.0303 38.1764 49.0714 38.1722 49.1115C38.1679 49.1523 38.1663 49.1941 38.1663 49.2353C38.1663 49.2761 38.1679 49.3169 38.1722 49.358C38.1764 49.3988 38.182 49.4399 38.1905 49.4801C38.1991 49.5202 38.2089 49.5594 38.2207 49.5986C38.2325 49.6381 38.247 49.6763 38.2617 49.7141C38.2778 49.7517 38.2955 49.7892 38.3149 49.8251C38.3342 49.861 38.3552 49.8969 38.3779 49.9305C38.4012 49.9648 38.4258 49.9981 38.4517 50.0298C38.4779 50.0618 38.5055 50.0928 38.535 50.1212C38.7692 50.3549 39.0944 50.4887 39.4254 50.4887C39.4664 50.4887 39.5084 50.4861 39.5497 50.4822C39.5907 50.478 39.6317 50.4721 39.6721 50.4636C39.7118 50.4561 39.7521 50.4463 39.7915 50.4336C39.8312 50.4218 39.8696 50.4078 39.9076 50.3928C39.945 50.3768 39.9831 50.3591 40.0192 50.3399C40.0553 50.321 40.0913 50.3001 40.1251 50.2772C40.1596 50.2547 40.193 50.2296 40.2249 50.2038C40.2567 50.178 40.2878 50.1502 40.3164 50.1212C40.3459 50.0928 40.3738 50.0618 40.3997 50.0298C40.4256 49.9981 40.4509 49.9648 40.4735 49.9305C40.4962 49.8969 40.5172 49.861 40.5365 49.8251C40.5559 49.7892 40.5736 49.7517 40.5897 49.7141C40.6048 49.6763 40.6189 49.6381 40.6307 49.5986C40.6425 49.5594 40.6533 49.5202 40.6609 49.4801C40.6694 49.4399 40.675 49.3988 40.6792 49.358C40.6835 49.3169 40.6861 49.2761 40.6861 49.2353C40.6861 49.1941 40.6835 49.1523 40.6792 49.1115C40.675 49.0714 40.6691 49.0303 40.6609 48.9901V48.9901Z" fill="currentColor"/>
<path fill-rule="evenodd" clip-rule="evenodd" d="M44.7768 48.9901C44.7693 48.95 44.7591 48.9101 44.7467 48.8706C44.7348 48.8321 44.7204 48.7929 44.7056 48.7554C44.6896 48.7179 44.6719 48.68 44.6525 48.6441C44.6331 48.6082 44.6121 48.5733 44.5895 48.539C44.5669 48.5047 44.5416 48.4711 44.5157 48.4404C44.4894 48.4084 44.4619 48.3777 44.4324 48.3484C44.4038 48.319 44.3727 48.2916 44.3408 48.2654C44.309 48.2397 44.2756 48.2155 44.2411 48.193C44.2073 48.1704 44.1712 48.1486 44.1351 48.1293C44.0991 48.1101 44.0613 48.0924 44.0236 48.0774C43.9855 48.0617 43.9472 48.0474 43.9075 48.0356C43.8681 48.0239 43.8277 48.0141 43.788 48.0056C43.748 47.9974 43.7067 47.9916 43.6657 47.9873C43.5833 47.9788 43.5 47.9788 43.418 47.9873C43.3767 47.9916 43.3363 47.9974 43.2953 48.0056C43.2556 48.0141 43.2152 48.0239 43.1759 48.0356C43.1365 48.0474 43.0978 48.0617 43.0601 48.0774C43.0223 48.0924 42.9843 48.1101 42.9482 48.1293C42.9121 48.1486 42.876 48.1704 42.8422 48.193C42.8078 48.2155 42.7743 48.2397 42.7425 48.2654C42.7107 48.2916 42.6795 48.319 42.651 48.3484C42.6215 48.3777 42.5936 48.4084 42.5676 48.4404C42.5417 48.4711 42.5171 48.5047 42.4938 48.539C42.4712 48.5733 42.4502 48.6082 42.4308 48.6441C42.4115 48.68 42.3938 48.7179 42.3777 48.7554C42.3626 48.7929 42.3485 48.8321 42.3367 48.8706C42.3249 48.9101 42.3141 48.95 42.3065 48.9901C42.298 49.0303 42.2924 49.0714 42.2881 49.1115C42.2839 49.1523 42.2812 49.1941 42.2812 49.2353C42.2812 49.2761 42.2839 49.3169 42.2881 49.358C42.2924 49.3988 42.298 49.4399 42.3065 49.4801C42.3141 49.5202 42.3249 49.5594 42.3367 49.5986C42.3485 49.6381 42.3629 49.6763 42.3777 49.7141C42.3938 49.7517 42.4115 49.7892 42.4308 49.8251C42.4502 49.861 42.4712 49.8969 42.4938 49.9305C42.5171 49.9648 42.5417 49.9981 42.5676 50.0298C42.5939 50.0618 42.6215 50.0928 42.651 50.1212C42.6795 50.1502 42.7107 50.178 42.7425 50.2047C42.7743 50.2296 42.8078 50.2547 42.8422 50.2772C42.876 50.3001 42.9121 50.321 42.9482 50.3399C42.9843 50.3591 43.0223 50.3768 43.0601 50.3928C43.0978 50.4084 43.1365 50.4218 43.1759 50.4336C43.2152 50.4463 43.2556 50.4561 43.2953 50.4636C43.3363 50.4721 43.3767 50.4786 43.418 50.4822C43.459 50.4861 43.501 50.4887 43.542 50.4887C43.5824 50.4887 43.6243 50.4861 43.6657 50.4822C43.7067 50.4786 43.7477 50.4721 43.788 50.4636C43.8277 50.4561 43.8681 50.4463 43.9075 50.4336C43.9472 50.4218 43.9855 50.4084 44.0236 50.3928C44.0613 50.3768 44.0991 50.3591 44.1351 50.3399C44.1712 50.321 44.2073 50.3001 44.2411 50.2772C44.2756 50.2547 44.309 50.2296 44.3408 50.2047C44.3727 50.178 44.4038 50.1502 44.4324 50.1212C44.4619 50.0928 44.4898 50.0618 44.5157 50.0298C44.5416 49.9981 44.5669 49.9648 44.5895 49.9305C44.6121 49.8969 44.6331 49.861 44.6525 49.8251C44.6719 49.7892 44.6896 49.7517 44.7056 49.7141C44.7207 49.6763 44.7348 49.6381 44.7467 49.5986C44.7591 49.5594 44.7693 49.5202 44.7768 49.4801C44.7854 49.4399 44.7913 49.3988 44.7952 49.358C44.7995 49.3169 44.8021 49.2761 44.8021 49.2353C44.8021 49.1941 44.7995 49.1523 44.7952 49.1115C44.7913 49.0714 44.785 49.0303 44.7768 48.9901Z" fill="currentColor"/>
</svg>
